<?xml version="1.0" encoding="UTF-8" standalone="no"?>
<svg width="91px" height="91px" viewBox="0 0 91 91" version="1.1" xmlns="http://www.w3.org/2000/svg" xmlns:xlink="http://www.w3.org/1999/xlink">
    <!-- Generator: Sketch 40.1 (33804) - http://www.bohemiancoding.com/sketch -->
    <title>Shape</title>
    <desc>Created with Sketch.</desc>
    <defs></defs>
    <g id="Page-1" stroke="none" stroke-width="1" fill="none" fill-rule="evenodd">
        <g id="instagramsocial" fill="#D8D7D7">
            <g id="Group">
                <g id="Shape">
                    <path d="M73.1,0.3 L18.7,0.3 C8.8,0.3 0.9,8.2 0.9,18 L0.9,72.4 C0.9,82.2 8.9,90.2 18.7,90.2 L73.1,90.2 C82.9,90.2 90.9,82.2 90.9,72.4 L90.9,18 C90.9,8.2 82.9,0.3 73.1,0.3 L73.1,0.3 Z M18.7,3.2 L73.1,3.2 C81.3,3.2 88,9.9 88,18 L88,30.8 L62.3,30.8 L62.3,30.8 C57.8,26.5 51.7,24 45.1,24 C38.5,24 32.4,26.6 27.9,30.8 L3.8,30.8 L3.8,18 C3.8,9.8 10.4,3.2 18.7,3.2 L18.7,3.2 Z M29.3,33.4 C29.4,33.3 29.5,33.2 29.6,33.1 C33.6,29.2 39.1,26.8 45.1,26.8 C57.4,26.8 67.3,36.9 67.3,49.2 C67.3,61.5 57.3,71.4 45.1,71.4 C32.8,71.4 22.7,61.4 22.7,49.2 C22.7,43.1 25.3,37.5 29.3,33.4 L29.3,33.4 Z M73.1,87.3 L18.7,87.3 C10.5,87.3 3.8,80.6 3.8,72.4 L3.8,33.7 L25.3,33.7 C21.9,38 19.9,43.4 19.9,49.3 C19.9,63.2 31.2,74.5 45.2,74.5 C59.1,74.5 70.3,63.2 70.3,49.3 C70.3,43.4 68.3,38 64.9,33.7 L88,33.7 L88,72.5 C87.9,80.7 81.3,87.3 73.1,87.3 L73.1,87.3 Z"></path>
                </g>
            </g>
        </g>
    </g>
</svg>