<?xml version="1.0" encoding="UTF-8" standalone="no"?>
<svg width="65px" height="58px" viewBox="0 0 65 58" version="1.1" xmlns="http://www.w3.org/2000/svg" xmlns:xlink="http://www.w3.org/1999/xlink">
    <!-- Generator: Sketch 40.1 (33804) - http://www.bohemiancoding.com/sketch -->
    <title>Shape</title>
    <desc>Created with Sketch.</desc>
    <defs></defs>
    <g id="Page-1" stroke="none" stroke-width="1" fill="none" fill-rule="evenodd">
        <g id="twittersocial" fill="#D9D8D8">
            <g id="Group">
                <path d="M45.879,3.71 C49.555,3.71 52.869,5.259 55.2,7.742 C57.132,7.792 57.336,7.81 58.27,7.81 C58.832,7.81 59.658,7.803 61.281,7.792 C60.251,11.41 59.976,12.153 58.655,16.307 C58.679,16.855 58.692,17.404 58.692,17.959 C58.692,34.831 45.848,54.288 22.362,54.288 C11.116,54.288 4.804,48.729 5.834,48.729 C11.816,48.729 17.324,46.69 21.694,43.264 C16.106,43.16 -4.235,30.239 7.121,6.047 C13.42,13.771 22.829,18.854 33.442,19.386 C33.222,18.452 33.11,17.479 33.11,16.476 C33.11,9.426 38.827,3.71 45.879,3.71 L45.879,3.71 Z M61.281,7.793 L61.286,7.793 L61.281,7.793 Z M45.879,0.71 C37.333,0.71 30.354,7.543 30.117,16.031 C22.058,14.764 14.663,10.549 9.447,4.152 C8.874,3.449 8.017,3.048 7.123,3.048 C7.001,3.048 6.878,3.055 6.756,3.07 C5.732,3.196 4.845,3.839 4.407,4.773 C-1.962,18.34 1.104,28.262 4.798,34.196 C7.465,38.482 11.206,41.845 14.762,43.921 C11.973,45.114 8.959,45.731 5.836,45.731 C4.122,45.731 2.727,47.113 2.727,48.811 C2.727,51.764 7.371,53.854 8.896,54.541 C11.681,55.795 16.278,57.289 22.364,57.289 C37.152,57.289 46.418,50.299 51.587,44.435 C58.011,37.148 61.694,27.498 61.694,17.96 C61.694,17.55 61.687,17.135 61.674,16.718 C61.894,16.03 62.082,15.442 62.25,14.917 C62.993,12.597 63.339,11.52 64.131,8.742 C64.231,8.444 64.285,8.124 64.285,7.792 C64.285,6.135 62.944,4.792 61.288,4.792 L61.282,4.792 L61.262,4.792 L60.295,4.8 C59.295,4.807 58.703,4.811 58.271,4.811 C57.669,4.811 57.387,4.803 56.695,4.783 L56.456,4.776 C53.572,2.179 49.786,0.71 45.879,0.71 L45.879,0.71 L45.879,0.71 Z" id="Shape"></path>
            </g>
        </g>
    </g>
</svg>