<svg width="200" height="200" viewBox="0 0 200 200" version="1.1" xmlns="http://www.w3.org/2000/svg" xmlns:xlink="http://www.w3.org/1999/xlink" xmlns:figma="http://www.figma.com/figma/ns">
<title>Group</title>
<desc>Created using Figma</desc>
<g id="Canvas" transform="translate(405 -6)" figma:type="canvas">
<g id="Group" style="mix-blend-mode:normal;" figma:type="frame">
<g id="Ellipse" style="mix-blend-mode:normal;" figma:type="ellipse">
<use xlink:href="#path0_fill" transform="translate(-375 36)" fill="#B21C0E" style="mix-blend-mode:normal;"/>
</g>
<g id="Ellipse 2" style="mix-blend-mode:normal;" figma:type="ellipse">
<use xlink:href="#path1_fill" transform="translate(-405 6)" fill="#B21C0E" fill-opacity="0.7" style="mix-blend-mode:normal;"/>
</g>
<g id="population" style="mix-blend-mode:normal;" figma:type="text">
<use xlink:href="#path2_fill" transform="translate(-343.5 118)" fill="#FFFFFF" style="mix-blend-mode:normal;"/>
</g>
<g id="53m" style="mix-blend-mode:normal;" figma:type="text">
<use xlink:href="#path3_fill" transform="translate(-348 53)" fill="#FFFFFF" style="mix-blend-mode:normal;"/>
</g>
</g>
</g>
<defs>
<path id="path0_fill" d="M 140 70C 140 108.66 108.66 140 70 140C 31.3401 140 0 108.66 0 70C 0 31.3401 31.3401 0 70 0C 108.66 0 140 31.3401 140 70Z"/>
<path id="path1_fill" d="M 200 100C 200 155.228 155.228 200 100 200C 44.7715 200 0 155.228 0 100C 0 44.7715 44.7715 0 100 0C 155.228 0 200 44.7715 200 100Z"/>
<path id="path2_fill" d="M 7.55615 11.3037L 7.77588 11.2793C 7.89795 11.2793 7.99561 11.3851 8.06885 11.5967C 8.14209 11.8083 8.17871 11.9507 8.17871 12.0239C 8.17871 12.0972 8.09733 12.2355 7.93457 12.439L 4.45557 17.7368C 5.67627 16.5161 6.91732 15.625 8.17871 15.0635C 8.66699 14.8519 9.10645 14.7461 9.49707 14.7461C 9.89583 14.7461 10.2132 14.8763 10.4492 15.1367C 10.6934 15.389 10.8154 15.7064 10.8154 16.0889C 10.8154 16.4714 10.7096 16.9434 10.498 17.5049C 10.2865 18.0664 9.99756 18.6646 9.63135 19.2993C 9.27327 19.9341 8.83382 20.5729 8.31299 21.2158C 7.80029 21.8587 7.25911 22.4406 6.68945 22.9614C 6.12793 23.4823 5.51351 23.9054 4.84619 24.231C 4.17887 24.5565 3.59294 24.7192 3.08838 24.7192C 2.07113 24.7192 1.5625 24.2513 1.5625 23.3154C 0.610352 24.7721 -0.488281 26.4974 -1.7334 28.4912C -2.97852 30.485 -3.64583 31.5389 -3.73535 31.6528C -3.82487 31.7668 -3.89811 31.8237 -3.95508 31.8237C -4.02018 31.8237 -4.11377 31.7871 -4.23584 31.7139C -4.36605 31.6406 -4.50033 31.5186 -4.63867 31.3477C -4.77702 31.1768 -4.84619 30.9285 -4.84619 30.603C -4.85433 30.2775 -4.76074 29.9479 -4.56543 29.6143C -3.4668 27.7832 -1.35091 24.3408 1.78223 19.2871C 4.9235 14.2253 6.62435 11.6089 6.88477 11.438C 7.03125 11.3403 7.17773 11.2915 7.32422 11.2915L 7.55615 11.3037ZM 8.63037 16.9189C 8.63037 16.748 8.54899 16.6626 8.38623 16.6626C 7.94678 16.6626 7.01497 17.3381 5.59082 18.689C 4.1748 20.0399 3.04769 21.2728 2.20947 22.3877C 2.42106 22.6481 2.73438 22.7783 3.14941 22.7783C 3.56445 22.7783 4.10156 22.5545 4.76074 22.1069C 5.41992 21.6593 6.03027 21.1304 6.5918 20.52C 7.15332 19.9015 7.63346 19.2546 8.03223 18.5791C 8.43099 17.9036 8.63037 17.3503 8.63037 16.9189ZM 18.8354 14.9902C 19.0796 14.9902 19.3278 15.1001 19.5801 15.3198C 19.8405 15.5396 19.9707 15.8773 19.9707 16.333C 19.9707 16.7806 19.812 17.3665 19.4946 18.0908C 19.1772 18.807 18.7419 19.5394 18.1885 20.2881C 17.6351 21.0286 17.0247 21.7285 16.3574 22.3877C 15.6982 23.0387 14.9821 23.5758 14.209 23.999C 13.444 24.4141 12.7482 24.6216 12.1216 24.6216C 11.495 24.6216 10.9904 24.4263 10.6079 24.0356C 10.2336 23.6369 10.0464 23.0876 10.0464 22.3877C 10.0464 21.6797 10.2173 20.8984 10.5591 20.0439C 10.909 19.1895 11.3566 18.4367 11.9019 17.7856C 12.4471 17.1265 13.0371 16.5365 13.6719 16.0156C 14.9984 14.9495 16.1621 14.4165 17.1631 14.4165C 17.6107 14.4165 17.9484 14.5264 18.1763 14.7461C 18.2576 14.8193 18.2983 14.8844 18.2983 14.9414L 18.2983 15.0146C 18.4123 14.9984 18.5913 14.9902 18.8354 14.9902ZM 17.6025 16.6138L 17.5171 16.6138C 17.2323 16.6138 17.0898 16.4062 17.0898 15.9912C 16.4958 16.1865 15.8732 16.5283 15.2222 17.0166C 14.5711 17.5049 13.9893 18.0827 13.4766 18.75C 12.4349 20.0846 11.9059 21.2118 11.8896 22.1313C 11.8896 22.5871 12.0565 22.8149 12.3901 22.8149C 12.7238 22.8149 13.2202 22.5952 13.8794 22.1558C 14.5386 21.7163 15.1896 21.0897 15.8325 20.2759C 16.4836 19.4621 16.9678 18.7581 17.2852 18.1641C 17.6107 17.5618 17.7734 17.1549 17.7734 16.9434C 17.7734 16.7236 17.7165 16.6138 17.6025 16.6138ZM 26.5015 11.3037L 26.7212 11.2793C 26.8433 11.2793 26.9409 11.3851 27.0142 11.5967C 27.0874 11.8083 27.124 11.9507 27.124 12.0239C 27.124 12.0972 27.0426 12.2355 26.8799 12.439L 23.4009 17.7368C 24.6216 16.5161 25.8626 15.625 27.124 15.0635C 27.6123 14.8519 28.0518 14.7461 28.4424 14.7461C 28.8411 14.7461 29.1585 14.8763 29.3945 15.1367C 29.6387 15.389 29.7607 15.7064 29.7607 16.0889C 29.7607 16.4714 29.6549 16.9434 29.4434 17.5049C 29.2318 18.0664 28.9429 18.6646 28.5767 19.2993C 28.2186 19.9341 27.7791 20.5729 27.2583 21.2158C 26.7456 21.8587 26.2044 22.4406 25.6348 22.9614C 25.0732 23.4823 24.4588 23.9054 23.7915 24.231C 23.1242 24.5565 22.5382 24.7192 22.0337 24.7192C 21.0164 24.7192 20.5078 24.2513 20.5078 23.3154C 19.5557 24.7721 18.457 26.4974 17.2119 28.4912C 15.9668 30.485 15.2995 31.5389 15.21 31.6528C 15.1204 31.7668 15.0472 31.8237 14.9902 31.8237C 14.9251 31.8237 14.8315 31.7871 14.7095 31.7139C 14.5793 31.6406 14.445 31.5186 14.3066 31.3477C 14.1683 31.1768 14.0991 30.9285 14.0991 30.603C 14.091 30.2775 14.1846 29.9479 14.3799 29.6143C 15.4785 27.7832 17.5944 24.3408 20.7275 19.2871C 23.8688 14.2253 25.5697 11.6089 25.8301 11.438C 25.9766 11.3403 26.123 11.2915 26.2695 11.2915L 26.5015 11.3037ZM 27.5757 16.9189C 27.5757 16.748 27.4943 16.6626 27.3315 16.6626C 26.8921 16.6626 25.9603 17.3381 24.5361 18.689C 23.1201 20.0399 21.993 21.2728 21.1548 22.3877C 21.3664 22.6481 21.6797 22.7783 22.0947 22.7783C 22.5098 22.7783 23.0469 22.5545 23.7061 22.1069C 24.3652 21.6593 24.9756 21.1304 25.5371 20.52C 26.0986 19.9015 26.5788 19.2546 26.9775 18.5791C 27.3763 17.9036 27.5757 17.3503 27.5757 16.9189ZM 39.8315 20.459C 39.9862 20.459 40.0798 20.577 40.1123 20.813C 40.1449 21.049 40.1611 21.2931 40.1611 21.5454C 40.1611 21.7977 40.1367 21.9727 40.0879 22.0703C 39.8519 22.526 39.3351 23.0835 38.5376 23.7427C 37.7401 24.3937 36.9832 24.7192 36.2671 24.7192C 35.8276 24.7192 35.4207 24.585 35.0464 24.3164C 34.672 24.056 34.4849 23.5962 34.4849 22.937C 34.4849 22.2778 34.6598 21.6309 35.0098 20.9961C 32.9915 23.527 31.4087 24.7925 30.2612 24.7925C 29.8055 24.7925 29.4352 24.6297 29.1504 24.3042C 28.8737 23.9787 28.7354 23.645 28.7354 23.3032C 28.7354 22.9533 28.7842 22.5952 28.8818 22.229C 28.9795 21.8547 29.0812 21.521 29.187 21.228C 29.3009 20.9351 29.4637 20.5729 29.6753 20.1416C 29.895 19.7103 30.0578 19.397 30.1636 19.2017C 30.2694 19.0063 30.4362 18.7134 30.6641 18.3228C 30.9001 17.924 31.2052 17.391 31.5796 16.7236C 31.9621 16.0563 32.2754 15.564 32.5195 15.2466C 32.7718 14.9211 33.016 14.7583 33.252 14.7583C 33.488 14.7502 33.6955 14.8438 33.8745 15.0391C 34.0535 15.2344 34.1431 15.3931 34.1431 15.5151C 34.1431 15.6372 33.8704 16.1865 33.3252 17.1631C 31.7139 20.0765 30.9082 21.7733 30.9082 22.2534C 30.9082 22.3755 30.953 22.4365 31.0425 22.4365C 31.4331 22.4365 32.4056 21.5902 33.96 19.8975C 35.5143 18.2048 36.4136 17.1224 36.6577 16.6504C 36.9019 16.1702 37.1379 15.7674 37.3657 15.4419C 37.6017 15.1164 37.7767 14.917 37.8906 14.8438C 38.2406 14.6159 38.6922 14.4938 39.2456 14.4775C 39.3351 14.4775 39.4043 14.4816 39.4531 14.4897C 39.502 14.4979 39.5589 14.5671 39.624 14.6973C 39.6891 14.8275 39.7217 14.9292 39.7217 15.0024C 39.6484 15.2303 39.3229 15.8366 38.7451 16.8213C 38.1755 17.806 37.8581 18.3634 37.793 18.4937C 36.8327 20.4793 36.3525 21.7733 36.3525 22.3755C 36.3525 22.7173 36.4827 22.8882 36.7432 22.8882C 37.2152 22.8231 37.7848 22.4447 38.4521 21.7529C 38.6963 21.5007 38.9364 21.2443 39.1724 20.9839C 39.4165 20.7235 39.5671 20.5729 39.624 20.5322C 39.681 20.4834 39.7502 20.459 39.8315 20.459ZM 49.4995 5.96924C 49.8901 5.96924 50.2319 6.08724 50.5249 6.32324C 50.826 6.55111 50.9766 6.8929 50.9766 7.34863C 50.9766 7.80436 50.7243 8.52051 50.2197 9.49707C 49.7152 10.4655 49.1089 11.4583 48.4009 12.4756C 47.6929 13.4847 46.8913 14.5589 45.9961 15.6982C 44.5801 17.5049 43.221 19.1284 41.9189 20.5688C 41.9108 20.6665 41.8742 20.8496 41.8091 21.1182C 41.7521 21.3786 41.7236 21.6431 41.7236 21.9116C 41.7236 22.1802 41.8457 22.4243 42.0898 22.644C 42.3421 22.8556 42.6514 22.9614 43.0176 22.9614C 43.3838 22.9614 43.7744 22.8312 44.1895 22.5708C 44.6126 22.3104 44.9788 22.0215 45.2881 21.7041C 46.1019 20.8659 46.6064 20.4468 46.8018 20.4468C 46.9971 20.4468 47.0947 20.7438 47.0947 21.3379L 47.0947 21.582C 47.0947 21.8994 47.0378 22.1313 46.9238 22.2778C 46.2402 23.116 45.4712 23.7427 44.6167 24.1577C 43.7622 24.5646 42.9525 24.7681 42.1875 24.7681C 41.4225 24.7681 40.8407 24.5361 40.4419 24.0723C 40.0431 23.6003 39.8438 22.9574 39.8438 22.1436C 39.8438 20.5566 40.2669 18.693 41.1133 16.5527C 41.9678 14.4043 42.9281 12.5773 43.9941 11.0718C 46.3949 7.67009 48.23 5.96924 49.4995 5.96924ZM 48.9502 7.99561C 48.9502 7.87354 48.9095 7.8125 48.8281 7.8125C 48.5433 7.8125 47.7946 8.6263 46.582 10.2539C 45.3695 11.8815 44.4906 13.1795 43.9453 14.1479C 43.4082 15.1164 42.8996 16.333 42.4194 17.7979C 43.3797 16.6585 44.7062 14.8844 46.3989 12.4756C 48.0998 10.0586 48.9502 8.56527 48.9502 7.99561ZM 55.1392 15.0146C 55.7576 15.0146 56.0669 15.2262 56.0669 15.6494C 56.0669 15.8773 56.014 16.0441 55.9082 16.1499C 55.8024 16.2557 55.5745 16.6097 55.2246 17.2119C 54.8828 17.806 54.5003 18.571 54.0771 19.5068C 53.6621 20.4346 53.3936 21.228 53.2715 21.8872C 53.2471 21.9686 53.2349 22.0825 53.2349 22.229C 53.2349 22.6766 53.3569 22.9004 53.6011 22.9004C 53.8452 22.9004 54.1341 22.7865 54.4678 22.5586C 54.8014 22.3226 55.0985 22.0744 55.3589 21.814C 55.6193 21.5454 55.8716 21.2728 56.1157 20.9961C 56.368 20.7194 56.5186 20.5607 56.5674 20.52C 56.6162 20.4793 56.6895 20.459 56.7871 20.459C 56.9417 20.459 57.0353 20.577 57.0679 20.813C 57.1004 21.049 57.1167 21.2931 57.1167 21.5454C 57.1167 21.7977 57.0923 21.9727 57.0435 22.0703C 56.8075 22.5342 56.2866 23.0916 55.481 23.7427C 54.6834 24.3937 53.9551 24.7192 53.2959 24.7192C 52.6449 24.7192 52.1647 24.5199 51.8555 24.1211C 51.5462 23.7223 51.3916 23.2829 51.3916 22.8027C 51.3916 22.3145 51.473 21.8872 51.6357 21.521C 50.9603 22.3999 50.1831 23.1445 49.3042 23.7549C 48.4334 24.3652 47.7214 24.6704 47.168 24.6704C 46.6146 24.6704 46.1629 24.5036 45.813 24.1699C 45.3654 23.7549 45.1416 23.1812 45.1416 22.4487C 45.1416 21.7082 45.3044 20.9676 45.6299 20.2271C 45.9635 19.4784 46.3989 18.7988 46.936 18.1885C 47.4731 17.57 48.0632 17.0085 48.7061 16.5039C 50.057 15.446 51.3021 14.917 52.4414 14.917C 52.8809 14.917 53.2389 14.9902 53.5156 15.1367C 53.7923 15.2832 53.9673 15.4663 54.0405 15.686C 54.2358 15.3931 54.3986 15.21 54.5288 15.1367C 54.6672 15.0553 54.8706 15.0146 55.1392 15.0146ZM 53.5156 16.3696C 52.124 16.3696 50.6836 17.1427 49.1943 18.689C 48.6654 19.2424 48.1771 19.9056 47.7295 20.6787C 47.29 21.4518 47.0703 21.9808 47.0703 22.2656C 47.0703 22.5505 47.1517 22.6929 47.3145 22.6929C 47.5423 22.6929 48.1771 22.2453 49.2188 21.3501C 50.2604 20.4468 50.9521 19.7835 51.2939 19.3604C 51.6683 18.8883 52.4089 17.8914 53.5156 16.3696ZM 64.4043 8.56934L 64.9048 8.69141C 64.978 8.69141 65.0431 8.72803 65.1001 8.80127C 65.1571 8.87451 65.1855 8.94368 65.1855 9.00879C 65.1855 9.07389 65.1001 9.24886 64.9292 9.53369C 64.7583 9.81852 64.5549 10.144 64.3188 10.5103C 64.091 10.8683 63.9689 11.0636 63.9526 11.0962C 64.5874 11.0474 65.035 11.0229 65.2954 11.0229C 65.564 11.0229 65.7471 11.0433 65.8447 11.084C 65.9424 11.1165 66.0522 11.2183 66.1743 11.3892C 66.3045 11.5519 66.4225 11.6781 66.5283 11.7676C 66.6341 11.849 66.687 11.9751 66.687 12.146C 66.687 12.3169 66.5812 12.4634 66.3696 12.5854C 66.1662 12.6994 65.9465 12.7686 65.7104 12.793C 63.8224 12.9801 62.7808 13.0778 62.5854 13.0859C 61.9263 14.0951 61.0026 15.6698 59.8145 17.8101C 58.6344 19.9422 58.0078 21.2769 57.9346 21.814C 57.902 22.0581 57.8857 22.2575 57.8857 22.4121C 57.8857 22.7295 58.0526 22.8882 58.3862 22.8882C 58.7199 22.8882 59.0902 22.762 59.4971 22.5098C 59.904 22.2493 60.2783 21.9686 60.6201 21.6675C 61.5316 20.8537 62.0199 20.4468 62.085 20.4468C 62.2965 20.4468 62.4023 20.813 62.4023 21.5454C 62.4023 21.9442 62.2192 22.3022 61.853 22.6196C 61.0311 23.3276 60.3394 23.8607 59.7778 24.2188C 59.2163 24.5768 58.6548 24.7559 58.0933 24.7559C 57.9712 24.7559 57.8573 24.7437 57.7515 24.7192C 57.1004 24.5972 56.6203 24.3612 56.311 24.0112C 56.0099 23.6532 55.8594 23.173 55.8594 22.5708C 55.8675 21.9686 56.0465 21.2402 56.3965 20.3857C 56.7546 19.5231 57.2021 18.6076 57.7393 17.6392C 58.6182 16.0604 59.4971 14.5793 60.376 13.1958L 59.9121 13.2568C 58.9681 13.3626 58.4188 13.4155 58.2642 13.4155L 58.1543 13.4155C 57.9183 13.4155 57.6904 13.3708 57.4707 13.2812C 57.251 13.1836 57.1411 13.0656 57.1411 12.9272C 57.1411 12.7889 57.1981 12.6546 57.312 12.5244C 57.4341 12.3942 57.5073 12.2925 57.5317 12.2192C 57.5887 12.0402 57.8003 11.8408 58.1665 11.6211C 58.5409 11.4014 58.8216 11.2874 59.0088 11.2793C 59.196 11.263 59.375 11.2508 59.5459 11.2427C 59.7249 11.2345 59.9202 11.2264 60.1318 11.2183C 60.3516 11.2101 60.5184 11.202 60.6323 11.1938L 61.731 11.145C 62.4146 10.1196 62.8825 9.46045 63.1348 9.16748C 63.3952 8.87451 63.5457 8.71582 63.5864 8.69141C 63.6271 8.65885 63.7085 8.64258 63.8306 8.64258L 64.4043 8.56934ZM 69.3237 10.8887C 69.3237 11.3525 69.1081 11.8205 68.6768 12.2925C 68.2454 12.7563 67.7938 12.9883 67.3218 12.9883C 66.8579 12.9883 66.626 12.7441 66.626 12.2559C 66.626 11.7676 66.8294 11.3037 67.2363 10.8643C 67.6514 10.4167 68.1071 10.1929 68.6035 10.1929C 68.8232 10.1929 68.9982 10.2539 69.1284 10.376C 69.2586 10.498 69.3237 10.6689 69.3237 10.8887ZM 67.3462 21.5454C 67.3462 21.7896 67.3218 21.9645 67.2729 22.0703C 66.8742 22.8841 66.2394 23.5433 65.3687 24.0479C 64.4979 24.5443 63.741 24.7925 63.0981 24.7925C 62.4552 24.7925 61.9019 24.5768 61.438 24.1455C 60.9741 23.7142 60.7422 23.2747 60.7422 22.8271C 60.7422 22.3796 60.966 21.7285 61.4136 20.874C 61.8612 20.0195 62.3088 19.2301 62.7563 18.5059C 63.2039 17.7816 63.4277 17.391 63.4277 17.334C 63.4277 17.2689 63.3423 17.1468 63.1714 16.9678C 63.0086 16.7887 62.9272 16.6585 62.9272 16.5771C 62.9272 16.4876 63.0941 16.2638 63.4277 15.9058C 63.7695 15.5396 64.1805 15.1815 64.6606 14.8315C 65.1489 14.4735 65.5192 14.2944 65.7715 14.2944C 66.0319 14.2944 66.2638 14.4084 66.4673 14.6362C 66.6707 14.8641 66.7725 15.0716 66.7725 15.2588C 66.7725 15.446 65.804 17.2078 63.8672 20.5444C 63.8428 20.5933 63.7736 20.7031 63.6597 20.874C 63.5539 21.0368 63.4684 21.1751 63.4033 21.2891C 63.3464 21.3949 63.2772 21.5251 63.1958 21.6797C 63.033 22.0052 62.9517 22.2778 62.9517 22.4976C 62.9517 22.7743 63.1388 22.9126 63.5132 22.9126C 63.8875 22.9126 64.2741 22.7865 64.6729 22.5342C 65.0798 22.2738 65.4297 21.9889 65.7227 21.6797C 66.4876 20.8577 66.923 20.4468 67.0288 20.4468C 67.2404 20.4468 67.3462 20.813 67.3462 21.5454ZM 74.7437 14.9902C 74.9878 14.9902 75.236 15.1001 75.4883 15.3198C 75.7487 15.5396 75.8789 15.8773 75.8789 16.333C 75.8789 16.7806 75.7202 17.3665 75.4028 18.0908C 75.0854 18.807 74.6501 19.5394 74.0967 20.2881C 73.5433 21.0286 72.9329 21.7285 72.2656 22.3877C 71.6064 23.0387 70.8903 23.5758 70.1172 23.999C 69.3522 24.4141 68.6564 24.6216 68.0298 24.6216C 67.4032 24.6216 66.8986 24.4263 66.5161 24.0356C 66.1418 23.6369 65.9546 23.0876 65.9546 22.3877C 65.9546 21.6797 66.1255 20.8984 66.4673 20.0439C 66.8172 19.1895 67.2648 18.4367 67.8101 17.7856C 68.3553 17.1265 68.9453 16.5365 69.5801 16.0156C 70.9066 14.9495 72.0703 14.4165 73.0713 14.4165C 73.5189 14.4165 73.8566 14.5264 74.0845 14.7461C 74.1659 14.8193 74.2065 14.8844 74.2065 14.9414L 74.2065 15.0146C 74.3205 14.9984 74.4995 14.9902 74.7437 14.9902ZM 73.5107 16.6138L 73.4253 16.6138C 73.1405 16.6138 72.998 16.4062 72.998 15.9912C 72.404 16.1865 71.7814 16.5283 71.1304 17.0166C 70.4793 17.5049 69.8975 18.0827 69.3848 18.75C 68.3431 20.0846 67.8141 21.2118 67.7979 22.1313C 67.7979 22.5871 67.9647 22.8149 68.2983 22.8149C 68.632 22.8149 69.1284 22.5952 69.7876 22.1558C 70.4468 21.7163 71.0978 21.0897 71.7407 20.2759C 72.3918 19.4621 72.876 18.7581 73.1934 18.1641C 73.5189 17.5618 73.6816 17.1549 73.6816 16.9434C 73.6816 16.7236 73.6247 16.6138 73.5107 16.6138ZM 81.9824 22.4121C 81.9824 22.7702 82.2266 22.9492 82.7148 22.9492C 82.9753 22.9492 83.3008 22.819 83.6914 22.5586C 84.0902 22.2982 84.4482 22.0133 84.7656 21.7041C 85.612 20.8659 86.0921 20.4468 86.2061 20.4468C 86.4176 20.4468 86.5234 20.752 86.5234 21.3623C 86.5234 21.9727 86.3322 22.3918 85.9497 22.6196C 84.786 23.6694 83.8867 24.3083 83.252 24.5361C 82.8939 24.6582 82.4992 24.7152 82.0679 24.707C 81.6366 24.6989 81.2093 24.5117 80.7861 24.1455C 80.363 23.7793 80.1514 23.3358 80.1514 22.8149C 80.1514 22.286 80.2897 21.6878 80.5664 21.0205C 80.8431 20.3532 81.1239 19.7835 81.4087 19.3115C 81.7017 18.8314 82.0597 18.278 82.4829 17.6514C 82.9061 17.0166 83.1299 16.6219 83.1543 16.4673L 83.1299 16.4429C 82.8613 16.4673 82.194 16.9963 81.1279 18.0298C 80.07 19.0633 79.1951 19.9626 78.5034 20.7275C 77.8117 21.4925 76.9857 22.5138 76.0254 23.7915C 75.7568 24.1414 75.5371 24.3164 75.3662 24.3164C 75.1953 24.3164 74.9674 24.2635 74.6826 24.1577C 74.3896 24.0438 74.2106 23.9624 74.1455 23.9136C 74.0804 23.8647 74.0479 23.7915 74.0479 23.6938C 74.0479 23.5962 74.0763 23.4782 74.1333 23.3398C 74.1903 23.1934 74.2472 23.0754 74.3042 22.9858C 74.353 22.8882 74.4385 22.7417 74.5605 22.5464C 74.6826 22.3511 74.9227 21.9401 75.2808 21.3135C 75.647 20.6787 76.2044 19.7347 76.9531 18.4814C 77.7018 17.2282 78.1494 16.4714 78.2959 16.2109C 78.6051 15.6738 78.8574 15.2832 79.0527 15.0391C 79.4189 14.5752 80.0374 14.3433 80.9082 14.3433C 81.1035 14.3433 81.2012 14.4653 81.2012 14.7095C 81.2012 15.092 80.8472 15.8122 80.1392 16.8701L 79.6265 17.6392C 81.0343 16.0767 82.2225 15.0879 83.1909 14.6729C 83.6629 14.4694 84.0861 14.3677 84.4604 14.3677C 84.8429 14.3677 85.144 14.4694 85.3638 14.6729C 85.5916 14.8763 85.7056 15.1042 85.7056 15.3564C 85.7056 15.6006 85.6201 15.8976 85.4492 16.2476C 85.2783 16.5894 85.1034 16.8986 84.9243 17.1753C 84.7534 17.4438 84.5256 17.7856 84.2407 18.2007C 83.9559 18.6157 83.8013 18.8436 83.7769 18.8843C 83.7524 18.9168 83.6873 19.0145 83.5815 19.1772C 83.4839 19.3319 83.4106 19.4458 83.3618 19.519C 83.313 19.5923 83.2316 19.7225 83.1177 19.9097C 83.0037 20.0887 82.9102 20.2393 82.8369 20.3613C 82.7718 20.4834 82.6864 20.634 82.5806 20.813C 82.4829 20.992 82.4015 21.1466 82.3364 21.2769C 82.2795 21.4071 82.2184 21.5495 82.1533 21.7041C 82.0394 21.9889 81.9824 22.2249 81.9824 22.4121Z"/>
<path id="path3_fill" d="M 4.8877 53.1934C 4.8877 53.1087 4.8877 52.9818 4.8877 52.8125C 4.8877 52.6432 4.90885 52.474 4.95117 52.3047C 4.99349 52.0931 5.05697 51.9238 5.1416 51.7969C 5.22624 51.6699 5.37435 51.5853 5.58594 51.543C 6.17839 51.8392 6.5804 52.3047 6.79199 52.9395C 7.00358 53.5742 7.23633 54.209 7.49023 54.8438C 7.74414 55.4362 8.16732 55.9652 8.75977 56.4307C 9.35221 56.8962 10.3255 57.1289 11.6797 57.1289C 13.3301 57.1289 14.8747 56.6846 16.3135 55.7959C 17.7946 54.9072 19.0853 53.7858 20.1855 52.4316C 21.3281 51.0352 22.2168 49.5117 22.8516 47.8613C 23.5286 46.1686 23.8672 44.5394 23.8672 42.9736C 23.8672 41.958 23.5921 41.0905 23.042 40.3711C 22.4919 39.6094 21.8148 38.9958 21.0107 38.5303C 20.2067 38.0225 19.318 37.6628 18.3447 37.4512C 17.4137 37.1973 16.5462 37.0703 15.7422 37.0703C 14.7266 37.0703 13.7321 37.1761 12.7588 37.3877C 11.7855 37.557 10.8122 37.7474 9.83887 37.959C 8.86556 38.1706 7.87109 38.3822 6.85547 38.5938C 5.88216 38.763 4.8877 38.8477 3.87207 38.8477C 3.11035 38.8477 2.53906 38.7419 2.1582 38.5303C 1.77734 38.2764 1.50228 37.9378 1.33301 37.5146C 1.16374 37.0915 1.0791 36.6048 1.0791 36.0547C 1.0791 35.4622 1.0791 34.8275 1.0791 34.1504C 1.0791 33.0078 1.12142 31.9287 1.20605 30.9131C 1.33301 29.8551 1.58691 28.9242 1.96777 28.1201C 2.39095 27.3161 2.96224 26.639 3.68164 26.0889C 4.44336 25.5387 5.43783 25.1579 6.66504 24.9463C 6.96126 24.777 7.4056 24.5443 7.99805 24.248C 8.59049 23.9095 9.26758 23.5498 10.0293 23.1689C 10.791 22.7458 11.5951 22.3226 12.4414 21.8994C 13.2878 21.4339 14.0918 21.0107 14.8535 20.6299C 15.6152 20.2067 16.2923 19.847 16.8848 19.5508C 17.5195 19.2122 17.985 18.9795 18.2812 18.8525C 18.7891 18.5986 19.2334 18.4082 19.6143 18.2812C 19.9951 18.1543 20.3548 18.0485 20.6934 17.9639C 21.0319 17.8792 21.3916 17.8158 21.7725 17.7734C 22.1533 17.7311 22.5765 17.71 23.042 17.71C 23.5075 17.71 23.973 17.7311 24.4385 17.7734C 24.9463 17.8158 25.306 18.1755 25.5176 18.8525C 25.5599 18.9795 25.3906 19.1488 25.0098 19.3604C 24.6712 19.5296 24.2057 19.7201 23.6133 19.9316C 23.0632 20.1009 22.4284 20.2913 21.709 20.5029C 21.0319 20.6722 20.3548 20.8626 19.6777 21.0742C 19.043 21.2858 18.4294 21.4974 17.8369 21.709C 17.2868 21.8783 16.8848 22.0475 16.6309 22.2168C 16.3346 22.3861 15.8903 22.6823 15.2979 23.1055C 14.7477 23.5286 14.1341 24.0153 13.457 24.5654C 12.7799 25.0732 12.0605 25.6234 11.2988 26.2158C 10.5371 26.8083 9.83887 27.3372 9.2041 27.8027C 8.56934 28.2682 8.01921 28.6491 7.55371 28.9453C 7.08822 29.2415 6.79199 29.3685 6.66504 29.3262C 6.5804 29.3262 6.47461 29.2839 6.34766 29.1992C 6.26302 29.0723 6.15723 28.9665 6.03027 28.8818C 5.94564 28.7549 5.83984 28.6491 5.71289 28.5645C 5.62826 28.4375 5.58594 28.3529 5.58594 28.3105L 5.39551 28.3105L 5.33203 28.3105C 5.28971 28.3105 5.26855 28.2894 5.26855 28.2471C 5.22624 28.2471 5.16276 28.2682 5.07812 28.3105C 5.03581 28.3105 5.01465 28.3105 5.01465 28.3105C 4.76074 28.8184 4.54915 29.2839 4.37988 29.707C 4.21061 30.0879 4.08366 30.4688 3.99902 30.8496C 3.91439 31.1882 3.87207 31.5479 3.87207 31.9287C 3.87207 32.3096 3.87207 32.7327 3.87207 33.1982C 3.87207 33.2829 3.85091 33.431 3.80859 33.6426C 3.76628 33.8542 3.74512 34.1081 3.74512 34.4043C 3.78743 34.6582 3.85091 34.8909 3.93555 35.1025C 4.02018 35.3141 4.18945 35.4199 4.44336 35.4199C 4.57031 35.4199 4.8877 35.4411 5.39551 35.4834C 5.90332 35.5257 6.2207 35.5469 6.34766 35.5469C 7.87109 35.5469 9.35221 35.4411 10.791 35.2295C 12.2721 34.9756 13.7744 34.8486 15.2979 34.8486C 16.6943 34.8486 18.0273 35.0179 19.2969 35.3564C 20.6087 35.6527 21.7725 36.1393 22.7881 36.8164C 23.8037 37.4935 24.6077 38.3822 25.2002 39.4824C 25.835 40.5827 26.1523 41.8945 26.1523 43.418C 26.1523 45.2376 25.7926 47.0996 25.0732 49.0039C 24.3962 50.8659 23.444 52.5798 22.2168 54.1455C 21.0319 55.6689 19.5931 56.9173 17.9004 57.8906C 16.25 58.8639 14.4303 59.3506 12.4414 59.3506C 11.5527 59.3506 10.6641 59.2236 9.77539 58.9697C 8.88672 58.7158 8.08268 58.335 7.36328 57.8271C 6.64388 57.277 6.05143 56.6211 5.58594 55.8594C 5.12044 55.0977 4.8877 54.209 4.8877 53.1934ZM 28.7549 54.3359C 28.7549 54.2513 28.7549 54.1455 28.7549 54.0186C 28.7972 53.8916 28.8184 53.7858 28.8184 53.7012C 29.834 54.1243 30.7438 54.5475 31.5479 54.9707C 32.3519 55.3939 33.1559 55.7747 33.96 56.1133C 34.764 56.4095 35.6104 56.6634 36.499 56.875C 37.3877 57.0443 38.4245 57.1289 39.6094 57.1289C 41.0482 57.1289 42.5928 56.9385 44.2432 56.5576C 45.8936 56.1768 47.417 55.5843 48.8135 54.7803C 50.21 53.9339 51.3737 52.8971 52.3047 51.6699C 53.2357 50.4004 53.7012 48.877 53.7012 47.0996C 53.7012 46.1686 53.5531 45.3011 53.2568 44.4971C 52.9606 43.693 52.5374 42.9948 51.9873 42.4023C 51.4372 41.8099 50.7812 41.3444 50.0195 41.0059C 49.2578 40.625 48.4326 40.4346 47.5439 40.4346C 46.6976 40.4346 45.9147 40.625 45.1953 41.0059C 44.5182 41.3444 43.8411 41.7253 43.1641 42.1484C 42.5293 42.5716 41.8734 42.9525 41.1963 43.291C 40.5192 43.6296 39.7998 43.7988 39.0381 43.7988C 38.7419 43.7988 38.4245 43.7777 38.0859 43.7354C 37.7897 43.6507 37.6416 43.3968 37.6416 42.9736C 37.6416 42.5081 37.9167 42.0003 38.4668 41.4502C 39.0592 40.9001 39.7575 40.2865 40.5615 39.6094C 41.4079 38.89 42.2965 38.1494 43.2275 37.3877C 44.2008 36.5837 45.0895 35.7161 45.8936 34.7852C 46.7399 33.8118 47.4382 32.7962 47.9883 31.7383C 48.5384 30.638 48.8135 29.4954 48.8135 28.3105C 48.8135 27.5065 48.6654 26.8717 48.3691 26.4062C 48.1152 25.9408 47.7555 25.6022 47.29 25.3906C 46.8669 25.1367 46.3379 24.9886 45.7031 24.9463C 45.1107 24.904 44.4759 24.8828 43.7988 24.8828C 42.0638 24.8828 40.5827 25.2214 39.3555 25.8984C 38.1283 26.5755 37.1761 27.7181 36.499 29.3262C 35.8643 29.2415 35.4199 28.9453 35.166 28.4375C 34.9544 27.9297 34.8486 27.4007 34.8486 26.8506C 34.8486 25.835 35.293 25.0309 36.1816 24.4385C 37.0703 23.846 38.1071 23.3805 39.292 23.042C 40.4769 22.7035 41.6618 22.4919 42.8467 22.4072C 44.0316 22.2803 44.8991 22.2168 45.4492 22.2168C 47.3535 22.2168 48.8346 22.7881 49.8926 23.9307C 50.9928 25.0309 51.543 26.4909 51.543 28.3105C 51.543 29.1146 51.4372 29.8975 51.2256 30.6592C 51.0563 31.4209 50.8024 32.1615 50.4639 32.8809C 50.1676 33.5579 49.8079 34.2562 49.3848 34.9756C 49.0039 35.6527 48.6019 36.3721 48.1787 37.1338C 49.3213 37.5146 50.4004 38.0648 51.416 38.7842C 52.4316 39.4613 53.2992 40.2865 54.0186 41.2598C 54.7803 42.1908 55.3727 43.2275 55.7959 44.3701C 56.2614 45.5127 56.4941 46.6976 56.4941 47.9248C 56.4941 49.8291 55.944 51.5007 54.8438 52.9395C 53.7858 54.3359 52.4528 55.5208 50.8447 56.4941C 49.279 57.4251 47.5651 58.1445 45.7031 58.6523C 43.8835 59.1178 42.2119 59.3506 40.6885 59.3506C 40.0114 59.3506 39.0169 59.2448 37.7051 59.0332C 36.3932 58.8216 35.0602 58.5254 33.7061 58.1445C 32.3942 57.7214 31.2305 57.1924 30.2148 56.5576C 29.2415 55.9229 28.7549 55.1823 28.7549 54.3359ZM 64.7461 42.1484L 64.1748 39.8633L 63.0322 40.498L 56.4307 47.0996C 56.3883 47.1419 56.2402 47.0996 55.9863 46.9727C 55.6901 46.8034 55.4785 46.6764 55.3516 46.5918C 55.2669 46.5072 55.1611 46.4014 55.0342 46.2744C 54.8649 46.1051 54.7803 45.9993 54.7803 45.957L 54.7803 45.7031C 54.7803 45.4492 54.9707 45.0472 55.3516 44.4971C 55.6901 43.9469 56.1556 43.3333 56.748 42.6562C 57.3405 41.9792 57.9964 41.2809 58.7158 40.5615C 59.4775 39.7998 60.2181 39.1439 60.9375 38.5938C 61.6992 38.0013 62.4186 37.5146 63.0957 37.1338C 63.7728 36.7529 64.3441 36.5625 64.8096 36.5625C 65.6136 36.5625 66.2061 36.9434 66.5869 37.7051C 67.0101 38.4245 67.2852 39.292 67.4121 40.3076C 67.5814 41.2809 67.6449 42.2754 67.6025 43.291C 67.5602 44.2643 67.5391 44.9837 67.5391 45.4492C 67.666 45.2376 67.9411 44.8779 68.3643 44.3701C 68.7874 43.82 69.2318 43.2487 69.6973 42.6562C 70.1628 42.0215 70.6071 41.4502 71.0303 40.9424C 71.4535 40.4346 71.7497 40.0749 71.9189 39.8633C 72.0459 39.7363 72.321 39.4401 72.7441 38.9746C 73.2096 38.4668 73.6963 37.959 74.2041 37.4512C 74.7542 36.901 75.3255 36.4355 75.918 36.0547C 76.5104 35.6315 77.0182 35.4199 77.4414 35.4199C 78.2031 35.4199 78.7533 35.6527 79.0918 36.1182C 79.4303 36.5413 79.6419 37.0703 79.7266 37.7051C 79.8535 38.3398 79.8958 39.0169 79.8535 39.7363C 79.8112 40.4134 79.79 40.9847 79.79 41.4502C 79.79 43.0583 79.6842 44.6452 79.4727 46.2109C 79.2611 47.7767 79.1553 49.3848 79.1553 51.0352L 79.1553 51.543C 80.0439 50.5273 80.8057 49.4059 81.4404 48.1787C 82.1175 46.9515 82.7946 45.7454 83.4717 44.5605C 84.1488 43.3333 84.8682 42.1696 85.6299 41.0693C 86.4339 39.9691 87.4072 39.0381 88.5498 38.2764C 88.6344 38.2341 88.7614 38.2129 88.9307 38.2129C 89.1423 38.1706 89.2904 38.1494 89.375 38.1494C 89.8405 38.1494 90.179 38.2975 90.3906 38.5938C 90.6445 38.8477 90.7926 39.1862 90.835 39.6094C 90.9196 39.9902 90.9408 40.3923 90.8984 40.8154C 90.8561 41.2386 90.835 41.5983 90.835 41.8945C 90.835 43.7142 90.7292 45.5127 90.5176 47.29C 90.306 49.0251 90.2002 50.8024 90.2002 52.6221C 90.2002 53.5954 90.4118 54.2301 90.835 54.5264C 91.3005 54.8226 92.0199 54.9707 92.9932 54.9707C 93.4587 54.9707 93.8607 54.9072 94.1992 54.7803C 94.5801 54.611 94.9398 54.4417 95.2783 54.2725C 95.6169 54.0609 95.9554 53.8916 96.2939 53.7646C 96.6748 53.5954 97.0768 53.5107 97.5 53.5107C 97.5 54.1455 97.3307 54.738 96.9922 55.2881C 96.6536 55.7959 96.2305 56.2402 95.7227 56.6211C 95.2148 56.9596 94.6436 57.2347 94.0088 57.4463C 93.374 57.6156 92.7816 57.7002 92.2314 57.7002C 91.766 57.7002 91.2793 57.6367 90.7715 57.5098C 90.306 57.3828 89.8617 57.1924 89.4385 56.9385C 89.0576 56.6423 88.7191 56.2826 88.4229 55.8594C 88.1689 55.4362 88.042 54.9284 88.042 54.3359L 88.042 42.1484C 87.5765 42.487 87.0475 43.1006 86.4551 43.9893C 85.9049 44.8779 85.3125 45.8936 84.6777 47.0361C 84.0853 48.1787 83.4717 49.3848 82.8369 50.6543C 82.2445 51.9238 81.652 53.0664 81.0596 54.082C 80.4671 55.0977 79.8958 55.9652 79.3457 56.6846C 78.7956 57.3617 78.2878 57.7002 77.8223 57.7002C 77.3568 57.7002 77.0182 57.4886 76.8066 57.0654C 76.5951 56.6423 76.4469 56.1768 76.3623 55.6689C 76.32 55.1188 76.2988 54.611 76.2988 54.1455C 76.2988 53.68 76.2988 53.3626 76.2988 53.1934C 76.2988 52.1777 76.3623 51.1621 76.4893 50.1465C 76.6162 49.1309 76.7643 48.1152 76.9336 47.0996C 77.1029 46.0417 77.251 45.0049 77.3779 43.9893C 77.5049 42.9736 77.5684 41.958 77.5684 40.9424C 77.5684 40.8154 77.5684 40.625 77.5684 40.3711C 77.5684 40.1172 77.526 39.8844 77.4414 39.6729C 77.3991 39.4189 77.3145 39.2074 77.1875 39.0381C 77.0605 38.8265 76.8913 38.7207 76.6797 38.7207C 76.6374 38.7207 76.5951 38.7419 76.5527 38.7842C 76.5527 38.7842 76.5316 38.7842 76.4893 38.7842C 76.4893 38.8265 76.4469 38.8477 76.3623 38.8477C 76.32 38.8477 76.2354 38.9111 76.1084 39.0381C 75.9814 39.165 75.8968 39.2708 75.8545 39.3555C 75.389 39.9479 74.7754 40.7096 74.0137 41.6406C 73.252 42.5716 72.5114 43.4814 71.792 44.3701C 71.0726 45.2588 70.459 46.0205 69.9512 46.6553C 69.4434 47.29 69.1683 47.6074 69.126 47.6074C 68.999 47.8613 68.7663 48.4749 68.4277 49.4482C 68.1315 50.4215 67.793 51.4795 67.4121 52.6221C 67.0736 53.7223 66.7562 54.7803 66.46 55.7959C 66.1637 56.7692 65.9521 57.3828 65.8252 57.6367C 65.6136 58.3138 65.3385 58.7793 65 59.0332C 64.6615 59.2871 64.1536 59.4141 63.4766 59.4141C 63.4766 57.9753 63.54 56.5576 63.667 55.1611C 63.7939 53.7646 63.9421 52.3682 64.1113 50.9717C 64.2806 49.5329 64.4287 48.1152 64.5557 46.7188C 64.6826 45.2799 64.7461 43.82 64.7461 42.3389L 64.7461 42.1484Z"/>
</defs>
</svg>
