<svg width="200" height="200" viewBox="0 0 200 200" version="1.1" xmlns="http://www.w3.org/2000/svg" xmlns:xlink="http://www.w3.org/1999/xlink" xmlns:figma="http://www.figma.com/figma/ns">
<title>Group</title>
<desc>Created using Figma</desc>
<g id="Canvas" transform="translate(152 -6)" figma:type="canvas">
<g id="Group" style="mix-blend-mode:normal;" figma:type="frame">
<g id="Ellipse" style="mix-blend-mode:normal;" figma:type="ellipse">
<use xlink:href="#path0_fill" transform="translate(-122 36)" fill="#B21C0E" style="mix-blend-mode:normal;"/>
</g>
<g id="Ellipse 2" style="mix-blend-mode:normal;" figma:type="ellipse">
<use xlink:href="#path1_fill" transform="translate(-152 6)" fill="#000000" fill-opacity="0.7" style="mix-blend-mode:normal;"/>
</g>
<g id="Capital" style="mix-blend-mode:normal;" figma:type="text">
<use xlink:href="#path2_fill" transform="translate(-84 119)" fill="#FFFFFF" style="mix-blend-mode:normal;"/>
</g>
<g id="London" style="mix-blend-mode:normal;" figma:type="text">
<use xlink:href="#path3_fill" transform="translate(-108 57)" fill="#FFFFFF" style="mix-blend-mode:normal;"/>
</g>
</g>
</g>
<defs>
<path id="path0_fill" d="M 140 70C 140 108.66 108.66 140 70 140C 31.3401 140 0 108.66 0 70C 0 31.3401 31.3401 0 70 0C 108.66 0 140 31.3401 140 70Z"/>
<path id="path1_fill" d="M 200 100C 200 155.228 155.228 200 100 200C 44.7715 200 0 155.228 0 100C 0 44.7715 44.7715 0 100 0C 155.228 0 200 44.7715 200 100Z"/>
<path id="path2_fill" d="M 14.1357 17.1753C 14.3311 17.1753 14.4287 17.334 14.4287 17.6514C 14.4287 17.9606 14.3595 18.4977 14.2212 19.2627C 14.1154 19.7754 13.5295 20.5078 12.4634 21.46C 11.1776 22.5993 9.76562 23.4131 8.22754 23.9014C 7.2998 24.1943 6.39242 24.3408 5.50537 24.3408C 4.62646 24.3408 3.8208 23.9705 3.08838 23.23C 2.3641 22.4813 2.00195 21.5983 2.00195 20.5811C 2.00195 19.5557 2.2054 18.4977 2.6123 17.4072C 3.02734 16.3086 3.58073 15.2629 4.27246 14.27C 4.97233 13.269 5.79427 12.3088 6.73828 11.3892C 7.69043 10.4696 8.6792 9.67204 9.70459 8.99658C 10.73 8.32113 11.8042 7.78402 12.9272 7.38525C 14.0503 6.98649 15.1164 6.78711 16.1255 6.78711C 16.923 6.78711 17.6025 7.07601 18.1641 7.65381C 18.457 7.96305 18.6035 8.35368 18.6035 8.82568C 18.6035 9.28955 18.3757 9.87956 17.9199 10.5957C 17.4642 11.3037 16.923 11.9507 16.2964 12.5366C 15.6779 13.1226 15.035 13.619 14.3677 14.0259C 13.7085 14.4328 13.1795 14.6362 12.7808 14.6362C 12.382 14.6362 12.0402 14.5142 11.7554 14.27C 11.4705 14.0177 11.3281 13.7939 11.3281 13.5986C 11.3281 13.4033 11.3688 13.1877 11.4502 12.9517C 11.5397 12.7157 11.6496 12.5977 11.7798 12.5977C 11.7472 12.6383 11.731 12.679 11.731 12.7197C 11.731 12.8174 11.8693 12.8662 12.146 12.8662C 12.4308 12.8662 12.9028 12.618 13.562 12.1216C 14.2212 11.6252 14.8153 11.0677 15.3442 10.4492C 15.8813 9.83073 16.1499 9.36686 16.1499 9.05762C 16.1499 8.84603 16.0075 8.74023 15.7227 8.74023C 14.9577 8.74023 13.8997 9.09831 12.5488 9.81445C 11.2061 10.5225 9.92025 11.438 8.69141 12.561C 7.46256 13.6841 6.39242 15.0187 5.48096 16.5649C 4.57764 18.103 4.12598 19.4865 4.12598 20.7153C 4.12598 21.228 4.26025 21.639 4.52881 21.9482C 4.8055 22.2575 5.22461 22.4121 5.78613 22.4121C 6.35579 22.4121 7.02718 22.2493 7.80029 21.9238C 8.5734 21.5983 9.30583 21.1995 9.99756 20.7275C 10.6974 20.2555 11.3566 19.7713 11.9751 19.2749C 12.5936 18.7785 13.0859 18.3431 13.4521 17.9688C 13.8265 17.5944 14.0177 17.3706 14.0259 17.2974C 14.034 17.216 14.0706 17.1753 14.1357 17.1753ZM 24.2798 15.0146C 24.8983 15.0146 25.2075 15.2262 25.2075 15.6494C 25.2075 15.8773 25.1546 16.0441 25.0488 16.1499C 24.943 16.2557 24.7152 16.6097 24.3652 17.2119C 24.0234 17.806 23.641 18.571 23.2178 19.5068C 22.8027 20.4346 22.5342 21.228 22.4121 21.8872C 22.3877 21.9686 22.3755 22.0825 22.3755 22.229C 22.3755 22.6766 22.4976 22.9004 22.7417 22.9004C 22.9858 22.9004 23.2747 22.7865 23.6084 22.5586C 23.9421 22.3226 24.2391 22.0744 24.4995 21.814C 24.7599 21.5454 25.0122 21.2728 25.2563 20.9961C 25.5086 20.7194 25.6592 20.5607 25.708 20.52C 25.7568 20.4793 25.8301 20.459 25.9277 20.459C 26.0824 20.459 26.1759 20.577 26.2085 20.813C 26.241 21.049 26.2573 21.2931 26.2573 21.5454C 26.2573 21.7977 26.2329 21.9727 26.1841 22.0703C 25.9481 22.5342 25.4272 23.0916 24.6216 23.7427C 23.8241 24.3937 23.0957 24.7192 22.4365 24.7192C 21.7855 24.7192 21.3053 24.5199 20.9961 24.1211C 20.6868 23.7223 20.5322 23.2829 20.5322 22.8027C 20.5322 22.3145 20.6136 21.8872 20.7764 21.521C 20.1009 22.3999 19.3237 23.1445 18.4448 23.7549C 17.5741 24.3652 16.862 24.6704 16.3086 24.6704C 15.7552 24.6704 15.3035 24.5036 14.9536 24.1699C 14.506 23.7549 14.2822 23.1812 14.2822 22.4487C 14.2822 21.7082 14.445 20.9676 14.7705 20.2271C 15.1042 19.4784 15.5396 18.7988 16.0767 18.1885C 16.6138 17.57 17.2038 17.0085 17.8467 16.5039C 19.1976 15.446 20.4427 14.917 21.582 14.917C 22.0215 14.917 22.3796 14.9902 22.6562 15.1367C 22.9329 15.2832 23.1079 15.4663 23.1812 15.686C 23.3765 15.3931 23.5392 15.21 23.6694 15.1367C 23.8078 15.0553 24.0112 15.0146 24.2798 15.0146ZM 22.6562 16.3696C 21.2646 16.3696 19.8242 17.1427 18.335 18.689C 17.806 19.2424 17.3177 19.9056 16.8701 20.6787C 16.4307 21.4518 16.2109 21.9808 16.2109 22.2656C 16.2109 22.5505 16.2923 22.6929 16.4551 22.6929C 16.6829 22.6929 17.3177 22.2453 18.3594 21.3501C 19.401 20.4468 20.0928 19.7835 20.4346 19.3604C 20.8089 18.8883 21.5495 17.8914 22.6562 16.3696ZM 31.9458 11.3037L 32.1655 11.2793C 32.2876 11.2793 32.3853 11.3851 32.4585 11.5967C 32.5317 11.8083 32.5684 11.9507 32.5684 12.0239C 32.5684 12.0972 32.487 12.2355 32.3242 12.439L 28.8452 17.7368C 30.0659 16.5161 31.307 15.625 32.5684 15.0635C 33.0566 14.8519 33.4961 14.7461 33.8867 14.7461C 34.2855 14.7461 34.6029 14.8763 34.8389 15.1367C 35.083 15.389 35.2051 15.7064 35.2051 16.0889C 35.2051 16.4714 35.0993 16.9434 34.8877 17.5049C 34.6761 18.0664 34.3872 18.6646 34.021 19.2993C 33.6629 19.9341 33.2235 20.5729 32.7026 21.2158C 32.1899 21.8587 31.6488 22.4406 31.0791 22.9614C 30.5176 23.4823 29.9032 23.9054 29.2358 24.231C 28.5685 24.5565 27.9826 24.7192 27.478 24.7192C 26.4608 24.7192 25.9521 24.2513 25.9521 23.3154C 25 24.7721 23.9014 26.4974 22.6562 28.4912C 21.4111 30.485 20.7438 31.5389 20.6543 31.6528C 20.5648 31.7668 20.4915 31.8237 20.4346 31.8237C 20.3695 31.8237 20.2759 31.7871 20.1538 31.7139C 20.0236 31.6406 19.8893 31.5186 19.751 31.3477C 19.6126 31.1768 19.5435 30.9285 19.5435 30.603C 19.5353 30.2775 19.6289 29.9479 19.8242 29.6143C 20.9229 27.7832 23.0387 24.3408 26.1719 19.2871C 29.3132 14.2253 31.014 11.6089 31.2744 11.438C 31.4209 11.3403 31.5674 11.2915 31.7139 11.2915L 31.9458 11.3037ZM 33.02 16.9189C 33.02 16.748 32.9386 16.6626 32.7759 16.6626C 32.3364 16.6626 31.4046 17.3381 29.9805 18.689C 28.5645 20.0399 27.4373 21.2728 26.5991 22.3877C 26.8107 22.6481 27.124 22.7783 27.5391 22.7783C 27.9541 22.7783 28.4912 22.5545 29.1504 22.1069C 29.8096 21.6593 30.4199 21.1304 30.9814 20.52C 31.543 19.9015 32.0231 19.2546 32.4219 18.5791C 32.8206 17.9036 33.02 17.3503 33.02 16.9189ZM 42.8833 10.8887C 42.8833 11.3525 42.6676 11.8205 42.2363 12.2925C 41.805 12.7563 41.3534 12.9883 40.8813 12.9883C 40.4175 12.9883 40.1855 12.7441 40.1855 12.2559C 40.1855 11.7676 40.389 11.3037 40.7959 10.8643C 41.2109 10.4167 41.6667 10.1929 42.1631 10.1929C 42.3828 10.1929 42.5578 10.2539 42.688 10.376C 42.8182 10.498 42.8833 10.6689 42.8833 10.8887ZM 40.9058 21.5454C 40.9058 21.7896 40.8813 21.9645 40.8325 22.0703C 40.4338 22.8841 39.799 23.5433 38.9282 24.0479C 38.0575 24.5443 37.3006 24.7925 36.6577 24.7925C 36.0148 24.7925 35.4614 24.5768 34.9976 24.1455C 34.5337 23.7142 34.3018 23.2747 34.3018 22.8271C 34.3018 22.3796 34.5256 21.7285 34.9731 20.874C 35.4207 20.0195 35.8683 19.2301 36.3159 18.5059C 36.7635 17.7816 36.9873 17.391 36.9873 17.334C 36.9873 17.2689 36.9019 17.1468 36.731 16.9678C 36.5682 16.7887 36.4868 16.6585 36.4868 16.5771C 36.4868 16.4876 36.6536 16.2638 36.9873 15.9058C 37.3291 15.5396 37.7401 15.1815 38.2202 14.8315C 38.7085 14.4735 39.0788 14.2944 39.3311 14.2944C 39.5915 14.2944 39.8234 14.4084 40.0269 14.6362C 40.2303 14.8641 40.332 15.0716 40.332 15.2588C 40.332 15.446 39.3636 17.2078 37.4268 20.5444C 37.4023 20.5933 37.3332 20.7031 37.2192 20.874C 37.1134 21.0368 37.028 21.1751 36.9629 21.2891C 36.9059 21.3949 36.8368 21.5251 36.7554 21.6797C 36.5926 22.0052 36.5112 22.2778 36.5112 22.4976C 36.5112 22.7743 36.6984 22.9126 37.0728 22.9126C 37.4471 22.9126 37.8337 22.7865 38.2324 22.5342C 38.6393 22.2738 38.9893 21.9889 39.2822 21.6797C 40.0472 20.8577 40.4826 20.4468 40.5884 20.4468C 40.8 20.4468 40.9058 20.813 40.9058 21.5454ZM 48.4131 8.56934L 48.9136 8.69141C 48.9868 8.69141 49.0519 8.72803 49.1089 8.80127C 49.1659 8.87451 49.1943 8.94368 49.1943 9.00879C 49.1943 9.07389 49.1089 9.24886 48.938 9.53369C 48.7671 9.81852 48.5636 10.144 48.3276 10.5103C 48.0998 10.8683 47.9777 11.0636 47.9614 11.0962C 48.5962 11.0474 49.0438 11.0229 49.3042 11.0229C 49.5728 11.0229 49.7559 11.0433 49.8535 11.084C 49.9512 11.1165 50.061 11.2183 50.1831 11.3892C 50.3133 11.5519 50.4313 11.6781 50.5371 11.7676C 50.6429 11.849 50.6958 11.9751 50.6958 12.146C 50.6958 12.3169 50.59 12.4634 50.3784 12.5854C 50.175 12.6994 49.9552 12.7686 49.7192 12.793C 47.8312 12.9801 46.7896 13.0778 46.5942 13.0859C 45.9351 14.0951 45.0114 15.6698 43.8232 17.8101C 42.6432 19.9422 42.0166 21.2769 41.9434 21.814C 41.9108 22.0581 41.8945 22.2575 41.8945 22.4121C 41.8945 22.7295 42.0614 22.8882 42.395 22.8882C 42.7287 22.8882 43.099 22.762 43.5059 22.5098C 43.9128 22.2493 44.2871 21.9686 44.6289 21.6675C 45.5404 20.8537 46.0286 20.4468 46.0938 20.4468C 46.3053 20.4468 46.4111 20.813 46.4111 21.5454C 46.4111 21.9442 46.228 22.3022 45.8618 22.6196C 45.0399 23.3276 44.3481 23.8607 43.7866 24.2188C 43.2251 24.5768 42.6636 24.7559 42.1021 24.7559C 41.98 24.7559 41.866 24.7437 41.7603 24.7192C 41.1092 24.5972 40.6291 24.3612 40.3198 24.0112C 40.0187 23.6532 39.8682 23.173 39.8682 22.5708C 39.8763 21.9686 40.0553 21.2402 40.4053 20.3857C 40.7633 19.5231 41.2109 18.6076 41.748 17.6392C 42.627 16.0604 43.5059 14.5793 44.3848 13.1958L 43.9209 13.2568C 42.9769 13.3626 42.4276 13.4155 42.2729 13.4155L 42.1631 13.4155C 41.9271 13.4155 41.6992 13.3708 41.4795 13.2812C 41.2598 13.1836 41.1499 13.0656 41.1499 12.9272C 41.1499 12.7889 41.2069 12.6546 41.3208 12.5244C 41.4429 12.3942 41.5161 12.2925 41.5405 12.2192C 41.5975 12.0402 41.8091 11.8408 42.1753 11.6211C 42.5496 11.4014 42.8304 11.2874 43.0176 11.2793C 43.2048 11.263 43.3838 11.2508 43.5547 11.2427C 43.7337 11.2345 43.929 11.2264 44.1406 11.2183C 44.3604 11.2101 44.5272 11.202 44.6411 11.1938L 45.7397 11.145C 46.4233 10.1196 46.8913 9.46045 47.1436 9.16748C 47.404 8.87451 47.5545 8.71582 47.5952 8.69141C 47.6359 8.65885 47.7173 8.64258 47.8394 8.64258L 48.4131 8.56934ZM 54.6997 15.0146C 55.3182 15.0146 55.6274 15.2262 55.6274 15.6494C 55.6274 15.8773 55.5745 16.0441 55.4688 16.1499C 55.363 16.2557 55.1351 16.6097 54.7852 17.2119C 54.4434 17.806 54.0609 18.571 53.6377 19.5068C 53.2227 20.4346 52.9541 21.228 52.832 21.8872C 52.8076 21.9686 52.7954 22.0825 52.7954 22.229C 52.7954 22.6766 52.9175 22.9004 53.1616 22.9004C 53.4058 22.9004 53.6947 22.7865 54.0283 22.5586C 54.362 22.3226 54.659 22.0744 54.9194 21.814C 55.1799 21.5454 55.4321 21.2728 55.6763 20.9961C 55.9285 20.7194 56.0791 20.5607 56.1279 20.52C 56.1768 20.4793 56.25 20.459 56.3477 20.459C 56.5023 20.459 56.5959 20.577 56.6284 20.813C 56.661 21.049 56.6772 21.2931 56.6772 21.5454C 56.6772 21.7977 56.6528 21.9727 56.604 22.0703C 56.368 22.5342 55.8472 23.0916 55.0415 23.7427C 54.244 24.3937 53.5156 24.7192 52.8564 24.7192C 52.2054 24.7192 51.7253 24.5199 51.416 24.1211C 51.1068 23.7223 50.9521 23.2829 50.9521 22.8027C 50.9521 22.3145 51.0335 21.8872 51.1963 21.521C 50.5208 22.3999 49.7437 23.1445 48.8647 23.7549C 47.994 24.3652 47.2819 24.6704 46.7285 24.6704C 46.1751 24.6704 45.7235 24.5036 45.3735 24.1699C 44.9259 23.7549 44.7021 23.1812 44.7021 22.4487C 44.7021 21.7082 44.8649 20.9676 45.1904 20.2271C 45.5241 19.4784 45.9595 18.7988 46.4966 18.1885C 47.0337 17.57 47.6237 17.0085 48.2666 16.5039C 49.6175 15.446 50.8626 14.917 52.002 14.917C 52.4414 14.917 52.7995 14.9902 53.0762 15.1367C 53.3529 15.2832 53.5278 15.4663 53.6011 15.686C 53.7964 15.3931 53.9591 15.21 54.0894 15.1367C 54.2277 15.0553 54.4312 15.0146 54.6997 15.0146ZM 53.0762 16.3696C 51.6846 16.3696 50.2441 17.1427 48.7549 18.689C 48.2259 19.2424 47.7376 19.9056 47.29 20.6787C 46.8506 21.4518 46.6309 21.9808 46.6309 22.2656C 46.6309 22.5505 46.7122 22.6929 46.875 22.6929C 47.1029 22.6929 47.7376 22.2453 48.7793 21.3501C 49.821 20.4468 50.5127 19.7835 50.8545 19.3604C 51.2288 18.8883 51.9694 17.8914 53.0762 16.3696ZM 65.686 5.96924C 66.0767 5.96924 66.4185 6.08724 66.7114 6.32324C 67.0125 6.55111 67.1631 6.8929 67.1631 7.34863C 67.1631 7.80436 66.9108 8.52051 66.4062 9.49707C 65.9017 10.4655 65.2954 11.4583 64.5874 12.4756C 63.8794 13.4847 63.0778 14.5589 62.1826 15.6982C 60.7666 17.5049 59.4076 19.1284 58.1055 20.5688C 58.0973 20.6665 58.0607 20.8496 57.9956 21.1182C 57.9386 21.3786 57.9102 21.6431 57.9102 21.9116C 57.9102 22.1802 58.0322 22.4243 58.2764 22.644C 58.5286 22.8556 58.8379 22.9614 59.2041 22.9614C 59.5703 22.9614 59.9609 22.8312 60.376 22.5708C 60.7992 22.3104 61.1654 22.0215 61.4746 21.7041C 62.2884 20.8659 62.793 20.4468 62.9883 20.4468C 63.1836 20.4468 63.2812 20.7438 63.2812 21.3379L 63.2812 21.582C 63.2812 21.8994 63.2243 22.1313 63.1104 22.2778C 62.4268 23.116 61.6577 23.7427 60.8032 24.1577C 59.9487 24.5646 59.139 24.7681 58.374 24.7681C 57.609 24.7681 57.0272 24.5361 56.6284 24.0723C 56.2297 23.6003 56.0303 22.9574 56.0303 22.1436C 56.0303 20.5566 56.4535 18.693 57.2998 16.5527C 58.1543 14.4043 59.1146 12.5773 60.1807 11.0718C 62.5814 7.67009 64.4165 5.96924 65.686 5.96924ZM 65.1367 7.99561C 65.1367 7.87354 65.096 7.8125 65.0146 7.8125C 64.7298 7.8125 63.9811 8.6263 62.7686 10.2539C 61.556 11.8815 60.6771 13.1795 60.1318 14.1479C 59.5947 15.1164 59.0861 16.333 58.606 17.7979C 59.5662 16.6585 60.8927 14.8844 62.5854 12.4756C 64.2863 10.0586 65.1367 8.56527 65.1367 7.99561Z"/>
<path id="path3_fill" d="M 1.34277 36.9531C 1.34277 34.2676 1.4502 31.6178 1.66504 29.0039C 1.91569 26.39 2.29167 23.7581 2.79297 21.1084C 2.90039 20.6787 3.00781 20.3385 3.11523 20.0879C 3.22266 19.8014 3.34798 19.5866 3.49121 19.4434C 3.67025 19.2643 3.88509 19.1569 4.13574 19.1211C 4.4222 19.0495 4.78027 19.0137 5.20996 19.0137C 5.20996 19.1569 5.20996 19.4434 5.20996 19.873C 5.20996 20.2669 5.19206 20.5176 5.15625 20.625C 5.12044 20.8757 5.04883 21.3949 4.94141 22.1826C 4.86979 22.9346 4.76237 23.8298 4.61914 24.8682C 4.47591 25.9066 4.33268 26.9987 4.18945 28.1445C 4.04622 29.2904 3.90299 30.3825 3.75977 31.4209C 3.65234 32.4593 3.54492 33.3724 3.4375 34.1602C 3.33008 34.9121 3.27637 35.4134 3.27637 35.6641L 3.27637 36.0938C 3.27637 37.8125 3.49121 39.4238 3.9209 40.9277C 4.38639 42.3958 5.08464 43.6849 6.01562 44.7949C 6.94661 45.9049 8.09245 46.7822 9.45312 47.4268C 10.8138 48.0355 12.4072 48.3398 14.2334 48.3398C 15.3076 48.3398 16.3639 48.2324 17.4023 48.0176C 18.4766 47.7669 19.5329 47.4984 20.5713 47.2119C 21.6097 46.8896 22.6302 46.6032 23.6328 46.3525C 24.6712 46.1019 25.7096 45.9766 26.748 45.9766L 27.1777 45.9766L 26.748 46.8896C 26.7122 46.8896 26.569 46.9434 26.3184 47.0508C 26.0677 47.1582 25.7633 47.3014 25.4053 47.4805C 25.0472 47.6237 24.6891 47.7848 24.3311 47.9639C 23.973 48.1071 23.6686 48.2324 23.418 48.3398C 21.8783 48.9128 20.3206 49.3783 18.7451 49.7363C 17.2054 50.0586 15.5941 50.2197 13.9111 50.2197C 11.7627 50.2197 9.90072 49.9154 8.3252 49.3066C 6.74967 48.6979 5.44271 47.8206 4.4043 46.6748C 3.36589 45.529 2.59603 44.1504 2.09473 42.5391C 1.59342 40.8919 1.34277 39.0299 1.34277 36.9531ZM 28.0371 48.3398C 28.0371 48.2324 28.0371 48.0534 28.0371 47.8027C 28.0371 47.5163 28.0192 47.2298 27.9834 46.9434C 27.9834 46.6211 27.9834 46.3346 27.9834 46.084C 27.9834 45.7975 27.9834 45.5827 27.9834 45.4395C 27.9834 44.4368 28.055 43.3626 28.1982 42.2168C 28.3415 41.071 28.5563 39.9609 28.8428 38.8867C 29.1292 37.7767 29.5052 36.7204 29.9707 35.7178C 30.472 34.6794 31.0807 33.7842 31.7969 33.0322C 32.5488 32.2445 33.4082 31.6178 34.375 31.1523C 35.3418 30.6868 36.4518 30.4541 37.7051 30.4541C 38.5286 30.4541 39.1553 30.7048 39.585 31.2061C 40.0146 31.6715 40.3011 32.2624 40.4443 32.9785C 40.6234 33.6947 40.7129 34.4466 40.7129 35.2344C 40.7487 36.0221 40.7666 36.7204 40.7666 37.3291C 40.7666 38.7256 40.6234 40.1937 40.3369 41.7334C 40.0505 43.2373 39.585 44.6159 38.9404 45.8691C 38.2959 47.1224 37.4007 48.1608 36.2549 48.9844C 35.1449 49.8079 33.7484 50.2197 32.0654 50.2197C 31.5641 50.2197 31.1344 50.2018 30.7764 50.166C 30.4183 50.1302 30.096 50.0407 29.8096 49.8975C 29.5231 49.7184 29.2367 49.5215 28.9502 49.3066C 28.6637 49.056 28.3594 48.7337 28.0371 48.3398ZM 29.917 47.373C 30.2393 47.6953 30.6152 47.8564 31.0449 47.8564C 31.4746 47.8564 31.8864 47.8564 32.2803 47.8564C 33.641 47.8564 34.751 47.5163 35.6104 46.8359C 36.4697 46.1198 37.1322 45.2425 37.5977 44.2041C 38.099 43.1657 38.4391 42.0378 38.6182 40.8203C 38.833 39.5671 38.9404 38.4033 38.9404 37.3291C 38.9404 36.8278 38.9404 36.2907 38.9404 35.7178C 38.9762 35.109 38.9225 34.554 38.7793 34.0527C 38.6719 33.5156 38.457 33.0859 38.1348 32.7637C 37.8125 32.4056 37.3291 32.2266 36.6846 32.2266C 36.6846 32.7995 36.613 33.2292 36.4697 33.5156C 36.3265 33.8021 36.1296 33.999 35.8789 34.1064C 35.6641 34.2139 35.3955 34.2855 35.0732 34.3213C 34.7868 34.3213 34.4645 34.375 34.1064 34.4824C 33.7842 34.5898 33.4619 34.751 33.1396 34.9658C 32.8174 35.1807 32.5309 35.5566 32.2803 36.0938C 31.7074 37.7051 31.1523 39.2627 30.6152 40.7666C 30.1139 42.2347 29.8633 43.7923 29.8633 45.4395C 29.8633 45.5469 29.8633 45.6901 29.8633 45.8691C 29.8633 46.0124 29.8633 46.1914 29.8633 46.4062C 29.8991 46.6211 29.917 46.818 29.917 46.9971C 29.917 47.1403 29.917 47.2656 29.917 47.373ZM 46.2988 46.4062C 46.3704 46.1198 46.4779 45.6543 46.6211 45.0098C 46.7643 44.3294 46.9076 43.5775 47.0508 42.7539C 47.2298 41.9303 47.391 41.0531 47.5342 40.1221C 47.7132 39.1911 47.8743 38.3138 48.0176 37.4902C 48.1966 36.6667 48.3398 35.9147 48.4473 35.2344C 48.5547 34.554 48.6263 34.0527 48.6621 33.7305C 48.6979 33.5872 48.6979 33.3724 48.6621 33.0859C 48.6263 32.7995 48.5905 32.4772 48.5547 32.1191C 48.5189 31.7611 48.4831 31.4388 48.4473 31.1523C 48.4115 30.8659 48.3936 30.651 48.3936 30.5078C 48.2861 30.5078 48.1071 30.472 47.8564 30.4004C 47.6058 30.3288 47.3372 30.2751 47.0508 30.2393C 46.8001 30.1676 46.5674 30.1139 46.3525 30.0781C 46.1377 30.0065 45.9766 29.9707 45.8691 29.9707C 45.0098 30.293 44.3652 30.7048 43.9355 31.2061C 43.5417 31.6715 43.1657 32.137 42.8076 32.6025C 42.4854 33.068 42.0915 33.4798 41.626 33.8379C 41.1605 34.1602 40.4801 34.3213 39.585 34.3213C 39.2627 34.3213 39.0299 34.196 38.8867 33.9453C 38.7435 33.6947 38.6719 33.4082 38.6719 33.0859L 38.6719 32.8711C 39.4596 31.9759 40.2116 31.2061 40.9277 30.5615C 41.6081 29.917 42.3421 29.3799 43.1299 28.9502C 43.9176 28.4847 44.777 28.1445 45.708 27.9297C 46.639 27.7148 47.7132 27.6074 48.9307 27.6074C 49.4678 27.6074 49.8617 27.7148 50.1123 27.9297C 50.3988 28.1087 50.6136 28.3594 50.7568 28.6816C 50.9001 28.9681 50.9717 29.3083 50.9717 29.7021C 51.0075 30.096 51.0254 30.5257 51.0254 30.9912C 51.0254 31.958 50.918 32.9248 50.7031 33.8916C 50.5241 34.8226 50.3092 35.7715 50.0586 36.7383C 49.8438 37.6693 49.6289 38.6182 49.4141 39.585C 49.1992 40.516 49.0918 41.4827 49.0918 42.4854L 49.0918 42.7002C 49.1992 42.4137 49.432 41.9482 49.79 41.3037C 50.1481 40.6234 50.5241 39.9072 50.918 39.1553C 51.3118 38.4033 51.6878 37.7051 52.0459 37.0605C 52.4398 36.3802 52.7083 35.9147 52.8516 35.6641C 52.8874 35.6283 53.0127 35.485 53.2275 35.2344C 53.4424 34.9479 53.693 34.6257 53.9795 34.2676C 54.3018 33.9095 54.6061 33.5693 54.8926 33.2471C 55.2148 32.889 55.4834 32.6025 55.6982 32.3877C 55.9131 32.1012 56.1637 31.7969 56.4502 31.4746C 56.7725 31.1523 57.0947 30.848 57.417 30.5615C 57.7751 30.2751 58.1331 30.0423 58.4912 29.8633C 58.8851 29.6484 59.279 29.541 59.6729 29.541C 59.9951 29.541 60.2279 29.6663 60.3711 29.917C 60.5501 30.1676 60.6755 30.472 60.7471 30.8301C 60.8187 31.1882 60.8545 31.5641 60.8545 31.958C 60.8545 32.3161 60.8545 32.6204 60.8545 32.8711C 60.8545 33.9453 60.7292 35.0195 60.4785 36.0938C 60.2279 37.168 59.9593 38.2422 59.6729 39.3164C 59.3864 40.3548 59.0999 41.4111 58.8135 42.4854C 58.5628 43.5596 58.4375 44.6338 58.4375 45.708C 58.4375 46.1735 58.5091 46.5674 58.6523 46.8896C 58.7956 47.2119 59.1178 47.373 59.6191 47.373C 60.2637 47.373 60.8545 47.194 61.3916 46.8359C 61.9287 46.4779 62.43 46.1019 62.8955 45.708C 63.3968 45.2783 63.8802 44.8844 64.3457 44.5264C 64.847 44.1683 65.402 43.9893 66.0107 43.9893L 66.0107 45.0098C 66.0107 45.0456 65.9212 45.153 65.7422 45.332C 65.5632 45.5111 65.3483 45.7259 65.0977 45.9766C 64.847 46.2272 64.5785 46.4779 64.292 46.7285C 64.0413 46.9792 63.8265 47.194 63.6475 47.373C 63.361 47.6237 63.0387 47.8923 62.6807 48.1787C 62.3226 48.4652 61.9466 48.7337 61.5527 48.9844C 61.1947 49.1992 60.8008 49.3962 60.3711 49.5752C 59.9414 49.7184 59.5296 49.79 59.1357 49.79C 58.5986 49.79 58.151 49.6468 57.793 49.3604C 57.4707 49.0381 57.2201 48.6621 57.041 48.2324C 56.862 47.7669 56.7367 47.2835 56.665 46.7822C 56.5934 46.2809 56.5576 45.8333 56.5576 45.4395C 56.5576 44.3652 56.6471 43.3089 56.8262 42.2705C 57.041 41.1963 57.2559 40.1579 57.4707 39.1553C 57.6855 38.1169 57.8825 37.0785 58.0615 36.04C 58.2406 35.0016 58.3301 33.9453 58.3301 32.8711L 58.0078 32.8711C 57.972 32.8711 57.8467 32.9785 57.6318 33.1934C 57.417 33.4082 57.1484 33.6589 56.8262 33.9453C 56.5397 34.2318 56.2533 34.5361 55.9668 34.8584C 55.6803 35.1807 55.4297 35.4492 55.2148 35.6641C 55.0358 35.8789 54.8389 36.1475 54.624 36.4697C 54.4092 36.7562 54.1943 37.0785 53.9795 37.4365C 53.7646 37.7946 53.5498 38.1527 53.335 38.5107C 53.1559 38.833 52.9948 39.1374 52.8516 39.4238C 52.7441 39.6745 52.5651 40.0505 52.3145 40.5518C 52.0638 41.0531 51.7773 41.626 51.4551 42.2705C 51.1686 42.915 50.8464 43.5954 50.4883 44.3115C 50.166 45.0277 49.8438 45.708 49.5215 46.3525C 49.235 46.9971 48.9665 47.57 48.7158 48.0713C 48.4652 48.5726 48.2861 48.9486 48.1787 49.1992C 48.1429 49.3424 47.9997 49.5394 47.749 49.79C 47.4984 50.0049 47.3372 50.1302 47.2656 50.166C 47.194 50.2018 47.1582 50.2197 47.1582 50.2197L 46.9971 50.2197L 46.8896 50.2197C 46.8538 50.2197 46.818 50.2018 46.7822 50.166C 46.7106 50.1302 46.6032 50.0586 46.46 49.9512C 46.3525 49.8438 46.2988 49.7721 46.2988 49.7363L 46.2988 46.4062ZM 67.7295 46.8896C 67.0492 46.8896 66.4762 46.6748 66.0107 46.2451C 65.5452 45.8154 65.1514 45.2962 64.8291 44.6875C 64.5426 44.0788 64.3099 43.4342 64.1309 42.7539C 63.9876 42.0736 63.916 41.4827 63.916 40.9814C 63.916 39.8714 64.113 38.7256 64.5068 37.5439C 64.9365 36.3265 65.4915 35.1807 66.1719 34.1064C 66.888 33.0322 67.6937 32.0654 68.5889 31.2061C 69.5199 30.3109 70.4867 29.6126 71.4893 29.1113C 71.9189 28.8965 72.2949 28.7891 72.6172 28.7891C 72.9753 28.7533 73.2796 28.7354 73.5303 28.7354C 73.7809 28.6995 73.96 28.5921 74.0674 28.4131C 74.2106 28.1982 74.2822 27.8044 74.2822 27.2314L 74.2822 18.2617C 74.2822 17.9753 74.4434 17.6888 74.7656 17.4023C 75.0879 17.0801 75.3923 16.9189 75.6787 16.9189C 75.8577 16.9189 76.001 17.0085 76.1084 17.1875C 76.2516 17.3307 76.359 17.5098 76.4307 17.7246C 76.5023 17.9395 76.556 18.1722 76.5918 18.4229C 76.6276 18.6735 76.6455 18.8525 76.6455 18.96C 76.6455 23.0062 76.5918 26.9987 76.4844 30.9375C 76.377 34.8405 76.3232 38.8688 76.3232 43.0225C 76.6097 43.0225 76.8962 42.9688 77.1826 42.8613C 77.4691 42.7539 77.7734 42.6286 78.0957 42.4854C 78.418 42.3421 78.7223 42.1989 79.0088 42.0557C 79.3311 41.9124 79.6354 41.805 79.9219 41.7334C 79.9219 41.7692 79.9219 41.8408 79.9219 41.9482C 79.9577 42.0557 79.9756 42.1452 79.9756 42.2168C 79.9756 42.7181 79.7965 43.1299 79.4385 43.4521C 79.1162 43.7386 78.7223 44.0072 78.2568 44.2578C 77.8271 44.5085 77.3975 44.7591 76.9678 45.0098C 76.5739 45.2604 76.3053 45.5827 76.1621 45.9766C 76.1263 46.0482 76.0905 46.2988 76.0547 46.7285C 76.0189 47.1582 75.9473 47.6416 75.8398 48.1787C 75.7324 48.7158 75.5713 49.1992 75.3564 49.6289C 75.1416 50.0228 74.873 50.2197 74.5508 50.2197C 74.0495 50.2197 73.7093 50.0765 73.5303 49.79C 73.387 49.5036 73.3333 49.1634 73.3691 48.7695C 73.4049 48.3757 73.4587 47.9997 73.5303 47.6416C 73.6377 47.2835 73.6914 47.0329 73.6914 46.8896L 67.7295 46.8896ZM 65.7959 40.9814C 65.7959 42.1631 66.1719 43.1478 66.9238 43.9355C 67.6758 44.6875 68.6426 45.0635 69.8242 45.0635C 70.0749 45.0635 70.3613 45.0635 70.6836 45.0635C 71.0417 45.0635 71.3997 45.0456 71.7578 45.0098C 72.1159 44.9382 72.4382 44.8307 72.7246 44.6875C 73.0111 44.5443 73.2259 44.3294 73.3691 44.043C 73.2975 43.0762 73.2796 42.1631 73.3154 41.3037C 73.387 40.4085 73.4587 39.5312 73.5303 38.6719C 73.6019 37.7767 73.6735 36.8994 73.7451 36.04C 73.8167 35.1449 73.8525 34.2139 73.8525 33.2471C 73.8525 32.8174 73.763 32.4772 73.584 32.2266C 73.4408 31.9759 73.1364 31.8506 72.6709 31.8506C 71.7041 31.8506 70.791 32.1729 69.9316 32.8174C 69.1081 33.4261 68.374 34.2139 67.7295 35.1807C 67.1208 36.1117 66.6374 37.1143 66.2793 38.1885C 65.957 39.2269 65.7959 40.1579 65.7959 40.9814ZM 81.2646 48.3398C 81.2646 48.2324 81.2646 48.0534 81.2646 47.8027C 81.2646 47.5163 81.2467 47.2298 81.2109 46.9434C 81.2109 46.6211 81.2109 46.3346 81.2109 46.084C 81.2109 45.7975 81.2109 45.5827 81.2109 45.4395C 81.2109 44.4368 81.2826 43.3626 81.4258 42.2168C 81.569 41.071 81.7839 39.9609 82.0703 38.8867C 82.3568 37.7767 82.7327 36.7204 83.1982 35.7178C 83.6995 34.6794 84.3083 33.7842 85.0244 33.0322C 85.7764 32.2445 86.6357 31.6178 87.6025 31.1523C 88.5693 30.6868 89.6794 30.4541 90.9326 30.4541C 91.7562 30.4541 92.3828 30.7048 92.8125 31.2061C 93.2422 31.6715 93.5286 32.2624 93.6719 32.9785C 93.8509 33.6947 93.9404 34.4466 93.9404 35.2344C 93.9762 36.0221 93.9941 36.7204 93.9941 37.3291C 93.9941 38.7256 93.8509 40.1937 93.5645 41.7334C 93.278 43.2373 92.8125 44.6159 92.168 45.8691C 91.5234 47.1224 90.6283 48.1608 89.4824 48.9844C 88.3724 49.8079 86.9759 50.2197 85.293 50.2197C 84.7917 50.2197 84.362 50.2018 84.0039 50.166C 83.6458 50.1302 83.3236 50.0407 83.0371 49.8975C 82.7507 49.7184 82.4642 49.5215 82.1777 49.3066C 81.8913 49.056 81.5869 48.7337 81.2646 48.3398ZM 83.1445 47.373C 83.4668 47.6953 83.8428 47.8564 84.2725 47.8564C 84.7021 47.8564 85.1139 47.8564 85.5078 47.8564C 86.8685 47.8564 87.9785 47.5163 88.8379 46.8359C 89.6973 46.1198 90.3597 45.2425 90.8252 44.2041C 91.3265 43.1657 91.6667 42.0378 91.8457 40.8203C 92.0605 39.5671 92.168 38.4033 92.168 37.3291C 92.168 36.8278 92.168 36.2907 92.168 35.7178C 92.2038 35.109 92.1501 34.554 92.0068 34.0527C 91.8994 33.5156 91.6846 33.0859 91.3623 32.7637C 91.04 32.4056 90.5566 32.2266 89.9121 32.2266C 89.9121 32.7995 89.8405 33.2292 89.6973 33.5156C 89.554 33.8021 89.3571 33.999 89.1064 34.1064C 88.8916 34.2139 88.623 34.2855 88.3008 34.3213C 88.0143 34.3213 87.6921 34.375 87.334 34.4824C 87.0117 34.5898 86.6895 34.751 86.3672 34.9658C 86.0449 35.1807 85.7585 35.5566 85.5078 36.0938C 84.9349 37.7051 84.3799 39.2627 83.8428 40.7666C 83.3415 42.2347 83.0908 43.7923 83.0908 45.4395C 83.0908 45.5469 83.0908 45.6901 83.0908 45.8691C 83.0908 46.0124 83.0908 46.1914 83.0908 46.4062C 83.1266 46.6211 83.1445 46.818 83.1445 46.9971C 83.1445 47.1403 83.1445 47.2656 83.1445 47.373ZM 99.5264 46.4062C 99.598 46.1198 99.7054 45.6543 99.8486 45.0098C 99.9919 44.3294 100.135 43.5775 100.278 42.7539C 100.457 41.9303 100.618 41.0531 100.762 40.1221C 100.941 39.1911 101.102 38.3138 101.245 37.4902C 101.424 36.6667 101.567 35.9147 101.675 35.2344C 101.782 34.554 101.854 34.0527 101.89 33.7305C 101.925 33.5872 101.925 33.3724 101.89 33.0859C 101.854 32.7995 101.818 32.4772 101.782 32.1191C 101.746 31.7611 101.711 31.4388 101.675 31.1523C 101.639 30.8659 101.621 30.651 101.621 30.5078C 101.514 30.5078 101.335 30.472 101.084 30.4004C 100.833 30.3288 100.565 30.2751 100.278 30.2393C 100.028 30.1676 99.7949 30.1139 99.5801 30.0781C 99.3652 30.0065 99.2041 29.9707 99.0967 29.9707C 98.2373 30.293 97.5928 30.7048 97.1631 31.2061C 96.7692 31.6715 96.3932 32.137 96.0352 32.6025C 95.7129 33.068 95.319 33.4798 94.8535 33.8379C 94.388 34.1602 93.7077 34.3213 92.8125 34.3213C 92.4902 34.3213 92.2575 34.196 92.1143 33.9453C 91.971 33.6947 91.8994 33.4082 91.8994 33.0859L 91.8994 32.8711C 92.6872 31.9759 93.4391 31.2061 94.1553 30.5615C 94.8356 29.917 95.5697 29.3799 96.3574 28.9502C 97.1452 28.4847 98.0046 28.1445 98.9355 27.9297C 99.8665 27.7148 100.941 27.6074 102.158 27.6074C 102.695 27.6074 103.089 27.7148 103.34 27.9297C 103.626 28.1087 103.841 28.3594 103.984 28.6816C 104.128 28.9681 104.199 29.3083 104.199 29.7021C 104.235 30.096 104.253 30.5257 104.253 30.9912C 104.253 31.958 104.146 32.9248 103.931 33.8916C 103.752 34.8226 103.537 35.7715 103.286 36.7383C 103.071 37.6693 102.856 38.6182 102.642 39.585C 102.427 40.516 102.319 41.4827 102.319 42.4854L 102.319 42.7002C 102.427 42.4137 102.66 41.9482 103.018 41.3037C 103.376 40.6234 103.752 39.9072 104.146 39.1553C 104.539 38.4033 104.915 37.7051 105.273 37.0605C 105.667 36.3802 105.936 35.9147 106.079 35.6641C 106.115 35.6283 106.24 35.485 106.455 35.2344C 106.67 34.9479 106.921 34.6257 107.207 34.2676C 107.529 33.9095 107.834 33.5693 108.12 33.2471C 108.442 32.889 108.711 32.6025 108.926 32.3877C 109.141 32.1012 109.391 31.7969 109.678 31.4746C 110 31.1523 110.322 30.848 110.645 30.5615C 111.003 30.2751 111.361 30.0423 111.719 29.8633C 112.113 29.6484 112.507 29.541 112.9 29.541C 113.223 29.541 113.455 29.6663 113.599 29.917C 113.778 30.1676 113.903 30.472 113.975 30.8301C 114.046 31.1882 114.082 31.5641 114.082 31.958C 114.082 32.3161 114.082 32.6204 114.082 32.8711C 114.082 33.9453 113.957 35.0195 113.706 36.0938C 113.455 37.168 113.187 38.2422 112.9 39.3164C 112.614 40.3548 112.327 41.4111 112.041 42.4854C 111.79 43.5596 111.665 44.6338 111.665 45.708C 111.665 46.1735 111.737 46.5674 111.88 46.8896C 112.023 47.2119 112.345 47.373 112.847 47.373C 113.491 47.373 114.082 47.194 114.619 46.8359C 115.156 46.4779 115.658 46.1019 116.123 45.708C 116.624 45.2783 117.108 44.8844 117.573 44.5264C 118.075 44.1683 118.63 43.9893 119.238 43.9893L 119.238 45.0098C 119.238 45.0456 119.149 45.153 118.97 45.332C 118.791 45.5111 118.576 45.7259 118.325 45.9766C 118.075 46.2272 117.806 46.4779 117.52 46.7285C 117.269 46.9792 117.054 47.194 116.875 47.373C 116.589 47.6237 116.266 47.8923 115.908 48.1787C 115.55 48.4652 115.174 48.7337 114.78 48.9844C 114.422 49.1992 114.028 49.3962 113.599 49.5752C 113.169 49.7184 112.757 49.79 112.363 49.79C 111.826 49.79 111.379 49.6468 111.021 49.3604C 110.698 49.0381 110.448 48.6621 110.269 48.2324C 110.09 47.7669 109.964 47.2835 109.893 46.7822C 109.821 46.2809 109.785 45.8333 109.785 45.4395C 109.785 44.3652 109.875 43.3089 110.054 42.2705C 110.269 41.1963 110.483 40.1579 110.698 39.1553C 110.913 38.1169 111.11 37.0785 111.289 36.04C 111.468 35.0016 111.558 33.9453 111.558 32.8711L 111.235 32.8711C 111.2 32.8711 111.074 32.9785 110.859 33.1934C 110.645 33.4082 110.376 33.6589 110.054 33.9453C 109.767 34.2318 109.481 34.5361 109.194 34.8584C 108.908 35.1807 108.657 35.4492 108.442 35.6641C 108.263 35.8789 108.066 36.1475 107.852 36.4697C 107.637 36.7562 107.422 37.0785 107.207 37.4365C 106.992 37.7946 106.777 38.1527 106.562 38.5107C 106.383 38.833 106.222 39.1374 106.079 39.4238C 105.972 39.6745 105.793 40.0505 105.542 40.5518C 105.291 41.0531 105.005 41.626 104.683 42.2705C 104.396 42.915 104.074 43.5954 103.716 44.3115C 103.394 45.0277 103.071 45.708 102.749 46.3525C 102.463 46.9971 102.194 47.57 101.943 48.0713C 101.693 48.5726 101.514 48.9486 101.406 49.1992C 101.37 49.3424 101.227 49.5394 100.977 49.79C 100.726 50.0049 100.565 50.1302 100.493 50.166C 100.422 50.2018 100.386 50.2197 100.386 50.2197L 100.225 50.2197L 100.117 50.2197C 100.081 50.2197 100.046 50.2018 100.01 50.166C 99.9382 50.1302 99.8307 50.0586 99.6875 49.9512C 99.5801 49.8438 99.5264 49.7721 99.5264 49.7363L 99.5264 46.4062Z"/>
</defs>
</svg>
