<svg width="200" height="200" viewBox="0 0 200 200" version="1.1" xmlns="http://www.w3.org/2000/svg" xmlns:xlink="http://www.w3.org/1999/xlink" xmlns:figma="http://www.figma.com/figma/ns">
<title>Group</title>
<desc>Created using Figma</desc>
<g id="Canvas" transform="translate(152 263)" figma:type="canvas">
<g id="Group" style="mix-blend-mode:normal;" figma:type="frame">
<g id="Ellipse" style="mix-blend-mode:normal;" figma:type="ellipse">
<use xlink:href="#path0_fill" transform="translate(-122 -233)" fill="#B21C0E" style="mix-blend-mode:normal;"/>
</g>
<g id="Ellipse 2" style="mix-blend-mode:normal;" figma:type="ellipse">
<use xlink:href="#path1_fill" transform="translate(-152 -263)" fill="#000000" fill-opacity="0.7" style="mix-blend-mode:normal;"/>
</g>
<g id="Capital" style="mix-blend-mode:normal;" figma:type="text">
<use xlink:href="#path2_fill" transform="translate(-84 -150)" fill="#FFFFFF" style="mix-blend-mode:normal;"/>
</g>
<g id="Paris" style="mix-blend-mode:normal;" figma:type="text">
<use xlink:href="#path3_fill" transform="translate(-99 -212)" fill="#FFFFFF" style="mix-blend-mode:normal;"/>
</g>
</g>
</g>
<defs>
<path id="path0_fill" d="M 140 70C 140 108.66 108.66 140 70 140C 31.3401 140 0 108.66 0 70C 0 31.3401 31.3401 0 70 0C 108.66 0 140 31.3401 140 70Z"/>
<path id="path1_fill" d="M 200 100C 200 155.228 155.228 200 100 200C 44.7715 200 0 155.228 0 100C 0 44.7715 44.7715 0 100 0C 155.228 0 200 44.7715 200 100Z"/>
<path id="path2_fill" d="M 14.1357 17.1753C 14.3311 17.1753 14.4287 17.334 14.4287 17.6514C 14.4287 17.9606 14.3595 18.4977 14.2212 19.2627C 14.1154 19.7754 13.5295 20.5078 12.4634 21.46C 11.1776 22.5993 9.76562 23.4131 8.22754 23.9014C 7.2998 24.1943 6.39242 24.3408 5.50537 24.3408C 4.62646 24.3408 3.8208 23.9705 3.08838 23.23C 2.3641 22.4813 2.00195 21.5983 2.00195 20.5811C 2.00195 19.5557 2.2054 18.4977 2.6123 17.4072C 3.02734 16.3086 3.58073 15.2629 4.27246 14.27C 4.97233 13.269 5.79427 12.3088 6.73828 11.3892C 7.69043 10.4696 8.6792 9.67204 9.70459 8.99658C 10.73 8.32113 11.8042 7.78402 12.9272 7.38525C 14.0503 6.98649 15.1164 6.78711 16.1255 6.78711C 16.923 6.78711 17.6025 7.07601 18.1641 7.65381C 18.457 7.96305 18.6035 8.35368 18.6035 8.82568C 18.6035 9.28955 18.3757 9.87956 17.9199 10.5957C 17.4642 11.3037 16.923 11.9507 16.2964 12.5366C 15.6779 13.1226 15.035 13.619 14.3677 14.0259C 13.7085 14.4328 13.1795 14.6362 12.7808 14.6362C 12.382 14.6362 12.0402 14.5142 11.7554 14.27C 11.4705 14.0177 11.3281 13.7939 11.3281 13.5986C 11.3281 13.4033 11.3688 13.1877 11.4502 12.9517C 11.5397 12.7157 11.6496 12.5977 11.7798 12.5977C 11.7472 12.6383 11.731 12.679 11.731 12.7197C 11.731 12.8174 11.8693 12.8662 12.146 12.8662C 12.4308 12.8662 12.9028 12.618 13.562 12.1216C 14.2212 11.6252 14.8153 11.0677 15.3442 10.4492C 15.8813 9.83073 16.1499 9.36686 16.1499 9.05762C 16.1499 8.84603 16.0075 8.74023 15.7227 8.74023C 14.9577 8.74023 13.8997 9.09831 12.5488 9.81445C 11.2061 10.5225 9.92025 11.438 8.69141 12.561C 7.46256 13.6841 6.39242 15.0187 5.48096 16.5649C 4.57764 18.103 4.12598 19.4865 4.12598 20.7153C 4.12598 21.228 4.26025 21.639 4.52881 21.9482C 4.8055 22.2575 5.22461 22.4121 5.78613 22.4121C 6.35579 22.4121 7.02718 22.2493 7.80029 21.9238C 8.5734 21.5983 9.30583 21.1995 9.99756 20.7275C 10.6974 20.2555 11.3566 19.7713 11.9751 19.2749C 12.5936 18.7785 13.0859 18.3431 13.4521 17.9688C 13.8265 17.5944 14.0177 17.3706 14.0259 17.2974C 14.034 17.216 14.0706 17.1753 14.1357 17.1753ZM 24.2798 15.0146C 24.8983 15.0146 25.2075 15.2262 25.2075 15.6494C 25.2075 15.8773 25.1546 16.0441 25.0488 16.1499C 24.943 16.2557 24.7152 16.6097 24.3652 17.2119C 24.0234 17.806 23.641 18.571 23.2178 19.5068C 22.8027 20.4346 22.5342 21.228 22.4121 21.8872C 22.3877 21.9686 22.3755 22.0825 22.3755 22.229C 22.3755 22.6766 22.4976 22.9004 22.7417 22.9004C 22.9858 22.9004 23.2747 22.7865 23.6084 22.5586C 23.9421 22.3226 24.2391 22.0744 24.4995 21.814C 24.7599 21.5454 25.0122 21.2728 25.2563 20.9961C 25.5086 20.7194 25.6592 20.5607 25.708 20.52C 25.7568 20.4793 25.8301 20.459 25.9277 20.459C 26.0824 20.459 26.1759 20.577 26.2085 20.813C 26.241 21.049 26.2573 21.2931 26.2573 21.5454C 26.2573 21.7977 26.2329 21.9727 26.1841 22.0703C 25.9481 22.5342 25.4272 23.0916 24.6216 23.7427C 23.8241 24.3937 23.0957 24.7192 22.4365 24.7192C 21.7855 24.7192 21.3053 24.5199 20.9961 24.1211C 20.6868 23.7223 20.5322 23.2829 20.5322 22.8027C 20.5322 22.3145 20.6136 21.8872 20.7764 21.521C 20.1009 22.3999 19.3237 23.1445 18.4448 23.7549C 17.5741 24.3652 16.862 24.6704 16.3086 24.6704C 15.7552 24.6704 15.3035 24.5036 14.9536 24.1699C 14.506 23.7549 14.2822 23.1812 14.2822 22.4487C 14.2822 21.7082 14.445 20.9676 14.7705 20.2271C 15.1042 19.4784 15.5396 18.7988 16.0767 18.1885C 16.6138 17.57 17.2038 17.0085 17.8467 16.5039C 19.1976 15.446 20.4427 14.917 21.582 14.917C 22.0215 14.917 22.3796 14.9902 22.6562 15.1367C 22.9329 15.2832 23.1079 15.4663 23.1812 15.686C 23.3765 15.3931 23.5392 15.21 23.6694 15.1367C 23.8078 15.0553 24.0112 15.0146 24.2798 15.0146ZM 22.6562 16.3696C 21.2646 16.3696 19.8242 17.1427 18.335 18.689C 17.806 19.2424 17.3177 19.9056 16.8701 20.6787C 16.4307 21.4518 16.2109 21.9808 16.2109 22.2656C 16.2109 22.5505 16.2923 22.6929 16.4551 22.6929C 16.6829 22.6929 17.3177 22.2453 18.3594 21.3501C 19.401 20.4468 20.0928 19.7835 20.4346 19.3604C 20.8089 18.8883 21.5495 17.8914 22.6562 16.3696ZM 31.9458 11.3037L 32.1655 11.2793C 32.2876 11.2793 32.3853 11.3851 32.4585 11.5967C 32.5317 11.8083 32.5684 11.9507 32.5684 12.0239C 32.5684 12.0972 32.487 12.2355 32.3242 12.439L 28.8452 17.7368C 30.0659 16.5161 31.307 15.625 32.5684 15.0635C 33.0566 14.8519 33.4961 14.7461 33.8867 14.7461C 34.2855 14.7461 34.6029 14.8763 34.8389 15.1367C 35.083 15.389 35.2051 15.7064 35.2051 16.0889C 35.2051 16.4714 35.0993 16.9434 34.8877 17.5049C 34.6761 18.0664 34.3872 18.6646 34.021 19.2993C 33.6629 19.9341 33.2235 20.5729 32.7026 21.2158C 32.1899 21.8587 31.6488 22.4406 31.0791 22.9614C 30.5176 23.4823 29.9032 23.9054 29.2358 24.231C 28.5685 24.5565 27.9826 24.7192 27.478 24.7192C 26.4608 24.7192 25.9521 24.2513 25.9521 23.3154C 25 24.7721 23.9014 26.4974 22.6562 28.4912C 21.4111 30.485 20.7438 31.5389 20.6543 31.6528C 20.5648 31.7668 20.4915 31.8237 20.4346 31.8237C 20.3695 31.8237 20.2759 31.7871 20.1538 31.7139C 20.0236 31.6406 19.8893 31.5186 19.751 31.3477C 19.6126 31.1768 19.5435 30.9285 19.5435 30.603C 19.5353 30.2775 19.6289 29.9479 19.8242 29.6143C 20.9229 27.7832 23.0387 24.3408 26.1719 19.2871C 29.3132 14.2253 31.014 11.6089 31.2744 11.438C 31.4209 11.3403 31.5674 11.2915 31.7139 11.2915L 31.9458 11.3037ZM 33.02 16.9189C 33.02 16.748 32.9386 16.6626 32.7759 16.6626C 32.3364 16.6626 31.4046 17.3381 29.9805 18.689C 28.5645 20.0399 27.4373 21.2728 26.5991 22.3877C 26.8107 22.6481 27.124 22.7783 27.5391 22.7783C 27.9541 22.7783 28.4912 22.5545 29.1504 22.1069C 29.8096 21.6593 30.4199 21.1304 30.9814 20.52C 31.543 19.9015 32.0231 19.2546 32.4219 18.5791C 32.8206 17.9036 33.02 17.3503 33.02 16.9189ZM 42.8833 10.8887C 42.8833 11.3525 42.6676 11.8205 42.2363 12.2925C 41.805 12.7563 41.3534 12.9883 40.8813 12.9883C 40.4175 12.9883 40.1855 12.7441 40.1855 12.2559C 40.1855 11.7676 40.389 11.3037 40.7959 10.8643C 41.2109 10.4167 41.6667 10.1929 42.1631 10.1929C 42.3828 10.1929 42.5578 10.2539 42.688 10.376C 42.8182 10.498 42.8833 10.6689 42.8833 10.8887ZM 40.9058 21.5454C 40.9058 21.7896 40.8813 21.9645 40.8325 22.0703C 40.4338 22.8841 39.799 23.5433 38.9282 24.0479C 38.0575 24.5443 37.3006 24.7925 36.6577 24.7925C 36.0148 24.7925 35.4614 24.5768 34.9976 24.1455C 34.5337 23.7142 34.3018 23.2747 34.3018 22.8271C 34.3018 22.3796 34.5256 21.7285 34.9731 20.874C 35.4207 20.0195 35.8683 19.2301 36.3159 18.5059C 36.7635 17.7816 36.9873 17.391 36.9873 17.334C 36.9873 17.2689 36.9019 17.1468 36.731 16.9678C 36.5682 16.7887 36.4868 16.6585 36.4868 16.5771C 36.4868 16.4876 36.6536 16.2638 36.9873 15.9058C 37.3291 15.5396 37.7401 15.1815 38.2202 14.8315C 38.7085 14.4735 39.0788 14.2944 39.3311 14.2944C 39.5915 14.2944 39.8234 14.4084 40.0269 14.6362C 40.2303 14.8641 40.332 15.0716 40.332 15.2588C 40.332 15.446 39.3636 17.2078 37.4268 20.5444C 37.4023 20.5933 37.3332 20.7031 37.2192 20.874C 37.1134 21.0368 37.028 21.1751 36.9629 21.2891C 36.9059 21.3949 36.8368 21.5251 36.7554 21.6797C 36.5926 22.0052 36.5112 22.2778 36.5112 22.4976C 36.5112 22.7743 36.6984 22.9126 37.0728 22.9126C 37.4471 22.9126 37.8337 22.7865 38.2324 22.5342C 38.6393 22.2738 38.9893 21.9889 39.2822 21.6797C 40.0472 20.8577 40.4826 20.4468 40.5884 20.4468C 40.8 20.4468 40.9058 20.813 40.9058 21.5454ZM 48.4131 8.56934L 48.9136 8.69141C 48.9868 8.69141 49.0519 8.72803 49.1089 8.80127C 49.1659 8.87451 49.1943 8.94368 49.1943 9.00879C 49.1943 9.07389 49.1089 9.24886 48.938 9.53369C 48.7671 9.81852 48.5636 10.144 48.3276 10.5103C 48.0998 10.8683 47.9777 11.0636 47.9614 11.0962C 48.5962 11.0474 49.0438 11.0229 49.3042 11.0229C 49.5728 11.0229 49.7559 11.0433 49.8535 11.084C 49.9512 11.1165 50.061 11.2183 50.1831 11.3892C 50.3133 11.5519 50.4313 11.6781 50.5371 11.7676C 50.6429 11.849 50.6958 11.9751 50.6958 12.146C 50.6958 12.3169 50.59 12.4634 50.3784 12.5854C 50.175 12.6994 49.9552 12.7686 49.7192 12.793C 47.8312 12.9801 46.7896 13.0778 46.5942 13.0859C 45.9351 14.0951 45.0114 15.6698 43.8232 17.8101C 42.6432 19.9422 42.0166 21.2769 41.9434 21.814C 41.9108 22.0581 41.8945 22.2575 41.8945 22.4121C 41.8945 22.7295 42.0614 22.8882 42.395 22.8882C 42.7287 22.8882 43.099 22.762 43.5059 22.5098C 43.9128 22.2493 44.2871 21.9686 44.6289 21.6675C 45.5404 20.8537 46.0286 20.4468 46.0938 20.4468C 46.3053 20.4468 46.4111 20.813 46.4111 21.5454C 46.4111 21.9442 46.228 22.3022 45.8618 22.6196C 45.0399 23.3276 44.3481 23.8607 43.7866 24.2188C 43.2251 24.5768 42.6636 24.7559 42.1021 24.7559C 41.98 24.7559 41.866 24.7437 41.7603 24.7192C 41.1092 24.5972 40.6291 24.3612 40.3198 24.0112C 40.0187 23.6532 39.8682 23.173 39.8682 22.5708C 39.8763 21.9686 40.0553 21.2402 40.4053 20.3857C 40.7633 19.5231 41.2109 18.6076 41.748 17.6392C 42.627 16.0604 43.5059 14.5793 44.3848 13.1958L 43.9209 13.2568C 42.9769 13.3626 42.4276 13.4155 42.2729 13.4155L 42.1631 13.4155C 41.9271 13.4155 41.6992 13.3708 41.4795 13.2812C 41.2598 13.1836 41.1499 13.0656 41.1499 12.9272C 41.1499 12.7889 41.2069 12.6546 41.3208 12.5244C 41.4429 12.3942 41.5161 12.2925 41.5405 12.2192C 41.5975 12.0402 41.8091 11.8408 42.1753 11.6211C 42.5496 11.4014 42.8304 11.2874 43.0176 11.2793C 43.2048 11.263 43.3838 11.2508 43.5547 11.2427C 43.7337 11.2345 43.929 11.2264 44.1406 11.2183C 44.3604 11.2101 44.5272 11.202 44.6411 11.1938L 45.7397 11.145C 46.4233 10.1196 46.8913 9.46045 47.1436 9.16748C 47.404 8.87451 47.5545 8.71582 47.5952 8.69141C 47.6359 8.65885 47.7173 8.64258 47.8394 8.64258L 48.4131 8.56934ZM 54.6997 15.0146C 55.3182 15.0146 55.6274 15.2262 55.6274 15.6494C 55.6274 15.8773 55.5745 16.0441 55.4688 16.1499C 55.363 16.2557 55.1351 16.6097 54.7852 17.2119C 54.4434 17.806 54.0609 18.571 53.6377 19.5068C 53.2227 20.4346 52.9541 21.228 52.832 21.8872C 52.8076 21.9686 52.7954 22.0825 52.7954 22.229C 52.7954 22.6766 52.9175 22.9004 53.1616 22.9004C 53.4058 22.9004 53.6947 22.7865 54.0283 22.5586C 54.362 22.3226 54.659 22.0744 54.9194 21.814C 55.1799 21.5454 55.4321 21.2728 55.6763 20.9961C 55.9285 20.7194 56.0791 20.5607 56.1279 20.52C 56.1768 20.4793 56.25 20.459 56.3477 20.459C 56.5023 20.459 56.5959 20.577 56.6284 20.813C 56.661 21.049 56.6772 21.2931 56.6772 21.5454C 56.6772 21.7977 56.6528 21.9727 56.604 22.0703C 56.368 22.5342 55.8472 23.0916 55.0415 23.7427C 54.244 24.3937 53.5156 24.7192 52.8564 24.7192C 52.2054 24.7192 51.7253 24.5199 51.416 24.1211C 51.1068 23.7223 50.9521 23.2829 50.9521 22.8027C 50.9521 22.3145 51.0335 21.8872 51.1963 21.521C 50.5208 22.3999 49.7437 23.1445 48.8647 23.7549C 47.994 24.3652 47.2819 24.6704 46.7285 24.6704C 46.1751 24.6704 45.7235 24.5036 45.3735 24.1699C 44.9259 23.7549 44.7021 23.1812 44.7021 22.4487C 44.7021 21.7082 44.8649 20.9676 45.1904 20.2271C 45.5241 19.4784 45.9595 18.7988 46.4966 18.1885C 47.0337 17.57 47.6237 17.0085 48.2666 16.5039C 49.6175 15.446 50.8626 14.917 52.002 14.917C 52.4414 14.917 52.7995 14.9902 53.0762 15.1367C 53.3529 15.2832 53.5278 15.4663 53.6011 15.686C 53.7964 15.3931 53.9591 15.21 54.0894 15.1367C 54.2277 15.0553 54.4312 15.0146 54.6997 15.0146ZM 53.0762 16.3696C 51.6846 16.3696 50.2441 17.1427 48.7549 18.689C 48.2259 19.2424 47.7376 19.9056 47.29 20.6787C 46.8506 21.4518 46.6309 21.9808 46.6309 22.2656C 46.6309 22.5505 46.7122 22.6929 46.875 22.6929C 47.1029 22.6929 47.7376 22.2453 48.7793 21.3501C 49.821 20.4468 50.5127 19.7835 50.8545 19.3604C 51.2288 18.8883 51.9694 17.8914 53.0762 16.3696ZM 65.686 5.96924C 66.0767 5.96924 66.4185 6.08724 66.7114 6.32324C 67.0125 6.55111 67.1631 6.8929 67.1631 7.34863C 67.1631 7.80436 66.9108 8.52051 66.4062 9.49707C 65.9017 10.4655 65.2954 11.4583 64.5874 12.4756C 63.8794 13.4847 63.0778 14.5589 62.1826 15.6982C 60.7666 17.5049 59.4076 19.1284 58.1055 20.5688C 58.0973 20.6665 58.0607 20.8496 57.9956 21.1182C 57.9386 21.3786 57.9102 21.6431 57.9102 21.9116C 57.9102 22.1802 58.0322 22.4243 58.2764 22.644C 58.5286 22.8556 58.8379 22.9614 59.2041 22.9614C 59.5703 22.9614 59.9609 22.8312 60.376 22.5708C 60.7992 22.3104 61.1654 22.0215 61.4746 21.7041C 62.2884 20.8659 62.793 20.4468 62.9883 20.4468C 63.1836 20.4468 63.2812 20.7438 63.2812 21.3379L 63.2812 21.582C 63.2812 21.8994 63.2243 22.1313 63.1104 22.2778C 62.4268 23.116 61.6577 23.7427 60.8032 24.1577C 59.9487 24.5646 59.139 24.7681 58.374 24.7681C 57.609 24.7681 57.0272 24.5361 56.6284 24.0723C 56.2297 23.6003 56.0303 22.9574 56.0303 22.1436C 56.0303 20.5566 56.4535 18.693 57.2998 16.5527C 58.1543 14.4043 59.1146 12.5773 60.1807 11.0718C 62.5814 7.67009 64.4165 5.96924 65.686 5.96924ZM 65.1367 7.99561C 65.1367 7.87354 65.096 7.8125 65.0146 7.8125C 64.7298 7.8125 63.9811 8.6263 62.7686 10.2539C 61.556 11.8815 60.6771 13.1795 60.1318 14.1479C 59.5947 15.1164 59.0861 16.333 58.606 17.7979C 59.5662 16.6585 60.8927 14.8844 62.5854 12.4756C 64.2863 10.0586 65.1367 8.56527 65.1367 7.99561Z"/>
<path id="path3_fill" d="M 4.24316 38.0273C 3.99251 37.9199 3.67025 37.7767 3.27637 37.5977C 2.88249 37.3828 2.50651 37.1501 2.14844 36.8994C 1.79036 36.6488 1.4681 36.3802 1.18164 36.0938C 0.93099 35.7715 0.805664 35.4313 0.805664 35.0732C 1.34277 35.0732 1.82617 35.1628 2.25586 35.3418C 2.72135 35.5208 3.18685 35.6104 3.65234 35.6104C 3.65234 33.0322 3.58073 30.472 3.4375 27.9297C 3.33008 25.3874 3.27637 22.8092 3.27637 20.1953C 3.27637 20.0521 3.27637 19.8014 3.27637 19.4434C 3.27637 19.0853 3.27637 18.7093 3.27637 18.3154C 3.27637 17.9216 3.27637 17.5456 3.27637 17.1875C 3.27637 16.7936 3.27637 16.543 3.27637 16.4355C 3.49121 15.1465 4.01042 14.1797 4.83398 13.5352C 5.69336 12.8906 6.76758 12.5684 8.05664 12.5684C 8.88021 12.5684 9.77539 12.7832 10.7422 13.2129C 11.7448 13.6426 12.7474 14.1976 13.75 14.8779C 14.7526 15.5583 15.7194 16.3639 16.6504 17.2949C 17.6172 18.1901 18.4587 19.139 19.1748 20.1416C 19.891 21.1084 20.4639 22.0752 20.8936 23.042C 21.359 24.0088 21.5918 24.9219 21.5918 25.7812C 21.5918 28.1803 21.2516 30.1676 20.5713 31.7432C 19.891 33.3187 18.9242 34.5898 17.6709 35.5566C 16.4176 36.5234 14.9137 37.2575 13.1592 37.7588C 11.4404 38.2601 9.54264 38.6361 7.46582 38.8867C 7.57324 39.7103 7.66276 40.4801 7.73438 41.1963C 7.80599 41.8766 7.8597 42.557 7.89551 43.2373C 7.93132 43.8818 7.96712 44.5443 8.00293 45.2246C 8.03874 45.8691 8.05664 46.5495 8.05664 47.2656C 8.05664 47.4447 8.03874 47.6953 8.00293 48.0176C 8.00293 48.3398 7.96712 48.6621 7.89551 48.9844C 7.82389 49.3066 7.69857 49.5931 7.51953 49.8438C 7.3763 50.0944 7.14355 50.2197 6.82129 50.2197C 6.67806 50.2197 6.53483 50.166 6.3916 50.0586C 6.24837 49.9512 6.12305 49.8258 6.01562 49.6826C 5.9082 49.5036 5.81869 49.3424 5.74707 49.1992C 5.67546 49.0202 5.63965 48.877 5.63965 48.7695L 4.24316 38.0273ZM 6.49902 29.8096C 6.49902 30.3825 6.46322 31.0628 6.3916 31.8506C 6.31999 32.6383 6.31999 33.3903 6.3916 34.1064C 6.46322 34.7868 6.67806 35.3776 7.03613 35.8789C 7.39421 36.3802 8.00293 36.6309 8.8623 36.6309C 10.2946 36.6309 11.6374 36.3802 12.8906 35.8789C 14.1439 35.3418 15.236 34.6257 16.167 33.7305C 17.1338 32.7995 17.8857 31.7074 18.4229 30.4541C 18.96 29.2008 19.2285 27.8581 19.2285 26.4258C 19.2285 25.638 19.0495 24.7965 18.6914 23.9014C 18.3691 23.0062 17.9215 22.111 17.3486 21.2158C 16.7757 20.3206 16.0954 19.4792 15.3076 18.6914C 14.5557 17.8678 13.75 17.1517 12.8906 16.543C 12.0671 15.8984 11.2256 15.3971 10.3662 15.0391C 9.50684 14.681 8.70117 14.502 7.94922 14.502C 7.30469 14.502 6.76758 14.6989 6.33789 15.0928C 5.9082 15.4867 5.56803 15.988 5.31738 16.5967C 5.06673 17.1696 4.8877 17.7962 4.78027 18.4766C 4.70866 19.1569 4.67285 19.7477 4.67285 20.249C 4.67285 21.0368 4.79818 21.5918 5.04883 21.9141C 5.29948 22.2363 5.56803 22.487 5.85449 22.666C 6.17676 22.8092 6.46322 22.9525 6.71387 23.0957C 6.96452 23.2389 7.08984 23.5075 7.08984 23.9014C 7.08984 24.2952 7.03613 24.6175 6.92871 24.8682C 6.8571 25.1188 6.73177 25.4232 6.55273 25.7812C 6.55273 25.9603 6.55273 26.2467 6.55273 26.6406C 6.55273 26.9987 6.53483 27.3926 6.49902 27.8223C 6.49902 28.2161 6.49902 28.61 6.49902 29.0039C 6.49902 29.362 6.49902 29.6305 6.49902 29.8096ZM 35.5566 43.6133C 35.0195 44.2578 34.3929 44.9382 33.6768 45.6543C 32.9964 46.3704 32.2445 47.0329 31.4209 47.6416C 30.6331 48.2503 29.7917 48.7695 28.8965 49.1992C 28.0371 49.5931 27.1419 49.79 26.2109 49.79C 24.3132 49.79 23.3643 48.877 23.3643 47.0508C 23.3643 46.2988 23.6686 45.3141 24.2773 44.0967C 24.9219 42.8434 25.7454 41.5365 26.748 40.1758C 27.7507 38.8151 28.8607 37.5081 30.0781 36.2549C 31.2956 34.9658 32.513 33.9095 33.7305 33.0859C 34.9479 32.2266 36.0579 31.6895 37.0605 31.4746C 38.099 31.2598 38.9404 31.5641 39.585 32.3877C 39.585 33.3545 39.5133 34.3213 39.3701 35.2881C 39.2269 36.2549 39.0837 37.2217 38.9404 38.1885C 38.7972 39.1195 38.654 40.0505 38.5107 40.9814C 38.3675 41.9124 38.2959 42.8613 38.2959 43.8281C 38.2959 44.043 38.3138 44.3831 38.3496 44.8486C 38.4212 45.2783 38.5107 45.7259 38.6182 46.1914C 38.7614 46.6211 38.9404 47.015 39.1553 47.373C 39.3701 47.6953 39.6566 47.8564 40.0146 47.8564C 40.874 47.8564 41.5723 47.749 42.1094 47.5342C 42.6823 47.3193 43.1657 47.0687 43.5596 46.7822C 43.9893 46.46 44.3473 46.1019 44.6338 45.708C 44.9561 45.3141 45.2783 44.9202 45.6006 44.5264C 45.9587 44.1325 46.3525 43.7565 46.7822 43.3984C 47.2119 43.0404 47.7669 42.7539 48.4473 42.5391C 48.4473 42.5391 48.4473 42.5928 48.4473 42.7002C 48.4473 42.8076 48.4473 42.8971 48.4473 42.9688C 48.4473 43.8639 48.1787 44.7591 47.6416 45.6543C 47.1045 46.5137 46.4242 47.2835 45.6006 47.9639C 44.777 48.6442 43.846 49.1992 42.8076 49.6289C 41.805 50.0228 40.8203 50.2197 39.8535 50.2197C 39.0299 50.2197 38.3675 49.987 37.8662 49.5215C 37.3649 49.056 36.9531 48.501 36.6309 47.8564C 36.3444 47.2119 36.1296 46.5137 35.9863 45.7617C 35.8431 44.974 35.6999 44.2578 35.5566 43.6133ZM 36.5234 36.5771C 36.8815 35.3955 37.0068 34.5898 36.8994 34.1602C 36.8278 33.7305 36.5771 33.5693 36.1475 33.6768C 35.7178 33.7484 35.1628 34.0527 34.4824 34.5898C 33.8021 35.0911 33.068 35.7178 32.2803 36.4697C 31.4925 37.1859 30.7048 37.9915 29.917 38.8867C 29.1292 39.7819 28.3952 40.6413 27.7148 41.4648C 27.0345 42.2526 26.4795 42.9688 26.0498 43.6133C 25.6201 44.2578 25.3516 44.7233 25.2441 45.0098C 25.0293 45.8333 24.9935 46.46 25.1367 46.8896C 25.3158 47.3193 25.5664 47.6237 25.8887 47.8027C 26.2467 47.946 26.6227 47.9639 27.0166 47.8564C 27.4463 47.749 27.8044 47.5879 28.0908 47.373C 28.6995 46.8359 29.4694 46.1198 30.4004 45.2246C 31.3314 44.2936 32.2266 43.3089 33.0859 42.2705C 33.9811 41.2321 34.751 40.2116 35.3955 39.209C 36.04 38.1706 36.416 37.2933 36.5234 36.5771ZM 49.4141 48.3398C 49.7721 46.9076 50.0228 45.6185 50.166 44.4727C 50.3451 43.291 50.4525 42.1452 50.4883 41.0352C 50.5599 39.9251 50.5778 38.7614 50.542 37.5439C 50.542 36.3265 50.542 34.9479 50.542 33.4082C 49.9691 33.4082 49.5394 33.444 49.2529 33.5156C 49.0023 33.5872 48.8232 33.6768 48.7158 33.7842C 48.6084 33.8558 48.5368 33.9453 48.501 34.0527C 48.4652 34.1602 48.3936 34.2676 48.2861 34.375C 48.2145 34.4466 48.0534 34.5182 47.8027 34.5898C 47.5521 34.6615 47.1582 34.6973 46.6211 34.6973C 46.2988 34.6973 46.0661 34.5719 45.9229 34.3213C 45.7796 34.0706 45.708 33.7842 45.708 33.4619C 45.708 33.1755 45.9049 32.8711 46.2988 32.5488C 46.6569 32.2266 47.0866 31.9043 47.5879 31.582C 48.125 31.2598 48.6621 30.9912 49.1992 30.7764C 49.7721 30.5615 50.2555 30.4541 50.6494 30.4541C 50.7926 30.4541 50.9896 30.5257 51.2402 30.6689C 51.5267 30.7764 51.7952 30.9375 52.0459 31.1523C 52.2965 31.3314 52.4935 31.5283 52.6367 31.7432C 52.8158 31.958 52.9053 32.1729 52.9053 32.3877L 52.9053 39.8535C 53.2633 39.3164 53.8363 38.5824 54.624 37.6514C 55.4118 36.7204 56.2891 35.8073 57.2559 34.9121C 58.2227 33.9811 59.2074 33.1755 60.21 32.4951C 61.2126 31.8148 62.1077 31.4746 62.8955 31.4746C 63.9697 31.4746 64.7217 31.8327 65.1514 32.5488C 65.5811 33.2292 65.7959 34.0885 65.7959 35.127C 65.3662 35.127 65.026 35.0553 64.7754 34.9121C 64.5247 34.7689 64.292 34.6077 64.0771 34.4287C 63.8981 34.2497 63.7012 34.1064 63.4863 33.999C 63.2715 33.8558 62.985 33.7842 62.627 33.7842C 61.4811 33.999 60.4069 34.5719 59.4043 35.5029C 58.4017 36.4339 57.4707 37.526 56.6113 38.7793C 55.7878 40.0326 55.0358 41.3574 54.3555 42.7539C 53.7109 44.1504 53.138 45.4215 52.6367 46.5674C 52.1354 47.7132 51.7236 48.6442 51.4014 49.3604C 51.1149 50.0765 50.9359 50.363 50.8643 50.2197C 50.5062 50.2197 50.166 50.0586 49.8438 49.7363C 49.5573 49.3783 49.4141 48.9665 49.4141 48.501L 49.4141 48.3398ZM 71.4355 42.6465C 71.4355 41.7155 71.4893 40.8024 71.5967 39.9072C 71.7041 38.9762 71.8115 38.0632 71.9189 37.168C 72.0622 36.237 72.1875 35.3239 72.2949 34.4287C 72.4023 33.4977 72.4561 32.5488 72.4561 31.582C 72.4561 31.3672 72.4023 31.1344 72.2949 30.8838C 72.2233 30.5973 72.0085 30.4541 71.6504 30.4541C 71.1849 30.4541 70.8805 30.4899 70.7373 30.5615C 70.5941 30.6331 70.4867 30.7227 70.415 30.8301C 70.3792 30.9375 70.2897 31.0628 70.1465 31.2061C 70.0391 31.3493 69.7705 31.4925 69.3408 31.6357L 69.0723 31.6357C 68.3203 31.6357 67.9443 31.2419 67.9443 30.4541C 67.9443 30.2393 68.1771 29.8991 68.6426 29.4336C 69.1439 28.9681 69.7168 28.5384 70.3613 28.1445C 71.0059 27.7148 71.6146 27.3568 72.1875 27.0703C 72.7604 26.748 73.1364 26.6406 73.3154 26.748C 73.387 26.748 73.4945 26.8197 73.6377 26.9629C 73.7809 27.0703 73.9242 27.2135 74.0674 27.3926C 74.2106 27.5358 74.3359 27.679 74.4434 27.8223C 74.5866 27.9655 74.6761 28.0729 74.7119 28.1445C 74.7119 28.2161 74.7119 28.3594 74.7119 28.5742C 74.7119 28.7891 74.7119 29.0218 74.7119 29.2725C 74.7477 29.5231 74.7656 29.7738 74.7656 30.0244C 74.7656 30.2393 74.7656 30.4004 74.7656 30.5078C 74.7656 31.5462 74.694 32.5846 74.5508 33.623C 74.4076 34.6257 74.2285 35.6462 74.0137 36.6846C 73.8346 37.723 73.6735 38.7614 73.5303 39.7998C 73.387 40.8382 73.3154 41.8766 73.3154 42.915C 73.3154 43.0941 73.3333 43.4521 73.3691 43.9893C 73.4049 44.5264 73.4766 45.0814 73.584 45.6543C 73.7272 46.2272 73.9242 46.7464 74.1748 47.2119C 74.4255 47.6416 74.7656 47.8564 75.1953 47.8564C 76.0547 47.8564 76.6992 47.749 77.1289 47.5342C 77.5586 47.2835 77.9346 47.015 78.2568 46.7285C 78.5791 46.4421 78.9193 46.1914 79.2773 45.9766C 79.6712 45.7259 80.2083 45.6006 80.8887 45.6006C 80.8887 47.1045 80.3337 48.2503 79.2236 49.0381C 78.1136 49.8258 76.6992 50.2197 74.9805 50.2197C 74.0853 50.2197 73.4049 49.9333 72.9395 49.3604C 72.474 48.7874 72.1159 48.1071 71.8652 47.3193C 71.6504 46.4958 71.5251 45.6543 71.4893 44.7949C 71.4535 43.9355 71.4355 43.2194 71.4355 42.6465ZM 71.9727 20.1953C 71.9727 19.8014 72.0264 19.4971 72.1338 19.2822C 72.277 19.0674 72.5814 18.96 73.0469 18.96C 73.3691 18.96 73.584 19.0853 73.6914 19.3359C 73.8346 19.5508 73.9062 19.8372 73.9062 20.1953C 73.9062 20.5176 73.8346 20.804 73.6914 21.0547C 73.584 21.2695 73.3691 21.377 73.0469 21.377C 72.5814 21.377 72.277 21.2874 72.1338 21.1084C 72.0264 20.8936 71.9727 20.5892 71.9727 20.1953ZM 80.5664 41.0352C 80.5664 40.9635 80.5664 40.8561 80.5664 40.7129C 80.5664 40.5697 80.5664 40.4085 80.5664 40.2295C 80.6022 40.0505 80.6201 39.8893 80.6201 39.7461C 80.6201 39.5671 80.6201 39.4596 80.6201 39.4238C 80.6559 39.3164 80.7812 39.1911 80.9961 39.0479C 81.2467 38.9046 81.4258 38.8509 81.5332 38.8867C 81.748 38.9583 81.945 39.209 82.124 39.6387C 82.3031 40.0684 82.4821 40.5876 82.6611 41.1963C 82.8402 41.805 83.0371 42.4854 83.252 43.2373C 83.5026 43.9535 83.807 44.6338 84.165 45.2783C 84.5589 45.887 85.0244 46.4421 85.5615 46.9434C 86.1344 47.4089 86.8148 47.7132 87.6025 47.8564C 87.8532 47.8923 88.0501 47.8923 88.1934 47.8564C 88.3366 47.7848 88.4261 47.6953 88.4619 47.5879C 88.5335 47.4447 88.5693 47.3014 88.5693 47.1582C 88.5693 46.9792 88.5693 46.8359 88.5693 46.7285C 88.5335 46.084 88.2829 45.4215 87.8174 44.7412C 87.3519 44.0251 86.7969 43.2731 86.1523 42.4854C 85.5078 41.6618 84.8633 40.8024 84.2188 39.9072C 83.5742 38.9762 83.0371 38.0094 82.6074 37.0068C 82.1777 35.9684 81.9092 34.8763 81.8018 33.7305C 81.6943 32.5488 81.9092 31.2956 82.4463 29.9707C 82.4463 29.6484 82.6074 29.2188 82.9297 28.6816C 83.2878 28.1445 83.6995 27.6432 84.165 27.1777C 84.6663 26.6764 85.1855 26.2467 85.7227 25.8887C 86.2598 25.5306 86.7253 25.3516 87.1191 25.3516C 87.6921 25.3516 88.2292 25.459 88.7305 25.6738C 89.2676 25.8887 89.6794 26.2467 89.9658 26.748C 90.3239 27.2135 90.7357 27.8402 91.2012 28.6279C 91.7025 29.3799 92.1322 30.1318 92.4902 30.8838C 92.8841 31.6357 93.1348 32.3161 93.2422 32.9248C 93.3496 33.5335 93.1885 33.8916 92.7588 33.999C 92.2575 33.999 91.8278 33.8558 91.4697 33.5693C 91.1475 33.2829 90.8789 32.9248 90.6641 32.4951C 90.4492 32.0654 90.2523 31.5999 90.0732 31.0986C 89.8942 30.5615 89.6973 30.0781 89.4824 29.6484C 89.2676 29.2188 89.0169 28.8607 88.7305 28.5742C 88.444 28.252 88.068 28.0908 87.6025 28.0908C 86.958 28.0908 86.3851 28.2878 85.8838 28.6816C 85.4183 29.0755 85.0244 29.5589 84.7021 30.1318C 84.4157 30.7048 84.2008 31.3314 84.0576 32.0117C 83.9502 32.6562 83.8965 33.2292 83.8965 33.7305C 83.8965 34.6257 84.0576 35.4671 84.3799 36.2549C 84.738 37.0068 85.1676 37.7409 85.6689 38.457C 86.2061 39.1374 86.779 39.8177 87.3877 40.498C 88.0322 41.1784 88.6051 41.8766 89.1064 42.5928C 89.6436 43.2731 90.0911 43.9893 90.4492 44.7412C 90.8073 45.4932 90.9863 46.2988 90.9863 47.1582C 90.9863 47.5163 90.8968 47.8743 90.7178 48.2324C 90.5745 48.5547 90.3597 48.877 90.0732 49.1992C 89.8226 49.4857 89.5182 49.7184 89.1602 49.8975C 88.8021 50.0765 88.444 50.166 88.0859 50.166C 87.0833 50.166 86.1344 49.8617 85.2393 49.2529C 84.3441 48.6442 83.5384 47.8743 82.8223 46.9434C 82.1419 46.0124 81.5869 45.0277 81.1572 43.9893C 80.7633 42.915 80.5664 41.9303 80.5664 41.0352Z"/>
</defs>
</svg>
