<svg width="200" height="200" viewBox="0 0 200 200" version="1.1" xmlns="http://www.w3.org/2000/svg" xmlns:xlink="http://www.w3.org/1999/xlink" xmlns:figma="http://www.figma.com/figma/ns">
<title>Group</title>
<desc>Created using Figma</desc>
<g id="Canvas" transform="translate(405 263)" figma:type="canvas">
<g id="Group" style="mix-blend-mode:normal;" figma:type="frame">
<g id="Ellipse" style="mix-blend-mode:normal;" figma:type="ellipse">
<use xlink:href="#path0_fill" transform="translate(-375 -233)" fill="#B21C0E" style="mix-blend-mode:normal;"/>
</g>
<g id="Ellipse 2" style="mix-blend-mode:normal;" figma:type="ellipse">
<use xlink:href="#path1_fill" transform="translate(-405 -263)" fill="#B21C0E" fill-opacity="0.7" style="mix-blend-mode:normal;"/>
</g>
<g id="population" style="mix-blend-mode:normal;" figma:type="text">
<use xlink:href="#path2_fill" transform="translate(-343.5 -151)" fill="#FFFFFF" style="mix-blend-mode:normal;"/>
</g>
<g id="66m" style="mix-blend-mode:normal;" figma:type="text">
<use xlink:href="#path3_fill" transform="translate(-348 -216)" fill="#FFFFFF" style="mix-blend-mode:normal;"/>
</g>
</g>
</g>
<defs>
<path id="path0_fill" d="M 140 70C 140 108.66 108.66 140 70 140C 31.3401 140 0 108.66 0 70C 0 31.3401 31.3401 0 70 0C 108.66 0 140 31.3401 140 70Z"/>
<path id="path1_fill" d="M 200 100C 200 155.228 155.228 200 100 200C 44.7715 200 0 155.228 0 100C 0 44.7715 44.7715 0 100 0C 155.228 0 200 44.7715 200 100Z"/>
<path id="path2_fill" d="M 7.55615 11.3037L 7.77588 11.2793C 7.89795 11.2793 7.99561 11.3851 8.06885 11.5967C 8.14209 11.8083 8.17871 11.9507 8.17871 12.0239C 8.17871 12.0972 8.09733 12.2355 7.93457 12.439L 4.45557 17.7368C 5.67627 16.5161 6.91732 15.625 8.17871 15.0635C 8.66699 14.8519 9.10645 14.7461 9.49707 14.7461C 9.89583 14.7461 10.2132 14.8763 10.4492 15.1367C 10.6934 15.389 10.8154 15.7064 10.8154 16.0889C 10.8154 16.4714 10.7096 16.9434 10.498 17.5049C 10.2865 18.0664 9.99756 18.6646 9.63135 19.2993C 9.27327 19.9341 8.83382 20.5729 8.31299 21.2158C 7.80029 21.8587 7.25911 22.4406 6.68945 22.9614C 6.12793 23.4823 5.51351 23.9054 4.84619 24.231C 4.17887 24.5565 3.59294 24.7192 3.08838 24.7192C 2.07113 24.7192 1.5625 24.2513 1.5625 23.3154C 0.610352 24.7721 -0.488281 26.4974 -1.7334 28.4912C -2.97852 30.485 -3.64583 31.5389 -3.73535 31.6528C -3.82487 31.7668 -3.89811 31.8237 -3.95508 31.8237C -4.02018 31.8237 -4.11377 31.7871 -4.23584 31.7139C -4.36605 31.6406 -4.50033 31.5186 -4.63867 31.3477C -4.77702 31.1768 -4.84619 30.9285 -4.84619 30.603C -4.85433 30.2775 -4.76074 29.9479 -4.56543 29.6143C -3.4668 27.7832 -1.35091 24.3408 1.78223 19.2871C 4.9235 14.2253 6.62435 11.6089 6.88477 11.438C 7.03125 11.3403 7.17773 11.2915 7.32422 11.2915L 7.55615 11.3037ZM 8.63037 16.9189C 8.63037 16.748 8.54899 16.6626 8.38623 16.6626C 7.94678 16.6626 7.01497 17.3381 5.59082 18.689C 4.1748 20.0399 3.04769 21.2728 2.20947 22.3877C 2.42106 22.6481 2.73438 22.7783 3.14941 22.7783C 3.56445 22.7783 4.10156 22.5545 4.76074 22.1069C 5.41992 21.6593 6.03027 21.1304 6.5918 20.52C 7.15332 19.9015 7.63346 19.2546 8.03223 18.5791C 8.43099 17.9036 8.63037 17.3503 8.63037 16.9189ZM 18.8354 14.9902C 19.0796 14.9902 19.3278 15.1001 19.5801 15.3198C 19.8405 15.5396 19.9707 15.8773 19.9707 16.333C 19.9707 16.7806 19.812 17.3665 19.4946 18.0908C 19.1772 18.807 18.7419 19.5394 18.1885 20.2881C 17.6351 21.0286 17.0247 21.7285 16.3574 22.3877C 15.6982 23.0387 14.9821 23.5758 14.209 23.999C 13.444 24.4141 12.7482 24.6216 12.1216 24.6216C 11.495 24.6216 10.9904 24.4263 10.6079 24.0356C 10.2336 23.6369 10.0464 23.0876 10.0464 22.3877C 10.0464 21.6797 10.2173 20.8984 10.5591 20.0439C 10.909 19.1895 11.3566 18.4367 11.9019 17.7856C 12.4471 17.1265 13.0371 16.5365 13.6719 16.0156C 14.9984 14.9495 16.1621 14.4165 17.1631 14.4165C 17.6107 14.4165 17.9484 14.5264 18.1763 14.7461C 18.2576 14.8193 18.2983 14.8844 18.2983 14.9414L 18.2983 15.0146C 18.4123 14.9984 18.5913 14.9902 18.8354 14.9902ZM 17.6025 16.6138L 17.5171 16.6138C 17.2323 16.6138 17.0898 16.4062 17.0898 15.9912C 16.4958 16.1865 15.8732 16.5283 15.2222 17.0166C 14.5711 17.5049 13.9893 18.0827 13.4766 18.75C 12.4349 20.0846 11.9059 21.2118 11.8896 22.1313C 11.8896 22.5871 12.0565 22.8149 12.3901 22.8149C 12.7238 22.8149 13.2202 22.5952 13.8794 22.1558C 14.5386 21.7163 15.1896 21.0897 15.8325 20.2759C 16.4836 19.4621 16.9678 18.7581 17.2852 18.1641C 17.6107 17.5618 17.7734 17.1549 17.7734 16.9434C 17.7734 16.7236 17.7165 16.6138 17.6025 16.6138ZM 26.5015 11.3037L 26.7212 11.2793C 26.8433 11.2793 26.9409 11.3851 27.0142 11.5967C 27.0874 11.8083 27.124 11.9507 27.124 12.0239C 27.124 12.0972 27.0426 12.2355 26.8799 12.439L 23.4009 17.7368C 24.6216 16.5161 25.8626 15.625 27.124 15.0635C 27.6123 14.8519 28.0518 14.7461 28.4424 14.7461C 28.8411 14.7461 29.1585 14.8763 29.3945 15.1367C 29.6387 15.389 29.7607 15.7064 29.7607 16.0889C 29.7607 16.4714 29.6549 16.9434 29.4434 17.5049C 29.2318 18.0664 28.9429 18.6646 28.5767 19.2993C 28.2186 19.9341 27.7791 20.5729 27.2583 21.2158C 26.7456 21.8587 26.2044 22.4406 25.6348 22.9614C 25.0732 23.4823 24.4588 23.9054 23.7915 24.231C 23.1242 24.5565 22.5382 24.7192 22.0337 24.7192C 21.0164 24.7192 20.5078 24.2513 20.5078 23.3154C 19.5557 24.7721 18.457 26.4974 17.2119 28.4912C 15.9668 30.485 15.2995 31.5389 15.21 31.6528C 15.1204 31.7668 15.0472 31.8237 14.9902 31.8237C 14.9251 31.8237 14.8315 31.7871 14.7095 31.7139C 14.5793 31.6406 14.445 31.5186 14.3066 31.3477C 14.1683 31.1768 14.0991 30.9285 14.0991 30.603C 14.091 30.2775 14.1846 29.9479 14.3799 29.6143C 15.4785 27.7832 17.5944 24.3408 20.7275 19.2871C 23.8688 14.2253 25.5697 11.6089 25.8301 11.438C 25.9766 11.3403 26.123 11.2915 26.2695 11.2915L 26.5015 11.3037ZM 27.5757 16.9189C 27.5757 16.748 27.4943 16.6626 27.3315 16.6626C 26.8921 16.6626 25.9603 17.3381 24.5361 18.689C 23.1201 20.0399 21.993 21.2728 21.1548 22.3877C 21.3664 22.6481 21.6797 22.7783 22.0947 22.7783C 22.5098 22.7783 23.0469 22.5545 23.7061 22.1069C 24.3652 21.6593 24.9756 21.1304 25.5371 20.52C 26.0986 19.9015 26.5788 19.2546 26.9775 18.5791C 27.3763 17.9036 27.5757 17.3503 27.5757 16.9189ZM 39.8315 20.459C 39.9862 20.459 40.0798 20.577 40.1123 20.813C 40.1449 21.049 40.1611 21.2931 40.1611 21.5454C 40.1611 21.7977 40.1367 21.9727 40.0879 22.0703C 39.8519 22.526 39.3351 23.0835 38.5376 23.7427C 37.7401 24.3937 36.9832 24.7192 36.2671 24.7192C 35.8276 24.7192 35.4207 24.585 35.0464 24.3164C 34.672 24.056 34.4849 23.5962 34.4849 22.937C 34.4849 22.2778 34.6598 21.6309 35.0098 20.9961C 32.9915 23.527 31.4087 24.7925 30.2612 24.7925C 29.8055 24.7925 29.4352 24.6297 29.1504 24.3042C 28.8737 23.9787 28.7354 23.645 28.7354 23.3032C 28.7354 22.9533 28.7842 22.5952 28.8818 22.229C 28.9795 21.8547 29.0812 21.521 29.187 21.228C 29.3009 20.9351 29.4637 20.5729 29.6753 20.1416C 29.895 19.7103 30.0578 19.397 30.1636 19.2017C 30.2694 19.0063 30.4362 18.7134 30.6641 18.3228C 30.9001 17.924 31.2052 17.391 31.5796 16.7236C 31.9621 16.0563 32.2754 15.564 32.5195 15.2466C 32.7718 14.9211 33.016 14.7583 33.252 14.7583C 33.488 14.7502 33.6955 14.8438 33.8745 15.0391C 34.0535 15.2344 34.1431 15.3931 34.1431 15.5151C 34.1431 15.6372 33.8704 16.1865 33.3252 17.1631C 31.7139 20.0765 30.9082 21.7733 30.9082 22.2534C 30.9082 22.3755 30.953 22.4365 31.0425 22.4365C 31.4331 22.4365 32.4056 21.5902 33.96 19.8975C 35.5143 18.2048 36.4136 17.1224 36.6577 16.6504C 36.9019 16.1702 37.1379 15.7674 37.3657 15.4419C 37.6017 15.1164 37.7767 14.917 37.8906 14.8438C 38.2406 14.6159 38.6922 14.4938 39.2456 14.4775C 39.3351 14.4775 39.4043 14.4816 39.4531 14.4897C 39.502 14.4979 39.5589 14.5671 39.624 14.6973C 39.6891 14.8275 39.7217 14.9292 39.7217 15.0024C 39.6484 15.2303 39.3229 15.8366 38.7451 16.8213C 38.1755 17.806 37.8581 18.3634 37.793 18.4937C 36.8327 20.4793 36.3525 21.7733 36.3525 22.3755C 36.3525 22.7173 36.4827 22.8882 36.7432 22.8882C 37.2152 22.8231 37.7848 22.4447 38.4521 21.7529C 38.6963 21.5007 38.9364 21.2443 39.1724 20.9839C 39.4165 20.7235 39.5671 20.5729 39.624 20.5322C 39.681 20.4834 39.7502 20.459 39.8315 20.459ZM 49.4995 5.96924C 49.8901 5.96924 50.2319 6.08724 50.5249 6.32324C 50.826 6.55111 50.9766 6.8929 50.9766 7.34863C 50.9766 7.80436 50.7243 8.52051 50.2197 9.49707C 49.7152 10.4655 49.1089 11.4583 48.4009 12.4756C 47.6929 13.4847 46.8913 14.5589 45.9961 15.6982C 44.5801 17.5049 43.221 19.1284 41.9189 20.5688C 41.9108 20.6665 41.8742 20.8496 41.8091 21.1182C 41.7521 21.3786 41.7236 21.6431 41.7236 21.9116C 41.7236 22.1802 41.8457 22.4243 42.0898 22.644C 42.3421 22.8556 42.6514 22.9614 43.0176 22.9614C 43.3838 22.9614 43.7744 22.8312 44.1895 22.5708C 44.6126 22.3104 44.9788 22.0215 45.2881 21.7041C 46.1019 20.8659 46.6064 20.4468 46.8018 20.4468C 46.9971 20.4468 47.0947 20.7438 47.0947 21.3379L 47.0947 21.582C 47.0947 21.8994 47.0378 22.1313 46.9238 22.2778C 46.2402 23.116 45.4712 23.7427 44.6167 24.1577C 43.7622 24.5646 42.9525 24.7681 42.1875 24.7681C 41.4225 24.7681 40.8407 24.5361 40.4419 24.0723C 40.0431 23.6003 39.8438 22.9574 39.8438 22.1436C 39.8438 20.5566 40.2669 18.693 41.1133 16.5527C 41.9678 14.4043 42.9281 12.5773 43.9941 11.0718C 46.3949 7.67009 48.23 5.96924 49.4995 5.96924ZM 48.9502 7.99561C 48.9502 7.87354 48.9095 7.8125 48.8281 7.8125C 48.5433 7.8125 47.7946 8.6263 46.582 10.2539C 45.3695 11.8815 44.4906 13.1795 43.9453 14.1479C 43.4082 15.1164 42.8996 16.333 42.4194 17.7979C 43.3797 16.6585 44.7062 14.8844 46.3989 12.4756C 48.0998 10.0586 48.9502 8.56527 48.9502 7.99561ZM 55.1392 15.0146C 55.7576 15.0146 56.0669 15.2262 56.0669 15.6494C 56.0669 15.8773 56.014 16.0441 55.9082 16.1499C 55.8024 16.2557 55.5745 16.6097 55.2246 17.2119C 54.8828 17.806 54.5003 18.571 54.0771 19.5068C 53.6621 20.4346 53.3936 21.228 53.2715 21.8872C 53.2471 21.9686 53.2349 22.0825 53.2349 22.229C 53.2349 22.6766 53.3569 22.9004 53.6011 22.9004C 53.8452 22.9004 54.1341 22.7865 54.4678 22.5586C 54.8014 22.3226 55.0985 22.0744 55.3589 21.814C 55.6193 21.5454 55.8716 21.2728 56.1157 20.9961C 56.368 20.7194 56.5186 20.5607 56.5674 20.52C 56.6162 20.4793 56.6895 20.459 56.7871 20.459C 56.9417 20.459 57.0353 20.577 57.0679 20.813C 57.1004 21.049 57.1167 21.2931 57.1167 21.5454C 57.1167 21.7977 57.0923 21.9727 57.0435 22.0703C 56.8075 22.5342 56.2866 23.0916 55.481 23.7427C 54.6834 24.3937 53.9551 24.7192 53.2959 24.7192C 52.6449 24.7192 52.1647 24.5199 51.8555 24.1211C 51.5462 23.7223 51.3916 23.2829 51.3916 22.8027C 51.3916 22.3145 51.473 21.8872 51.6357 21.521C 50.9603 22.3999 50.1831 23.1445 49.3042 23.7549C 48.4334 24.3652 47.7214 24.6704 47.168 24.6704C 46.6146 24.6704 46.1629 24.5036 45.813 24.1699C 45.3654 23.7549 45.1416 23.1812 45.1416 22.4487C 45.1416 21.7082 45.3044 20.9676 45.6299 20.2271C 45.9635 19.4784 46.3989 18.7988 46.936 18.1885C 47.4731 17.57 48.0632 17.0085 48.7061 16.5039C 50.057 15.446 51.3021 14.917 52.4414 14.917C 52.8809 14.917 53.2389 14.9902 53.5156 15.1367C 53.7923 15.2832 53.9673 15.4663 54.0405 15.686C 54.2358 15.3931 54.3986 15.21 54.5288 15.1367C 54.6672 15.0553 54.8706 15.0146 55.1392 15.0146ZM 53.5156 16.3696C 52.124 16.3696 50.6836 17.1427 49.1943 18.689C 48.6654 19.2424 48.1771 19.9056 47.7295 20.6787C 47.29 21.4518 47.0703 21.9808 47.0703 22.2656C 47.0703 22.5505 47.1517 22.6929 47.3145 22.6929C 47.5423 22.6929 48.1771 22.2453 49.2188 21.3501C 50.2604 20.4468 50.9521 19.7835 51.2939 19.3604C 51.6683 18.8883 52.4089 17.8914 53.5156 16.3696ZM 64.4043 8.56934L 64.9048 8.69141C 64.978 8.69141 65.0431 8.72803 65.1001 8.80127C 65.1571 8.87451 65.1855 8.94368 65.1855 9.00879C 65.1855 9.07389 65.1001 9.24886 64.9292 9.53369C 64.7583 9.81852 64.5549 10.144 64.3188 10.5103C 64.091 10.8683 63.9689 11.0636 63.9526 11.0962C 64.5874 11.0474 65.035 11.0229 65.2954 11.0229C 65.564 11.0229 65.7471 11.0433 65.8447 11.084C 65.9424 11.1165 66.0522 11.2183 66.1743 11.3892C 66.3045 11.5519 66.4225 11.6781 66.5283 11.7676C 66.6341 11.849 66.687 11.9751 66.687 12.146C 66.687 12.3169 66.5812 12.4634 66.3696 12.5854C 66.1662 12.6994 65.9465 12.7686 65.7104 12.793C 63.8224 12.9801 62.7808 13.0778 62.5854 13.0859C 61.9263 14.0951 61.0026 15.6698 59.8145 17.8101C 58.6344 19.9422 58.0078 21.2769 57.9346 21.814C 57.902 22.0581 57.8857 22.2575 57.8857 22.4121C 57.8857 22.7295 58.0526 22.8882 58.3862 22.8882C 58.7199 22.8882 59.0902 22.762 59.4971 22.5098C 59.904 22.2493 60.2783 21.9686 60.6201 21.6675C 61.5316 20.8537 62.0199 20.4468 62.085 20.4468C 62.2965 20.4468 62.4023 20.813 62.4023 21.5454C 62.4023 21.9442 62.2192 22.3022 61.853 22.6196C 61.0311 23.3276 60.3394 23.8607 59.7778 24.2188C 59.2163 24.5768 58.6548 24.7559 58.0933 24.7559C 57.9712 24.7559 57.8573 24.7437 57.7515 24.7192C 57.1004 24.5972 56.6203 24.3612 56.311 24.0112C 56.0099 23.6532 55.8594 23.173 55.8594 22.5708C 55.8675 21.9686 56.0465 21.2402 56.3965 20.3857C 56.7546 19.5231 57.2021 18.6076 57.7393 17.6392C 58.6182 16.0604 59.4971 14.5793 60.376 13.1958L 59.9121 13.2568C 58.9681 13.3626 58.4188 13.4155 58.2642 13.4155L 58.1543 13.4155C 57.9183 13.4155 57.6904 13.3708 57.4707 13.2812C 57.251 13.1836 57.1411 13.0656 57.1411 12.9272C 57.1411 12.7889 57.1981 12.6546 57.312 12.5244C 57.4341 12.3942 57.5073 12.2925 57.5317 12.2192C 57.5887 12.0402 57.8003 11.8408 58.1665 11.6211C 58.5409 11.4014 58.8216 11.2874 59.0088 11.2793C 59.196 11.263 59.375 11.2508 59.5459 11.2427C 59.7249 11.2345 59.9202 11.2264 60.1318 11.2183C 60.3516 11.2101 60.5184 11.202 60.6323 11.1938L 61.731 11.145C 62.4146 10.1196 62.8825 9.46045 63.1348 9.16748C 63.3952 8.87451 63.5457 8.71582 63.5864 8.69141C 63.6271 8.65885 63.7085 8.64258 63.8306 8.64258L 64.4043 8.56934ZM 69.3237 10.8887C 69.3237 11.3525 69.1081 11.8205 68.6768 12.2925C 68.2454 12.7563 67.7938 12.9883 67.3218 12.9883C 66.8579 12.9883 66.626 12.7441 66.626 12.2559C 66.626 11.7676 66.8294 11.3037 67.2363 10.8643C 67.6514 10.4167 68.1071 10.1929 68.6035 10.1929C 68.8232 10.1929 68.9982 10.2539 69.1284 10.376C 69.2586 10.498 69.3237 10.6689 69.3237 10.8887ZM 67.3462 21.5454C 67.3462 21.7896 67.3218 21.9645 67.2729 22.0703C 66.8742 22.8841 66.2394 23.5433 65.3687 24.0479C 64.4979 24.5443 63.741 24.7925 63.0981 24.7925C 62.4552 24.7925 61.9019 24.5768 61.438 24.1455C 60.9741 23.7142 60.7422 23.2747 60.7422 22.8271C 60.7422 22.3796 60.966 21.7285 61.4136 20.874C 61.8612 20.0195 62.3088 19.2301 62.7563 18.5059C 63.2039 17.7816 63.4277 17.391 63.4277 17.334C 63.4277 17.2689 63.3423 17.1468 63.1714 16.9678C 63.0086 16.7887 62.9272 16.6585 62.9272 16.5771C 62.9272 16.4876 63.0941 16.2638 63.4277 15.9058C 63.7695 15.5396 64.1805 15.1815 64.6606 14.8315C 65.1489 14.4735 65.5192 14.2944 65.7715 14.2944C 66.0319 14.2944 66.2638 14.4084 66.4673 14.6362C 66.6707 14.8641 66.7725 15.0716 66.7725 15.2588C 66.7725 15.446 65.804 17.2078 63.8672 20.5444C 63.8428 20.5933 63.7736 20.7031 63.6597 20.874C 63.5539 21.0368 63.4684 21.1751 63.4033 21.2891C 63.3464 21.3949 63.2772 21.5251 63.1958 21.6797C 63.033 22.0052 62.9517 22.2778 62.9517 22.4976C 62.9517 22.7743 63.1388 22.9126 63.5132 22.9126C 63.8875 22.9126 64.2741 22.7865 64.6729 22.5342C 65.0798 22.2738 65.4297 21.9889 65.7227 21.6797C 66.4876 20.8577 66.923 20.4468 67.0288 20.4468C 67.2404 20.4468 67.3462 20.813 67.3462 21.5454ZM 74.7437 14.9902C 74.9878 14.9902 75.236 15.1001 75.4883 15.3198C 75.7487 15.5396 75.8789 15.8773 75.8789 16.333C 75.8789 16.7806 75.7202 17.3665 75.4028 18.0908C 75.0854 18.807 74.6501 19.5394 74.0967 20.2881C 73.5433 21.0286 72.9329 21.7285 72.2656 22.3877C 71.6064 23.0387 70.8903 23.5758 70.1172 23.999C 69.3522 24.4141 68.6564 24.6216 68.0298 24.6216C 67.4032 24.6216 66.8986 24.4263 66.5161 24.0356C 66.1418 23.6369 65.9546 23.0876 65.9546 22.3877C 65.9546 21.6797 66.1255 20.8984 66.4673 20.0439C 66.8172 19.1895 67.2648 18.4367 67.8101 17.7856C 68.3553 17.1265 68.9453 16.5365 69.5801 16.0156C 70.9066 14.9495 72.0703 14.4165 73.0713 14.4165C 73.5189 14.4165 73.8566 14.5264 74.0845 14.7461C 74.1659 14.8193 74.2065 14.8844 74.2065 14.9414L 74.2065 15.0146C 74.3205 14.9984 74.4995 14.9902 74.7437 14.9902ZM 73.5107 16.6138L 73.4253 16.6138C 73.1405 16.6138 72.998 16.4062 72.998 15.9912C 72.404 16.1865 71.7814 16.5283 71.1304 17.0166C 70.4793 17.5049 69.8975 18.0827 69.3848 18.75C 68.3431 20.0846 67.8141 21.2118 67.7979 22.1313C 67.7979 22.5871 67.9647 22.8149 68.2983 22.8149C 68.632 22.8149 69.1284 22.5952 69.7876 22.1558C 70.4468 21.7163 71.0978 21.0897 71.7407 20.2759C 72.3918 19.4621 72.876 18.7581 73.1934 18.1641C 73.5189 17.5618 73.6816 17.1549 73.6816 16.9434C 73.6816 16.7236 73.6247 16.6138 73.5107 16.6138ZM 81.9824 22.4121C 81.9824 22.7702 82.2266 22.9492 82.7148 22.9492C 82.9753 22.9492 83.3008 22.819 83.6914 22.5586C 84.0902 22.2982 84.4482 22.0133 84.7656 21.7041C 85.612 20.8659 86.0921 20.4468 86.2061 20.4468C 86.4176 20.4468 86.5234 20.752 86.5234 21.3623C 86.5234 21.9727 86.3322 22.3918 85.9497 22.6196C 84.786 23.6694 83.8867 24.3083 83.252 24.5361C 82.8939 24.6582 82.4992 24.7152 82.0679 24.707C 81.6366 24.6989 81.2093 24.5117 80.7861 24.1455C 80.363 23.7793 80.1514 23.3358 80.1514 22.8149C 80.1514 22.286 80.2897 21.6878 80.5664 21.0205C 80.8431 20.3532 81.1239 19.7835 81.4087 19.3115C 81.7017 18.8314 82.0597 18.278 82.4829 17.6514C 82.9061 17.0166 83.1299 16.6219 83.1543 16.4673L 83.1299 16.4429C 82.8613 16.4673 82.194 16.9963 81.1279 18.0298C 80.07 19.0633 79.1951 19.9626 78.5034 20.7275C 77.8117 21.4925 76.9857 22.5138 76.0254 23.7915C 75.7568 24.1414 75.5371 24.3164 75.3662 24.3164C 75.1953 24.3164 74.9674 24.2635 74.6826 24.1577C 74.3896 24.0438 74.2106 23.9624 74.1455 23.9136C 74.0804 23.8647 74.0479 23.7915 74.0479 23.6938C 74.0479 23.5962 74.0763 23.4782 74.1333 23.3398C 74.1903 23.1934 74.2472 23.0754 74.3042 22.9858C 74.353 22.8882 74.4385 22.7417 74.5605 22.5464C 74.6826 22.3511 74.9227 21.9401 75.2808 21.3135C 75.647 20.6787 76.2044 19.7347 76.9531 18.4814C 77.7018 17.2282 78.1494 16.4714 78.2959 16.2109C 78.6051 15.6738 78.8574 15.2832 79.0527 15.0391C 79.4189 14.5752 80.0374 14.3433 80.9082 14.3433C 81.1035 14.3433 81.2012 14.4653 81.2012 14.7095C 81.2012 15.092 80.8472 15.8122 80.1392 16.8701L 79.6265 17.6392C 81.0343 16.0767 82.2225 15.0879 83.1909 14.6729C 83.6629 14.4694 84.0861 14.3677 84.4604 14.3677C 84.8429 14.3677 85.144 14.4694 85.3638 14.6729C 85.5916 14.8763 85.7056 15.1042 85.7056 15.3564C 85.7056 15.6006 85.6201 15.8976 85.4492 16.2476C 85.2783 16.5894 85.1034 16.8986 84.9243 17.1753C 84.7534 17.4438 84.5256 17.7856 84.2407 18.2007C 83.9559 18.6157 83.8013 18.8436 83.7769 18.8843C 83.7524 18.9168 83.6873 19.0145 83.5815 19.1772C 83.4839 19.3319 83.4106 19.4458 83.3618 19.519C 83.313 19.5923 83.2316 19.7225 83.1177 19.9097C 83.0037 20.0887 82.9102 20.2393 82.8369 20.3613C 82.7718 20.4834 82.6864 20.634 82.5806 20.813C 82.4829 20.992 82.4015 21.1466 82.3364 21.2769C 82.2795 21.4071 82.2184 21.5495 82.1533 21.7041C 82.0394 21.9889 81.9824 22.2249 81.9824 22.4121Z"/>
<path id="path3_fill" d="M 1.0791 48.75C 1.0791 48.0729 1.20605 46.9515 1.45996 45.3857C 1.71387 43.82 2.07357 42.0638 2.53906 40.1172C 3.04688 38.1283 3.63932 36.097 4.31641 34.0234C 5.03581 31.9499 5.83984 30.0667 6.72852 28.374C 7.65951 26.639 8.67513 25.2214 9.77539 24.1211C 10.8757 23.0208 12.0605 22.4707 13.3301 22.4707L 13.3301 24.375C 13.3301 24.375 13.2243 24.5231 13.0127 24.8193C 12.8011 25.0732 12.5472 25.3906 12.251 25.7715C 11.9548 26.11 11.6374 26.4697 11.2988 26.8506C 11.0026 27.1891 10.7487 27.4642 10.5371 27.6758C 9.39453 28.9453 8.37891 30.4476 7.49023 32.1826C 6.60156 33.9176 5.83984 35.7373 5.20508 37.6416C 4.61263 39.5459 4.14714 41.4714 3.80859 43.418C 3.47005 45.3223 3.30078 47.0996 3.30078 48.75C 3.30078 49.0039 3.30078 49.3213 3.30078 49.7021C 3.30078 50.083 3.32194 50.4639 3.36426 50.8447C 3.44889 51.2256 3.55469 51.5853 3.68164 51.9238C 3.85091 52.2201 4.10482 52.474 4.44336 52.6855C 5.2474 52.0931 6.05143 51.3525 6.85547 50.4639C 7.65951 49.5752 8.44238 48.6654 9.2041 47.7344C 10.0081 46.7611 10.8122 45.8089 11.6162 44.8779C 12.4626 43.9046 13.3512 43.0371 14.2822 42.2754C 15.2132 41.5137 16.2077 40.9212 17.2656 40.498C 18.3659 40.0326 19.5296 39.7998 20.7568 39.7998C 20.9261 39.7998 21.2435 39.7998 21.709 39.7998C 22.2168 39.7998 22.5553 39.821 22.7246 39.8633C 23.1478 40.1595 23.4652 40.498 23.6768 40.8789C 23.9307 41.2598 24.0999 41.6618 24.1846 42.085C 24.3115 42.5081 24.375 42.9525 24.375 43.418C 24.4173 43.8835 24.4385 44.3278 24.4385 44.751C 24.4385 45.9359 24.1846 47.1208 23.6768 48.3057C 23.2113 49.4906 22.5553 50.6331 21.709 51.7334C 20.9049 52.7913 19.974 53.7858 18.916 54.7168C 17.8581 55.6478 16.7367 56.4518 15.5518 57.1289C 14.3669 57.806 13.1608 58.3561 11.9336 58.7793C 10.7064 59.1602 9.54264 59.3506 8.44238 59.3506C 7.0459 59.3506 5.861 59.0332 4.8877 58.3984C 3.95671 57.7214 3.19499 56.875 2.60254 55.8594C 2.05241 54.8438 1.65039 53.7223 1.39648 52.4951C 1.1849 51.2256 1.0791 49.9772 1.0791 48.75ZM 6.03027 55.2246C 6.03027 55.9017 6.28418 56.3883 6.79199 56.6846C 7.34212 56.9808 7.93457 57.1289 8.56934 57.1289C 9.96582 57.1289 11.4681 56.748 13.0762 55.9863C 14.6842 55.2246 16.1442 54.2513 17.4561 53.0664C 18.8102 51.8392 19.9316 50.485 20.8203 49.0039C 21.7513 47.5228 22.2168 46.0628 22.2168 44.624C 22.2168 44.4548 22.1956 44.1374 22.1533 43.6719C 22.1533 43.1641 22.1533 42.8255 22.1533 42.6562C 22.0687 42.6139 21.8783 42.5293 21.582 42.4023C 21.2858 42.2754 21.0954 42.1908 21.0107 42.1484L 20.7568 42.1484C 20.1644 42.1484 19.5508 42.2754 18.916 42.5293C 18.2812 42.7409 17.6465 43.0159 17.0117 43.3545C 16.377 43.6507 15.7845 43.9893 15.2344 44.3701C 14.6842 44.751 14.2188 45.1107 13.8379 45.4492C 13.5417 45.7031 13.0339 46.1686 12.3145 46.8457C 11.6374 47.4805 10.918 48.1999 10.1562 49.0039C 9.39453 49.7656 8.67513 50.5062 7.99805 51.2256C 7.36328 51.9027 6.91895 52.3893 6.66504 52.6855C 6.41113 53.151 6.24186 53.5531 6.15723 53.8916C 6.07259 54.2301 6.03027 54.6745 6.03027 55.2246ZM 26.5967 48.75C 26.5967 48.0729 26.7236 46.9515 26.9775 45.3857C 27.2314 43.82 27.5911 42.0638 28.0566 40.1172C 28.5645 38.1283 29.1569 36.097 29.834 34.0234C 30.5534 31.9499 31.3574 30.0667 32.2461 28.374C 33.1771 26.639 34.1927 25.2214 35.293 24.1211C 36.3932 23.0208 37.5781 22.4707 38.8477 22.4707L 38.8477 24.375C 38.8477 24.375 38.7419 24.5231 38.5303 24.8193C 38.3187 25.0732 38.0648 25.3906 37.7686 25.7715C 37.4723 26.11 37.1549 26.4697 36.8164 26.8506C 36.5202 27.1891 36.2663 27.4642 36.0547 27.6758C 34.9121 28.9453 33.8965 30.4476 33.0078 32.1826C 32.1191 33.9176 31.3574 35.7373 30.7227 37.6416C 30.1302 39.5459 29.6647 41.4714 29.3262 43.418C 28.9876 45.3223 28.8184 47.0996 28.8184 48.75C 28.8184 49.0039 28.8184 49.3213 28.8184 49.7021C 28.8184 50.083 28.8395 50.4639 28.8818 50.8447C 28.9665 51.2256 29.0723 51.5853 29.1992 51.9238C 29.3685 52.2201 29.6224 52.474 29.9609 52.6855C 30.765 52.0931 31.569 51.3525 32.373 50.4639C 33.1771 49.5752 33.96 48.6654 34.7217 47.7344C 35.5257 46.7611 36.3298 45.8089 37.1338 44.8779C 37.9801 43.9046 38.8688 43.0371 39.7998 42.2754C 40.7308 41.5137 41.7253 40.9212 42.7832 40.498C 43.8835 40.0326 45.0472 39.7998 46.2744 39.7998C 46.4437 39.7998 46.7611 39.7998 47.2266 39.7998C 47.7344 39.7998 48.0729 39.821 48.2422 39.8633C 48.6654 40.1595 48.9827 40.498 49.1943 40.8789C 49.4482 41.2598 49.6175 41.6618 49.7021 42.085C 49.8291 42.5081 49.8926 42.9525 49.8926 43.418C 49.9349 43.8835 49.9561 44.3278 49.9561 44.751C 49.9561 45.9359 49.7021 47.1208 49.1943 48.3057C 48.7288 49.4906 48.0729 50.6331 47.2266 51.7334C 46.4225 52.7913 45.4915 53.7858 44.4336 54.7168C 43.3757 55.6478 42.2542 56.4518 41.0693 57.1289C 39.8844 57.806 38.6784 58.3561 37.4512 58.7793C 36.224 59.1602 35.0602 59.3506 33.96 59.3506C 32.5635 59.3506 31.3786 59.0332 30.4053 58.3984C 29.4743 57.7214 28.7126 56.875 28.1201 55.8594C 27.57 54.8438 27.168 53.7223 26.9141 52.4951C 26.7025 51.2256 26.5967 49.9772 26.5967 48.75ZM 31.5479 55.2246C 31.5479 55.9017 31.8018 56.3883 32.3096 56.6846C 32.8597 56.9808 33.4521 57.1289 34.0869 57.1289C 35.4834 57.1289 36.9857 56.748 38.5938 55.9863C 40.2018 55.2246 41.6618 54.2513 42.9736 53.0664C 44.3278 51.8392 45.4492 50.485 46.3379 49.0039C 47.2689 47.5228 47.7344 46.0628 47.7344 44.624C 47.7344 44.4548 47.7132 44.1374 47.6709 43.6719C 47.6709 43.1641 47.6709 42.8255 47.6709 42.6562C 47.5863 42.6139 47.3958 42.5293 47.0996 42.4023C 46.8034 42.2754 46.613 42.1908 46.5283 42.1484L 46.2744 42.1484C 45.682 42.1484 45.0684 42.2754 44.4336 42.5293C 43.7988 42.7409 43.1641 43.0159 42.5293 43.3545C 41.8945 43.6507 41.3021 43.9893 40.752 44.3701C 40.2018 44.751 39.7363 45.1107 39.3555 45.4492C 39.0592 45.7031 38.5514 46.1686 37.832 46.8457C 37.1549 47.4805 36.4355 48.1999 35.6738 49.0039C 34.9121 49.7656 34.1927 50.5062 33.5156 51.2256C 32.8809 51.9027 32.4365 52.3893 32.1826 52.6855C 31.9287 53.151 31.7594 53.5531 31.6748 53.8916C 31.5902 54.2301 31.5479 54.6745 31.5479 55.2246ZM 57.6367 42.1484L 57.0654 39.8633L 55.9229 40.498L 49.3213 47.0996C 49.279 47.1419 49.1309 47.0996 48.877 46.9727C 48.5807 46.8034 48.3691 46.6764 48.2422 46.5918C 48.1576 46.5072 48.0518 46.4014 47.9248 46.2744C 47.7555 46.1051 47.6709 45.9993 47.6709 45.957L 47.6709 45.7031C 47.6709 45.4492 47.8613 45.0472 48.2422 44.4971C 48.5807 43.9469 49.0462 43.3333 49.6387 42.6562C 50.2311 41.9792 50.887 41.2809 51.6064 40.5615C 52.3682 39.7998 53.1087 39.1439 53.8281 38.5938C 54.5898 38.0013 55.3092 37.5146 55.9863 37.1338C 56.6634 36.7529 57.2347 36.5625 57.7002 36.5625C 58.5042 36.5625 59.0967 36.9434 59.4775 37.7051C 59.9007 38.4245 60.1758 39.292 60.3027 40.3076C 60.472 41.2809 60.5355 42.2754 60.4932 43.291C 60.4508 44.2643 60.4297 44.9837 60.4297 45.4492C 60.5566 45.2376 60.8317 44.8779 61.2549 44.3701C 61.6781 43.82 62.1224 43.2487 62.5879 42.6562C 63.0534 42.0215 63.4977 41.4502 63.9209 40.9424C 64.3441 40.4346 64.6403 40.0749 64.8096 39.8633C 64.9365 39.7363 65.2116 39.4401 65.6348 38.9746C 66.1003 38.4668 66.5869 37.959 67.0947 37.4512C 67.6449 36.901 68.2161 36.4355 68.8086 36.0547C 69.401 35.6315 69.9089 35.4199 70.332 35.4199C 71.0938 35.4199 71.6439 35.6527 71.9824 36.1182C 72.321 36.5413 72.5326 37.0703 72.6172 37.7051C 72.7441 38.3398 72.7865 39.0169 72.7441 39.7363C 72.7018 40.4134 72.6807 40.9847 72.6807 41.4502C 72.6807 43.0583 72.5749 44.6452 72.3633 46.2109C 72.1517 47.7767 72.0459 49.3848 72.0459 51.0352L 72.0459 51.543C 72.9346 50.5273 73.6963 49.4059 74.3311 48.1787C 75.0081 46.9515 75.6852 45.7454 76.3623 44.5605C 77.0394 43.3333 77.7588 42.1696 78.5205 41.0693C 79.3245 39.9691 80.2979 39.0381 81.4404 38.2764C 81.5251 38.2341 81.652 38.2129 81.8213 38.2129C 82.0329 38.1706 82.181 38.1494 82.2656 38.1494C 82.7311 38.1494 83.0697 38.2975 83.2812 38.5938C 83.5352 38.8477 83.6833 39.1862 83.7256 39.6094C 83.8102 39.9902 83.8314 40.3923 83.7891 40.8154C 83.7467 41.2386 83.7256 41.5983 83.7256 41.8945C 83.7256 43.7142 83.6198 45.5127 83.4082 47.29C 83.1966 49.0251 83.0908 50.8024 83.0908 52.6221C 83.0908 53.5954 83.3024 54.2301 83.7256 54.5264C 84.1911 54.8226 84.9105 54.9707 85.8838 54.9707C 86.3493 54.9707 86.7513 54.9072 87.0898 54.7803C 87.4707 54.611 87.8304 54.4417 88.1689 54.2725C 88.5075 54.0609 88.846 53.8916 89.1846 53.7646C 89.5654 53.5954 89.9674 53.5107 90.3906 53.5107C 90.3906 54.1455 90.2214 54.738 89.8828 55.2881C 89.5443 55.7959 89.1211 56.2402 88.6133 56.6211C 88.1055 56.9596 87.5342 57.2347 86.8994 57.4463C 86.2646 57.6156 85.6722 57.7002 85.1221 57.7002C 84.6566 57.7002 84.1699 57.6367 83.6621 57.5098C 83.1966 57.3828 82.7523 57.1924 82.3291 56.9385C 81.9482 56.6423 81.6097 56.2826 81.3135 55.8594C 81.0596 55.4362 80.9326 54.9284 80.9326 54.3359L 80.9326 42.1484C 80.4671 42.487 79.9382 43.1006 79.3457 43.9893C 78.7956 44.8779 78.2031 45.8936 77.5684 47.0361C 76.9759 48.1787 76.3623 49.3848 75.7275 50.6543C 75.1351 51.9238 74.5426 53.0664 73.9502 54.082C 73.3577 55.0977 72.7865 55.9652 72.2363 56.6846C 71.6862 57.3617 71.1784 57.7002 70.7129 57.7002C 70.2474 57.7002 69.9089 57.4886 69.6973 57.0654C 69.4857 56.6423 69.3376 56.1768 69.2529 55.6689C 69.2106 55.1188 69.1895 54.611 69.1895 54.1455C 69.1895 53.68 69.1895 53.3626 69.1895 53.1934C 69.1895 52.1777 69.2529 51.1621 69.3799 50.1465C 69.5068 49.1309 69.6549 48.1152 69.8242 47.0996C 69.9935 46.0417 70.1416 45.0049 70.2686 43.9893C 70.3955 42.9736 70.459 41.958 70.459 40.9424C 70.459 40.8154 70.459 40.625 70.459 40.3711C 70.459 40.1172 70.4167 39.8844 70.332 39.6729C 70.2897 39.4189 70.2051 39.2074 70.0781 39.0381C 69.9512 38.8265 69.7819 38.7207 69.5703 38.7207C 69.528 38.7207 69.4857 38.7419 69.4434 38.7842C 69.4434 38.7842 69.4222 38.7842 69.3799 38.7842C 69.3799 38.8265 69.3376 38.8477 69.2529 38.8477C 69.2106 38.8477 69.126 38.9111 68.999 39.0381C 68.8721 39.165 68.7874 39.2708 68.7451 39.3555C 68.2796 39.9479 67.666 40.7096 66.9043 41.6406C 66.1426 42.5716 65.402 43.4814 64.6826 44.3701C 63.9632 45.2588 63.3496 46.0205 62.8418 46.6553C 62.334 47.29 62.0589 47.6074 62.0166 47.6074C 61.8896 47.8613 61.6569 48.4749 61.3184 49.4482C 61.0221 50.4215 60.6836 51.4795 60.3027 52.6221C 59.9642 53.7223 59.6468 54.7803 59.3506 55.7959C 59.0544 56.7692 58.8428 57.3828 58.7158 57.6367C 58.5042 58.3138 58.2292 58.7793 57.8906 59.0332C 57.5521 59.2871 57.0443 59.4141 56.3672 59.4141C 56.3672 57.9753 56.4307 56.5576 56.5576 55.1611C 56.6846 53.7646 56.8327 52.3682 57.002 50.9717C 57.1712 49.5329 57.3193 48.1152 57.4463 46.7188C 57.5732 45.2799 57.6367 43.82 57.6367 42.3389L 57.6367 42.1484Z"/>
</defs>
</svg>
