<svg width="200" height="200" viewBox="0 0 200 200" version="1.1" xmlns="http://www.w3.org/2000/svg" xmlns:xlink="http://www.w3.org/1999/xlink" xmlns:figma="http://www.figma.com/figma/ns">
<title>Group</title>
<desc>Created using Figma</desc>
<g id="Canvas" transform="translate(152 -506)" figma:type="canvas">
<g id="Group" style="mix-blend-mode:normal;" figma:type="frame">
<g id="Ellipse" style="mix-blend-mode:normal;" figma:type="ellipse">
<use xlink:href="#path0_fill" transform="translate(-122 536)" fill="#B21C0E" style="mix-blend-mode:normal;"/>
</g>
<g id="Ellipse 2" style="mix-blend-mode:normal;" figma:type="ellipse">
<use xlink:href="#path1_fill" transform="translate(-152 506)" fill="#000000" fill-opacity="0.7" style="mix-blend-mode:normal;"/>
</g>
<g id="Capital" style="mix-blend-mode:normal;" figma:type="text">
<use xlink:href="#path2_fill" transform="translate(-84 619)" fill="#FFFFFF" style="mix-blend-mode:normal;"/>
</g>
<g id="Amsterdam" style="mix-blend-mode:normal;" figma:type="text">
<use xlink:href="#path3_fill" transform="translate(-121 552)" fill="#FFFFFF" style="mix-blend-mode:normal;"/>
</g>
</g>
</g>
<defs>
<path id="path0_fill" d="M 140 70C 140 108.66 108.66 140 70 140C 31.3401 140 0 108.66 0 70C 0 31.3401 31.3401 0 70 0C 108.66 0 140 31.3401 140 70Z"/>
<path id="path1_fill" d="M 200 100C 200 155.228 155.228 200 100 200C 44.7715 200 0 155.228 0 100C 0 44.7715 44.7715 0 100 0C 155.228 0 200 44.7715 200 100Z"/>
<path id="path2_fill" d="M 14.1357 17.1753C 14.3311 17.1753 14.4287 17.334 14.4287 17.6514C 14.4287 17.9606 14.3595 18.4977 14.2212 19.2627C 14.1154 19.7754 13.5295 20.5078 12.4634 21.46C 11.1776 22.5993 9.76562 23.4131 8.22754 23.9014C 7.2998 24.1943 6.39242 24.3408 5.50537 24.3408C 4.62646 24.3408 3.8208 23.9705 3.08838 23.23C 2.3641 22.4813 2.00195 21.5983 2.00195 20.5811C 2.00195 19.5557 2.2054 18.4977 2.6123 17.4072C 3.02734 16.3086 3.58073 15.2629 4.27246 14.27C 4.97233 13.269 5.79427 12.3088 6.73828 11.3892C 7.69043 10.4696 8.6792 9.67204 9.70459 8.99658C 10.73 8.32113 11.8042 7.78402 12.9272 7.38525C 14.0503 6.98649 15.1164 6.78711 16.1255 6.78711C 16.923 6.78711 17.6025 7.07601 18.1641 7.65381C 18.457 7.96305 18.6035 8.35368 18.6035 8.82568C 18.6035 9.28955 18.3757 9.87956 17.9199 10.5957C 17.4642 11.3037 16.923 11.9507 16.2964 12.5366C 15.6779 13.1226 15.035 13.619 14.3677 14.0259C 13.7085 14.4328 13.1795 14.6362 12.7808 14.6362C 12.382 14.6362 12.0402 14.5142 11.7554 14.27C 11.4705 14.0177 11.3281 13.7939 11.3281 13.5986C 11.3281 13.4033 11.3688 13.1877 11.4502 12.9517C 11.5397 12.7157 11.6496 12.5977 11.7798 12.5977C 11.7472 12.6383 11.731 12.679 11.731 12.7197C 11.731 12.8174 11.8693 12.8662 12.146 12.8662C 12.4308 12.8662 12.9028 12.618 13.562 12.1216C 14.2212 11.6252 14.8153 11.0677 15.3442 10.4492C 15.8813 9.83073 16.1499 9.36686 16.1499 9.05762C 16.1499 8.84603 16.0075 8.74023 15.7227 8.74023C 14.9577 8.74023 13.8997 9.09831 12.5488 9.81445C 11.2061 10.5225 9.92025 11.438 8.69141 12.561C 7.46256 13.6841 6.39242 15.0187 5.48096 16.5649C 4.57764 18.103 4.12598 19.4865 4.12598 20.7153C 4.12598 21.228 4.26025 21.639 4.52881 21.9482C 4.8055 22.2575 5.22461 22.4121 5.78613 22.4121C 6.35579 22.4121 7.02718 22.2493 7.80029 21.9238C 8.5734 21.5983 9.30583 21.1995 9.99756 20.7275C 10.6974 20.2555 11.3566 19.7713 11.9751 19.2749C 12.5936 18.7785 13.0859 18.3431 13.4521 17.9688C 13.8265 17.5944 14.0177 17.3706 14.0259 17.2974C 14.034 17.216 14.0706 17.1753 14.1357 17.1753ZM 24.2798 15.0146C 24.8983 15.0146 25.2075 15.2262 25.2075 15.6494C 25.2075 15.8773 25.1546 16.0441 25.0488 16.1499C 24.943 16.2557 24.7152 16.6097 24.3652 17.2119C 24.0234 17.806 23.641 18.571 23.2178 19.5068C 22.8027 20.4346 22.5342 21.228 22.4121 21.8872C 22.3877 21.9686 22.3755 22.0825 22.3755 22.229C 22.3755 22.6766 22.4976 22.9004 22.7417 22.9004C 22.9858 22.9004 23.2747 22.7865 23.6084 22.5586C 23.9421 22.3226 24.2391 22.0744 24.4995 21.814C 24.7599 21.5454 25.0122 21.2728 25.2563 20.9961C 25.5086 20.7194 25.6592 20.5607 25.708 20.52C 25.7568 20.4793 25.8301 20.459 25.9277 20.459C 26.0824 20.459 26.1759 20.577 26.2085 20.813C 26.241 21.049 26.2573 21.2931 26.2573 21.5454C 26.2573 21.7977 26.2329 21.9727 26.1841 22.0703C 25.9481 22.5342 25.4272 23.0916 24.6216 23.7427C 23.8241 24.3937 23.0957 24.7192 22.4365 24.7192C 21.7855 24.7192 21.3053 24.5199 20.9961 24.1211C 20.6868 23.7223 20.5322 23.2829 20.5322 22.8027C 20.5322 22.3145 20.6136 21.8872 20.7764 21.521C 20.1009 22.3999 19.3237 23.1445 18.4448 23.7549C 17.5741 24.3652 16.862 24.6704 16.3086 24.6704C 15.7552 24.6704 15.3035 24.5036 14.9536 24.1699C 14.506 23.7549 14.2822 23.1812 14.2822 22.4487C 14.2822 21.7082 14.445 20.9676 14.7705 20.2271C 15.1042 19.4784 15.5396 18.7988 16.0767 18.1885C 16.6138 17.57 17.2038 17.0085 17.8467 16.5039C 19.1976 15.446 20.4427 14.917 21.582 14.917C 22.0215 14.917 22.3796 14.9902 22.6562 15.1367C 22.9329 15.2832 23.1079 15.4663 23.1812 15.686C 23.3765 15.3931 23.5392 15.21 23.6694 15.1367C 23.8078 15.0553 24.0112 15.0146 24.2798 15.0146ZM 22.6562 16.3696C 21.2646 16.3696 19.8242 17.1427 18.335 18.689C 17.806 19.2424 17.3177 19.9056 16.8701 20.6787C 16.4307 21.4518 16.2109 21.9808 16.2109 22.2656C 16.2109 22.5505 16.2923 22.6929 16.4551 22.6929C 16.6829 22.6929 17.3177 22.2453 18.3594 21.3501C 19.401 20.4468 20.0928 19.7835 20.4346 19.3604C 20.8089 18.8883 21.5495 17.8914 22.6562 16.3696ZM 31.9458 11.3037L 32.1655 11.2793C 32.2876 11.2793 32.3853 11.3851 32.4585 11.5967C 32.5317 11.8083 32.5684 11.9507 32.5684 12.0239C 32.5684 12.0972 32.487 12.2355 32.3242 12.439L 28.8452 17.7368C 30.0659 16.5161 31.307 15.625 32.5684 15.0635C 33.0566 14.8519 33.4961 14.7461 33.8867 14.7461C 34.2855 14.7461 34.6029 14.8763 34.8389 15.1367C 35.083 15.389 35.2051 15.7064 35.2051 16.0889C 35.2051 16.4714 35.0993 16.9434 34.8877 17.5049C 34.6761 18.0664 34.3872 18.6646 34.021 19.2993C 33.6629 19.9341 33.2235 20.5729 32.7026 21.2158C 32.1899 21.8587 31.6488 22.4406 31.0791 22.9614C 30.5176 23.4823 29.9032 23.9054 29.2358 24.231C 28.5685 24.5565 27.9826 24.7192 27.478 24.7192C 26.4608 24.7192 25.9521 24.2513 25.9521 23.3154C 25 24.7721 23.9014 26.4974 22.6562 28.4912C 21.4111 30.485 20.7438 31.5389 20.6543 31.6528C 20.5648 31.7668 20.4915 31.8237 20.4346 31.8237C 20.3695 31.8237 20.2759 31.7871 20.1538 31.7139C 20.0236 31.6406 19.8893 31.5186 19.751 31.3477C 19.6126 31.1768 19.5435 30.9285 19.5435 30.603C 19.5353 30.2775 19.6289 29.9479 19.8242 29.6143C 20.9229 27.7832 23.0387 24.3408 26.1719 19.2871C 29.3132 14.2253 31.014 11.6089 31.2744 11.438C 31.4209 11.3403 31.5674 11.2915 31.7139 11.2915L 31.9458 11.3037ZM 33.02 16.9189C 33.02 16.748 32.9386 16.6626 32.7759 16.6626C 32.3364 16.6626 31.4046 17.3381 29.9805 18.689C 28.5645 20.0399 27.4373 21.2728 26.5991 22.3877C 26.8107 22.6481 27.124 22.7783 27.5391 22.7783C 27.9541 22.7783 28.4912 22.5545 29.1504 22.1069C 29.8096 21.6593 30.4199 21.1304 30.9814 20.52C 31.543 19.9015 32.0231 19.2546 32.4219 18.5791C 32.8206 17.9036 33.02 17.3503 33.02 16.9189ZM 42.8833 10.8887C 42.8833 11.3525 42.6676 11.8205 42.2363 12.2925C 41.805 12.7563 41.3534 12.9883 40.8813 12.9883C 40.4175 12.9883 40.1855 12.7441 40.1855 12.2559C 40.1855 11.7676 40.389 11.3037 40.7959 10.8643C 41.2109 10.4167 41.6667 10.1929 42.1631 10.1929C 42.3828 10.1929 42.5578 10.2539 42.688 10.376C 42.8182 10.498 42.8833 10.6689 42.8833 10.8887ZM 40.9058 21.5454C 40.9058 21.7896 40.8813 21.9645 40.8325 22.0703C 40.4338 22.8841 39.799 23.5433 38.9282 24.0479C 38.0575 24.5443 37.3006 24.7925 36.6577 24.7925C 36.0148 24.7925 35.4614 24.5768 34.9976 24.1455C 34.5337 23.7142 34.3018 23.2747 34.3018 22.8271C 34.3018 22.3796 34.5256 21.7285 34.9731 20.874C 35.4207 20.0195 35.8683 19.2301 36.3159 18.5059C 36.7635 17.7816 36.9873 17.391 36.9873 17.334C 36.9873 17.2689 36.9019 17.1468 36.731 16.9678C 36.5682 16.7887 36.4868 16.6585 36.4868 16.5771C 36.4868 16.4876 36.6536 16.2638 36.9873 15.9058C 37.3291 15.5396 37.7401 15.1815 38.2202 14.8315C 38.7085 14.4735 39.0788 14.2944 39.3311 14.2944C 39.5915 14.2944 39.8234 14.4084 40.0269 14.6362C 40.2303 14.8641 40.332 15.0716 40.332 15.2588C 40.332 15.446 39.3636 17.2078 37.4268 20.5444C 37.4023 20.5933 37.3332 20.7031 37.2192 20.874C 37.1134 21.0368 37.028 21.1751 36.9629 21.2891C 36.9059 21.3949 36.8368 21.5251 36.7554 21.6797C 36.5926 22.0052 36.5112 22.2778 36.5112 22.4976C 36.5112 22.7743 36.6984 22.9126 37.0728 22.9126C 37.4471 22.9126 37.8337 22.7865 38.2324 22.5342C 38.6393 22.2738 38.9893 21.9889 39.2822 21.6797C 40.0472 20.8577 40.4826 20.4468 40.5884 20.4468C 40.8 20.4468 40.9058 20.813 40.9058 21.5454ZM 48.4131 8.56934L 48.9136 8.69141C 48.9868 8.69141 49.0519 8.72803 49.1089 8.80127C 49.1659 8.87451 49.1943 8.94368 49.1943 9.00879C 49.1943 9.07389 49.1089 9.24886 48.938 9.53369C 48.7671 9.81852 48.5636 10.144 48.3276 10.5103C 48.0998 10.8683 47.9777 11.0636 47.9614 11.0962C 48.5962 11.0474 49.0438 11.0229 49.3042 11.0229C 49.5728 11.0229 49.7559 11.0433 49.8535 11.084C 49.9512 11.1165 50.061 11.2183 50.1831 11.3892C 50.3133 11.5519 50.4313 11.6781 50.5371 11.7676C 50.6429 11.849 50.6958 11.9751 50.6958 12.146C 50.6958 12.3169 50.59 12.4634 50.3784 12.5854C 50.175 12.6994 49.9552 12.7686 49.7192 12.793C 47.8312 12.9801 46.7896 13.0778 46.5942 13.0859C 45.9351 14.0951 45.0114 15.6698 43.8232 17.8101C 42.6432 19.9422 42.0166 21.2769 41.9434 21.814C 41.9108 22.0581 41.8945 22.2575 41.8945 22.4121C 41.8945 22.7295 42.0614 22.8882 42.395 22.8882C 42.7287 22.8882 43.099 22.762 43.5059 22.5098C 43.9128 22.2493 44.2871 21.9686 44.6289 21.6675C 45.5404 20.8537 46.0286 20.4468 46.0938 20.4468C 46.3053 20.4468 46.4111 20.813 46.4111 21.5454C 46.4111 21.9442 46.228 22.3022 45.8618 22.6196C 45.0399 23.3276 44.3481 23.8607 43.7866 24.2188C 43.2251 24.5768 42.6636 24.7559 42.1021 24.7559C 41.98 24.7559 41.866 24.7437 41.7603 24.7192C 41.1092 24.5972 40.6291 24.3612 40.3198 24.0112C 40.0187 23.6532 39.8682 23.173 39.8682 22.5708C 39.8763 21.9686 40.0553 21.2402 40.4053 20.3857C 40.7633 19.5231 41.2109 18.6076 41.748 17.6392C 42.627 16.0604 43.5059 14.5793 44.3848 13.1958L 43.9209 13.2568C 42.9769 13.3626 42.4276 13.4155 42.2729 13.4155L 42.1631 13.4155C 41.9271 13.4155 41.6992 13.3708 41.4795 13.2812C 41.2598 13.1836 41.1499 13.0656 41.1499 12.9272C 41.1499 12.7889 41.2069 12.6546 41.3208 12.5244C 41.4429 12.3942 41.5161 12.2925 41.5405 12.2192C 41.5975 12.0402 41.8091 11.8408 42.1753 11.6211C 42.5496 11.4014 42.8304 11.2874 43.0176 11.2793C 43.2048 11.263 43.3838 11.2508 43.5547 11.2427C 43.7337 11.2345 43.929 11.2264 44.1406 11.2183C 44.3604 11.2101 44.5272 11.202 44.6411 11.1938L 45.7397 11.145C 46.4233 10.1196 46.8913 9.46045 47.1436 9.16748C 47.404 8.87451 47.5545 8.71582 47.5952 8.69141C 47.6359 8.65885 47.7173 8.64258 47.8394 8.64258L 48.4131 8.56934ZM 54.6997 15.0146C 55.3182 15.0146 55.6274 15.2262 55.6274 15.6494C 55.6274 15.8773 55.5745 16.0441 55.4688 16.1499C 55.363 16.2557 55.1351 16.6097 54.7852 17.2119C 54.4434 17.806 54.0609 18.571 53.6377 19.5068C 53.2227 20.4346 52.9541 21.228 52.832 21.8872C 52.8076 21.9686 52.7954 22.0825 52.7954 22.229C 52.7954 22.6766 52.9175 22.9004 53.1616 22.9004C 53.4058 22.9004 53.6947 22.7865 54.0283 22.5586C 54.362 22.3226 54.659 22.0744 54.9194 21.814C 55.1799 21.5454 55.4321 21.2728 55.6763 20.9961C 55.9285 20.7194 56.0791 20.5607 56.1279 20.52C 56.1768 20.4793 56.25 20.459 56.3477 20.459C 56.5023 20.459 56.5959 20.577 56.6284 20.813C 56.661 21.049 56.6772 21.2931 56.6772 21.5454C 56.6772 21.7977 56.6528 21.9727 56.604 22.0703C 56.368 22.5342 55.8472 23.0916 55.0415 23.7427C 54.244 24.3937 53.5156 24.7192 52.8564 24.7192C 52.2054 24.7192 51.7253 24.5199 51.416 24.1211C 51.1068 23.7223 50.9521 23.2829 50.9521 22.8027C 50.9521 22.3145 51.0335 21.8872 51.1963 21.521C 50.5208 22.3999 49.7437 23.1445 48.8647 23.7549C 47.994 24.3652 47.2819 24.6704 46.7285 24.6704C 46.1751 24.6704 45.7235 24.5036 45.3735 24.1699C 44.9259 23.7549 44.7021 23.1812 44.7021 22.4487C 44.7021 21.7082 44.8649 20.9676 45.1904 20.2271C 45.5241 19.4784 45.9595 18.7988 46.4966 18.1885C 47.0337 17.57 47.6237 17.0085 48.2666 16.5039C 49.6175 15.446 50.8626 14.917 52.002 14.917C 52.4414 14.917 52.7995 14.9902 53.0762 15.1367C 53.3529 15.2832 53.5278 15.4663 53.6011 15.686C 53.7964 15.3931 53.9591 15.21 54.0894 15.1367C 54.2277 15.0553 54.4312 15.0146 54.6997 15.0146ZM 53.0762 16.3696C 51.6846 16.3696 50.2441 17.1427 48.7549 18.689C 48.2259 19.2424 47.7376 19.9056 47.29 20.6787C 46.8506 21.4518 46.6309 21.9808 46.6309 22.2656C 46.6309 22.5505 46.7122 22.6929 46.875 22.6929C 47.1029 22.6929 47.7376 22.2453 48.7793 21.3501C 49.821 20.4468 50.5127 19.7835 50.8545 19.3604C 51.2288 18.8883 51.9694 17.8914 53.0762 16.3696ZM 65.686 5.96924C 66.0767 5.96924 66.4185 6.08724 66.7114 6.32324C 67.0125 6.55111 67.1631 6.8929 67.1631 7.34863C 67.1631 7.80436 66.9108 8.52051 66.4062 9.49707C 65.9017 10.4655 65.2954 11.4583 64.5874 12.4756C 63.8794 13.4847 63.0778 14.5589 62.1826 15.6982C 60.7666 17.5049 59.4076 19.1284 58.1055 20.5688C 58.0973 20.6665 58.0607 20.8496 57.9956 21.1182C 57.9386 21.3786 57.9102 21.6431 57.9102 21.9116C 57.9102 22.1802 58.0322 22.4243 58.2764 22.644C 58.5286 22.8556 58.8379 22.9614 59.2041 22.9614C 59.5703 22.9614 59.9609 22.8312 60.376 22.5708C 60.7992 22.3104 61.1654 22.0215 61.4746 21.7041C 62.2884 20.8659 62.793 20.4468 62.9883 20.4468C 63.1836 20.4468 63.2812 20.7438 63.2812 21.3379L 63.2812 21.582C 63.2812 21.8994 63.2243 22.1313 63.1104 22.2778C 62.4268 23.116 61.6577 23.7427 60.8032 24.1577C 59.9487 24.5646 59.139 24.7681 58.374 24.7681C 57.609 24.7681 57.0272 24.5361 56.6284 24.0723C 56.2297 23.6003 56.0303 22.9574 56.0303 22.1436C 56.0303 20.5566 56.4535 18.693 57.2998 16.5527C 58.1543 14.4043 59.1146 12.5773 60.1807 11.0718C 62.5814 7.67009 64.4165 5.96924 65.686 5.96924ZM 65.1367 7.99561C 65.1367 7.87354 65.096 7.8125 65.0146 7.8125C 64.7298 7.8125 63.9811 8.6263 62.7686 10.2539C 61.556 11.8815 60.6771 13.1795 60.1318 14.1479C 59.5947 15.1164 59.0861 16.333 58.606 17.7979C 59.5662 16.6585 60.8927 14.8844 62.5854 12.4756C 64.2863 10.0586 65.1367 8.56527 65.1367 7.99561Z"/>
<path id="path3_fill" d="M 3.05859 49.252C 3.05859 49.2051 3.05859 49.1465 3.05859 49.0762C 3.08203 49.0059 3.09375 48.9707 3.09375 48.9707C 3.44531 48.291 3.80859 47.6348 4.18359 47.002C 4.58203 46.3691 4.98047 45.748 5.37891 45.1387C 5.80078 44.5059 6.19922 43.873 6.57422 43.2402C 6.97266 42.584 7.33594 41.9277 7.66406 41.2715C 7.57031 41.0605 7.33594 40.873 6.96094 40.709C 6.58594 40.5449 6.12891 40.3691 5.58984 40.1816C 5.07422 39.9941 4.52344 39.7832 3.9375 39.5488C 3.35156 39.291 2.8125 38.998 2.32031 38.6699C 1.82812 38.3184 1.41797 37.9199 1.08984 37.4746C 0.761719 37.0059 0.597656 36.4668 0.597656 35.8574C 0.597656 35.2246 0.808594 34.6738 1.23047 34.2051C 1.65234 33.7129 2.16797 33.3145 2.77734 33.0098C 3.38672 32.6816 4.03125 32.4355 4.71094 32.2715C 5.39062 32.1074 5.97656 32.0254 6.46875 32.0254C 7.5 32.0254 8.40234 32.2012 9.17578 32.5527C 9.97266 32.9043 10.793 33.3613 11.6367 33.9238C 11.918 33.7129 12.1523 33.4785 12.3398 33.2207C 12.5508 32.9629 12.7383 32.6816 12.9023 32.377C 12.9727 32.2129 13.125 31.9199 13.3594 31.498C 13.6172 31.0527 13.8633 30.584 14.0977 30.0918C 14.3555 29.5996 14.6016 29.1426 14.8359 28.7207C 15.0938 28.2754 15.2578 27.959 15.3281 27.7715C 15.5156 27.6309 15.668 27.5488 15.7852 27.5254C 15.9023 27.4785 16.0664 27.4551 16.2773 27.4551C 16.3008 27.4551 16.3477 27.4551 16.418 27.4551C 16.5117 27.4551 16.5703 27.4551 16.5938 27.4551C 16.8281 28.4395 17.0039 29.4473 17.1211 30.4785C 17.2383 31.5098 17.3203 32.541 17.3672 33.5723C 17.4375 34.6035 17.4961 35.6348 17.543 36.666C 17.5898 37.6973 17.6719 38.7285 17.7891 39.7598C 17.8594 39.7598 17.9883 39.7715 18.1758 39.7949C 18.3633 39.7949 18.5039 39.7949 18.5977 39.7949C 18.9258 39.7949 19.2539 39.7598 19.582 39.6895C 19.9102 39.6191 20.2383 39.5488 20.5664 39.4785C 20.8945 39.3848 21.2227 39.3027 21.5508 39.2324C 21.9023 39.1621 22.2539 39.127 22.6055 39.127L 22.7109 39.127C 22.7344 39.1504 22.7812 39.1973 22.8516 39.2676C 22.9219 39.3379 22.9805 39.3848 23.0273 39.4082C 22.8867 39.666 22.6523 39.877 22.3242 40.041C 22.0195 40.1816 21.668 40.2988 21.2695 40.3926C 20.8945 40.4863 20.4961 40.5801 20.0742 40.6738C 19.6523 40.7441 19.2773 40.8379 18.9492 40.9551C 18.6211 41.0488 18.3398 41.166 18.1055 41.3066C 17.8945 41.4473 17.7891 41.6465 17.7891 41.9043C 17.7891 42.373 17.8125 42.8418 17.8594 43.3105C 17.9297 43.7793 18 44.2598 18.0703 44.752C 18.1641 45.2207 18.2461 45.7012 18.3164 46.1934C 18.3867 46.6621 18.4219 47.1426 18.4219 47.6348C 18.4219 47.752 18.4102 47.916 18.3867 48.127C 18.3867 48.3379 18.3633 48.5488 18.3164 48.7598C 18.293 48.9707 18.2227 49.1582 18.1055 49.3223C 18.0117 49.4863 17.8594 49.5684 17.6484 49.5684C 17.4141 49.5684 17.2031 49.3926 17.0156 49.041C 16.8281 48.6895 16.6758 48.2441 16.5586 47.7051C 16.4414 47.166 16.3359 46.5801 16.2422 45.9473C 16.1719 45.291 16.1016 44.6699 16.0312 44.084C 15.9844 43.4746 15.9258 42.9473 15.8555 42.502C 15.7852 42.0332 15.7148 41.7285 15.6445 41.5879C 15.457 41.5645 15.1055 41.541 14.5898 41.5176C 14.0977 41.4941 13.5703 41.4707 13.0078 41.4473C 12.4687 41.4004 11.9531 41.3652 11.4609 41.3418C 10.9688 41.2949 10.6289 41.2715 10.4414 41.2715L 10.0898 41.2715C 9.62109 41.2715 9.17578 41.4941 8.75391 41.9395C 8.35547 42.3613 7.98047 42.9121 7.62891 43.5918C 7.30078 44.248 6.97266 44.9629 6.64453 45.7363C 6.31641 46.4863 6 47.2012 5.69531 47.8809C 5.39062 48.5371 5.07422 49.0879 4.74609 49.5332C 4.41797 49.9785 4.06641 50.2012 3.69141 50.2012C 3.43359 50.2012 3.25781 50.1074 3.16406 49.9199C 3.09375 49.709 3.05859 49.4863 3.05859 49.252ZM 10.125 39.7598C 10.3125 39.877 10.5352 39.9707 10.793 40.041C 11.0742 40.0879 11.3555 40.1113 11.6367 40.1113C 11.918 40.1113 12.1758 40.1113 12.4102 40.1113C 12.668 40.1113 12.8906 40.1113 13.0781 40.1113C 13.1719 40.1113 13.2891 40.1113 13.4297 40.1113C 13.5703 40.0879 13.7109 40.0762 13.8516 40.0762C 13.9922 40.0762 14.1094 40.0762 14.2031 40.0762C 14.3203 40.0527 14.3906 40.041 14.4141 40.041L 14.7305 39.7598C 14.7773 39.7129 14.6953 39.502 14.4844 39.127C 14.2734 38.752 14.0039 38.3652 13.6758 37.9668C 13.3711 37.5449 13.0664 37.1699 12.7617 36.8418C 12.457 36.4902 12.2461 36.3145 12.1289 36.3145C 12.1055 36.3145 12.082 36.3262 12.0586 36.3496C 12.0352 36.373 12 36.3848 11.9531 36.3848C 11.6016 36.9004 11.2734 37.4395 10.9688 38.002C 10.6641 38.5645 10.3828 39.1504 10.125 39.7598ZM 2.14453 35.8223C 2.14453 36.4316 2.35547 36.9707 2.77734 37.4395C 3.19922 37.8848 3.71484 38.2598 4.32422 38.5645C 4.93359 38.8691 5.57813 39.0918 6.25781 39.2324C 6.9375 39.373 7.53516 39.4434 8.05078 39.4434C 8.37891 39.4434 8.71875 39.2793 9.07031 38.9512C 9.42188 38.5996 9.73828 38.2012 10.0195 37.7559C 10.3242 37.3105 10.5703 36.8535 10.7578 36.3848C 10.9688 35.916 11.0742 35.5527 11.0742 35.2949C 11.0742 35.0137 10.8867 34.7559 10.5117 34.5215C 10.1367 34.2637 9.69141 34.041 9.17578 33.8535C 8.68359 33.666 8.19141 33.5254 7.69922 33.4316C 7.20703 33.3145 6.84375 33.2559 6.60938 33.2559C 6.25781 33.2559 5.82422 33.3145 5.30859 33.4316C 4.81641 33.5254 4.32422 33.6777 3.83203 33.8887C 3.36328 34.0996 2.96484 34.3691 2.63672 34.6973C 2.30859 35.002 2.14453 35.377 2.14453 35.8223ZM 13.1836 34.6621C 13.1836 34.9668 13.3008 35.3418 13.5352 35.7871C 13.7695 36.2324 14.0508 36.666 14.3789 37.0879C 14.707 37.5098 15.0469 37.873 15.3984 38.1777C 15.7734 38.4824 16.1016 38.6348 16.3828 38.6348C 16.3828 38.5176 16.3711 38.3418 16.3477 38.1074C 16.3477 37.873 16.3359 37.6152 16.3125 37.334C 16.3125 37.0527 16.3008 36.7949 16.2773 36.5605C 16.2773 36.3262 16.2773 36.1504 16.2773 36.0332C 16.2305 35.7051 16.1719 35.2715 16.1016 34.7324C 16.0547 34.1934 15.9961 33.666 15.9258 33.1504C 15.8789 32.6348 15.8203 32.1777 15.75 31.7793C 15.7031 31.3809 15.668 31.1699 15.6445 31.1465L 15.3281 30.5488C 15.3047 30.5723 15.2461 30.6191 15.1523 30.6895C 15.082 30.7598 15.0352 30.8066 15.0117 30.8301C 14.9414 30.9707 14.8242 31.2051 14.6602 31.5332C 14.4961 31.8379 14.3086 32.166 14.0977 32.5176C 13.9102 32.8691 13.7344 33.209 13.5703 33.5371C 13.4063 33.8652 13.2891 34.0879 13.2188 34.2051C 13.2188 34.252 13.207 34.334 13.1836 34.4512C 13.1836 34.5684 13.1836 34.6387 13.1836 34.6621ZM 27.2812 40.6738L 26.9648 39.4082L 26.332 39.7598L 22.6758 43.416C 22.6523 43.4395 22.5703 43.416 22.4297 43.3457C 22.2656 43.252 22.1484 43.1816 22.0781 43.1348C 22.0313 43.0879 21.9727 43.0293 21.9023 42.959C 21.8086 42.8652 21.7617 42.8066 21.7617 42.7832L 21.7617 42.6426C 21.7617 42.502 21.8672 42.2793 22.0781 41.9746C 22.2656 41.6699 22.5234 41.3301 22.8516 40.9551C 23.1797 40.5801 23.543 40.1934 23.9414 39.7949C 24.3633 39.373 24.7734 39.0098 25.1719 38.7051C 25.5938 38.377 25.9922 38.1074 26.3672 37.8965C 26.7422 37.6855 27.0586 37.5801 27.3164 37.5801C 27.7617 37.5801 28.0898 37.791 28.3008 38.2129C 28.5352 38.6113 28.6875 39.0918 28.7578 39.6543C 28.8516 40.1934 28.8867 40.7441 28.8633 41.3066C 28.8398 41.8457 28.8281 42.2441 28.8281 42.502C 28.8984 42.3848 29.0508 42.1855 29.2852 41.9043C 29.5195 41.5996 29.7656 41.2832 30.0234 40.9551C 30.2812 40.6035 30.5273 40.2871 30.7617 40.0059C 30.9961 39.7246 31.1602 39.5254 31.2539 39.4082C 31.3242 39.3379 31.4766 39.1738 31.7109 38.916C 31.9687 38.6348 32.2383 38.3535 32.5195 38.0723C 32.8242 37.7676 33.1406 37.5098 33.4688 37.2988C 33.7969 37.0645 34.0781 36.9473 34.3125 36.9473C 34.7344 36.9473 35.0391 37.0762 35.2266 37.334C 35.4141 37.5684 35.5312 37.8613 35.5781 38.2129C 35.6484 38.5645 35.6719 38.9395 35.6484 39.3379C 35.625 39.7129 35.6133 40.0293 35.6133 40.2871C 35.6133 41.1777 35.5547 42.0566 35.4375 42.9238C 35.3203 43.791 35.2617 44.6816 35.2617 45.5957L 35.2617 45.877C 35.7539 45.3145 36.1758 44.6934 36.5273 44.0137C 36.9023 43.334 37.2773 42.666 37.6523 42.0098C 38.0273 41.3301 38.4258 40.6855 38.8477 40.0762C 39.293 39.4668 39.832 38.9512 40.4648 38.5293C 40.5117 38.5059 40.582 38.4941 40.6758 38.4941C 40.793 38.4707 40.875 38.459 40.9219 38.459C 41.1797 38.459 41.3672 38.541 41.4844 38.7051C 41.625 38.8457 41.707 39.0332 41.7305 39.2676C 41.7773 39.4785 41.7891 39.7012 41.7656 39.9355C 41.7422 40.1699 41.7305 40.3691 41.7305 40.5332C 41.7305 41.541 41.6719 42.5371 41.5547 43.5215C 41.4375 44.4824 41.3789 45.4668 41.3789 46.4746C 41.3789 47.0137 41.4961 47.3652 41.7305 47.5293C 41.9883 47.6934 42.3867 47.7754 42.9258 47.7754C 43.1836 47.7754 43.4063 47.7402 43.5938 47.6699C 43.8047 47.5762 44.0039 47.4824 44.1914 47.3887C 44.3789 47.2715 44.5664 47.1777 44.7539 47.1074C 44.9648 47.0137 45.1875 46.9668 45.4219 46.9668C 45.4219 47.3184 45.3281 47.6465 45.1406 47.9512C 44.9531 48.2324 44.7188 48.4785 44.4375 48.6895C 44.1562 48.877 43.8398 49.0293 43.4883 49.1465C 43.1367 49.2402 42.8086 49.2871 42.5039 49.2871C 42.2461 49.2871 41.9766 49.252 41.6953 49.1816C 41.4375 49.1113 41.1914 49.0059 40.957 48.8652C 40.7461 48.7012 40.5586 48.502 40.3945 48.2676C 40.2539 48.0332 40.1836 47.752 40.1836 47.4238L 40.1836 40.6738C 39.9258 40.8613 39.6328 41.2012 39.3047 41.6934C 39 42.1855 38.6719 42.748 38.3203 43.3809C 37.9922 44.0137 37.6523 44.6816 37.3008 45.3848C 36.9727 46.0879 36.6445 46.7207 36.3164 47.2832C 35.9883 47.8457 35.6719 48.3262 35.3672 48.7246C 35.0625 49.0996 34.7813 49.2871 34.5234 49.2871C 34.2656 49.2871 34.0781 49.1699 33.9609 48.9355C 33.8437 48.7012 33.7617 48.4434 33.7148 48.1621C 33.6914 47.8574 33.6797 47.5762 33.6797 47.3184C 33.6797 47.0605 33.6797 46.8848 33.6797 46.791C 33.6797 46.2285 33.7148 45.666 33.7852 45.1035C 33.8555 44.541 33.9375 43.9785 34.0312 43.416C 34.125 42.8301 34.207 42.2559 34.2773 41.6934C 34.3477 41.1309 34.3828 40.5684 34.3828 40.0059C 34.3828 39.9355 34.3828 39.8301 34.3828 39.6895C 34.3828 39.5488 34.3594 39.4199 34.3125 39.3027C 34.2891 39.1621 34.2422 39.0449 34.1719 38.9512C 34.1016 38.834 34.0078 38.7754 33.8906 38.7754C 33.8672 38.7754 33.8437 38.7871 33.8203 38.8105C 33.8203 38.8105 33.8086 38.8105 33.7852 38.8105C 33.7852 38.834 33.7617 38.8457 33.7148 38.8457C 33.6914 38.8457 33.6445 38.8809 33.5742 38.9512C 33.5039 39.0215 33.457 39.0801 33.4336 39.127C 33.1758 39.4551 32.8359 39.877 32.4141 40.3926C 31.9922 40.9082 31.582 41.4121 31.1836 41.9043C 30.7852 42.3965 30.4453 42.8184 30.1641 43.1699C 29.8828 43.5215 29.7305 43.6973 29.707 43.6973C 29.6367 43.8379 29.5078 44.1777 29.3203 44.7168C 29.1562 45.2559 28.9688 45.8418 28.7578 46.4746C 28.5703 47.084 28.3945 47.6699 28.2305 48.2324C 28.0664 48.7715 27.9492 49.1113 27.8789 49.252C 27.7617 49.627 27.6094 49.8848 27.4219 50.0254C 27.2344 50.166 26.9531 50.2363 26.5781 50.2363C 26.5781 49.4395 26.6133 48.6543 26.6836 47.8809C 26.7539 47.1074 26.8359 46.334 26.9297 45.5605C 27.0234 44.7637 27.1055 43.9785 27.1758 43.2051C 27.2461 42.4082 27.2812 41.5996 27.2812 40.7793L 27.2812 40.6738ZM 44.9297 44.1895C 44.9297 44.1426 44.9297 44.0723 44.9297 43.9785C 44.9297 43.8848 44.9297 43.7793 44.9297 43.6621C 44.9531 43.5449 44.9648 43.4395 44.9648 43.3457C 44.9648 43.2285 44.9648 43.1582 44.9648 43.1348C 44.9883 43.0645 45.0703 42.9824 45.2109 42.8887C 45.375 42.7949 45.4922 42.7598 45.5625 42.7832C 45.7031 42.8301 45.832 42.9941 45.9492 43.2754C 46.0664 43.5566 46.1836 43.8965 46.3008 44.2949C 46.418 44.6934 46.5469 45.1387 46.6875 45.6309C 46.8516 46.0996 47.0508 46.5449 47.2852 46.9668C 47.543 47.3652 47.8477 47.7285 48.1992 48.0566C 48.5742 48.3613 49.0195 48.5605 49.5352 48.6543C 49.6992 48.6777 49.8281 48.6777 49.9219 48.6543C 50.0156 48.6074 50.0742 48.5488 50.0977 48.4785C 50.1445 48.3848 50.168 48.291 50.168 48.1973C 50.168 48.0801 50.168 47.9863 50.168 47.916C 50.1445 47.4941 49.9805 47.0605 49.6758 46.6152C 49.3711 46.1465 49.0078 45.6543 48.5859 45.1387C 48.1641 44.5996 47.7422 44.0371 47.3203 43.4512C 46.8984 42.8418 46.5469 42.209 46.2656 41.5527C 45.9844 40.873 45.8086 40.1582 45.7383 39.4082C 45.668 38.6348 45.8086 37.8145 46.1602 36.9473C 46.1602 36.7363 46.2656 36.4551 46.4766 36.1035C 46.7109 35.752 46.9805 35.4238 47.2852 35.1191C 47.6133 34.791 47.9531 34.5098 48.3047 34.2754C 48.6562 34.041 48.9609 33.9238 49.2188 33.9238C 49.5938 33.9238 49.9453 33.9941 50.2734 34.1348C 50.625 34.2754 50.8945 34.5098 51.082 34.8379C 51.3164 35.1426 51.5859 35.5527 51.8906 36.0684C 52.2187 36.5605 52.5 37.0527 52.7344 37.5449C 52.9922 38.0371 53.1562 38.4824 53.2266 38.8809C 53.2969 39.2793 53.1914 39.5137 52.9102 39.584C 52.582 39.584 52.3008 39.4902 52.0664 39.3027C 51.8555 39.1152 51.6797 38.8809 51.5391 38.5996C 51.3984 38.3184 51.2695 38.0137 51.1523 37.6855C 51.0352 37.334 50.9062 37.0176 50.7656 36.7363C 50.625 36.4551 50.4609 36.2207 50.2734 36.0332C 50.0859 35.8223 49.8398 35.7168 49.5352 35.7168C 49.1133 35.7168 48.7383 35.8457 48.4102 36.1035C 48.1055 36.3613 47.8477 36.6777 47.6367 37.0527C 47.4492 37.4277 47.3086 37.8379 47.2148 38.2832C 47.1445 38.7051 47.1094 39.0801 47.1094 39.4082C 47.1094 39.9941 47.2148 40.5449 47.4258 41.0605C 47.6602 41.5527 47.9414 42.0332 48.2695 42.502C 48.6211 42.9473 48.9961 43.3926 49.3945 43.8379C 49.8164 44.2832 50.1914 44.7402 50.5195 45.209C 50.8711 45.6543 51.1641 46.123 51.3984 46.6152C 51.6328 47.1074 51.75 47.6348 51.75 48.1973C 51.75 48.4316 51.6914 48.666 51.5742 48.9004C 51.4805 49.1113 51.3398 49.3223 51.1523 49.5332C 50.9883 49.7207 50.7891 49.873 50.5547 49.9902C 50.3203 50.1074 50.0859 50.166 49.8516 50.166C 49.1953 50.166 48.5742 49.9668 47.9883 49.5684C 47.4023 49.1699 46.875 48.666 46.4062 48.0566C 45.9609 47.4473 45.5977 46.8027 45.3164 46.123C 45.0586 45.4199 44.9297 44.7754 44.9297 44.1895ZM 57.832 48.9707C 57.832 48.9004 57.832 48.7832 57.832 48.6191C 57.832 48.4316 57.8203 48.2441 57.7969 48.0566C 57.7969 47.8457 57.7969 47.6582 57.7969 47.4941C 57.7969 47.3066 57.7969 47.166 57.7969 47.0723C 57.7969 46.3926 57.8555 45.7363 57.9727 45.1035C 58.0898 44.4473 58.2188 43.8027 58.3594 43.1699C 58.5234 42.5137 58.6641 41.8574 58.7812 41.2012C 58.8984 40.5449 58.957 39.877 58.957 39.1973C 58.6758 39.1973 58.3359 39.3262 57.9375 39.584C 57.5625 39.8418 57.1641 40.1348 56.7422 40.4629C 56.3203 40.791 55.9219 41.1309 55.5469 41.4824C 55.1953 41.8105 54.9258 42.0566 54.7383 42.2207C 54.7383 42.2207 54.7031 42.2207 54.6328 42.2207C 54.5625 42.2207 54.5039 42.2207 54.457 42.2207C 54.0117 42.2207 53.7891 42.0098 53.7891 41.5879C 53.7891 41.3066 53.9297 41.0137 54.2109 40.709C 54.5156 40.3809 54.8789 40.0645 55.3008 39.7598C 55.7461 39.4316 56.2148 39.127 56.707 38.8457C 57.2227 38.5645 57.6914 38.3066 58.1133 38.0723C 58.5586 37.8145 58.9219 37.5918 59.2031 37.4043C 59.5078 37.2168 59.6602 37.0645 59.6602 36.9473C 59.8711 35.9629 59.9648 35.1426 59.9414 34.4863C 59.918 33.8301 59.8242 33.3027 59.6602 32.9043C 59.5195 32.5059 59.3086 32.2363 59.0273 32.0957C 58.7695 31.9316 58.4883 31.8613 58.1836 31.8848C 57.9023 31.9082 57.6094 32.0137 57.3047 32.2012C 57 32.3887 56.7422 32.623 56.5312 32.9043C 56.3672 32.7168 56.2617 32.5645 56.2148 32.4473C 56.168 32.3066 56.1445 32.1543 56.1445 31.9902C 56.6836 31.4512 57.2109 31.1113 57.7266 30.9707C 58.2656 30.8301 58.7695 30.8418 59.2383 31.0059C 59.707 31.1465 60.1289 31.4043 60.5039 31.7793C 60.8789 32.1543 61.1602 32.5996 61.3477 33.1152C 61.5586 33.6074 61.6523 34.1465 61.6289 34.7324C 61.6289 35.2949 61.4883 35.8457 61.207 36.3848C 61.2539 36.3613 61.3477 36.3145 61.4883 36.2441C 61.6289 36.1738 61.7812 36.1152 61.9453 36.0684C 62.1094 35.998 62.2617 35.9395 62.4023 35.8926C 62.5664 35.8223 62.6836 35.7754 62.7539 35.752L 62.8594 35.752L 63.0352 35.752C 63.0586 35.752 63.082 35.834 63.1055 35.998C 63.1523 36.1387 63.1992 36.3145 63.2461 36.5254C 63.3164 36.7129 63.375 36.8887 63.4219 37.0527C 63.4688 37.1934 63.4922 37.2754 63.4922 37.2988L 60.8906 38.5293C 60.8672 38.5527 60.7852 38.8105 60.6445 39.3027C 60.5273 39.7715 60.3867 40.334 60.2227 40.9902C 60.0586 41.623 59.8945 42.291 59.7305 42.9941C 59.5664 43.6738 59.4492 44.2246 59.3789 44.6465C 59.332 44.7402 59.2852 44.9277 59.2383 45.209C 59.2148 45.4668 59.1914 45.748 59.168 46.0527C 59.1445 46.334 59.1211 46.6152 59.0977 46.8965C 59.0742 47.1543 59.0625 47.3301 59.0625 47.4238C 59.0625 47.5645 59.0742 47.7285 59.0977 47.916C 59.1211 48.1035 59.1563 48.2793 59.2031 48.4434C 59.2734 48.584 59.3672 48.7129 59.4844 48.8301C 59.6016 48.9238 59.7539 48.9707 59.9414 48.9707C 60.6211 48.9707 61.2187 48.8418 61.7344 48.584C 62.2734 48.3027 62.7422 47.998 63.1406 47.6699C 63.5391 47.3418 63.8906 47.0371 64.1953 46.7559C 64.5234 46.4746 64.8164 46.334 65.0742 46.334C 65.1211 46.334 65.1797 46.3457 65.25 46.3691C 65.3437 46.3691 65.3906 46.3809 65.3906 46.4043C 65.3203 47.084 65.1211 47.6699 64.793 48.1621C 64.4883 48.6309 64.1016 49.0176 63.6328 49.3223C 63.1875 49.627 62.6602 49.8496 62.0508 49.9902C 61.4414 50.1309 60.7852 50.2012 60.082 50.2012C 59.8711 50.2012 59.6367 50.1895 59.3789 50.166C 59.1211 50.1426 58.8867 50.084 58.6758 49.9902C 58.4648 49.8965 58.2773 49.7676 58.1133 49.6035C 57.9727 49.4395 57.8789 49.2285 57.832 48.9707ZM 65.2148 45.7715C 65.0508 45.8652 64.9219 45.8887 64.8281 45.8418C 64.7344 45.7949 64.6641 45.7246 64.6172 45.6309C 64.5937 45.5371 64.5703 45.4316 64.5469 45.3145C 64.5469 45.1738 64.5469 45.0801 64.5469 45.0332C 64.5469 44.5645 64.6055 44.2832 64.7227 44.1895C 64.8398 44.0723 64.9922 44.002 65.1797 43.9785C 65.3672 43.9316 65.5664 43.873 65.7773 43.8027C 65.9883 43.7324 66.1875 43.5098 66.375 43.1348C 66.6562 42.5488 66.9023 41.9395 67.1133 41.3066C 67.3477 40.6504 67.6289 40.041 67.957 39.4785C 68.2852 38.916 68.6953 38.459 69.1875 38.1074C 69.7031 37.7559 70.4063 37.5801 71.2969 37.5801C 71.4375 37.5801 71.5898 37.5918 71.7539 37.6152C 71.9414 37.6387 72.1055 37.6855 72.2461 37.7559C 72.4102 37.8027 72.5391 37.8965 72.6328 38.0371C 72.75 38.1543 72.8086 38.3184 72.8086 38.5293C 72.8086 39.0215 72.6797 39.4668 72.4219 39.8652C 72.1875 40.2402 71.8828 40.5918 71.5078 40.9199C 71.1562 41.2246 70.7695 41.5176 70.3477 41.7988C 69.9258 42.0801 69.5391 42.3496 69.1875 42.6074C 68.8359 42.8652 68.5313 43.1348 68.2734 43.416C 68.0391 43.6973 67.9219 44.002 67.9219 44.3301L 67.9219 47.7051C 67.9219 47.9629 68.0156 48.1738 68.2031 48.3379C 68.4141 48.4785 68.6484 48.5957 68.9062 48.6895C 69.1641 48.7832 69.4336 48.8535 69.7148 48.9004C 69.9961 48.9473 70.207 48.9707 70.3477 48.9707C 70.9102 48.9707 71.4727 48.877 72.0352 48.6895C 72.5977 48.4785 73.1367 48.2207 73.6523 47.916C 74.1914 47.6113 74.6953 47.2832 75.1641 46.9316C 75.6328 46.5566 76.0781 46.2051 76.5 45.877C 76.6406 45.7598 76.7578 45.6426 76.8516 45.5254C 76.9688 45.3848 77.0742 45.2559 77.168 45.1387C 77.2852 45.0215 77.4023 44.9277 77.5195 44.8574C 77.6602 44.7637 77.8359 44.6934 78.0469 44.6465C 78.0469 44.6699 78.0469 44.7168 78.0469 44.7871C 78.0469 44.8574 78.0469 44.916 78.0469 44.9629C 78.0469 45.1504 78.0234 45.3145 77.9766 45.4551C 77.9531 45.5957 77.8711 45.7363 77.7305 45.877C 77.2148 46.4629 76.6641 47.0137 76.0781 47.5293C 75.4922 48.0449 74.8711 48.502 74.2148 48.9004C 73.5586 49.2988 72.8672 49.6152 72.1406 49.8496C 71.4141 50.084 70.6406 50.2012 69.8203 50.2012C 69 50.2012 68.3672 50.084 67.9219 49.8496C 67.4766 49.6152 67.125 49.2754 66.8672 48.8301C 66.6328 48.3848 66.4688 47.8574 66.375 47.248C 66.2812 46.6387 66.1758 45.9824 66.0586 45.2793L 65.2148 45.7715ZM 69.75 40.3223C 69.75 40.2754 69.7031 40.2871 69.6094 40.3574C 69.5391 40.4043 69.4453 40.4746 69.3281 40.5684C 69.2344 40.6621 69.1641 40.7559 69.1172 40.8496C 69.0703 40.9199 69.0703 40.9551 69.1172 40.9551C 69.2344 40.9785 69.375 40.9082 69.5391 40.7441C 69.7031 40.5801 69.7734 40.4395 69.75 40.3223ZM 78.4336 48.9707C 78.668 48.0332 78.832 47.1895 78.9258 46.4395C 79.043 45.666 79.1133 44.916 79.1367 44.1895C 79.1836 43.4629 79.1953 42.7012 79.1719 41.9043C 79.1719 41.1074 79.1719 40.2051 79.1719 39.1973C 78.7969 39.1973 78.5156 39.2207 78.3281 39.2676C 78.1641 39.3145 78.0469 39.373 77.9766 39.4434C 77.9062 39.4902 77.8594 39.5488 77.8359 39.6191C 77.8125 39.6895 77.7656 39.7598 77.6953 39.8301C 77.6484 39.877 77.543 39.9238 77.3789 39.9707C 77.2148 40.0176 76.957 40.041 76.6055 40.041C 76.3945 40.041 76.2422 39.959 76.1484 39.7949C 76.0547 39.6309 76.0078 39.4434 76.0078 39.2324C 76.0078 39.0449 76.1367 38.8457 76.3945 38.6348C 76.6289 38.4238 76.9102 38.2129 77.2383 38.002C 77.5898 37.791 77.9414 37.6152 78.293 37.4746C 78.668 37.334 78.9844 37.2637 79.2422 37.2637C 79.3359 37.2637 79.4648 37.3105 79.6289 37.4043C 79.8164 37.4746 79.9922 37.5801 80.1562 37.7207C 80.3203 37.8379 80.4492 37.9668 80.543 38.1074C 80.6602 38.248 80.7188 38.3887 80.7188 38.5293L 80.7188 43.416C 80.9531 43.0645 81.3281 42.584 81.8438 41.9746C 82.3594 41.3652 82.9336 40.7676 83.5664 40.1816C 84.1992 39.5723 84.8437 39.0449 85.5 38.5996C 86.1562 38.1543 86.7422 37.9316 87.2578 37.9316C 87.9609 37.9316 88.4531 38.166 88.7344 38.6348C 89.0156 39.0801 89.1562 39.6426 89.1562 40.3223C 88.875 40.3223 88.6523 40.2754 88.4883 40.1816C 88.3242 40.0879 88.1719 39.9824 88.0312 39.8652C 87.9141 39.748 87.7852 39.6543 87.6445 39.584C 87.5039 39.4902 87.3164 39.4434 87.082 39.4434C 86.332 39.584 85.6289 39.959 84.9727 40.5684C 84.3164 41.1777 83.707 41.8926 83.1445 42.7129C 82.6055 43.5332 82.1133 44.4004 81.668 45.3145C 81.2461 46.2285 80.8711 47.0605 80.543 47.8105C 80.2148 48.5605 79.9453 49.1699 79.7344 49.6387C 79.5469 50.1074 79.4297 50.2949 79.3828 50.2012C 79.1484 50.2012 78.9258 50.0957 78.7148 49.8848C 78.5273 49.6504 78.4336 49.3809 78.4336 49.0762L 78.4336 48.9707ZM 92.6367 48.0215C 92.1914 48.0215 91.8164 47.8809 91.5117 47.5996C 91.207 47.3184 90.9492 46.9785 90.7383 46.5801C 90.5508 46.1816 90.3984 45.7598 90.2812 45.3145C 90.1875 44.8691 90.1406 44.4824 90.1406 44.1543C 90.1406 43.4277 90.2695 42.6777 90.5273 41.9043C 90.8086 41.1074 91.1719 40.3574 91.6172 39.6543C 92.0859 38.9512 92.6133 38.3184 93.1992 37.7559C 93.8086 37.1699 94.4414 36.7129 95.0977 36.3848C 95.3789 36.2441 95.625 36.1738 95.8359 36.1738C 96.0703 36.1504 96.2695 36.1387 96.4336 36.1387C 96.5977 36.1152 96.7148 36.0449 96.7852 35.9277C 96.8789 35.7871 96.9258 35.5293 96.9258 35.1543L 96.9258 29.2832C 96.9258 29.0957 97.0312 28.9082 97.2422 28.7207C 97.4531 28.5098 97.6523 28.4043 97.8398 28.4043C 97.957 28.4043 98.0508 28.4629 98.1211 28.5801C 98.2148 28.6738 98.2852 28.791 98.332 28.9316C 98.3789 29.0723 98.4141 29.2246 98.4375 29.3887C 98.4609 29.5527 98.4727 29.6699 98.4727 29.7402C 98.4727 32.3887 98.4375 35.002 98.3672 37.5801C 98.2969 40.1348 98.2617 42.7715 98.2617 45.4902C 98.4492 45.4902 98.6367 45.4551 98.8242 45.3848C 99.0117 45.3145 99.2109 45.2324 99.4219 45.1387C 99.6328 45.0449 99.832 44.9512 100.02 44.8574C 100.23 44.7637 100.43 44.6934 100.617 44.6465C 100.617 44.6699 100.617 44.7168 100.617 44.7871C 100.641 44.8574 100.652 44.916 100.652 44.9629C 100.652 45.291 100.535 45.5605 100.301 45.7715C 100.09 45.959 99.832 46.1348 99.5273 46.2988C 99.2461 46.4629 98.9648 46.627 98.6836 46.791C 98.4258 46.9551 98.25 47.166 98.1562 47.4238C 98.1328 47.4707 98.1094 47.6348 98.0859 47.916C 98.0625 48.1973 98.0156 48.5137 97.9453 48.8652C 97.875 49.2168 97.7695 49.5332 97.6289 49.8145C 97.4883 50.0723 97.3125 50.2012 97.1016 50.2012C 96.7734 50.2012 96.5508 50.1074 96.4336 49.9199C 96.3398 49.7324 96.3047 49.5098 96.3281 49.252C 96.3516 48.9941 96.3867 48.748 96.4336 48.5137C 96.5039 48.2793 96.5391 48.1152 96.5391 48.0215L 92.6367 48.0215ZM 91.3711 44.1543C 91.3711 44.9277 91.6172 45.5723 92.1094 46.0879C 92.6016 46.5801 93.2344 46.8262 94.0078 46.8262C 94.1719 46.8262 94.3594 46.8262 94.5703 46.8262C 94.8047 46.8262 95.0391 46.8145 95.2734 46.791C 95.5078 46.7441 95.7188 46.6738 95.9062 46.5801C 96.0937 46.4863 96.2344 46.3457 96.3281 46.1582C 96.2813 45.5254 96.2695 44.9277 96.293 44.3652C 96.3398 43.7793 96.3867 43.2051 96.4336 42.6426C 96.4805 42.0566 96.5273 41.4824 96.5742 40.9199C 96.6211 40.334 96.6445 39.7246 96.6445 39.0918C 96.6445 38.8105 96.5859 38.5879 96.4688 38.4238C 96.375 38.2598 96.1758 38.1777 95.8711 38.1777C 95.2383 38.1777 94.6406 38.3887 94.0781 38.8105C 93.5391 39.209 93.0586 39.7246 92.6367 40.3574C 92.2383 40.9668 91.9219 41.623 91.6875 42.3262C 91.4766 43.0059 91.3711 43.6152 91.3711 44.1543ZM 109.793 45.877C 109.441 46.2988 109.031 46.7441 108.562 47.2129C 108.117 47.6816 107.625 48.1152 107.086 48.5137C 106.57 48.9121 106.02 49.252 105.434 49.5332C 104.871 49.791 104.285 49.9199 103.676 49.9199C 102.434 49.9199 101.812 49.3223 101.812 48.127C 101.812 47.6348 102.012 46.9902 102.41 46.1934C 102.832 45.373 103.371 44.5176 104.027 43.627C 104.684 42.7363 105.41 41.8809 106.207 41.0605C 107.004 40.2168 107.801 39.5254 108.598 38.9863C 109.395 38.4238 110.121 38.0723 110.777 37.9316C 111.457 37.791 112.008 37.9902 112.43 38.5293C 112.43 39.1621 112.383 39.7949 112.289 40.4277C 112.195 41.0605 112.102 41.6934 112.008 42.3262C 111.914 42.9355 111.82 43.5449 111.727 44.1543C 111.633 44.7637 111.586 45.3848 111.586 46.0176C 111.586 46.1582 111.598 46.3809 111.621 46.6855C 111.668 46.9668 111.727 47.2598 111.797 47.5645C 111.891 47.8457 112.008 48.1035 112.148 48.3379C 112.289 48.5488 112.477 48.6543 112.711 48.6543C 113.273 48.6543 113.73 48.584 114.082 48.4434C 114.457 48.3027 114.773 48.1387 115.031 47.9512C 115.312 47.7402 115.547 47.5059 115.734 47.248C 115.945 46.9902 116.156 46.7324 116.367 46.4746C 116.602 46.2168 116.859 45.9707 117.141 45.7363C 117.422 45.502 117.785 45.3145 118.23 45.1738C 118.23 45.1738 118.23 45.209 118.23 45.2793C 118.23 45.3496 118.23 45.4082 118.23 45.4551C 118.23 46.041 118.055 46.627 117.703 47.2129C 117.352 47.7754 116.906 48.2793 116.367 48.7246C 115.828 49.1699 115.219 49.5332 114.539 49.8145C 113.883 50.0723 113.238 50.2012 112.605 50.2012C 112.066 50.2012 111.633 50.0488 111.305 49.7441C 110.977 49.4395 110.707 49.0762 110.496 48.6543C 110.309 48.2324 110.168 47.7754 110.074 47.2832C 109.98 46.7676 109.887 46.2988 109.793 45.877ZM 110.426 41.2715C 110.66 40.498 110.742 39.9707 110.672 39.6895C 110.625 39.4082 110.461 39.3027 110.18 39.373C 109.898 39.4199 109.535 39.6191 109.09 39.9707C 108.645 40.2988 108.164 40.709 107.648 41.2012C 107.133 41.6699 106.617 42.1973 106.102 42.7832C 105.586 43.3691 105.105 43.9316 104.66 44.4707C 104.215 44.9863 103.852 45.4551 103.57 45.877C 103.289 46.2988 103.113 46.6035 103.043 46.791C 102.902 47.3301 102.879 47.7402 102.973 48.0215C 103.09 48.3027 103.254 48.502 103.465 48.6191C 103.699 48.7129 103.945 48.7246 104.203 48.6543C 104.484 48.584 104.719 48.4785 104.906 48.3379C 105.305 47.9863 105.809 47.5176 106.418 46.9316C 107.027 46.3223 107.613 45.6777 108.176 44.998C 108.762 44.3184 109.266 43.6504 109.688 42.9941C 110.109 42.3145 110.355 41.7402 110.426 41.2715ZM 120.973 40.6738L 120.656 39.4082L 120.023 39.7598L 116.367 43.416C 116.344 43.4395 116.262 43.416 116.121 43.3457C 115.957 43.252 115.84 43.1816 115.77 43.1348C 115.723 43.0879 115.664 43.0293 115.594 42.959C 115.5 42.8652 115.453 42.8066 115.453 42.7832L 115.453 42.6426C 115.453 42.502 115.559 42.2793 115.77 41.9746C 115.957 41.6699 116.215 41.3301 116.543 40.9551C 116.871 40.5801 117.234 40.1934 117.633 39.7949C 118.055 39.373 118.465 39.0098 118.863 38.7051C 119.285 38.377 119.684 38.1074 120.059 37.8965C 120.434 37.6855 120.75 37.5801 121.008 37.5801C 121.453 37.5801 121.781 37.791 121.992 38.2129C 122.227 38.6113 122.379 39.0918 122.449 39.6543C 122.543 40.1934 122.578 40.7441 122.555 41.3066C 122.531 41.8457 122.52 42.2441 122.52 42.502C 122.59 42.3848 122.742 42.1855 122.977 41.9043C 123.211 41.5996 123.457 41.2832 123.715 40.9551C 123.973 40.6035 124.219 40.2871 124.453 40.0059C 124.688 39.7246 124.852 39.5254 124.945 39.4082C 125.016 39.3379 125.168 39.1738 125.402 38.916C 125.66 38.6348 125.93 38.3535 126.211 38.0723C 126.516 37.7676 126.832 37.5098 127.16 37.2988C 127.488 37.0645 127.77 36.9473 128.004 36.9473C 128.426 36.9473 128.73 37.0762 128.918 37.334C 129.105 37.5684 129.223 37.8613 129.27 38.2129C 129.34 38.5645 129.363 38.9395 129.34 39.3379C 129.316 39.7129 129.305 40.0293 129.305 40.2871C 129.305 41.1777 129.246 42.0566 129.129 42.9238C 129.012 43.791 128.953 44.6816 128.953 45.5957L 128.953 45.877C 129.445 45.3145 129.867 44.6934 130.219 44.0137C 130.594 43.334 130.969 42.666 131.344 42.0098C 131.719 41.3301 132.117 40.6855 132.539 40.0762C 132.984 39.4668 133.523 38.9512 134.156 38.5293C 134.203 38.5059 134.273 38.4941 134.367 38.4941C 134.484 38.4707 134.566 38.459 134.613 38.459C 134.871 38.459 135.059 38.541 135.176 38.7051C 135.316 38.8457 135.398 39.0332 135.422 39.2676C 135.469 39.4785 135.48 39.7012 135.457 39.9355C 135.434 40.1699 135.422 40.3691 135.422 40.5332C 135.422 41.541 135.363 42.5371 135.246 43.5215C 135.129 44.4824 135.07 45.4668 135.07 46.4746C 135.07 47.0137 135.188 47.3652 135.422 47.5293C 135.68 47.6934 136.078 47.7754 136.617 47.7754C 136.875 47.7754 137.098 47.7402 137.285 47.6699C 137.496 47.5762 137.695 47.4824 137.883 47.3887C 138.07 47.2715 138.258 47.1777 138.445 47.1074C 138.656 47.0137 138.879 46.9668 139.113 46.9668C 139.113 47.3184 139.02 47.6465 138.832 47.9512C 138.645 48.2324 138.41 48.4785 138.129 48.6895C 137.848 48.877 137.531 49.0293 137.18 49.1465C 136.828 49.2402 136.5 49.2871 136.195 49.2871C 135.938 49.2871 135.668 49.252 135.387 49.1816C 135.129 49.1113 134.883 49.0059 134.648 48.8652C 134.438 48.7012 134.25 48.502 134.086 48.2676C 133.945 48.0332 133.875 47.752 133.875 47.4238L 133.875 40.6738C 133.617 40.8613 133.324 41.2012 132.996 41.6934C 132.691 42.1855 132.363 42.748 132.012 43.3809C 131.684 44.0137 131.344 44.6816 130.992 45.3848C 130.664 46.0879 130.336 46.7207 130.008 47.2832C 129.68 47.8457 129.363 48.3262 129.059 48.7246C 128.754 49.0996 128.473 49.2871 128.215 49.2871C 127.957 49.2871 127.77 49.1699 127.652 48.9355C 127.535 48.7012 127.453 48.4434 127.406 48.1621C 127.383 47.8574 127.371 47.5762 127.371 47.3184C 127.371 47.0605 127.371 46.8848 127.371 46.791C 127.371 46.2285 127.406 45.666 127.477 45.1035C 127.547 44.541 127.629 43.9785 127.723 43.416C 127.816 42.8301 127.898 42.2559 127.969 41.6934C 128.039 41.1309 128.074 40.5684 128.074 40.0059C 128.074 39.9355 128.074 39.8301 128.074 39.6895C 128.074 39.5488 128.051 39.4199 128.004 39.3027C 127.98 39.1621 127.934 39.0449 127.863 38.9512C 127.793 38.834 127.699 38.7754 127.582 38.7754C 127.559 38.7754 127.535 38.7871 127.512 38.8105C 127.512 38.8105 127.5 38.8105 127.477 38.8105C 127.477 38.834 127.453 38.8457 127.406 38.8457C 127.383 38.8457 127.336 38.8809 127.266 38.9512C 127.195 39.0215 127.148 39.0801 127.125 39.127C 126.867 39.4551 126.527 39.877 126.105 40.3926C 125.684 40.9082 125.273 41.4121 124.875 41.9043C 124.477 42.3965 124.137 42.8184 123.855 43.1699C 123.574 43.5215 123.422 43.6973 123.398 43.6973C 123.328 43.8379 123.199 44.1777 123.012 44.7168C 122.848 45.2559 122.66 45.8418 122.449 46.4746C 122.262 47.084 122.086 47.6699 121.922 48.2324C 121.758 48.7715 121.641 49.1113 121.57 49.252C 121.453 49.627 121.301 49.8848 121.113 50.0254C 120.926 50.166 120.645 50.2363 120.27 50.2363C 120.27 49.4395 120.305 48.6543 120.375 47.8809C 120.445 47.1074 120.527 46.334 120.621 45.5605C 120.715 44.7637 120.797 43.9785 120.867 43.2051C 120.938 42.4082 120.973 41.5996 120.973 40.7793L 120.973 40.6738Z"/>
</defs>
</svg>
