<svg width="200" height="200" viewBox="0 0 200 200" version="1.1" xmlns="http://www.w3.org/2000/svg" xmlns:xlink="http://www.w3.org/1999/xlink" xmlns:figma="http://www.figma.com/figma/ns">
<title>Group</title>
<desc>Created using Figma</desc>
<g id="Canvas" transform="translate(152 507)" figma:type="canvas">
<g id="Group" style="mix-blend-mode:normal;" figma:type="frame">
<g id="Ellipse" style="mix-blend-mode:normal;" figma:type="ellipse">
<use xlink:href="#path0_fill" transform="translate(-122 -477)" fill="#B21C0E" style="mix-blend-mode:normal;"/>
</g>
<g id="Ellipse 2" style="mix-blend-mode:normal;" figma:type="ellipse">
<use xlink:href="#path1_fill" transform="translate(-152 -507)" fill="#000000" fill-opacity="0.7" style="mix-blend-mode:normal;"/>
</g>
<g id="Capital" style="mix-blend-mode:normal;" figma:type="text">
<use xlink:href="#path2_fill" transform="translate(-84 -394)" fill="#FFFFFF" style="mix-blend-mode:normal;"/>
</g>
<g id="Dublin" style="mix-blend-mode:normal;" figma:type="text">
<use xlink:href="#path3_fill" transform="translate(-111 -455)" fill="#FFFFFF" style="mix-blend-mode:normal;"/>
</g>
</g>
</g>
<defs>
<path id="path0_fill" d="M 140 70C 140 108.66 108.66 140 70 140C 31.3401 140 0 108.66 0 70C 0 31.3401 31.3401 0 70 0C 108.66 0 140 31.3401 140 70Z"/>
<path id="path1_fill" d="M 200 100C 200 155.228 155.228 200 100 200C 44.7715 200 0 155.228 0 100C 0 44.7715 44.7715 0 100 0C 155.228 0 200 44.7715 200 100Z"/>
<path id="path2_fill" d="M 14.1357 17.1753C 14.3311 17.1753 14.4287 17.334 14.4287 17.6514C 14.4287 17.9606 14.3595 18.4977 14.2212 19.2627C 14.1154 19.7754 13.5295 20.5078 12.4634 21.46C 11.1776 22.5993 9.76562 23.4131 8.22754 23.9014C 7.2998 24.1943 6.39242 24.3408 5.50537 24.3408C 4.62646 24.3408 3.8208 23.9705 3.08838 23.23C 2.3641 22.4813 2.00195 21.5983 2.00195 20.5811C 2.00195 19.5557 2.2054 18.4977 2.6123 17.4072C 3.02734 16.3086 3.58073 15.2629 4.27246 14.27C 4.97233 13.269 5.79427 12.3088 6.73828 11.3892C 7.69043 10.4696 8.6792 9.67204 9.70459 8.99658C 10.73 8.32113 11.8042 7.78402 12.9272 7.38525C 14.0503 6.98649 15.1164 6.78711 16.1255 6.78711C 16.923 6.78711 17.6025 7.07601 18.1641 7.65381C 18.457 7.96305 18.6035 8.35368 18.6035 8.82568C 18.6035 9.28955 18.3757 9.87956 17.9199 10.5957C 17.4642 11.3037 16.923 11.9507 16.2964 12.5366C 15.6779 13.1226 15.035 13.619 14.3677 14.0259C 13.7085 14.4328 13.1795 14.6362 12.7808 14.6362C 12.382 14.6362 12.0402 14.5142 11.7554 14.27C 11.4705 14.0177 11.3281 13.7939 11.3281 13.5986C 11.3281 13.4033 11.3688 13.1877 11.4502 12.9517C 11.5397 12.7157 11.6496 12.5977 11.7798 12.5977C 11.7472 12.6383 11.731 12.679 11.731 12.7197C 11.731 12.8174 11.8693 12.8662 12.146 12.8662C 12.4308 12.8662 12.9028 12.618 13.562 12.1216C 14.2212 11.6252 14.8153 11.0677 15.3442 10.4492C 15.8813 9.83073 16.1499 9.36686 16.1499 9.05762C 16.1499 8.84603 16.0075 8.74023 15.7227 8.74023C 14.9577 8.74023 13.8997 9.09831 12.5488 9.81445C 11.2061 10.5225 9.92025 11.438 8.69141 12.561C 7.46256 13.6841 6.39242 15.0187 5.48096 16.5649C 4.57764 18.103 4.12598 19.4865 4.12598 20.7153C 4.12598 21.228 4.26025 21.639 4.52881 21.9482C 4.8055 22.2575 5.22461 22.4121 5.78613 22.4121C 6.35579 22.4121 7.02718 22.2493 7.80029 21.9238C 8.5734 21.5983 9.30583 21.1995 9.99756 20.7275C 10.6974 20.2555 11.3566 19.7713 11.9751 19.2749C 12.5936 18.7785 13.0859 18.3431 13.4521 17.9688C 13.8265 17.5944 14.0177 17.3706 14.0259 17.2974C 14.034 17.216 14.0706 17.1753 14.1357 17.1753ZM 24.2798 15.0146C 24.8983 15.0146 25.2075 15.2262 25.2075 15.6494C 25.2075 15.8773 25.1546 16.0441 25.0488 16.1499C 24.943 16.2557 24.7152 16.6097 24.3652 17.2119C 24.0234 17.806 23.641 18.571 23.2178 19.5068C 22.8027 20.4346 22.5342 21.228 22.4121 21.8872C 22.3877 21.9686 22.3755 22.0825 22.3755 22.229C 22.3755 22.6766 22.4976 22.9004 22.7417 22.9004C 22.9858 22.9004 23.2747 22.7865 23.6084 22.5586C 23.9421 22.3226 24.2391 22.0744 24.4995 21.814C 24.7599 21.5454 25.0122 21.2728 25.2563 20.9961C 25.5086 20.7194 25.6592 20.5607 25.708 20.52C 25.7568 20.4793 25.8301 20.459 25.9277 20.459C 26.0824 20.459 26.1759 20.577 26.2085 20.813C 26.241 21.049 26.2573 21.2931 26.2573 21.5454C 26.2573 21.7977 26.2329 21.9727 26.1841 22.0703C 25.9481 22.5342 25.4272 23.0916 24.6216 23.7427C 23.8241 24.3937 23.0957 24.7192 22.4365 24.7192C 21.7855 24.7192 21.3053 24.5199 20.9961 24.1211C 20.6868 23.7223 20.5322 23.2829 20.5322 22.8027C 20.5322 22.3145 20.6136 21.8872 20.7764 21.521C 20.1009 22.3999 19.3237 23.1445 18.4448 23.7549C 17.5741 24.3652 16.862 24.6704 16.3086 24.6704C 15.7552 24.6704 15.3035 24.5036 14.9536 24.1699C 14.506 23.7549 14.2822 23.1812 14.2822 22.4487C 14.2822 21.7082 14.445 20.9676 14.7705 20.2271C 15.1042 19.4784 15.5396 18.7988 16.0767 18.1885C 16.6138 17.57 17.2038 17.0085 17.8467 16.5039C 19.1976 15.446 20.4427 14.917 21.582 14.917C 22.0215 14.917 22.3796 14.9902 22.6562 15.1367C 22.9329 15.2832 23.1079 15.4663 23.1812 15.686C 23.3765 15.3931 23.5392 15.21 23.6694 15.1367C 23.8078 15.0553 24.0112 15.0146 24.2798 15.0146ZM 22.6562 16.3696C 21.2646 16.3696 19.8242 17.1427 18.335 18.689C 17.806 19.2424 17.3177 19.9056 16.8701 20.6787C 16.4307 21.4518 16.2109 21.9808 16.2109 22.2656C 16.2109 22.5505 16.2923 22.6929 16.4551 22.6929C 16.6829 22.6929 17.3177 22.2453 18.3594 21.3501C 19.401 20.4468 20.0928 19.7835 20.4346 19.3604C 20.8089 18.8883 21.5495 17.8914 22.6562 16.3696ZM 31.9458 11.3037L 32.1655 11.2793C 32.2876 11.2793 32.3853 11.3851 32.4585 11.5967C 32.5317 11.8083 32.5684 11.9507 32.5684 12.0239C 32.5684 12.0972 32.487 12.2355 32.3242 12.439L 28.8452 17.7368C 30.0659 16.5161 31.307 15.625 32.5684 15.0635C 33.0566 14.8519 33.4961 14.7461 33.8867 14.7461C 34.2855 14.7461 34.6029 14.8763 34.8389 15.1367C 35.083 15.389 35.2051 15.7064 35.2051 16.0889C 35.2051 16.4714 35.0993 16.9434 34.8877 17.5049C 34.6761 18.0664 34.3872 18.6646 34.021 19.2993C 33.6629 19.9341 33.2235 20.5729 32.7026 21.2158C 32.1899 21.8587 31.6488 22.4406 31.0791 22.9614C 30.5176 23.4823 29.9032 23.9054 29.2358 24.231C 28.5685 24.5565 27.9826 24.7192 27.478 24.7192C 26.4608 24.7192 25.9521 24.2513 25.9521 23.3154C 25 24.7721 23.9014 26.4974 22.6562 28.4912C 21.4111 30.485 20.7438 31.5389 20.6543 31.6528C 20.5648 31.7668 20.4915 31.8237 20.4346 31.8237C 20.3695 31.8237 20.2759 31.7871 20.1538 31.7139C 20.0236 31.6406 19.8893 31.5186 19.751 31.3477C 19.6126 31.1768 19.5435 30.9285 19.5435 30.603C 19.5353 30.2775 19.6289 29.9479 19.8242 29.6143C 20.9229 27.7832 23.0387 24.3408 26.1719 19.2871C 29.3132 14.2253 31.014 11.6089 31.2744 11.438C 31.4209 11.3403 31.5674 11.2915 31.7139 11.2915L 31.9458 11.3037ZM 33.02 16.9189C 33.02 16.748 32.9386 16.6626 32.7759 16.6626C 32.3364 16.6626 31.4046 17.3381 29.9805 18.689C 28.5645 20.0399 27.4373 21.2728 26.5991 22.3877C 26.8107 22.6481 27.124 22.7783 27.5391 22.7783C 27.9541 22.7783 28.4912 22.5545 29.1504 22.1069C 29.8096 21.6593 30.4199 21.1304 30.9814 20.52C 31.543 19.9015 32.0231 19.2546 32.4219 18.5791C 32.8206 17.9036 33.02 17.3503 33.02 16.9189ZM 42.8833 10.8887C 42.8833 11.3525 42.6676 11.8205 42.2363 12.2925C 41.805 12.7563 41.3534 12.9883 40.8813 12.9883C 40.4175 12.9883 40.1855 12.7441 40.1855 12.2559C 40.1855 11.7676 40.389 11.3037 40.7959 10.8643C 41.2109 10.4167 41.6667 10.1929 42.1631 10.1929C 42.3828 10.1929 42.5578 10.2539 42.688 10.376C 42.8182 10.498 42.8833 10.6689 42.8833 10.8887ZM 40.9058 21.5454C 40.9058 21.7896 40.8813 21.9645 40.8325 22.0703C 40.4338 22.8841 39.799 23.5433 38.9282 24.0479C 38.0575 24.5443 37.3006 24.7925 36.6577 24.7925C 36.0148 24.7925 35.4614 24.5768 34.9976 24.1455C 34.5337 23.7142 34.3018 23.2747 34.3018 22.8271C 34.3018 22.3796 34.5256 21.7285 34.9731 20.874C 35.4207 20.0195 35.8683 19.2301 36.3159 18.5059C 36.7635 17.7816 36.9873 17.391 36.9873 17.334C 36.9873 17.2689 36.9019 17.1468 36.731 16.9678C 36.5682 16.7887 36.4868 16.6585 36.4868 16.5771C 36.4868 16.4876 36.6536 16.2638 36.9873 15.9058C 37.3291 15.5396 37.7401 15.1815 38.2202 14.8315C 38.7085 14.4735 39.0788 14.2944 39.3311 14.2944C 39.5915 14.2944 39.8234 14.4084 40.0269 14.6362C 40.2303 14.8641 40.332 15.0716 40.332 15.2588C 40.332 15.446 39.3636 17.2078 37.4268 20.5444C 37.4023 20.5933 37.3332 20.7031 37.2192 20.874C 37.1134 21.0368 37.028 21.1751 36.9629 21.2891C 36.9059 21.3949 36.8368 21.5251 36.7554 21.6797C 36.5926 22.0052 36.5112 22.2778 36.5112 22.4976C 36.5112 22.7743 36.6984 22.9126 37.0728 22.9126C 37.4471 22.9126 37.8337 22.7865 38.2324 22.5342C 38.6393 22.2738 38.9893 21.9889 39.2822 21.6797C 40.0472 20.8577 40.4826 20.4468 40.5884 20.4468C 40.8 20.4468 40.9058 20.813 40.9058 21.5454ZM 48.4131 8.56934L 48.9136 8.69141C 48.9868 8.69141 49.0519 8.72803 49.1089 8.80127C 49.1659 8.87451 49.1943 8.94368 49.1943 9.00879C 49.1943 9.07389 49.1089 9.24886 48.938 9.53369C 48.7671 9.81852 48.5636 10.144 48.3276 10.5103C 48.0998 10.8683 47.9777 11.0636 47.9614 11.0962C 48.5962 11.0474 49.0438 11.0229 49.3042 11.0229C 49.5728 11.0229 49.7559 11.0433 49.8535 11.084C 49.9512 11.1165 50.061 11.2183 50.1831 11.3892C 50.3133 11.5519 50.4313 11.6781 50.5371 11.7676C 50.6429 11.849 50.6958 11.9751 50.6958 12.146C 50.6958 12.3169 50.59 12.4634 50.3784 12.5854C 50.175 12.6994 49.9552 12.7686 49.7192 12.793C 47.8312 12.9801 46.7896 13.0778 46.5942 13.0859C 45.9351 14.0951 45.0114 15.6698 43.8232 17.8101C 42.6432 19.9422 42.0166 21.2769 41.9434 21.814C 41.9108 22.0581 41.8945 22.2575 41.8945 22.4121C 41.8945 22.7295 42.0614 22.8882 42.395 22.8882C 42.7287 22.8882 43.099 22.762 43.5059 22.5098C 43.9128 22.2493 44.2871 21.9686 44.6289 21.6675C 45.5404 20.8537 46.0286 20.4468 46.0938 20.4468C 46.3053 20.4468 46.4111 20.813 46.4111 21.5454C 46.4111 21.9442 46.228 22.3022 45.8618 22.6196C 45.0399 23.3276 44.3481 23.8607 43.7866 24.2188C 43.2251 24.5768 42.6636 24.7559 42.1021 24.7559C 41.98 24.7559 41.866 24.7437 41.7603 24.7192C 41.1092 24.5972 40.6291 24.3612 40.3198 24.0112C 40.0187 23.6532 39.8682 23.173 39.8682 22.5708C 39.8763 21.9686 40.0553 21.2402 40.4053 20.3857C 40.7633 19.5231 41.2109 18.6076 41.748 17.6392C 42.627 16.0604 43.5059 14.5793 44.3848 13.1958L 43.9209 13.2568C 42.9769 13.3626 42.4276 13.4155 42.2729 13.4155L 42.1631 13.4155C 41.9271 13.4155 41.6992 13.3708 41.4795 13.2812C 41.2598 13.1836 41.1499 13.0656 41.1499 12.9272C 41.1499 12.7889 41.2069 12.6546 41.3208 12.5244C 41.4429 12.3942 41.5161 12.2925 41.5405 12.2192C 41.5975 12.0402 41.8091 11.8408 42.1753 11.6211C 42.5496 11.4014 42.8304 11.2874 43.0176 11.2793C 43.2048 11.263 43.3838 11.2508 43.5547 11.2427C 43.7337 11.2345 43.929 11.2264 44.1406 11.2183C 44.3604 11.2101 44.5272 11.202 44.6411 11.1938L 45.7397 11.145C 46.4233 10.1196 46.8913 9.46045 47.1436 9.16748C 47.404 8.87451 47.5545 8.71582 47.5952 8.69141C 47.6359 8.65885 47.7173 8.64258 47.8394 8.64258L 48.4131 8.56934ZM 54.6997 15.0146C 55.3182 15.0146 55.6274 15.2262 55.6274 15.6494C 55.6274 15.8773 55.5745 16.0441 55.4688 16.1499C 55.363 16.2557 55.1351 16.6097 54.7852 17.2119C 54.4434 17.806 54.0609 18.571 53.6377 19.5068C 53.2227 20.4346 52.9541 21.228 52.832 21.8872C 52.8076 21.9686 52.7954 22.0825 52.7954 22.229C 52.7954 22.6766 52.9175 22.9004 53.1616 22.9004C 53.4058 22.9004 53.6947 22.7865 54.0283 22.5586C 54.362 22.3226 54.659 22.0744 54.9194 21.814C 55.1799 21.5454 55.4321 21.2728 55.6763 20.9961C 55.9285 20.7194 56.0791 20.5607 56.1279 20.52C 56.1768 20.4793 56.25 20.459 56.3477 20.459C 56.5023 20.459 56.5959 20.577 56.6284 20.813C 56.661 21.049 56.6772 21.2931 56.6772 21.5454C 56.6772 21.7977 56.6528 21.9727 56.604 22.0703C 56.368 22.5342 55.8472 23.0916 55.0415 23.7427C 54.244 24.3937 53.5156 24.7192 52.8564 24.7192C 52.2054 24.7192 51.7253 24.5199 51.416 24.1211C 51.1068 23.7223 50.9521 23.2829 50.9521 22.8027C 50.9521 22.3145 51.0335 21.8872 51.1963 21.521C 50.5208 22.3999 49.7437 23.1445 48.8647 23.7549C 47.994 24.3652 47.2819 24.6704 46.7285 24.6704C 46.1751 24.6704 45.7235 24.5036 45.3735 24.1699C 44.9259 23.7549 44.7021 23.1812 44.7021 22.4487C 44.7021 21.7082 44.8649 20.9676 45.1904 20.2271C 45.5241 19.4784 45.9595 18.7988 46.4966 18.1885C 47.0337 17.57 47.6237 17.0085 48.2666 16.5039C 49.6175 15.446 50.8626 14.917 52.002 14.917C 52.4414 14.917 52.7995 14.9902 53.0762 15.1367C 53.3529 15.2832 53.5278 15.4663 53.6011 15.686C 53.7964 15.3931 53.9591 15.21 54.0894 15.1367C 54.2277 15.0553 54.4312 15.0146 54.6997 15.0146ZM 53.0762 16.3696C 51.6846 16.3696 50.2441 17.1427 48.7549 18.689C 48.2259 19.2424 47.7376 19.9056 47.29 20.6787C 46.8506 21.4518 46.6309 21.9808 46.6309 22.2656C 46.6309 22.5505 46.7122 22.6929 46.875 22.6929C 47.1029 22.6929 47.7376 22.2453 48.7793 21.3501C 49.821 20.4468 50.5127 19.7835 50.8545 19.3604C 51.2288 18.8883 51.9694 17.8914 53.0762 16.3696ZM 65.686 5.96924C 66.0767 5.96924 66.4185 6.08724 66.7114 6.32324C 67.0125 6.55111 67.1631 6.8929 67.1631 7.34863C 67.1631 7.80436 66.9108 8.52051 66.4062 9.49707C 65.9017 10.4655 65.2954 11.4583 64.5874 12.4756C 63.8794 13.4847 63.0778 14.5589 62.1826 15.6982C 60.7666 17.5049 59.4076 19.1284 58.1055 20.5688C 58.0973 20.6665 58.0607 20.8496 57.9956 21.1182C 57.9386 21.3786 57.9102 21.6431 57.9102 21.9116C 57.9102 22.1802 58.0322 22.4243 58.2764 22.644C 58.5286 22.8556 58.8379 22.9614 59.2041 22.9614C 59.5703 22.9614 59.9609 22.8312 60.376 22.5708C 60.7992 22.3104 61.1654 22.0215 61.4746 21.7041C 62.2884 20.8659 62.793 20.4468 62.9883 20.4468C 63.1836 20.4468 63.2812 20.7438 63.2812 21.3379L 63.2812 21.582C 63.2812 21.8994 63.2243 22.1313 63.1104 22.2778C 62.4268 23.116 61.6577 23.7427 60.8032 24.1577C 59.9487 24.5646 59.139 24.7681 58.374 24.7681C 57.609 24.7681 57.0272 24.5361 56.6284 24.0723C 56.2297 23.6003 56.0303 22.9574 56.0303 22.1436C 56.0303 20.5566 56.4535 18.693 57.2998 16.5527C 58.1543 14.4043 59.1146 12.5773 60.1807 11.0718C 62.5814 7.67009 64.4165 5.96924 65.686 5.96924ZM 65.1367 7.99561C 65.1367 7.87354 65.096 7.8125 65.0146 7.8125C 64.7298 7.8125 63.9811 8.6263 62.7686 10.2539C 61.556 11.8815 60.6771 13.1795 60.1318 14.1479C 59.5947 15.1164 59.0861 16.333 58.606 17.7979C 59.5662 16.6585 60.8927 14.8844 62.5854 12.4756C 64.2863 10.0586 65.1367 8.56527 65.1367 7.99561Z"/>
<path id="path3_fill" d="M 7.94922 49.7363C 7.73438 49.5573 7.32259 49.2529 6.71387 48.8232C 6.14095 48.3577 5.53223 47.8743 4.8877 47.373C 4.24316 46.8359 3.63444 46.3525 3.06152 45.9229C 2.48861 45.4932 2.09473 45.1888 1.87988 45.0098C 1.55762 44.7591 1.28906 44.5443 1.07422 44.3652C 0.895182 44.1504 0.805664 43.8102 0.805664 43.3447C 1.34277 43.3447 1.80827 43.488 2.20215 43.7744C 2.59603 44.0251 2.97201 44.3115 3.33008 44.6338C 3.72396 44.9202 4.11784 45.1888 4.51172 45.4395C 4.94141 45.6901 5.4248 45.8154 5.96191 45.8154C 5.96191 45.4574 5.96191 44.8307 5.96191 43.9355C 5.99772 43.0046 6.01562 42.0199 6.01562 40.9814C 6.05143 39.943 6.06934 38.9762 6.06934 38.0811C 6.10514 37.1501 6.12305 36.4876 6.12305 36.0938C 6.12305 35.9505 6.08724 35.6104 6.01562 35.0732C 5.97982 34.5003 5.92611 33.9095 5.85449 33.3008C 5.81869 32.6562 5.76497 32.0654 5.69336 31.5283C 5.65755 30.9912 5.63965 30.651 5.63965 30.5078C 5.63965 30.4362 5.65755 30.2393 5.69336 29.917C 5.72917 29.5589 5.78288 29.2008 5.85449 28.8428C 5.92611 28.4847 5.97982 28.1445 6.01562 27.8223C 6.08724 27.5 6.12305 27.3031 6.12305 27.2314L 6.12305 26.0498L 6.12305 24.8145C 6.12305 24.7428 6.08724 24.528 6.01562 24.1699C 5.97982 23.8118 5.92611 23.418 5.85449 22.9883C 5.78288 22.5586 5.72917 22.1647 5.69336 21.8066C 5.65755 21.4486 5.63965 21.2158 5.63965 21.1084C 5.63965 20.9652 5.65755 20.7145 5.69336 20.3564C 5.72917 19.9984 5.76497 19.6224 5.80078 19.2285C 5.83659 18.8346 5.8724 18.4587 5.9082 18.1006C 5.97982 17.7425 6.05143 17.5098 6.12305 17.4023C 6.66016 16.9368 7.07194 16.6504 7.3584 16.543C 7.64486 16.4355 8.05664 16.3818 8.59375 16.3818C 10.0977 16.3818 11.5837 16.6683 13.0518 17.2412C 14.5199 17.7783 15.9163 18.5303 17.2412 19.4971C 18.5661 20.4639 19.7656 21.5918 20.8398 22.8809C 21.9499 24.1699 22.8988 25.5306 23.6865 26.9629C 24.5101 28.3952 25.1546 29.8812 25.6201 31.4209C 26.0856 32.9248 26.3184 34.375 26.3184 35.7715C 26.3184 37.3828 25.9782 39.0479 25.2979 40.7666C 24.6533 42.4854 23.7581 44.043 22.6123 45.4395C 21.4665 46.8359 20.1237 47.9818 18.584 48.877C 17.0801 49.7721 15.4688 50.2197 13.75 50.2197C 13.2487 50.2197 12.7653 50.1839 12.2998 50.1123C 11.8343 50.0407 11.3509 49.9691 10.8496 49.8975C 10.3841 49.8258 9.90072 49.7721 9.39941 49.7363C 8.93392 49.6647 8.45052 49.6647 7.94922 49.7363ZM 9.39941 47.373C 9.39941 47.4089 9.45312 47.4984 9.56055 47.6416C 9.66797 47.749 9.77539 47.8206 9.88281 47.8564C 9.95443 47.8923 10.0977 47.9639 10.3125 48.0713C 10.5632 48.1429 10.8317 48.2324 11.1182 48.3398C 11.4404 48.4473 11.7448 48.5368 12.0312 48.6084C 12.3177 48.68 12.5146 48.7337 12.6221 48.7695L 12.9443 48.7695C 13.8395 48.7695 14.7526 48.5547 15.6836 48.125C 16.6146 47.6595 17.5098 47.0687 18.3691 46.3525C 19.2285 45.6364 20.0163 44.8128 20.7324 43.8818C 21.4486 42.915 22.0752 41.9303 22.6123 40.9277C 23.1494 39.9251 23.5791 38.9225 23.9014 37.9199C 24.2236 36.9173 24.3848 35.9863 24.3848 35.127C 24.3848 34.0885 24.1699 32.9606 23.7402 31.7432C 23.3105 30.5257 22.7197 29.3083 21.9678 28.0908C 21.2516 26.8734 20.4102 25.7096 19.4434 24.5996C 18.4766 23.4538 17.4382 22.4512 16.3281 21.5918C 15.2539 20.7324 14.1439 20.0521 12.998 19.5508C 11.888 19.0137 10.7959 18.7451 9.72168 18.7451C 9.47103 18.7451 9.22038 18.763 8.96973 18.7988C 8.71908 18.7988 8.48633 18.8346 8.27148 18.9062C 8.05664 18.9779 7.8597 19.1032 7.68066 19.2822C 7.53743 19.4613 7.46582 19.7119 7.46582 20.0342C 7.46582 20.6429 7.46582 21.2516 7.46582 21.8604C 7.46582 22.4691 7.48372 23.0957 7.51953 23.7402C 7.59115 24.349 7.68066 24.9577 7.78809 25.5664C 7.93132 26.1393 8.14616 26.6943 8.43262 27.2314L 9.39941 47.373ZM 32.0117 28.1445C 31.2956 28.1445 30.7943 28.2878 30.5078 28.5742C 30.2214 28.8607 29.9886 29.165 29.8096 29.4873C 29.6663 29.8096 29.5231 30.1139 29.3799 30.4004C 29.2367 30.6868 28.9681 30.8301 28.5742 30.8301C 28.1445 30.8301 27.8044 30.7585 27.5537 30.6152C 27.2673 30.4362 27.124 30.1139 27.124 29.6484C 27.1598 29.1829 27.3389 28.7354 27.6611 28.3057C 27.9834 27.876 28.3773 27.5 28.8428 27.1777C 29.3441 26.8197 29.8633 26.5511 30.4004 26.3721C 30.9375 26.193 31.4746 26.1393 32.0117 26.2109C 32.513 26.2109 32.9785 26.2467 33.4082 26.3184C 33.8379 26.39 34.2139 26.5332 34.5361 26.748C 34.8584 26.9629 35.109 27.2673 35.2881 27.6611C 35.4671 28.0192 35.5566 28.5026 35.5566 29.1113L 35.5566 46.8896L 36.4697 45.9766C 36.5055 45.9408 36.6667 45.6543 36.9531 45.1172C 37.2754 44.5443 37.6335 43.8818 38.0273 43.1299C 38.4212 42.3779 38.8151 41.6081 39.209 40.8203C 39.6387 40.0326 39.9788 39.388 40.2295 38.8867C 41.0531 37.2396 41.7155 35.6462 42.2168 34.1064C 42.7181 32.5309 43.1478 30.8659 43.5059 29.1113C 43.5775 28.8249 43.7386 28.6637 43.9893 28.6279C 44.2757 28.5563 44.5085 28.5205 44.6875 28.5205C 44.7233 28.5205 44.8307 28.5384 45.0098 28.5742C 45.1888 28.5742 45.3141 28.5742 45.3857 28.5742C 45.3857 28.8607 45.3857 29.2904 45.3857 29.8633C 45.4215 30.4362 45.4574 31.0807 45.4932 31.7969C 45.529 32.513 45.5648 33.265 45.6006 34.0527C 45.6364 34.8047 45.6722 35.5387 45.708 36.2549C 45.7438 36.971 45.7796 37.6156 45.8154 38.1885C 45.8512 38.7256 45.8691 39.1374 45.8691 39.4238C 45.8691 39.6387 45.887 40.0326 45.9229 40.6055C 45.9945 41.1426 46.1019 41.7155 46.2451 42.3242C 46.4242 42.8971 46.6569 43.4163 46.9434 43.8818C 47.2298 44.3473 47.6416 44.5801 48.1787 44.5801C 48.68 44.2936 49.1813 43.9535 49.6826 43.5596C 50.1839 43.1657 50.6852 42.7718 51.1865 42.3779C 51.7236 41.9482 52.2428 41.5723 52.7441 41.25C 53.2812 40.8919 53.8363 40.6234 54.4092 40.4443C 54.6956 40.6234 54.8031 40.8919 54.7314 41.25C 54.6598 41.6081 54.4629 42.0199 54.1406 42.4854C 53.8184 42.9508 53.4066 43.4342 52.9053 43.9355C 52.404 44.401 51.849 44.8486 51.2402 45.2783C 50.6315 45.6722 50.0049 45.9945 49.3604 46.2451C 48.7516 46.46 48.1787 46.5316 47.6416 46.46C 46.6032 46.46 45.7975 46.1377 45.2246 45.4932C 44.6875 44.8486 44.2936 44.0788 44.043 43.1836C 43.8281 42.2526 43.7028 41.2858 43.667 40.2832C 43.6312 39.2806 43.6133 38.4212 43.6133 37.7051C 43.2194 37.7051 42.8255 38.0273 42.4316 38.6719C 42.0736 39.2806 41.6976 40.0505 41.3037 40.9814C 40.9098 41.9124 40.498 42.915 40.0684 43.9893C 39.6387 45.0635 39.1732 46.0661 38.6719 46.9971C 38.1706 47.8923 37.6335 48.6621 37.0605 49.3066C 36.5234 49.9154 35.9326 50.2197 35.2881 50.2197C 34.8226 50.2197 34.4466 50.0944 34.1602 49.8438C 33.8737 49.5931 33.6589 49.2708 33.5156 48.877C 33.3724 48.4831 33.2829 48.0713 33.2471 47.6416C 33.2113 47.2119 33.1934 46.8001 33.1934 46.4062L 33.1934 29.541C 33.1934 29.4336 33.1576 29.3083 33.0859 29.165C 33.0143 28.986 32.9248 28.8249 32.8174 28.6816C 32.71 28.5384 32.5846 28.4131 32.4414 28.3057C 32.2982 28.1982 32.1549 28.1445 32.0117 28.1445ZM 53.8184 49.7363C 53.5319 49.4499 53.3708 49.1813 53.335 48.9307C 53.2992 48.68 53.2812 48.3936 53.2812 48.0713C 53.2812 47.9639 53.2812 47.8206 53.2812 47.6416C 53.3171 47.4626 53.335 47.373 53.335 47.373C 53.6572 45.6185 53.9616 43.9714 54.248 42.4316C 54.5703 40.8919 54.8389 39.388 55.0537 37.9199C 55.2686 36.416 55.4297 34.8942 55.5371 33.3545C 55.6445 31.8148 55.6982 30.1497 55.6982 28.3594C 55.6982 28.1445 55.6982 27.7507 55.6982 27.1777C 55.6982 26.569 55.6803 25.9245 55.6445 25.2441C 55.6445 24.528 55.6445 23.8835 55.6445 23.3105C 55.6445 22.7018 55.6445 22.29 55.6445 22.0752C 55.6087 21.7529 55.4476 21.5918 55.1611 21.5918C 54.9105 21.556 54.6956 21.5381 54.5166 21.5381C 53.9795 21.5381 53.514 21.5739 53.1201 21.6455C 52.762 21.6813 52.4398 21.7708 52.1533 21.9141C 51.8669 22.0215 51.6162 22.1826 51.4014 22.3975C 51.1507 22.6123 50.8822 22.863 50.5957 23.1494C 50.4883 23.1494 50.3271 23.1673 50.1123 23.2031C 49.8617 23.2031 49.7005 23.2031 49.6289 23.2031C 49.3424 23.2031 49.0381 23.1852 48.7158 23.1494C 48.3577 23.0778 48.1787 22.8451 48.1787 22.4512C 48.1787 22.4154 48.1966 22.3796 48.2324 22.3438C 48.2324 22.2721 48.2324 22.2363 48.2324 22.2363C 48.7695 21.556 49.2887 20.9831 49.79 20.5176C 50.2555 20.0521 50.7568 19.694 51.2939 19.4434C 51.8311 19.1927 52.4398 19.0137 53.1201 18.9062C 53.8005 18.7988 54.5882 18.7451 55.4834 18.7451C 56.0921 18.7451 56.5576 18.8883 56.8799 19.1748C 57.238 19.4613 57.4886 19.8372 57.6318 20.3027C 57.8109 20.7324 57.9183 21.2337 57.9541 21.8066C 57.9899 22.3438 58.0078 22.8809 58.0078 23.418C 58.0078 23.6686 58.0078 24.0625 58.0078 24.5996C 58.0078 25.1009 58.0078 25.6738 58.0078 26.3184C 58.0078 26.9629 57.9899 27.6432 57.9541 28.3594C 57.9541 29.0755 57.9362 29.7559 57.9004 30.4004C 57.9004 31.0449 57.8825 31.6357 57.8467 32.1729C 57.8467 32.6742 57.8467 33.0501 57.8467 33.3008L 58.4912 33.3008C 58.5986 33.1576 58.8314 32.9069 59.1895 32.5488C 59.5475 32.1908 59.9414 31.8148 60.3711 31.4209C 60.8366 31.027 61.3021 30.6868 61.7676 30.4004C 62.2689 30.1139 62.7344 29.9707 63.1641 29.9707C 63.737 29.9707 64.2741 30.2035 64.7754 30.6689C 65.3125 31.0986 65.778 31.6895 66.1719 32.4414C 66.6016 33.1576 66.9775 33.9632 67.2998 34.8584C 67.6579 35.7536 67.9443 36.6309 68.1592 37.4902C 68.374 38.3496 68.5352 39.1374 68.6426 39.8535C 68.7858 40.5697 68.8574 41.1426 68.8574 41.5723C 68.8574 42.7539 68.5352 43.8639 67.8906 44.9023C 67.2461 45.9408 66.4225 46.8538 65.4199 47.6416C 64.4531 48.4294 63.361 49.056 62.1436 49.5215C 60.9619 49.987 59.834 50.2197 58.7598 50.2197C 58.2943 50.2197 57.8646 50.2018 57.4707 50.166C 57.1126 50.166 56.7367 50.166 56.3428 50.166C 55.9847 50.1302 55.5908 50.0765 55.1611 50.0049C 54.7673 49.9333 54.3197 49.8438 53.8184 49.7363ZM 62.6807 32.3877C 61.6064 33.3187 60.6576 34.4287 59.834 35.7178C 59.0104 36.971 58.3122 38.3138 57.7393 39.7461C 57.1663 41.1784 56.7367 42.6465 56.4502 44.1504C 56.1995 45.6543 56.0742 47.1045 56.0742 48.501C 57.0768 48.501 58.1868 48.3757 59.4043 48.125C 60.6217 47.8743 61.7497 47.4805 62.7881 46.9434C 63.8623 46.3704 64.7575 45.6364 65.4736 44.7412C 66.1898 43.8102 66.5479 42.6644 66.5479 41.3037C 66.5479 40.5876 66.4762 39.7998 66.333 38.9404C 66.1898 38.0452 65.957 37.1859 65.6348 36.3623C 65.3483 35.5029 64.9544 34.7152 64.4531 33.999C 63.9876 33.2829 63.3968 32.7458 62.6807 32.3877ZM 69.2334 46.1914C 69.2334 45.9766 69.4661 45.7975 69.9316 45.6543C 70.3971 45.5111 70.9163 45.332 71.4893 45.1172C 72.098 44.9023 72.6888 44.6517 73.2617 44.3652C 73.8704 44.043 74.2822 43.6491 74.4971 43.1836C 74.4255 41.4648 74.4434 39.8356 74.5508 38.2959C 74.6582 36.7562 74.8372 35.2344 75.0879 33.7305C 75.3385 32.2266 75.6429 30.7227 76.001 29.2188C 76.3949 27.679 76.8245 26.0677 77.29 24.3848C 77.2184 24.0267 77.29 23.4717 77.5049 22.7197C 77.7555 21.9678 78.0778 21.2337 78.4717 20.5176C 78.8656 19.8014 79.2952 19.1748 79.7607 18.6377C 80.262 18.0648 80.7096 17.7783 81.1035 17.7783C 81.5332 17.7783 81.8376 18.0111 82.0166 18.4766C 82.2314 18.9421 82.3747 19.4792 82.4463 20.0879C 82.5179 20.6966 82.5358 21.3232 82.5 21.9678C 82.4642 22.5765 82.4463 23.042 82.4463 23.3643C 82.4463 25.1904 82.3389 26.9629 82.124 28.6816C 81.9092 30.3646 81.569 32.0117 81.1035 33.623C 80.6738 35.2344 80.1367 36.8278 79.4922 38.4033C 78.8477 39.9788 78.1136 41.5723 77.29 43.1836C 77.29 43.1836 77.2721 43.2373 77.2363 43.3447C 77.2363 43.4521 77.2363 43.5417 77.2363 43.6133C 77.2721 44.9023 77.6481 45.8154 78.3643 46.3525C 79.0804 46.8538 79.9219 47.1403 80.8887 47.2119C 81.8913 47.2477 82.9118 47.1224 83.9502 46.8359C 85.0244 46.5495 85.9017 46.263 86.582 45.9766L 87.0654 46.4062C 86.8864 46.7285 86.6178 47.0687 86.2598 47.4268C 85.9375 47.749 85.5794 48.0534 85.1855 48.3398C 84.7917 48.5905 84.3978 48.8053 84.0039 48.9844C 83.6458 49.1276 83.3594 49.1992 83.1445 49.1992C 82.2135 49.1992 81.4079 49.1634 80.7275 49.0918C 80.0472 49.0202 79.4206 48.877 78.8477 48.6621C 78.2747 48.4473 77.7197 48.125 77.1826 47.6953C 76.6455 47.2656 76.0547 46.6927 75.4102 45.9766L 74.9805 45.9766C 74.6582 46.263 74.3538 46.4958 74.0674 46.6748C 73.8167 46.818 73.5124 46.9255 73.1543 46.9971C 72.7962 47.0687 72.3844 47.1224 71.9189 47.1582C 71.4893 47.1582 70.988 47.1582 70.415 47.1582C 70.0212 47.1582 69.7347 47.1045 69.5557 46.9971C 69.3408 46.8538 69.2334 46.5853 69.2334 46.1914ZM 80.5664 22.5586C 79.8503 23.5254 79.2415 24.6175 78.7402 25.835C 78.2747 27.0524 77.8988 28.3057 77.6123 29.5947C 77.3258 30.8838 77.111 32.1908 76.9678 33.5156C 76.8245 34.8405 76.7529 36.1117 76.7529 37.3291C 76.7529 37.4007 76.7529 37.5618 76.7529 37.8125C 76.7887 38.0632 76.8066 38.3317 76.8066 38.6182C 76.8066 38.8688 76.8066 39.1195 76.8066 39.3701C 76.8424 39.6208 76.8604 39.7819 76.8604 39.8535C 76.8962 39.8177 76.9678 39.7461 77.0752 39.6387C 77.1826 39.5312 77.2542 39.4596 77.29 39.4238L 77.29 38.8867C 77.8271 37.7051 78.2926 36.5592 78.6865 35.4492C 79.1162 34.3392 79.4743 33.2292 79.7607 32.1191C 80.0472 30.9733 80.262 29.8096 80.4053 28.6279C 80.5485 27.4463 80.6201 26.1751 80.6201 24.8145C 80.6201 24.7428 80.6201 24.5996 80.6201 24.3848C 80.6201 24.1341 80.6201 23.9014 80.6201 23.6865C 80.6201 23.4359 80.6022 23.2031 80.5664 22.9883C 80.5664 22.7734 80.5664 22.6302 80.5664 22.5586ZM 89.5361 42.6465C 89.5361 41.7155 89.5898 40.8024 89.6973 39.9072C 89.8047 38.9762 89.9121 38.0632 90.0195 37.168C 90.1628 36.237 90.2881 35.3239 90.3955 34.4287C 90.5029 33.4977 90.5566 32.5488 90.5566 31.582C 90.5566 31.3672 90.5029 31.1344 90.3955 30.8838C 90.3239 30.5973 90.109 30.4541 89.751 30.4541C 89.2855 30.4541 88.9811 30.4899 88.8379 30.5615C 88.6947 30.6331 88.5872 30.7227 88.5156 30.8301C 88.4798 30.9375 88.3903 31.0628 88.2471 31.2061C 88.1396 31.3493 87.8711 31.4925 87.4414 31.6357L 87.1729 31.6357C 86.4209 31.6357 86.0449 31.2419 86.0449 30.4541C 86.0449 30.2393 86.2777 29.8991 86.7432 29.4336C 87.2445 28.9681 87.8174 28.5384 88.4619 28.1445C 89.1064 27.7148 89.7152 27.3568 90.2881 27.0703C 90.861 26.748 91.237 26.6406 91.416 26.748C 91.4876 26.748 91.5951 26.8197 91.7383 26.9629C 91.8815 27.0703 92.0247 27.2135 92.168 27.3926C 92.3112 27.5358 92.4365 27.679 92.5439 27.8223C 92.6872 27.9655 92.7767 28.0729 92.8125 28.1445C 92.8125 28.2161 92.8125 28.3594 92.8125 28.5742C 92.8125 28.7891 92.8125 29.0218 92.8125 29.2725C 92.8483 29.5231 92.8662 29.7738 92.8662 30.0244C 92.8662 30.2393 92.8662 30.4004 92.8662 30.5078C 92.8662 31.5462 92.7946 32.5846 92.6514 33.623C 92.5081 34.6257 92.3291 35.6462 92.1143 36.6846C 91.9352 37.723 91.7741 38.7614 91.6309 39.7998C 91.4876 40.8382 91.416 41.8766 91.416 42.915C 91.416 43.0941 91.4339 43.4521 91.4697 43.9893C 91.5055 44.5264 91.5771 45.0814 91.6846 45.6543C 91.8278 46.2272 92.0247 46.7464 92.2754 47.2119C 92.526 47.6416 92.8662 47.8564 93.2959 47.8564C 94.1553 47.8564 94.7998 47.749 95.2295 47.5342C 95.6592 47.2835 96.0352 47.015 96.3574 46.7285C 96.6797 46.4421 97.0199 46.1914 97.3779 45.9766C 97.7718 45.7259 98.3089 45.6006 98.9893 45.6006C 98.9893 47.1045 98.4342 48.2503 97.3242 49.0381C 96.2142 49.8258 94.7998 50.2197 93.0811 50.2197C 92.1859 50.2197 91.5055 49.9333 91.04 49.3604C 90.5745 48.7874 90.2165 48.1071 89.9658 47.3193C 89.751 46.4958 89.6257 45.6543 89.5898 44.7949C 89.554 43.9355 89.5361 43.2194 89.5361 42.6465ZM 90.0732 20.1953C 90.0732 19.8014 90.127 19.4971 90.2344 19.2822C 90.3776 19.0674 90.682 18.96 91.1475 18.96C 91.4697 18.96 91.6846 19.0853 91.792 19.3359C 91.9352 19.5508 92.0068 19.8372 92.0068 20.1953C 92.0068 20.5176 91.9352 20.804 91.792 21.0547C 91.6846 21.2695 91.4697 21.377 91.1475 21.377C 90.682 21.377 90.3776 21.2874 90.2344 21.1084C 90.127 20.8936 90.0732 20.5892 90.0732 20.1953ZM 101.943 46.4062C 102.015 46.1198 102.122 45.6543 102.266 45.0098C 102.409 44.3294 102.552 43.5775 102.695 42.7539C 102.874 41.9303 103.035 41.0531 103.179 40.1221C 103.358 39.1911 103.519 38.3138 103.662 37.4902C 103.841 36.6667 103.984 35.9147 104.092 35.2344C 104.199 34.554 104.271 34.0527 104.307 33.7305C 104.342 33.5872 104.342 33.3724 104.307 33.0859C 104.271 32.7995 104.235 32.4772 104.199 32.1191C 104.163 31.7611 104.128 31.4388 104.092 31.1523C 104.056 30.8659 104.038 30.651 104.038 30.5078C 103.931 30.5078 103.752 30.472 103.501 30.4004C 103.25 30.3288 102.982 30.2751 102.695 30.2393C 102.445 30.1676 102.212 30.1139 101.997 30.0781C 101.782 30.0065 101.621 29.9707 101.514 29.9707C 100.654 30.293 100.01 30.7048 99.5801 31.2061C 99.1862 31.6715 98.8102 32.137 98.4521 32.6025C 98.1299 33.068 97.736 33.4798 97.2705 33.8379C 96.805 34.1602 96.1247 34.3213 95.2295 34.3213C 94.9072 34.3213 94.6745 34.196 94.5312 33.9453C 94.388 33.6947 94.3164 33.4082 94.3164 33.0859L 94.3164 32.8711C 95.1042 31.9759 95.8561 31.2061 96.5723 30.5615C 97.2526 29.917 97.9867 29.3799 98.7744 28.9502C 99.5622 28.4847 100.422 28.1445 101.353 27.9297C 102.284 27.7148 103.358 27.6074 104.575 27.6074C 105.112 27.6074 105.506 27.7148 105.757 27.9297C 106.043 28.1087 106.258 28.3594 106.401 28.6816C 106.545 28.9681 106.616 29.3083 106.616 29.7021C 106.652 30.096 106.67 30.5257 106.67 30.9912C 106.67 31.958 106.562 32.9248 106.348 33.8916C 106.169 34.8226 105.954 35.7715 105.703 36.7383C 105.488 37.6693 105.273 38.6182 105.059 39.585C 104.844 40.516 104.736 41.4827 104.736 42.4854L 104.736 42.7002C 104.844 42.4137 105.076 41.9482 105.435 41.3037C 105.793 40.6234 106.169 39.9072 106.562 39.1553C 106.956 38.4033 107.332 37.7051 107.69 37.0605C 108.084 36.3802 108.353 35.9147 108.496 35.6641C 108.532 35.6283 108.657 35.485 108.872 35.2344C 109.087 34.9479 109.338 34.6257 109.624 34.2676C 109.946 33.9095 110.251 33.5693 110.537 33.2471C 110.859 32.889 111.128 32.6025 111.343 32.3877C 111.558 32.1012 111.808 31.7969 112.095 31.4746C 112.417 31.1523 112.739 30.848 113.062 30.5615C 113.42 30.2751 113.778 30.0423 114.136 29.8633C 114.53 29.6484 114.924 29.541 115.317 29.541C 115.64 29.541 115.872 29.6663 116.016 29.917C 116.195 30.1676 116.32 30.472 116.392 30.8301C 116.463 31.1882 116.499 31.5641 116.499 31.958C 116.499 32.3161 116.499 32.6204 116.499 32.8711C 116.499 33.9453 116.374 35.0195 116.123 36.0938C 115.872 37.168 115.604 38.2422 115.317 39.3164C 115.031 40.3548 114.744 41.4111 114.458 42.4854C 114.207 43.5596 114.082 44.6338 114.082 45.708C 114.082 46.1735 114.154 46.5674 114.297 46.8896C 114.44 47.2119 114.762 47.373 115.264 47.373C 115.908 47.373 116.499 47.194 117.036 46.8359C 117.573 46.4779 118.075 46.1019 118.54 45.708C 119.041 45.2783 119.525 44.8844 119.99 44.5264C 120.492 44.1683 121.047 43.9893 121.655 43.9893L 121.655 45.0098C 121.655 45.0456 121.566 45.153 121.387 45.332C 121.208 45.5111 120.993 45.7259 120.742 45.9766C 120.492 46.2272 120.223 46.4779 119.937 46.7285C 119.686 46.9792 119.471 47.194 119.292 47.373C 119.006 47.6237 118.683 47.8923 118.325 48.1787C 117.967 48.4652 117.591 48.7337 117.197 48.9844C 116.839 49.1992 116.445 49.3962 116.016 49.5752C 115.586 49.7184 115.174 49.79 114.78 49.79C 114.243 49.79 113.796 49.6468 113.438 49.3604C 113.115 49.0381 112.865 48.6621 112.686 48.2324C 112.507 47.7669 112.381 47.2835 112.31 46.7822C 112.238 46.2809 112.202 45.8333 112.202 45.4395C 112.202 44.3652 112.292 43.3089 112.471 42.2705C 112.686 41.1963 112.9 40.1579 113.115 39.1553C 113.33 38.1169 113.527 37.0785 113.706 36.04C 113.885 35.0016 113.975 33.9453 113.975 32.8711L 113.652 32.8711C 113.617 32.8711 113.491 32.9785 113.276 33.1934C 113.062 33.4082 112.793 33.6589 112.471 33.9453C 112.184 34.2318 111.898 34.5361 111.611 34.8584C 111.325 35.1807 111.074 35.4492 110.859 35.6641C 110.68 35.8789 110.483 36.1475 110.269 36.4697C 110.054 36.7562 109.839 37.0785 109.624 37.4365C 109.409 37.7946 109.194 38.1527 108.979 38.5107C 108.8 38.833 108.639 39.1374 108.496 39.4238C 108.389 39.6745 108.21 40.0505 107.959 40.5518C 107.708 41.0531 107.422 41.626 107.1 42.2705C 106.813 42.915 106.491 43.5954 106.133 44.3115C 105.811 45.0277 105.488 45.708 105.166 46.3525C 104.88 46.9971 104.611 47.57 104.36 48.0713C 104.11 48.5726 103.931 48.9486 103.823 49.1992C 103.787 49.3424 103.644 49.5394 103.394 49.79C 103.143 50.0049 102.982 50.1302 102.91 50.166C 102.839 50.2018 102.803 50.2197 102.803 50.2197L 102.642 50.2197L 102.534 50.2197C 102.498 50.2197 102.463 50.2018 102.427 50.166C 102.355 50.1302 102.248 50.0586 102.104 49.9512C 101.997 49.8438 101.943 49.7721 101.943 49.7363L 101.943 46.4062Z"/>
</defs>
</svg>
