<svg width="200" height="200" viewBox="0 0 200 200" version="1.1" xmlns="http://www.w3.org/2000/svg" xmlns:xlink="http://www.w3.org/1999/xlink" xmlns:figma="http://www.figma.com/figma/ns">
<title>Group</title>
<desc>Created using Figma</desc>
<g id="Canvas" transform="translate(405 -250)" figma:type="canvas">
<g id="Group" style="mix-blend-mode:normal;" figma:type="frame">
<g id="Ellipse" style="mix-blend-mode:normal;" figma:type="ellipse">
<use xlink:href="#path0_fill" transform="translate(-375 280)" fill="#B21C0E" style="mix-blend-mode:normal;"/>
</g>
<g id="Ellipse 2" style="mix-blend-mode:normal;" figma:type="ellipse">
<use xlink:href="#path1_fill" transform="translate(-405 250)" fill="#B21C0E" fill-opacity="0.7" style="mix-blend-mode:normal;"/>
</g>
<g id="population" style="mix-blend-mode:normal;" figma:type="text">
<use xlink:href="#path2_fill" transform="translate(-343.5 362)" fill="#FFFFFF" style="mix-blend-mode:normal;"/>
</g>
<g id="47m" style="mix-blend-mode:normal;" figma:type="text">
<use xlink:href="#path3_fill" transform="translate(-348 297)" fill="#FFFFFF" style="mix-blend-mode:normal;"/>
</g>
</g>
</g>
<defs>
<path id="path0_fill" d="M 140 70C 140 108.66 108.66 140 70 140C 31.3401 140 0 108.66 0 70C 0 31.3401 31.3401 0 70 0C 108.66 0 140 31.3401 140 70Z"/>
<path id="path1_fill" d="M 200 100C 200 155.228 155.228 200 100 200C 44.7715 200 0 155.228 0 100C 0 44.7715 44.7715 0 100 0C 155.228 0 200 44.7715 200 100Z"/>
<path id="path2_fill" d="M 7.55615 11.3037L 7.77588 11.2793C 7.89795 11.2793 7.99561 11.3851 8.06885 11.5967C 8.14209 11.8083 8.17871 11.9507 8.17871 12.0239C 8.17871 12.0972 8.09733 12.2355 7.93457 12.439L 4.45557 17.7368C 5.67627 16.5161 6.91732 15.625 8.17871 15.0635C 8.66699 14.8519 9.10645 14.7461 9.49707 14.7461C 9.89583 14.7461 10.2132 14.8763 10.4492 15.1367C 10.6934 15.389 10.8154 15.7064 10.8154 16.0889C 10.8154 16.4714 10.7096 16.9434 10.498 17.5049C 10.2865 18.0664 9.99756 18.6646 9.63135 19.2993C 9.27327 19.9341 8.83382 20.5729 8.31299 21.2158C 7.80029 21.8587 7.25911 22.4406 6.68945 22.9614C 6.12793 23.4823 5.51351 23.9054 4.84619 24.231C 4.17887 24.5565 3.59294 24.7192 3.08838 24.7192C 2.07113 24.7192 1.5625 24.2513 1.5625 23.3154C 0.610352 24.7721 -0.488281 26.4974 -1.7334 28.4912C -2.97852 30.485 -3.64583 31.5389 -3.73535 31.6528C -3.82487 31.7668 -3.89811 31.8237 -3.95508 31.8237C -4.02018 31.8237 -4.11377 31.7871 -4.23584 31.7139C -4.36605 31.6406 -4.50033 31.5186 -4.63867 31.3477C -4.77702 31.1768 -4.84619 30.9285 -4.84619 30.603C -4.85433 30.2775 -4.76074 29.9479 -4.56543 29.6143C -3.4668 27.7832 -1.35091 24.3408 1.78223 19.2871C 4.9235 14.2253 6.62435 11.6089 6.88477 11.438C 7.03125 11.3403 7.17773 11.2915 7.32422 11.2915L 7.55615 11.3037ZM 8.63037 16.9189C 8.63037 16.748 8.54899 16.6626 8.38623 16.6626C 7.94678 16.6626 7.01497 17.3381 5.59082 18.689C 4.1748 20.0399 3.04769 21.2728 2.20947 22.3877C 2.42106 22.6481 2.73438 22.7783 3.14941 22.7783C 3.56445 22.7783 4.10156 22.5545 4.76074 22.1069C 5.41992 21.6593 6.03027 21.1304 6.5918 20.52C 7.15332 19.9015 7.63346 19.2546 8.03223 18.5791C 8.43099 17.9036 8.63037 17.3503 8.63037 16.9189ZM 18.8354 14.9902C 19.0796 14.9902 19.3278 15.1001 19.5801 15.3198C 19.8405 15.5396 19.9707 15.8773 19.9707 16.333C 19.9707 16.7806 19.812 17.3665 19.4946 18.0908C 19.1772 18.807 18.7419 19.5394 18.1885 20.2881C 17.6351 21.0286 17.0247 21.7285 16.3574 22.3877C 15.6982 23.0387 14.9821 23.5758 14.209 23.999C 13.444 24.4141 12.7482 24.6216 12.1216 24.6216C 11.495 24.6216 10.9904 24.4263 10.6079 24.0356C 10.2336 23.6369 10.0464 23.0876 10.0464 22.3877C 10.0464 21.6797 10.2173 20.8984 10.5591 20.0439C 10.909 19.1895 11.3566 18.4367 11.9019 17.7856C 12.4471 17.1265 13.0371 16.5365 13.6719 16.0156C 14.9984 14.9495 16.1621 14.4165 17.1631 14.4165C 17.6107 14.4165 17.9484 14.5264 18.1763 14.7461C 18.2576 14.8193 18.2983 14.8844 18.2983 14.9414L 18.2983 15.0146C 18.4123 14.9984 18.5913 14.9902 18.8354 14.9902ZM 17.6025 16.6138L 17.5171 16.6138C 17.2323 16.6138 17.0898 16.4062 17.0898 15.9912C 16.4958 16.1865 15.8732 16.5283 15.2222 17.0166C 14.5711 17.5049 13.9893 18.0827 13.4766 18.75C 12.4349 20.0846 11.9059 21.2118 11.8896 22.1313C 11.8896 22.5871 12.0565 22.8149 12.3901 22.8149C 12.7238 22.8149 13.2202 22.5952 13.8794 22.1558C 14.5386 21.7163 15.1896 21.0897 15.8325 20.2759C 16.4836 19.4621 16.9678 18.7581 17.2852 18.1641C 17.6107 17.5618 17.7734 17.1549 17.7734 16.9434C 17.7734 16.7236 17.7165 16.6138 17.6025 16.6138ZM 26.5015 11.3037L 26.7212 11.2793C 26.8433 11.2793 26.9409 11.3851 27.0142 11.5967C 27.0874 11.8083 27.124 11.9507 27.124 12.0239C 27.124 12.0972 27.0426 12.2355 26.8799 12.439L 23.4009 17.7368C 24.6216 16.5161 25.8626 15.625 27.124 15.0635C 27.6123 14.8519 28.0518 14.7461 28.4424 14.7461C 28.8411 14.7461 29.1585 14.8763 29.3945 15.1367C 29.6387 15.389 29.7607 15.7064 29.7607 16.0889C 29.7607 16.4714 29.6549 16.9434 29.4434 17.5049C 29.2318 18.0664 28.9429 18.6646 28.5767 19.2993C 28.2186 19.9341 27.7791 20.5729 27.2583 21.2158C 26.7456 21.8587 26.2044 22.4406 25.6348 22.9614C 25.0732 23.4823 24.4588 23.9054 23.7915 24.231C 23.1242 24.5565 22.5382 24.7192 22.0337 24.7192C 21.0164 24.7192 20.5078 24.2513 20.5078 23.3154C 19.5557 24.7721 18.457 26.4974 17.2119 28.4912C 15.9668 30.485 15.2995 31.5389 15.21 31.6528C 15.1204 31.7668 15.0472 31.8237 14.9902 31.8237C 14.9251 31.8237 14.8315 31.7871 14.7095 31.7139C 14.5793 31.6406 14.445 31.5186 14.3066 31.3477C 14.1683 31.1768 14.0991 30.9285 14.0991 30.603C 14.091 30.2775 14.1846 29.9479 14.3799 29.6143C 15.4785 27.7832 17.5944 24.3408 20.7275 19.2871C 23.8688 14.2253 25.5697 11.6089 25.8301 11.438C 25.9766 11.3403 26.123 11.2915 26.2695 11.2915L 26.5015 11.3037ZM 27.5757 16.9189C 27.5757 16.748 27.4943 16.6626 27.3315 16.6626C 26.8921 16.6626 25.9603 17.3381 24.5361 18.689C 23.1201 20.0399 21.993 21.2728 21.1548 22.3877C 21.3664 22.6481 21.6797 22.7783 22.0947 22.7783C 22.5098 22.7783 23.0469 22.5545 23.7061 22.1069C 24.3652 21.6593 24.9756 21.1304 25.5371 20.52C 26.0986 19.9015 26.5788 19.2546 26.9775 18.5791C 27.3763 17.9036 27.5757 17.3503 27.5757 16.9189ZM 39.8315 20.459C 39.9862 20.459 40.0798 20.577 40.1123 20.813C 40.1449 21.049 40.1611 21.2931 40.1611 21.5454C 40.1611 21.7977 40.1367 21.9727 40.0879 22.0703C 39.8519 22.526 39.3351 23.0835 38.5376 23.7427C 37.7401 24.3937 36.9832 24.7192 36.2671 24.7192C 35.8276 24.7192 35.4207 24.585 35.0464 24.3164C 34.672 24.056 34.4849 23.5962 34.4849 22.937C 34.4849 22.2778 34.6598 21.6309 35.0098 20.9961C 32.9915 23.527 31.4087 24.7925 30.2612 24.7925C 29.8055 24.7925 29.4352 24.6297 29.1504 24.3042C 28.8737 23.9787 28.7354 23.645 28.7354 23.3032C 28.7354 22.9533 28.7842 22.5952 28.8818 22.229C 28.9795 21.8547 29.0812 21.521 29.187 21.228C 29.3009 20.9351 29.4637 20.5729 29.6753 20.1416C 29.895 19.7103 30.0578 19.397 30.1636 19.2017C 30.2694 19.0063 30.4362 18.7134 30.6641 18.3228C 30.9001 17.924 31.2052 17.391 31.5796 16.7236C 31.9621 16.0563 32.2754 15.564 32.5195 15.2466C 32.7718 14.9211 33.016 14.7583 33.252 14.7583C 33.488 14.7502 33.6955 14.8438 33.8745 15.0391C 34.0535 15.2344 34.1431 15.3931 34.1431 15.5151C 34.1431 15.6372 33.8704 16.1865 33.3252 17.1631C 31.7139 20.0765 30.9082 21.7733 30.9082 22.2534C 30.9082 22.3755 30.953 22.4365 31.0425 22.4365C 31.4331 22.4365 32.4056 21.5902 33.96 19.8975C 35.5143 18.2048 36.4136 17.1224 36.6577 16.6504C 36.9019 16.1702 37.1379 15.7674 37.3657 15.4419C 37.6017 15.1164 37.7767 14.917 37.8906 14.8438C 38.2406 14.6159 38.6922 14.4938 39.2456 14.4775C 39.3351 14.4775 39.4043 14.4816 39.4531 14.4897C 39.502 14.4979 39.5589 14.5671 39.624 14.6973C 39.6891 14.8275 39.7217 14.9292 39.7217 15.0024C 39.6484 15.2303 39.3229 15.8366 38.7451 16.8213C 38.1755 17.806 37.8581 18.3634 37.793 18.4937C 36.8327 20.4793 36.3525 21.7733 36.3525 22.3755C 36.3525 22.7173 36.4827 22.8882 36.7432 22.8882C 37.2152 22.8231 37.7848 22.4447 38.4521 21.7529C 38.6963 21.5007 38.9364 21.2443 39.1724 20.9839C 39.4165 20.7235 39.5671 20.5729 39.624 20.5322C 39.681 20.4834 39.7502 20.459 39.8315 20.459ZM 49.4995 5.96924C 49.8901 5.96924 50.2319 6.08724 50.5249 6.32324C 50.826 6.55111 50.9766 6.8929 50.9766 7.34863C 50.9766 7.80436 50.7243 8.52051 50.2197 9.49707C 49.7152 10.4655 49.1089 11.4583 48.4009 12.4756C 47.6929 13.4847 46.8913 14.5589 45.9961 15.6982C 44.5801 17.5049 43.221 19.1284 41.9189 20.5688C 41.9108 20.6665 41.8742 20.8496 41.8091 21.1182C 41.7521 21.3786 41.7236 21.6431 41.7236 21.9116C 41.7236 22.1802 41.8457 22.4243 42.0898 22.644C 42.3421 22.8556 42.6514 22.9614 43.0176 22.9614C 43.3838 22.9614 43.7744 22.8312 44.1895 22.5708C 44.6126 22.3104 44.9788 22.0215 45.2881 21.7041C 46.1019 20.8659 46.6064 20.4468 46.8018 20.4468C 46.9971 20.4468 47.0947 20.7438 47.0947 21.3379L 47.0947 21.582C 47.0947 21.8994 47.0378 22.1313 46.9238 22.2778C 46.2402 23.116 45.4712 23.7427 44.6167 24.1577C 43.7622 24.5646 42.9525 24.7681 42.1875 24.7681C 41.4225 24.7681 40.8407 24.5361 40.4419 24.0723C 40.0431 23.6003 39.8438 22.9574 39.8438 22.1436C 39.8438 20.5566 40.2669 18.693 41.1133 16.5527C 41.9678 14.4043 42.9281 12.5773 43.9941 11.0718C 46.3949 7.67009 48.23 5.96924 49.4995 5.96924ZM 48.9502 7.99561C 48.9502 7.87354 48.9095 7.8125 48.8281 7.8125C 48.5433 7.8125 47.7946 8.6263 46.582 10.2539C 45.3695 11.8815 44.4906 13.1795 43.9453 14.1479C 43.4082 15.1164 42.8996 16.333 42.4194 17.7979C 43.3797 16.6585 44.7062 14.8844 46.3989 12.4756C 48.0998 10.0586 48.9502 8.56527 48.9502 7.99561ZM 55.1392 15.0146C 55.7576 15.0146 56.0669 15.2262 56.0669 15.6494C 56.0669 15.8773 56.014 16.0441 55.9082 16.1499C 55.8024 16.2557 55.5745 16.6097 55.2246 17.2119C 54.8828 17.806 54.5003 18.571 54.0771 19.5068C 53.6621 20.4346 53.3936 21.228 53.2715 21.8872C 53.2471 21.9686 53.2349 22.0825 53.2349 22.229C 53.2349 22.6766 53.3569 22.9004 53.6011 22.9004C 53.8452 22.9004 54.1341 22.7865 54.4678 22.5586C 54.8014 22.3226 55.0985 22.0744 55.3589 21.814C 55.6193 21.5454 55.8716 21.2728 56.1157 20.9961C 56.368 20.7194 56.5186 20.5607 56.5674 20.52C 56.6162 20.4793 56.6895 20.459 56.7871 20.459C 56.9417 20.459 57.0353 20.577 57.0679 20.813C 57.1004 21.049 57.1167 21.2931 57.1167 21.5454C 57.1167 21.7977 57.0923 21.9727 57.0435 22.0703C 56.8075 22.5342 56.2866 23.0916 55.481 23.7427C 54.6834 24.3937 53.9551 24.7192 53.2959 24.7192C 52.6449 24.7192 52.1647 24.5199 51.8555 24.1211C 51.5462 23.7223 51.3916 23.2829 51.3916 22.8027C 51.3916 22.3145 51.473 21.8872 51.6357 21.521C 50.9603 22.3999 50.1831 23.1445 49.3042 23.7549C 48.4334 24.3652 47.7214 24.6704 47.168 24.6704C 46.6146 24.6704 46.1629 24.5036 45.813 24.1699C 45.3654 23.7549 45.1416 23.1812 45.1416 22.4487C 45.1416 21.7082 45.3044 20.9676 45.6299 20.2271C 45.9635 19.4784 46.3989 18.7988 46.936 18.1885C 47.4731 17.57 48.0632 17.0085 48.7061 16.5039C 50.057 15.446 51.3021 14.917 52.4414 14.917C 52.8809 14.917 53.2389 14.9902 53.5156 15.1367C 53.7923 15.2832 53.9673 15.4663 54.0405 15.686C 54.2358 15.3931 54.3986 15.21 54.5288 15.1367C 54.6672 15.0553 54.8706 15.0146 55.1392 15.0146ZM 53.5156 16.3696C 52.124 16.3696 50.6836 17.1427 49.1943 18.689C 48.6654 19.2424 48.1771 19.9056 47.7295 20.6787C 47.29 21.4518 47.0703 21.9808 47.0703 22.2656C 47.0703 22.5505 47.1517 22.6929 47.3145 22.6929C 47.5423 22.6929 48.1771 22.2453 49.2188 21.3501C 50.2604 20.4468 50.9521 19.7835 51.2939 19.3604C 51.6683 18.8883 52.4089 17.8914 53.5156 16.3696ZM 64.4043 8.56934L 64.9048 8.69141C 64.978 8.69141 65.0431 8.72803 65.1001 8.80127C 65.1571 8.87451 65.1855 8.94368 65.1855 9.00879C 65.1855 9.07389 65.1001 9.24886 64.9292 9.53369C 64.7583 9.81852 64.5549 10.144 64.3188 10.5103C 64.091 10.8683 63.9689 11.0636 63.9526 11.0962C 64.5874 11.0474 65.035 11.0229 65.2954 11.0229C 65.564 11.0229 65.7471 11.0433 65.8447 11.084C 65.9424 11.1165 66.0522 11.2183 66.1743 11.3892C 66.3045 11.5519 66.4225 11.6781 66.5283 11.7676C 66.6341 11.849 66.687 11.9751 66.687 12.146C 66.687 12.3169 66.5812 12.4634 66.3696 12.5854C 66.1662 12.6994 65.9465 12.7686 65.7104 12.793C 63.8224 12.9801 62.7808 13.0778 62.5854 13.0859C 61.9263 14.0951 61.0026 15.6698 59.8145 17.8101C 58.6344 19.9422 58.0078 21.2769 57.9346 21.814C 57.902 22.0581 57.8857 22.2575 57.8857 22.4121C 57.8857 22.7295 58.0526 22.8882 58.3862 22.8882C 58.7199 22.8882 59.0902 22.762 59.4971 22.5098C 59.904 22.2493 60.2783 21.9686 60.6201 21.6675C 61.5316 20.8537 62.0199 20.4468 62.085 20.4468C 62.2965 20.4468 62.4023 20.813 62.4023 21.5454C 62.4023 21.9442 62.2192 22.3022 61.853 22.6196C 61.0311 23.3276 60.3394 23.8607 59.7778 24.2188C 59.2163 24.5768 58.6548 24.7559 58.0933 24.7559C 57.9712 24.7559 57.8573 24.7437 57.7515 24.7192C 57.1004 24.5972 56.6203 24.3612 56.311 24.0112C 56.0099 23.6532 55.8594 23.173 55.8594 22.5708C 55.8675 21.9686 56.0465 21.2402 56.3965 20.3857C 56.7546 19.5231 57.2021 18.6076 57.7393 17.6392C 58.6182 16.0604 59.4971 14.5793 60.376 13.1958L 59.9121 13.2568C 58.9681 13.3626 58.4188 13.4155 58.2642 13.4155L 58.1543 13.4155C 57.9183 13.4155 57.6904 13.3708 57.4707 13.2812C 57.251 13.1836 57.1411 13.0656 57.1411 12.9272C 57.1411 12.7889 57.1981 12.6546 57.312 12.5244C 57.4341 12.3942 57.5073 12.2925 57.5317 12.2192C 57.5887 12.0402 57.8003 11.8408 58.1665 11.6211C 58.5409 11.4014 58.8216 11.2874 59.0088 11.2793C 59.196 11.263 59.375 11.2508 59.5459 11.2427C 59.7249 11.2345 59.9202 11.2264 60.1318 11.2183C 60.3516 11.2101 60.5184 11.202 60.6323 11.1938L 61.731 11.145C 62.4146 10.1196 62.8825 9.46045 63.1348 9.16748C 63.3952 8.87451 63.5457 8.71582 63.5864 8.69141C 63.6271 8.65885 63.7085 8.64258 63.8306 8.64258L 64.4043 8.56934ZM 69.3237 10.8887C 69.3237 11.3525 69.1081 11.8205 68.6768 12.2925C 68.2454 12.7563 67.7938 12.9883 67.3218 12.9883C 66.8579 12.9883 66.626 12.7441 66.626 12.2559C 66.626 11.7676 66.8294 11.3037 67.2363 10.8643C 67.6514 10.4167 68.1071 10.1929 68.6035 10.1929C 68.8232 10.1929 68.9982 10.2539 69.1284 10.376C 69.2586 10.498 69.3237 10.6689 69.3237 10.8887ZM 67.3462 21.5454C 67.3462 21.7896 67.3218 21.9645 67.2729 22.0703C 66.8742 22.8841 66.2394 23.5433 65.3687 24.0479C 64.4979 24.5443 63.741 24.7925 63.0981 24.7925C 62.4552 24.7925 61.9019 24.5768 61.438 24.1455C 60.9741 23.7142 60.7422 23.2747 60.7422 22.8271C 60.7422 22.3796 60.966 21.7285 61.4136 20.874C 61.8612 20.0195 62.3088 19.2301 62.7563 18.5059C 63.2039 17.7816 63.4277 17.391 63.4277 17.334C 63.4277 17.2689 63.3423 17.1468 63.1714 16.9678C 63.0086 16.7887 62.9272 16.6585 62.9272 16.5771C 62.9272 16.4876 63.0941 16.2638 63.4277 15.9058C 63.7695 15.5396 64.1805 15.1815 64.6606 14.8315C 65.1489 14.4735 65.5192 14.2944 65.7715 14.2944C 66.0319 14.2944 66.2638 14.4084 66.4673 14.6362C 66.6707 14.8641 66.7725 15.0716 66.7725 15.2588C 66.7725 15.446 65.804 17.2078 63.8672 20.5444C 63.8428 20.5933 63.7736 20.7031 63.6597 20.874C 63.5539 21.0368 63.4684 21.1751 63.4033 21.2891C 63.3464 21.3949 63.2772 21.5251 63.1958 21.6797C 63.033 22.0052 62.9517 22.2778 62.9517 22.4976C 62.9517 22.7743 63.1388 22.9126 63.5132 22.9126C 63.8875 22.9126 64.2741 22.7865 64.6729 22.5342C 65.0798 22.2738 65.4297 21.9889 65.7227 21.6797C 66.4876 20.8577 66.923 20.4468 67.0288 20.4468C 67.2404 20.4468 67.3462 20.813 67.3462 21.5454ZM 74.7437 14.9902C 74.9878 14.9902 75.236 15.1001 75.4883 15.3198C 75.7487 15.5396 75.8789 15.8773 75.8789 16.333C 75.8789 16.7806 75.7202 17.3665 75.4028 18.0908C 75.0854 18.807 74.6501 19.5394 74.0967 20.2881C 73.5433 21.0286 72.9329 21.7285 72.2656 22.3877C 71.6064 23.0387 70.8903 23.5758 70.1172 23.999C 69.3522 24.4141 68.6564 24.6216 68.0298 24.6216C 67.4032 24.6216 66.8986 24.4263 66.5161 24.0356C 66.1418 23.6369 65.9546 23.0876 65.9546 22.3877C 65.9546 21.6797 66.1255 20.8984 66.4673 20.0439C 66.8172 19.1895 67.2648 18.4367 67.8101 17.7856C 68.3553 17.1265 68.9453 16.5365 69.5801 16.0156C 70.9066 14.9495 72.0703 14.4165 73.0713 14.4165C 73.5189 14.4165 73.8566 14.5264 74.0845 14.7461C 74.1659 14.8193 74.2065 14.8844 74.2065 14.9414L 74.2065 15.0146C 74.3205 14.9984 74.4995 14.9902 74.7437 14.9902ZM 73.5107 16.6138L 73.4253 16.6138C 73.1405 16.6138 72.998 16.4062 72.998 15.9912C 72.404 16.1865 71.7814 16.5283 71.1304 17.0166C 70.4793 17.5049 69.8975 18.0827 69.3848 18.75C 68.3431 20.0846 67.8141 21.2118 67.7979 22.1313C 67.7979 22.5871 67.9647 22.8149 68.2983 22.8149C 68.632 22.8149 69.1284 22.5952 69.7876 22.1558C 70.4468 21.7163 71.0978 21.0897 71.7407 20.2759C 72.3918 19.4621 72.876 18.7581 73.1934 18.1641C 73.5189 17.5618 73.6816 17.1549 73.6816 16.9434C 73.6816 16.7236 73.6247 16.6138 73.5107 16.6138ZM 81.9824 22.4121C 81.9824 22.7702 82.2266 22.9492 82.7148 22.9492C 82.9753 22.9492 83.3008 22.819 83.6914 22.5586C 84.0902 22.2982 84.4482 22.0133 84.7656 21.7041C 85.612 20.8659 86.0921 20.4468 86.2061 20.4468C 86.4176 20.4468 86.5234 20.752 86.5234 21.3623C 86.5234 21.9727 86.3322 22.3918 85.9497 22.6196C 84.786 23.6694 83.8867 24.3083 83.252 24.5361C 82.8939 24.6582 82.4992 24.7152 82.0679 24.707C 81.6366 24.6989 81.2093 24.5117 80.7861 24.1455C 80.363 23.7793 80.1514 23.3358 80.1514 22.8149C 80.1514 22.286 80.2897 21.6878 80.5664 21.0205C 80.8431 20.3532 81.1239 19.7835 81.4087 19.3115C 81.7017 18.8314 82.0597 18.278 82.4829 17.6514C 82.9061 17.0166 83.1299 16.6219 83.1543 16.4673L 83.1299 16.4429C 82.8613 16.4673 82.194 16.9963 81.1279 18.0298C 80.07 19.0633 79.1951 19.9626 78.5034 20.7275C 77.8117 21.4925 76.9857 22.5138 76.0254 23.7915C 75.7568 24.1414 75.5371 24.3164 75.3662 24.3164C 75.1953 24.3164 74.9674 24.2635 74.6826 24.1577C 74.3896 24.0438 74.2106 23.9624 74.1455 23.9136C 74.0804 23.8647 74.0479 23.7915 74.0479 23.6938C 74.0479 23.5962 74.0763 23.4782 74.1333 23.3398C 74.1903 23.1934 74.2472 23.0754 74.3042 22.9858C 74.353 22.8882 74.4385 22.7417 74.5605 22.5464C 74.6826 22.3511 74.9227 21.9401 75.2808 21.3135C 75.647 20.6787 76.2044 19.7347 76.9531 18.4814C 77.7018 17.2282 78.1494 16.4714 78.2959 16.2109C 78.6051 15.6738 78.8574 15.2832 79.0527 15.0391C 79.4189 14.5752 80.0374 14.3433 80.9082 14.3433C 81.1035 14.3433 81.2012 14.4653 81.2012 14.7095C 81.2012 15.092 80.8472 15.8122 80.1392 16.8701L 79.6265 17.6392C 81.0343 16.0767 82.2225 15.0879 83.1909 14.6729C 83.6629 14.4694 84.0861 14.3677 84.4604 14.3677C 84.8429 14.3677 85.144 14.4694 85.3638 14.6729C 85.5916 14.8763 85.7056 15.1042 85.7056 15.3564C 85.7056 15.6006 85.6201 15.8976 85.4492 16.2476C 85.2783 16.5894 85.1034 16.8986 84.9243 17.1753C 84.7534 17.4438 84.5256 17.7856 84.2407 18.2007C 83.9559 18.6157 83.8013 18.8436 83.7769 18.8843C 83.7524 18.9168 83.6873 19.0145 83.5815 19.1772C 83.4839 19.3319 83.4106 19.4458 83.3618 19.519C 83.313 19.5923 83.2316 19.7225 83.1177 19.9097C 83.0037 20.0887 82.9102 20.2393 82.8369 20.3613C 82.7718 20.4834 82.6864 20.634 82.5806 20.813C 82.4829 20.992 82.4015 21.1466 82.3364 21.2769C 82.2795 21.4071 82.2184 21.5495 82.1533 21.7041C 82.0394 21.9889 81.9824 22.2249 81.9824 22.4121Z"/>
<path id="path3_fill" d="M 18.7891 38.8477C 18.8737 38.6784 18.8314 38.4456 18.6621 38.1494C 18.5352 37.8532 18.4082 37.7051 18.2812 37.7051C 18.0273 37.6204 17.4984 37.7474 16.6943 38.0859C 15.8903 38.4245 14.9382 38.8688 13.8379 39.4189C 12.7376 39.9268 11.5527 40.498 10.2832 41.1328C 9.05599 41.7676 7.87109 42.3812 6.72852 42.9736C 5.58594 43.5238 4.54915 43.9893 3.61816 44.3701C 2.72949 44.751 2.07357 44.9414 1.65039 44.9414C 1.05794 44.9414 0.698242 44.8145 0.571289 44.5605C 0.486654 44.2643 0.444336 43.9046 0.444336 43.4814C 0.444336 43.0583 0.528971 42.6774 0.698242 42.3389C 0.867513 41.958 1.05794 41.5983 1.26953 41.2598C 1.48112 40.9212 1.71387 40.6038 1.96777 40.3076C 2.264 40.0114 2.5179 39.694 2.72949 39.3555C 2.94108 38.9746 3.2373 38.4456 3.61816 37.7686C 4.04134 37.0915 4.46452 36.4144 4.8877 35.7373C 5.31087 35.0179 5.69173 34.3831 6.03027 33.833C 6.36882 33.2406 6.55924 32.8809 6.60156 32.7539C 6.72852 32.5 6.96126 32.0133 7.2998 31.2939C 7.68066 30.5322 8.10384 29.6436 8.56934 28.6279C 9.03483 27.57 9.54264 26.4486 10.0928 25.2637C 10.6852 24.0788 11.2354 22.915 11.7432 21.7725C 12.2933 20.5876 12.8011 19.5085 13.2666 18.5352C 13.7321 17.5195 14.0918 16.7155 14.3457 16.123C 14.5573 15.6576 14.7266 15.1709 14.8535 14.6631C 15.0228 14.113 15.2132 13.6263 15.4248 13.2031C 15.6364 12.7376 15.9115 12.3568 16.25 12.0605C 16.6309 11.7643 17.1175 11.6162 17.71 11.6162C 17.7946 11.6162 17.985 11.6374 18.2812 11.6797C 18.5775 11.6797 18.7467 11.6797 18.7891 11.6797C 19.4661 12.526 20.1009 13.3936 20.6934 14.2822C 21.2858 15.1709 21.8148 16.1019 22.2803 17.0752C 22.7458 18.0485 23.1055 19.0641 23.3594 20.1221C 23.6556 21.1377 23.8037 22.1745 23.8037 23.2324C 23.8037 23.9941 23.7191 24.6924 23.5498 25.3271C 23.4229 25.9619 23.2747 26.5967 23.1055 27.2314L 22.5342 29.1357C 22.3226 29.7282 22.1956 30.363 22.1533 31.04C 22.0264 32.1826 21.9206 33.2617 21.8359 34.2773C 21.7936 35.293 21.7301 36.2874 21.6455 37.2607C 21.6032 38.2341 21.582 39.2285 21.582 40.2441C 21.582 41.2174 21.582 42.2331 21.582 43.291L 21.582 45.8301C 21.582 46.5072 21.6032 47.1842 21.6455 47.8613C 21.6878 48.4961 21.7301 49.1943 21.7725 49.9561C 21.8571 50.6755 21.9841 51.5853 22.1533 52.6855C 22.238 53.278 22.3649 53.8493 22.5342 54.3994C 22.7458 54.9495 22.9574 55.5208 23.1689 56.1133C 23.3805 56.6634 23.571 57.2135 23.7402 57.7637C 23.9095 58.3138 23.9941 58.8639 23.9941 59.4141C 23.1055 59.4141 22.3649 59.0332 21.7725 58.2715C 21.2223 57.5098 20.7568 56.6211 20.376 55.6055C 20.0374 54.5898 19.7835 53.5531 19.6143 52.4951C 19.4873 51.3949 19.4027 50.5273 19.3604 49.8926C 19.318 49.4694 19.2546 48.7288 19.1699 47.6709C 19.1276 46.613 19.0641 45.5127 18.9795 44.3701C 18.9372 43.1852 18.8949 42.0638 18.8525 41.0059C 18.8102 39.9479 18.7891 39.2285 18.7891 38.8477ZM 5.52246 39.8633L 6.09375 39.8633C 6.13607 39.8633 6.49577 39.7363 7.17285 39.4824C 7.84993 39.2285 8.65397 38.9323 9.58496 38.5938C 10.516 38.2552 11.4681 37.8955 12.4414 37.5146C 13.457 37.1338 14.2822 36.8164 14.917 36.5625C 15.2979 36.4355 15.6787 36.2663 16.0596 36.0547C 16.4827 35.8008 16.8636 35.5257 17.2021 35.2295C 17.5407 34.9333 17.8158 34.5947 18.0273 34.2139C 18.2389 33.7907 18.3447 33.3464 18.3447 32.8809C 18.3447 32.7116 18.3236 32.4788 18.2812 32.1826C 18.2812 31.8441 18.2812 31.6536 18.2812 31.6113C 18.2389 31.3574 18.1966 30.9554 18.1543 30.4053C 18.112 29.8128 18.0697 29.2415 18.0273 28.6914C 17.985 28.099 17.9216 27.5488 17.8369 27.041C 17.7946 26.5332 17.7523 26.2158 17.71 26.0889C 17.6253 25.708 17.5195 25.2002 17.3926 24.5654C 17.3079 23.9307 17.2021 23.3382 17.0752 22.7881C 16.9906 22.1956 16.8848 21.6878 16.7578 21.2646C 16.6732 20.7992 16.6309 20.5664 16.6309 20.5664L 16.0596 19.9951C 15.9749 20.0374 15.848 20.1644 15.6787 20.376C 15.5518 20.5876 15.3825 20.8203 15.1709 21.0742C 15.0016 21.2858 14.8324 21.5186 14.6631 21.7725C 14.5361 21.984 14.4303 22.1322 14.3457 22.2168C 14.2611 22.3861 14.0918 22.7458 13.8379 23.2959C 13.584 23.8037 13.2878 24.4173 12.9492 25.1367C 12.6107 25.8561 12.251 26.6178 11.8701 27.4219C 11.4893 28.2259 11.1296 29.0088 10.791 29.7705C 10.4948 30.4899 10.2197 31.1247 9.96582 31.6748C 9.71191 32.2249 9.52148 32.5846 9.39453 32.7539C 9.26758 33.0078 9.01367 33.4521 8.63281 34.0869C 8.25195 34.7217 7.84993 35.3988 7.42676 36.1182C 7.0459 36.7952 6.66504 37.4512 6.28418 38.0859C 5.94564 38.7207 5.69173 39.1439 5.52246 39.3555L 5.52246 39.8633ZM 19.8682 21.2012C 19.8682 21.582 19.847 22.111 19.8047 22.7881C 19.7624 23.4652 19.7412 24.1634 19.7412 24.8828C 19.7835 25.5599 19.8893 26.1735 20.0586 26.7236C 20.2279 27.2738 20.5452 27.5911 21.0107 27.6758C 21.3493 27.2103 21.6243 26.639 21.8359 25.9619C 22.0475 25.2848 22.1533 24.6712 22.1533 24.1211L 22.1533 23.8672C 22.111 23.6556 22.0264 23.3382 21.8994 22.915C 21.8148 22.4495 21.709 21.984 21.582 21.5186C 21.4551 21.0107 21.3281 20.5664 21.2012 20.1855C 21.0742 19.8047 21.0107 19.5508 21.0107 19.4238C 20.9684 19.2969 20.8838 19.1064 20.7568 18.8525C 20.6299 18.5986 20.5241 18.4082 20.4395 18.2812C 20.0586 18.6621 19.8682 19.1488 19.8682 19.7412L 19.8682 21.2012ZM 38.2129 52.0508C 38.2129 51.9238 38.234 51.6699 38.2764 51.2891C 38.3187 50.8659 38.361 50.4215 38.4033 49.9561C 38.488 49.4906 38.5514 49.0462 38.5938 48.623C 38.6784 48.1576 38.7419 47.819 38.7842 47.6074L 44.8779 19.9951L 44.8779 17.9004C 43.7777 17.9004 42.7197 17.9427 41.7041 18.0273C 40.7308 18.112 39.7575 18.2601 38.7842 18.4717C 37.8109 18.641 36.8164 18.8525 35.8008 19.1064C 34.8275 19.3604 33.7907 19.6566 32.6904 19.9951C 31.8018 20.249 30.9342 20.5876 30.0879 21.0107C 29.2415 21.4339 28.3529 21.6455 27.4219 21.6455C 26.9564 21.6455 26.5967 21.582 26.3428 21.4551C 26.0889 21.2858 25.9619 20.9896 25.9619 20.5664C 25.9619 20.0586 26.4486 19.5508 27.4219 19.043C 28.3952 18.5352 29.6224 18.0485 31.1035 17.583C 32.627 17.1175 34.2773 16.6943 36.0547 16.3135C 37.832 15.8903 39.5459 15.5518 41.1963 15.2979C 42.8467 15.0016 44.3278 14.7689 45.6396 14.5996C 46.9515 14.388 47.8402 14.2822 48.3057 14.2822C 48.3057 15.8057 48.1364 17.2656 47.7979 18.6621C 47.4593 20.0163 47.0361 21.3704 46.5283 22.7246L 40.4346 51.543C 40.4346 51.5853 40.4346 51.7969 40.4346 52.1777C 40.4769 52.5586 40.5192 53.0241 40.5615 53.5742C 40.6462 54.1243 40.7308 54.6745 40.8154 55.2246C 40.9001 55.7747 40.9635 56.2191 41.0059 56.5576C 41.0059 56.5999 41.027 56.748 41.0693 57.002C 41.154 57.2135 41.2174 57.4463 41.2598 57.7002C 41.3444 57.9118 41.4079 58.1234 41.4502 58.335C 41.5348 58.5465 41.5771 58.6947 41.5771 58.7793C 41.5771 59.0755 41.4079 59.2448 41.0693 59.2871C 40.7731 59.3294 40.5404 59.3506 40.3711 59.3506C 40.0749 59.3506 39.821 59.2025 39.6094 58.9062C 39.4401 58.61 39.292 58.2715 39.165 57.8906C 39.0804 57.5098 38.9958 57.1289 38.9111 56.748C 38.8688 56.3672 38.8265 56.1133 38.7842 55.9863C 38.7419 55.7324 38.6784 55.415 38.5938 55.0342C 38.5514 54.611 38.488 54.1878 38.4033 53.7646C 38.361 53.3415 38.3187 52.9818 38.2764 52.6855C 38.234 52.347 38.2129 52.1354 38.2129 52.0508ZM 56.4941 42.1484L 55.9229 39.8633L 54.7803 40.498L 48.1787 47.0996C 48.1364 47.1419 47.9883 47.0996 47.7344 46.9727C 47.4382 46.8034 47.2266 46.6764 47.0996 46.5918C 47.015 46.5072 46.9092 46.4014 46.7822 46.2744C 46.613 46.1051 46.5283 45.9993 46.5283 45.957L 46.5283 45.7031C 46.5283 45.4492 46.7188 45.0472 47.0996 44.4971C 47.4382 43.9469 47.9036 43.3333 48.4961 42.6562C 49.0885 41.9792 49.7445 41.2809 50.4639 40.5615C 51.2256 39.7998 51.9661 39.1439 52.6855 38.5938C 53.4473 38.0013 54.1667 37.5146 54.8438 37.1338C 55.5208 36.7529 56.0921 36.5625 56.5576 36.5625C 57.3617 36.5625 57.9541 36.9434 58.335 37.7051C 58.7581 38.4245 59.0332 39.292 59.1602 40.3076C 59.3294 41.2809 59.3929 42.2754 59.3506 43.291C 59.3083 44.2643 59.2871 44.9837 59.2871 45.4492C 59.4141 45.2376 59.6891 44.8779 60.1123 44.3701C 60.5355 43.82 60.9798 43.2487 61.4453 42.6562C 61.9108 42.0215 62.3551 41.4502 62.7783 40.9424C 63.2015 40.4346 63.4977 40.0749 63.667 39.8633C 63.7939 39.7363 64.069 39.4401 64.4922 38.9746C 64.9577 38.4668 65.4443 37.959 65.9521 37.4512C 66.5023 36.901 67.0736 36.4355 67.666 36.0547C 68.2585 35.6315 68.7663 35.4199 69.1895 35.4199C 69.9512 35.4199 70.5013 35.6527 70.8398 36.1182C 71.1784 36.5413 71.39 37.0703 71.4746 37.7051C 71.6016 38.3398 71.6439 39.0169 71.6016 39.7363C 71.5592 40.4134 71.5381 40.9847 71.5381 41.4502C 71.5381 43.0583 71.4323 44.6452 71.2207 46.2109C 71.0091 47.7767 70.9033 49.3848 70.9033 51.0352L 70.9033 51.543C 71.792 50.5273 72.5537 49.4059 73.1885 48.1787C 73.8656 46.9515 74.5426 45.7454 75.2197 44.5605C 75.8968 43.3333 76.6162 42.1696 77.3779 41.0693C 78.182 39.9691 79.1553 39.0381 80.2979 38.2764C 80.3825 38.2341 80.5094 38.2129 80.6787 38.2129C 80.8903 38.1706 81.0384 38.1494 81.123 38.1494C 81.5885 38.1494 81.9271 38.2975 82.1387 38.5938C 82.3926 38.8477 82.5407 39.1862 82.583 39.6094C 82.6676 39.9902 82.6888 40.3923 82.6465 40.8154C 82.6042 41.2386 82.583 41.5983 82.583 41.8945C 82.583 43.7142 82.4772 45.5127 82.2656 47.29C 82.054 49.0251 81.9482 50.8024 81.9482 52.6221C 81.9482 53.5954 82.1598 54.2301 82.583 54.5264C 83.0485 54.8226 83.7679 54.9707 84.7412 54.9707C 85.2067 54.9707 85.6087 54.9072 85.9473 54.7803C 86.3281 54.611 86.6878 54.4417 87.0264 54.2725C 87.3649 54.0609 87.7035 53.8916 88.042 53.7646C 88.4229 53.5954 88.8249 53.5107 89.248 53.5107C 89.248 54.1455 89.0788 54.738 88.7402 55.2881C 88.4017 55.7959 87.9785 56.2402 87.4707 56.6211C 86.9629 56.9596 86.3916 57.2347 85.7568 57.4463C 85.1221 57.6156 84.5296 57.7002 83.9795 57.7002C 83.514 57.7002 83.0273 57.6367 82.5195 57.5098C 82.054 57.3828 81.6097 57.1924 81.1865 56.9385C 80.8057 56.6423 80.4671 56.2826 80.1709 55.8594C 79.917 55.4362 79.79 54.9284 79.79 54.3359L 79.79 42.1484C 79.3245 42.487 78.7956 43.1006 78.2031 43.9893C 77.653 44.8779 77.0605 45.8936 76.4258 47.0361C 75.8333 48.1787 75.2197 49.3848 74.585 50.6543C 73.9925 51.9238 73.4001 53.0664 72.8076 54.082C 72.2152 55.0977 71.6439 55.9652 71.0938 56.6846C 70.5436 57.3617 70.0358 57.7002 69.5703 57.7002C 69.1048 57.7002 68.7663 57.4886 68.5547 57.0654C 68.3431 56.6423 68.195 56.1768 68.1104 55.6689C 68.068 55.1188 68.0469 54.611 68.0469 54.1455C 68.0469 53.68 68.0469 53.3626 68.0469 53.1934C 68.0469 52.1777 68.1104 51.1621 68.2373 50.1465C 68.3643 49.1309 68.5124 48.1152 68.6816 47.0996C 68.8509 46.0417 68.999 45.0049 69.126 43.9893C 69.2529 42.9736 69.3164 41.958 69.3164 40.9424C 69.3164 40.8154 69.3164 40.625 69.3164 40.3711C 69.3164 40.1172 69.2741 39.8844 69.1895 39.6729C 69.1471 39.4189 69.0625 39.2074 68.9355 39.0381C 68.8086 38.8265 68.6393 38.7207 68.4277 38.7207C 68.3854 38.7207 68.3431 38.7419 68.3008 38.7842C 68.3008 38.7842 68.2796 38.7842 68.2373 38.7842C 68.2373 38.8265 68.195 38.8477 68.1104 38.8477C 68.068 38.8477 67.9834 38.9111 67.8564 39.0381C 67.7295 39.165 67.6449 39.2708 67.6025 39.3555C 67.137 39.9479 66.5234 40.7096 65.7617 41.6406C 65 42.5716 64.2594 43.4814 63.54 44.3701C 62.8206 45.2588 62.207 46.0205 61.6992 46.6553C 61.1914 47.29 60.9163 47.6074 60.874 47.6074C 60.7471 47.8613 60.5143 48.4749 60.1758 49.4482C 59.8796 50.4215 59.541 51.4795 59.1602 52.6221C 58.8216 53.7223 58.5042 54.7803 58.208 55.7959C 57.9118 56.7692 57.7002 57.3828 57.5732 57.6367C 57.3617 58.3138 57.0866 58.7793 56.748 59.0332C 56.4095 59.2871 55.9017 59.4141 55.2246 59.4141C 55.2246 57.9753 55.2881 56.5576 55.415 55.1611C 55.542 53.7646 55.6901 52.3682 55.8594 50.9717C 56.0286 49.5329 56.1768 48.1152 56.3037 46.7188C 56.4307 45.2799 56.4941 43.82 56.4941 42.3389L 56.4941 42.1484Z"/>
</defs>
</svg>
