<svg width="200" height="200" viewBox="0 0 200 200" version="1.1" xmlns="http://www.w3.org/2000/svg" xmlns:xlink="http://www.w3.org/1999/xlink" xmlns:figma="http://www.figma.com/figma/ns">
<title>Group</title>
<desc>Created using Figma</desc>
<g id="Canvas" transform="translate(152 -250)" figma:type="canvas">
<g id="Group" style="mix-blend-mode:normal;" figma:type="frame">
<g id="Ellipse" style="mix-blend-mode:normal;" figma:type="ellipse">
<use xlink:href="#path0_fill" transform="translate(-122 280)" fill="#B21C0E" style="mix-blend-mode:normal;"/>
</g>
<g id="Ellipse 2" style="mix-blend-mode:normal;" figma:type="ellipse">
<use xlink:href="#path1_fill" transform="translate(-152 250)" fill="#000000" fill-opacity="0.7" style="mix-blend-mode:normal;"/>
</g>
<g id="Capital" style="mix-blend-mode:normal;" figma:type="text">
<use xlink:href="#path2_fill" transform="translate(-84 363)" fill="#FFFFFF" style="mix-blend-mode:normal;"/>
</g>
<g id="Madrid" style="mix-blend-mode:normal;" figma:type="text">
<use xlink:href="#path3_fill" transform="translate(-110 304)" fill="#FFFFFF" style="mix-blend-mode:normal;"/>
</g>
</g>
</g>
<defs>
<path id="path0_fill" d="M 140 70C 140 108.66 108.66 140 70 140C 31.3401 140 0 108.66 0 70C 0 31.3401 31.3401 0 70 0C 108.66 0 140 31.3401 140 70Z"/>
<path id="path1_fill" d="M 200 100C 200 155.228 155.228 200 100 200C 44.7715 200 0 155.228 0 100C 0 44.7715 44.7715 0 100 0C 155.228 0 200 44.7715 200 100Z"/>
<path id="path2_fill" d="M 14.1357 17.1753C 14.3311 17.1753 14.4287 17.334 14.4287 17.6514C 14.4287 17.9606 14.3595 18.4977 14.2212 19.2627C 14.1154 19.7754 13.5295 20.5078 12.4634 21.46C 11.1776 22.5993 9.76562 23.4131 8.22754 23.9014C 7.2998 24.1943 6.39242 24.3408 5.50537 24.3408C 4.62646 24.3408 3.8208 23.9705 3.08838 23.23C 2.3641 22.4813 2.00195 21.5983 2.00195 20.5811C 2.00195 19.5557 2.2054 18.4977 2.6123 17.4072C 3.02734 16.3086 3.58073 15.2629 4.27246 14.27C 4.97233 13.269 5.79427 12.3088 6.73828 11.3892C 7.69043 10.4696 8.6792 9.67204 9.70459 8.99658C 10.73 8.32113 11.8042 7.78402 12.9272 7.38525C 14.0503 6.98649 15.1164 6.78711 16.1255 6.78711C 16.923 6.78711 17.6025 7.07601 18.1641 7.65381C 18.457 7.96305 18.6035 8.35368 18.6035 8.82568C 18.6035 9.28955 18.3757 9.87956 17.9199 10.5957C 17.4642 11.3037 16.923 11.9507 16.2964 12.5366C 15.6779 13.1226 15.035 13.619 14.3677 14.0259C 13.7085 14.4328 13.1795 14.6362 12.7808 14.6362C 12.382 14.6362 12.0402 14.5142 11.7554 14.27C 11.4705 14.0177 11.3281 13.7939 11.3281 13.5986C 11.3281 13.4033 11.3688 13.1877 11.4502 12.9517C 11.5397 12.7157 11.6496 12.5977 11.7798 12.5977C 11.7472 12.6383 11.731 12.679 11.731 12.7197C 11.731 12.8174 11.8693 12.8662 12.146 12.8662C 12.4308 12.8662 12.9028 12.618 13.562 12.1216C 14.2212 11.6252 14.8153 11.0677 15.3442 10.4492C 15.8813 9.83073 16.1499 9.36686 16.1499 9.05762C 16.1499 8.84603 16.0075 8.74023 15.7227 8.74023C 14.9577 8.74023 13.8997 9.09831 12.5488 9.81445C 11.2061 10.5225 9.92025 11.438 8.69141 12.561C 7.46256 13.6841 6.39242 15.0187 5.48096 16.5649C 4.57764 18.103 4.12598 19.4865 4.12598 20.7153C 4.12598 21.228 4.26025 21.639 4.52881 21.9482C 4.8055 22.2575 5.22461 22.4121 5.78613 22.4121C 6.35579 22.4121 7.02718 22.2493 7.80029 21.9238C 8.5734 21.5983 9.30583 21.1995 9.99756 20.7275C 10.6974 20.2555 11.3566 19.7713 11.9751 19.2749C 12.5936 18.7785 13.0859 18.3431 13.4521 17.9688C 13.8265 17.5944 14.0177 17.3706 14.0259 17.2974C 14.034 17.216 14.0706 17.1753 14.1357 17.1753ZM 24.2798 15.0146C 24.8983 15.0146 25.2075 15.2262 25.2075 15.6494C 25.2075 15.8773 25.1546 16.0441 25.0488 16.1499C 24.943 16.2557 24.7152 16.6097 24.3652 17.2119C 24.0234 17.806 23.641 18.571 23.2178 19.5068C 22.8027 20.4346 22.5342 21.228 22.4121 21.8872C 22.3877 21.9686 22.3755 22.0825 22.3755 22.229C 22.3755 22.6766 22.4976 22.9004 22.7417 22.9004C 22.9858 22.9004 23.2747 22.7865 23.6084 22.5586C 23.9421 22.3226 24.2391 22.0744 24.4995 21.814C 24.7599 21.5454 25.0122 21.2728 25.2563 20.9961C 25.5086 20.7194 25.6592 20.5607 25.708 20.52C 25.7568 20.4793 25.8301 20.459 25.9277 20.459C 26.0824 20.459 26.1759 20.577 26.2085 20.813C 26.241 21.049 26.2573 21.2931 26.2573 21.5454C 26.2573 21.7977 26.2329 21.9727 26.1841 22.0703C 25.9481 22.5342 25.4272 23.0916 24.6216 23.7427C 23.8241 24.3937 23.0957 24.7192 22.4365 24.7192C 21.7855 24.7192 21.3053 24.5199 20.9961 24.1211C 20.6868 23.7223 20.5322 23.2829 20.5322 22.8027C 20.5322 22.3145 20.6136 21.8872 20.7764 21.521C 20.1009 22.3999 19.3237 23.1445 18.4448 23.7549C 17.5741 24.3652 16.862 24.6704 16.3086 24.6704C 15.7552 24.6704 15.3035 24.5036 14.9536 24.1699C 14.506 23.7549 14.2822 23.1812 14.2822 22.4487C 14.2822 21.7082 14.445 20.9676 14.7705 20.2271C 15.1042 19.4784 15.5396 18.7988 16.0767 18.1885C 16.6138 17.57 17.2038 17.0085 17.8467 16.5039C 19.1976 15.446 20.4427 14.917 21.582 14.917C 22.0215 14.917 22.3796 14.9902 22.6562 15.1367C 22.9329 15.2832 23.1079 15.4663 23.1812 15.686C 23.3765 15.3931 23.5392 15.21 23.6694 15.1367C 23.8078 15.0553 24.0112 15.0146 24.2798 15.0146ZM 22.6562 16.3696C 21.2646 16.3696 19.8242 17.1427 18.335 18.689C 17.806 19.2424 17.3177 19.9056 16.8701 20.6787C 16.4307 21.4518 16.2109 21.9808 16.2109 22.2656C 16.2109 22.5505 16.2923 22.6929 16.4551 22.6929C 16.6829 22.6929 17.3177 22.2453 18.3594 21.3501C 19.401 20.4468 20.0928 19.7835 20.4346 19.3604C 20.8089 18.8883 21.5495 17.8914 22.6562 16.3696ZM 31.9458 11.3037L 32.1655 11.2793C 32.2876 11.2793 32.3853 11.3851 32.4585 11.5967C 32.5317 11.8083 32.5684 11.9507 32.5684 12.0239C 32.5684 12.0972 32.487 12.2355 32.3242 12.439L 28.8452 17.7368C 30.0659 16.5161 31.307 15.625 32.5684 15.0635C 33.0566 14.8519 33.4961 14.7461 33.8867 14.7461C 34.2855 14.7461 34.6029 14.8763 34.8389 15.1367C 35.083 15.389 35.2051 15.7064 35.2051 16.0889C 35.2051 16.4714 35.0993 16.9434 34.8877 17.5049C 34.6761 18.0664 34.3872 18.6646 34.021 19.2993C 33.6629 19.9341 33.2235 20.5729 32.7026 21.2158C 32.1899 21.8587 31.6488 22.4406 31.0791 22.9614C 30.5176 23.4823 29.9032 23.9054 29.2358 24.231C 28.5685 24.5565 27.9826 24.7192 27.478 24.7192C 26.4608 24.7192 25.9521 24.2513 25.9521 23.3154C 25 24.7721 23.9014 26.4974 22.6562 28.4912C 21.4111 30.485 20.7438 31.5389 20.6543 31.6528C 20.5648 31.7668 20.4915 31.8237 20.4346 31.8237C 20.3695 31.8237 20.2759 31.7871 20.1538 31.7139C 20.0236 31.6406 19.8893 31.5186 19.751 31.3477C 19.6126 31.1768 19.5435 30.9285 19.5435 30.603C 19.5353 30.2775 19.6289 29.9479 19.8242 29.6143C 20.9229 27.7832 23.0387 24.3408 26.1719 19.2871C 29.3132 14.2253 31.014 11.6089 31.2744 11.438C 31.4209 11.3403 31.5674 11.2915 31.7139 11.2915L 31.9458 11.3037ZM 33.02 16.9189C 33.02 16.748 32.9386 16.6626 32.7759 16.6626C 32.3364 16.6626 31.4046 17.3381 29.9805 18.689C 28.5645 20.0399 27.4373 21.2728 26.5991 22.3877C 26.8107 22.6481 27.124 22.7783 27.5391 22.7783C 27.9541 22.7783 28.4912 22.5545 29.1504 22.1069C 29.8096 21.6593 30.4199 21.1304 30.9814 20.52C 31.543 19.9015 32.0231 19.2546 32.4219 18.5791C 32.8206 17.9036 33.02 17.3503 33.02 16.9189ZM 42.8833 10.8887C 42.8833 11.3525 42.6676 11.8205 42.2363 12.2925C 41.805 12.7563 41.3534 12.9883 40.8813 12.9883C 40.4175 12.9883 40.1855 12.7441 40.1855 12.2559C 40.1855 11.7676 40.389 11.3037 40.7959 10.8643C 41.2109 10.4167 41.6667 10.1929 42.1631 10.1929C 42.3828 10.1929 42.5578 10.2539 42.688 10.376C 42.8182 10.498 42.8833 10.6689 42.8833 10.8887ZM 40.9058 21.5454C 40.9058 21.7896 40.8813 21.9645 40.8325 22.0703C 40.4338 22.8841 39.799 23.5433 38.9282 24.0479C 38.0575 24.5443 37.3006 24.7925 36.6577 24.7925C 36.0148 24.7925 35.4614 24.5768 34.9976 24.1455C 34.5337 23.7142 34.3018 23.2747 34.3018 22.8271C 34.3018 22.3796 34.5256 21.7285 34.9731 20.874C 35.4207 20.0195 35.8683 19.2301 36.3159 18.5059C 36.7635 17.7816 36.9873 17.391 36.9873 17.334C 36.9873 17.2689 36.9019 17.1468 36.731 16.9678C 36.5682 16.7887 36.4868 16.6585 36.4868 16.5771C 36.4868 16.4876 36.6536 16.2638 36.9873 15.9058C 37.3291 15.5396 37.7401 15.1815 38.2202 14.8315C 38.7085 14.4735 39.0788 14.2944 39.3311 14.2944C 39.5915 14.2944 39.8234 14.4084 40.0269 14.6362C 40.2303 14.8641 40.332 15.0716 40.332 15.2588C 40.332 15.446 39.3636 17.2078 37.4268 20.5444C 37.4023 20.5933 37.3332 20.7031 37.2192 20.874C 37.1134 21.0368 37.028 21.1751 36.9629 21.2891C 36.9059 21.3949 36.8368 21.5251 36.7554 21.6797C 36.5926 22.0052 36.5112 22.2778 36.5112 22.4976C 36.5112 22.7743 36.6984 22.9126 37.0728 22.9126C 37.4471 22.9126 37.8337 22.7865 38.2324 22.5342C 38.6393 22.2738 38.9893 21.9889 39.2822 21.6797C 40.0472 20.8577 40.4826 20.4468 40.5884 20.4468C 40.8 20.4468 40.9058 20.813 40.9058 21.5454ZM 48.4131 8.56934L 48.9136 8.69141C 48.9868 8.69141 49.0519 8.72803 49.1089 8.80127C 49.1659 8.87451 49.1943 8.94368 49.1943 9.00879C 49.1943 9.07389 49.1089 9.24886 48.938 9.53369C 48.7671 9.81852 48.5636 10.144 48.3276 10.5103C 48.0998 10.8683 47.9777 11.0636 47.9614 11.0962C 48.5962 11.0474 49.0438 11.0229 49.3042 11.0229C 49.5728 11.0229 49.7559 11.0433 49.8535 11.084C 49.9512 11.1165 50.061 11.2183 50.1831 11.3892C 50.3133 11.5519 50.4313 11.6781 50.5371 11.7676C 50.6429 11.849 50.6958 11.9751 50.6958 12.146C 50.6958 12.3169 50.59 12.4634 50.3784 12.5854C 50.175 12.6994 49.9552 12.7686 49.7192 12.793C 47.8312 12.9801 46.7896 13.0778 46.5942 13.0859C 45.9351 14.0951 45.0114 15.6698 43.8232 17.8101C 42.6432 19.9422 42.0166 21.2769 41.9434 21.814C 41.9108 22.0581 41.8945 22.2575 41.8945 22.4121C 41.8945 22.7295 42.0614 22.8882 42.395 22.8882C 42.7287 22.8882 43.099 22.762 43.5059 22.5098C 43.9128 22.2493 44.2871 21.9686 44.6289 21.6675C 45.5404 20.8537 46.0286 20.4468 46.0938 20.4468C 46.3053 20.4468 46.4111 20.813 46.4111 21.5454C 46.4111 21.9442 46.228 22.3022 45.8618 22.6196C 45.0399 23.3276 44.3481 23.8607 43.7866 24.2188C 43.2251 24.5768 42.6636 24.7559 42.1021 24.7559C 41.98 24.7559 41.866 24.7437 41.7603 24.7192C 41.1092 24.5972 40.6291 24.3612 40.3198 24.0112C 40.0187 23.6532 39.8682 23.173 39.8682 22.5708C 39.8763 21.9686 40.0553 21.2402 40.4053 20.3857C 40.7633 19.5231 41.2109 18.6076 41.748 17.6392C 42.627 16.0604 43.5059 14.5793 44.3848 13.1958L 43.9209 13.2568C 42.9769 13.3626 42.4276 13.4155 42.2729 13.4155L 42.1631 13.4155C 41.9271 13.4155 41.6992 13.3708 41.4795 13.2812C 41.2598 13.1836 41.1499 13.0656 41.1499 12.9272C 41.1499 12.7889 41.2069 12.6546 41.3208 12.5244C 41.4429 12.3942 41.5161 12.2925 41.5405 12.2192C 41.5975 12.0402 41.8091 11.8408 42.1753 11.6211C 42.5496 11.4014 42.8304 11.2874 43.0176 11.2793C 43.2048 11.263 43.3838 11.2508 43.5547 11.2427C 43.7337 11.2345 43.929 11.2264 44.1406 11.2183C 44.3604 11.2101 44.5272 11.202 44.6411 11.1938L 45.7397 11.145C 46.4233 10.1196 46.8913 9.46045 47.1436 9.16748C 47.404 8.87451 47.5545 8.71582 47.5952 8.69141C 47.6359 8.65885 47.7173 8.64258 47.8394 8.64258L 48.4131 8.56934ZM 54.6997 15.0146C 55.3182 15.0146 55.6274 15.2262 55.6274 15.6494C 55.6274 15.8773 55.5745 16.0441 55.4688 16.1499C 55.363 16.2557 55.1351 16.6097 54.7852 17.2119C 54.4434 17.806 54.0609 18.571 53.6377 19.5068C 53.2227 20.4346 52.9541 21.228 52.832 21.8872C 52.8076 21.9686 52.7954 22.0825 52.7954 22.229C 52.7954 22.6766 52.9175 22.9004 53.1616 22.9004C 53.4058 22.9004 53.6947 22.7865 54.0283 22.5586C 54.362 22.3226 54.659 22.0744 54.9194 21.814C 55.1799 21.5454 55.4321 21.2728 55.6763 20.9961C 55.9285 20.7194 56.0791 20.5607 56.1279 20.52C 56.1768 20.4793 56.25 20.459 56.3477 20.459C 56.5023 20.459 56.5959 20.577 56.6284 20.813C 56.661 21.049 56.6772 21.2931 56.6772 21.5454C 56.6772 21.7977 56.6528 21.9727 56.604 22.0703C 56.368 22.5342 55.8472 23.0916 55.0415 23.7427C 54.244 24.3937 53.5156 24.7192 52.8564 24.7192C 52.2054 24.7192 51.7253 24.5199 51.416 24.1211C 51.1068 23.7223 50.9521 23.2829 50.9521 22.8027C 50.9521 22.3145 51.0335 21.8872 51.1963 21.521C 50.5208 22.3999 49.7437 23.1445 48.8647 23.7549C 47.994 24.3652 47.2819 24.6704 46.7285 24.6704C 46.1751 24.6704 45.7235 24.5036 45.3735 24.1699C 44.9259 23.7549 44.7021 23.1812 44.7021 22.4487C 44.7021 21.7082 44.8649 20.9676 45.1904 20.2271C 45.5241 19.4784 45.9595 18.7988 46.4966 18.1885C 47.0337 17.57 47.6237 17.0085 48.2666 16.5039C 49.6175 15.446 50.8626 14.917 52.002 14.917C 52.4414 14.917 52.7995 14.9902 53.0762 15.1367C 53.3529 15.2832 53.5278 15.4663 53.6011 15.686C 53.7964 15.3931 53.9591 15.21 54.0894 15.1367C 54.2277 15.0553 54.4312 15.0146 54.6997 15.0146ZM 53.0762 16.3696C 51.6846 16.3696 50.2441 17.1427 48.7549 18.689C 48.2259 19.2424 47.7376 19.9056 47.29 20.6787C 46.8506 21.4518 46.6309 21.9808 46.6309 22.2656C 46.6309 22.5505 46.7122 22.6929 46.875 22.6929C 47.1029 22.6929 47.7376 22.2453 48.7793 21.3501C 49.821 20.4468 50.5127 19.7835 50.8545 19.3604C 51.2288 18.8883 51.9694 17.8914 53.0762 16.3696ZM 65.686 5.96924C 66.0767 5.96924 66.4185 6.08724 66.7114 6.32324C 67.0125 6.55111 67.1631 6.8929 67.1631 7.34863C 67.1631 7.80436 66.9108 8.52051 66.4062 9.49707C 65.9017 10.4655 65.2954 11.4583 64.5874 12.4756C 63.8794 13.4847 63.0778 14.5589 62.1826 15.6982C 60.7666 17.5049 59.4076 19.1284 58.1055 20.5688C 58.0973 20.6665 58.0607 20.8496 57.9956 21.1182C 57.9386 21.3786 57.9102 21.6431 57.9102 21.9116C 57.9102 22.1802 58.0322 22.4243 58.2764 22.644C 58.5286 22.8556 58.8379 22.9614 59.2041 22.9614C 59.5703 22.9614 59.9609 22.8312 60.376 22.5708C 60.7992 22.3104 61.1654 22.0215 61.4746 21.7041C 62.2884 20.8659 62.793 20.4468 62.9883 20.4468C 63.1836 20.4468 63.2812 20.7438 63.2812 21.3379L 63.2812 21.582C 63.2812 21.8994 63.2243 22.1313 63.1104 22.2778C 62.4268 23.116 61.6577 23.7427 60.8032 24.1577C 59.9487 24.5646 59.139 24.7681 58.374 24.7681C 57.609 24.7681 57.0272 24.5361 56.6284 24.0723C 56.2297 23.6003 56.0303 22.9574 56.0303 22.1436C 56.0303 20.5566 56.4535 18.693 57.2998 16.5527C 58.1543 14.4043 59.1146 12.5773 60.1807 11.0718C 62.5814 7.67009 64.4165 5.96924 65.686 5.96924ZM 65.1367 7.99561C 65.1367 7.87354 65.096 7.8125 65.0146 7.8125C 64.7298 7.8125 63.9811 8.6263 62.7686 10.2539C 61.556 11.8815 60.6771 13.1795 60.1318 14.1479C 59.5947 15.1164 59.0861 16.333 58.606 17.7979C 59.5662 16.6585 60.8927 14.8844 62.5854 12.4756C 64.2863 10.0586 65.1367 8.56527 65.1367 7.99561Z"/>
<path id="path3_fill" d="M 29.6387 27.998C 29.2806 28.1283 29.0365 28.3073 28.9062 28.5352C 28.8086 28.7305 28.6947 28.9909 28.5645 29.3164C 28.4993 29.4466 28.3691 29.7559 28.1738 30.2441C 27.9785 30.6999 27.7507 31.2533 27.4902 31.9043C 27.2298 32.5553 26.9368 33.2389 26.6113 33.9551C 26.3184 34.6712 26.0417 35.3548 25.7812 36.0059C 25.5208 36.6569 25.293 37.2266 25.0977 37.7148C 24.9023 38.2031 24.7721 38.5286 24.707 38.6914C 24.4792 39.2122 24.1862 39.8145 23.8281 40.498C 23.5026 41.1816 23.0957 41.8327 22.6074 42.4512C 22.1517 43.0697 21.6309 43.5905 21.0449 44.0137C 20.4915 44.4368 19.873 44.6484 19.1895 44.6484C 18.1152 44.6484 17.2526 44.2415 16.6016 43.4277C 15.9505 42.5814 15.446 41.5072 15.0879 40.2051C 14.7624 38.8704 14.5345 37.3893 14.4043 35.7617C 14.2741 34.1016 14.1602 32.4902 14.0625 30.9277C 13.9974 29.3652 13.916 27.9004 13.8184 26.5332C 13.7207 25.166 13.5254 24.0918 13.2324 23.3105C 13.1673 23.3105 13.1185 23.3105 13.0859 23.3105C 13.0534 23.3105 13.0208 23.3105 12.9883 23.3105C 12.9557 23.3105 12.9395 23.3105 12.9395 23.3105C 12.9395 23.3105 12.9232 23.3105 12.8906 23.3105L 12.793 23.3105C 12.4674 23.5059 12.1582 23.7988 11.8652 24.1895C 11.6048 24.5801 11.3607 25.0033 11.1328 25.459C 10.9049 25.8822 10.7096 26.2891 10.5469 26.6797C 10.4167 27.0703 10.319 27.3796 10.2539 27.6074L 4.6875 45.4785C 4.65495 45.5762 4.60612 45.7064 4.54102 45.8691C 4.47591 46.0319 4.37826 46.1947 4.24805 46.3574C 4.15039 46.4876 4.02018 46.6016 3.85742 46.6992C 3.72721 46.7969 3.58073 46.8132 3.41797 46.748C 3.32031 46.748 3.1901 46.6829 3.02734 46.5527C 2.89714 46.39 2.76693 46.2272 2.63672 46.0645C 2.50651 45.8691 2.39258 45.6901 2.29492 45.5273C 2.19727 45.332 2.13216 45.1855 2.09961 45.0879C 1.61133 41.8001 1.33464 38.4473 1.26953 35.0293C 1.20443 31.6113 1.20443 28.291 1.26953 25.0684C 1.23698 25.0033 1.1556 24.8568 1.02539 24.6289C 0.927734 24.401 0.878906 24.2546 0.878906 24.1895C 0.878906 23.9616 0.94401 23.7337 1.07422 23.5059C 1.23698 23.2454 1.41602 23.0013 1.61133 22.7734C 1.83919 22.5456 2.06706 22.3665 2.29492 22.2363C 2.55534 22.0736 2.7832 21.9922 2.97852 21.9922C 3.30404 21.9922 3.5319 22.0898 3.66211 22.2852C 3.79232 22.4479 3.85742 22.6921 3.85742 23.0176C 3.85742 24.7754 3.77604 26.5169 3.61328 28.2422C 3.45052 29.9674 3.36914 31.7253 3.36914 33.5156C 3.36914 33.7435 3.36914 34.069 3.36914 34.4922C 3.36914 34.9154 3.36914 35.3385 3.36914 35.7617C 3.40169 36.1523 3.41797 36.5104 3.41797 36.8359C 3.41797 37.1615 3.41797 37.3405 3.41797 37.373L 3.85742 39.1309C 3.88997 39.0658 3.95508 38.9844 4.05273 38.8867C 4.18294 38.7891 4.26432 38.724 4.29688 38.6914C 4.36198 38.5612 4.47591 38.3171 4.63867 37.959C 4.80143 37.6009 4.96419 37.2266 5.12695 36.8359C 5.32227 36.4128 5.5013 36.0221 5.66406 35.6641C 5.82682 35.2734 5.92448 34.9967 5.95703 34.834C 6.02214 34.6712 6.13607 34.3783 6.29883 33.9551C 6.46159 33.4993 6.6569 32.9622 6.88477 32.3438C 7.11263 31.6927 7.35677 31.0254 7.61719 30.3418C 7.91016 29.6582 8.17057 29.0072 8.39844 28.3887C 8.6263 27.7702 8.82161 27.2331 8.98438 26.7773C 9.17969 26.3216 9.3099 26.0124 9.375 25.8496C 9.50521 25.5892 9.70052 25.1335 9.96094 24.4824C 10.2539 23.7988 10.5957 23.1315 10.9863 22.4805C 11.4095 21.7969 11.849 21.1947 12.3047 20.6738C 12.793 20.153 13.2975 19.8926 13.8184 19.8926C 14.3066 19.8926 14.681 20.2181 14.9414 20.8691C 15.2018 21.5202 15.3971 22.3828 15.5273 23.457C 15.6901 24.4987 15.804 25.7031 15.8691 27.0703C 15.9342 28.4049 15.9831 29.7884 16.0156 31.2207C 16.0807 32.653 16.1621 34.0527 16.2598 35.4199C 16.39 36.7546 16.569 37.959 16.7969 39.0332C 17.0247 40.0749 17.334 40.9212 17.7246 41.5723C 18.1478 42.2233 18.7012 42.5488 19.3848 42.5488C 19.5801 42.5488 19.7917 42.4512 20.0195 42.2559C 20.2799 42.028 20.5241 41.7676 20.752 41.4746C 20.9798 41.1816 21.1751 40.8887 21.3379 40.5957C 21.5332 40.3027 21.6634 40.0749 21.7285 39.9121C 21.9564 39.4889 22.2819 38.8216 22.7051 37.9102C 23.1283 36.9987 23.6003 35.9733 24.1211 34.834C 24.6745 33.6947 25.2441 32.4902 25.8301 31.2207C 26.416 29.9512 26.9694 28.7467 27.4902 27.6074C 28.0111 26.4355 28.4831 25.3939 28.9062 24.4824C 29.3294 23.571 29.6387 22.8874 29.834 22.4316C 29.9967 22.041 30.2083 21.5039 30.4688 20.8203C 30.7617 20.1367 30.9733 19.5508 31.1035 19.0625C 31.4941 19.1276 31.8848 19.2415 32.2754 19.4043C 32.666 19.5671 32.8613 19.86 32.8613 20.2832C 32.8613 20.3483 32.8451 20.446 32.8125 20.5762C 32.8125 20.6738 32.8125 20.7389 32.8125 20.7715C 32.3568 23.4408 32.015 26.0449 31.7871 28.584C 31.5918 31.0905 31.4941 33.6784 31.4941 36.3477C 31.4941 36.5755 31.4941 36.9824 31.4941 37.5684C 31.4941 38.1217 31.4941 38.7402 31.4941 39.4238C 31.5267 40.0749 31.543 40.6934 31.543 41.2793C 31.543 41.8327 31.543 42.2396 31.543 42.5C 31.7057 43.8346 32.1777 45.0553 32.959 46.1621C 33.7402 47.2689 34.5378 48.3105 35.3516 49.2871L 35.3516 50.4102C 35.0586 50.4102 34.7005 50.2637 34.2773 49.9707C 33.8542 49.6452 33.431 49.2383 33.0078 48.75C 32.5846 48.2617 32.1615 47.7083 31.7383 47.0898C 31.3477 46.4714 30.9896 45.8691 30.6641 45.2832C 30.3711 44.6973 30.127 44.1602 29.9316 43.6719C 29.7363 43.1836 29.6387 42.793 29.6387 42.5L 29.6387 27.998ZM 49.0234 44.209C 48.5352 44.7949 47.9655 45.4134 47.3145 46.0645C 46.696 46.7155 46.0124 47.3177 45.2637 47.8711C 44.5475 48.4245 43.7826 48.8965 42.9688 49.2871C 42.1875 49.6452 41.3737 49.8242 40.5273 49.8242C 38.8021 49.8242 37.9395 48.9941 37.9395 47.334C 37.9395 46.6504 38.2161 45.7552 38.7695 44.6484C 39.3555 43.5091 40.1042 42.321 41.0156 41.084C 41.9271 39.847 42.9362 38.6589 44.043 37.5195C 45.1497 36.3477 46.2565 35.3874 47.3633 34.6387C 48.4701 33.8574 49.4792 33.3691 50.3906 33.1738C 51.3346 32.9785 52.0996 33.2552 52.6855 34.0039C 52.6855 34.8828 52.6204 35.7617 52.4902 36.6406C 52.36 37.5195 52.2298 38.3984 52.0996 39.2773C 51.9694 40.1237 51.8392 40.9701 51.709 41.8164C 51.5788 42.6628 51.5137 43.5254 51.5137 44.4043C 51.5137 44.5996 51.5299 44.9089 51.5625 45.332C 51.6276 45.7227 51.709 46.1296 51.8066 46.5527C 51.9368 46.9434 52.0996 47.3014 52.2949 47.627C 52.4902 47.9199 52.7507 48.0664 53.0762 48.0664C 53.8574 48.0664 54.4922 47.9688 54.9805 47.7734C 55.5013 47.5781 55.9408 47.3503 56.2988 47.0898C 56.6895 46.7969 57.015 46.4714 57.2754 46.1133C 57.5684 45.7552 57.8613 45.3971 58.1543 45.0391C 58.4798 44.681 58.8379 44.3392 59.2285 44.0137C 59.6191 43.6882 60.1237 43.4277 60.7422 43.2324C 60.7422 43.2324 60.7422 43.2812 60.7422 43.3789C 60.7422 43.4766 60.7422 43.5579 60.7422 43.623C 60.7422 44.4368 60.498 45.2507 60.0098 46.0645C 59.5215 46.8457 58.903 47.5456 58.1543 48.1641C 57.4056 48.7826 56.5592 49.2871 55.6152 49.6777C 54.7038 50.0358 53.8086 50.2148 52.9297 50.2148C 52.181 50.2148 51.5788 50.0033 51.123 49.5801C 50.6673 49.1569 50.293 48.6523 50 48.0664C 49.7396 47.4805 49.5443 46.8457 49.4141 46.1621C 49.2839 45.446 49.1536 44.7949 49.0234 44.209ZM 49.9023 37.8125C 50.2279 36.7383 50.3418 36.0059 50.2441 35.6152C 50.179 35.2246 49.9512 35.0781 49.5605 35.1758C 49.1699 35.2409 48.6654 35.5176 48.0469 36.0059C 47.4284 36.4616 46.7611 37.0312 46.0449 37.7148C 45.3288 38.3659 44.6126 39.0983 43.8965 39.9121C 43.1803 40.7259 42.513 41.5072 41.8945 42.2559C 41.276 42.972 40.7715 43.623 40.3809 44.209C 39.9902 44.7949 39.7461 45.2181 39.6484 45.4785C 39.4531 46.2272 39.4206 46.7969 39.5508 47.1875C 39.7135 47.5781 39.9414 47.8548 40.2344 48.0176C 40.5599 48.1478 40.9017 48.1641 41.2598 48.0664C 41.6504 47.9688 41.9759 47.8223 42.2363 47.627C 42.7897 47.1387 43.4896 46.4876 44.3359 45.6738C 45.1823 44.8275 45.9961 43.9323 46.7773 42.9883C 47.5911 42.0443 48.291 41.1165 48.877 40.2051C 49.4629 39.2611 49.8047 38.4635 49.9023 37.8125ZM 63.2812 47.1875C 62.6628 47.1875 62.1419 46.9922 61.7188 46.6016C 61.2956 46.2109 60.9375 45.7389 60.6445 45.1855C 60.3841 44.6322 60.1725 44.0462 60.0098 43.4277C 59.8796 42.8092 59.8145 42.2721 59.8145 41.8164C 59.8145 40.8073 59.9935 39.7656 60.3516 38.6914C 60.7422 37.5846 61.2467 36.543 61.8652 35.5664C 62.5163 34.5898 63.2487 33.7109 64.0625 32.9297C 64.9089 32.1159 65.7878 31.4811 66.6992 31.0254C 67.0898 30.8301 67.4316 30.7324 67.7246 30.7324C 68.0501 30.6999 68.3268 30.6836 68.5547 30.6836C 68.7826 30.651 68.9453 30.5534 69.043 30.3906C 69.1732 30.1953 69.2383 29.8372 69.2383 29.3164L 69.2383 21.1621C 69.2383 20.9017 69.3848 20.6413 69.6777 20.3809C 69.9707 20.0879 70.2474 19.9414 70.5078 19.9414C 70.6706 19.9414 70.8008 20.0228 70.8984 20.1855C 71.0286 20.3158 71.1263 20.4785 71.1914 20.6738C 71.2565 20.8691 71.3053 21.0807 71.3379 21.3086C 71.3704 21.5365 71.3867 21.6992 71.3867 21.7969C 71.3867 25.4753 71.3379 29.1048 71.2402 32.6855C 71.1426 36.2337 71.0938 39.8958 71.0938 43.6719C 71.3542 43.6719 71.6146 43.623 71.875 43.5254C 72.1354 43.4277 72.4121 43.3138 72.7051 43.1836C 72.998 43.0534 73.2747 42.9232 73.5352 42.793C 73.8281 42.6628 74.1048 42.5651 74.3652 42.5C 74.3652 42.5326 74.3652 42.5977 74.3652 42.6953C 74.3978 42.793 74.4141 42.8743 74.4141 42.9395C 74.4141 43.3952 74.2513 43.7695 73.9258 44.0625C 73.6328 44.3229 73.2747 44.5671 72.8516 44.7949C 72.4609 45.0228 72.0703 45.2507 71.6797 45.4785C 71.3216 45.7064 71.0775 45.9993 70.9473 46.3574C 70.9147 46.4225 70.8822 46.6504 70.8496 47.041C 70.8171 47.4316 70.752 47.8711 70.6543 48.3594C 70.5566 48.8477 70.4102 49.2871 70.2148 49.6777C 70.0195 50.0358 69.7754 50.2148 69.4824 50.2148C 69.0267 50.2148 68.7174 50.0846 68.5547 49.8242C 68.4245 49.5638 68.3757 49.2546 68.4082 48.8965C 68.4408 48.5384 68.4896 48.1966 68.5547 47.8711C 68.6523 47.5456 68.7012 47.3177 68.7012 47.1875L 63.2812 47.1875ZM 61.5234 41.8164C 61.5234 42.8906 61.8652 43.7858 62.5488 44.502C 63.2324 45.1855 64.1113 45.5273 65.1855 45.5273C 65.4134 45.5273 65.6738 45.5273 65.9668 45.5273C 66.2923 45.5273 66.6178 45.5111 66.9434 45.4785C 67.2689 45.4134 67.5618 45.3158 67.8223 45.1855C 68.0827 45.0553 68.278 44.86 68.4082 44.5996C 68.3431 43.7207 68.3268 42.8906 68.3594 42.1094C 68.4245 41.2956 68.4896 40.498 68.5547 39.7168C 68.6198 38.903 68.6849 38.1055 68.75 37.3242C 68.8151 36.5104 68.8477 35.6641 68.8477 34.7852C 68.8477 34.3945 68.7663 34.0853 68.6035 33.8574C 68.4733 33.6296 68.1966 33.5156 67.7734 33.5156C 66.8945 33.5156 66.0645 33.8086 65.2832 34.3945C 64.5345 34.9479 63.8672 35.6641 63.2812 36.543C 62.7279 37.3893 62.2884 38.3008 61.9629 39.2773C 61.6699 40.2214 61.5234 41.0677 61.5234 41.8164ZM 77.3438 48.5059C 77.6693 47.2038 77.8971 46.0319 78.0273 44.9902C 78.1901 43.916 78.2878 42.8743 78.3203 41.8652C 78.3854 40.8561 78.4017 39.7982 78.3691 38.6914C 78.3691 37.5846 78.3691 36.3314 78.3691 34.9316C 77.8483 34.9316 77.4577 34.9642 77.1973 35.0293C 76.9694 35.0944 76.8066 35.1758 76.709 35.2734C 76.6113 35.3385 76.5462 35.4199 76.5137 35.5176C 76.4811 35.6152 76.416 35.7129 76.3184 35.8105C 76.2533 35.8757 76.1068 35.9408 75.8789 36.0059C 75.651 36.071 75.293 36.1035 74.8047 36.1035C 74.5117 36.1035 74.3001 35.9896 74.1699 35.7617C 74.0397 35.5339 73.9746 35.2734 73.9746 34.9805C 73.9746 34.7201 74.1536 34.4434 74.5117 34.1504C 74.8372 33.8574 75.2279 33.5645 75.6836 33.2715C 76.1719 32.9785 76.6602 32.7344 77.1484 32.5391C 77.6693 32.3438 78.1087 32.2461 78.4668 32.2461C 78.597 32.2461 78.776 32.3112 79.0039 32.4414C 79.2643 32.5391 79.5085 32.6855 79.7363 32.8809C 79.9642 33.0436 80.1432 33.2227 80.2734 33.418C 80.4362 33.6133 80.5176 33.8086 80.5176 34.0039L 80.5176 40.791C 80.8431 40.3027 81.3639 39.6354 82.0801 38.7891C 82.7962 37.9427 83.5938 37.1126 84.4727 36.2988C 85.3516 35.4525 86.2467 34.7201 87.1582 34.1016C 88.0697 33.4831 88.8835 33.1738 89.5996 33.1738C 90.5762 33.1738 91.2598 33.4993 91.6504 34.1504C 92.041 34.7689 92.2363 35.5501 92.2363 36.4941C 91.8457 36.4941 91.5365 36.429 91.3086 36.2988C 91.0807 36.1686 90.8691 36.0221 90.6738 35.8594C 90.5111 35.6966 90.332 35.5664 90.1367 35.4688C 89.9414 35.3385 89.681 35.2734 89.3555 35.2734C 88.3138 35.4688 87.3372 35.9896 86.4258 36.8359C 85.5143 37.6823 84.668 38.6751 83.8867 39.8145C 83.138 40.9538 82.4544 42.1582 81.8359 43.4277C 81.25 44.6973 80.7292 45.8529 80.2734 46.8945C 79.8177 47.9362 79.4434 48.7826 79.1504 49.4336C 78.89 50.0846 78.7272 50.3451 78.6621 50.2148C 78.3366 50.2148 78.0273 50.0684 77.7344 49.7754C 77.474 49.4499 77.3438 49.0755 77.3438 48.6523L 77.3438 48.5059ZM 97.3633 43.3301C 97.3633 42.4837 97.4121 41.6536 97.5098 40.8398C 97.6074 39.9935 97.7051 39.1634 97.8027 38.3496C 97.9329 37.5033 98.0469 36.6732 98.1445 35.8594C 98.2422 35.013 98.291 34.1504 98.291 33.2715C 98.291 33.0762 98.2422 32.8646 98.1445 32.6367C 98.0794 32.3763 97.8841 32.2461 97.5586 32.2461C 97.1354 32.2461 96.8587 32.2786 96.7285 32.3438C 96.5983 32.4089 96.5007 32.4902 96.4355 32.5879C 96.403 32.6855 96.3216 32.7995 96.1914 32.9297C 96.0938 33.0599 95.8496 33.1901 95.459 33.3203L 95.2148 33.3203C 94.5312 33.3203 94.1895 32.9622 94.1895 32.2461C 94.1895 32.0508 94.401 31.7415 94.8242 31.3184C 95.2799 30.8952 95.8008 30.5046 96.3867 30.1465C 96.9727 29.7559 97.526 29.4303 98.0469 29.1699C 98.5677 28.877 98.9095 28.7793 99.0723 28.877C 99.1374 28.877 99.235 28.9421 99.3652 29.0723C 99.4954 29.1699 99.6257 29.3001 99.7559 29.4629C 99.8861 29.5931 100 29.7233 100.098 29.8535C 100.228 29.9837 100.309 30.0814 100.342 30.1465C 100.342 30.2116 100.342 30.3418 100.342 30.5371C 100.342 30.7324 100.342 30.944 100.342 31.1719C 100.374 31.3997 100.391 31.6276 100.391 31.8555C 100.391 32.0508 100.391 32.1973 100.391 32.2949C 100.391 33.2389 100.326 34.1829 100.195 35.127C 100.065 36.0384 99.9023 36.9661 99.707 37.9102C 99.5443 38.8542 99.3978 39.7982 99.2676 40.7422C 99.1374 41.6862 99.0723 42.6302 99.0723 43.5742C 99.0723 43.737 99.0885 44.0625 99.1211 44.5508C 99.1536 45.0391 99.2188 45.5436 99.3164 46.0645C 99.4466 46.5853 99.6257 47.0573 99.8535 47.4805C 100.081 47.8711 100.391 48.0664 100.781 48.0664C 101.562 48.0664 102.148 47.9688 102.539 47.7734C 102.93 47.5456 103.271 47.3014 103.564 47.041C 103.857 46.7806 104.167 46.5527 104.492 46.3574C 104.85 46.1296 105.339 46.0156 105.957 46.0156C 105.957 47.3828 105.452 48.4245 104.443 49.1406C 103.434 49.8568 102.148 50.2148 100.586 50.2148C 99.7721 50.2148 99.1536 49.9544 98.7305 49.4336C 98.3073 48.9128 97.9818 48.2943 97.7539 47.5781C 97.5586 46.8294 97.4447 46.0645 97.4121 45.2832C 97.3796 44.502 97.3633 43.8509 97.3633 43.3301ZM 97.8516 22.9199C 97.8516 22.5618 97.9004 22.2852 97.998 22.0898C 98.1283 21.8945 98.4049 21.7969 98.8281 21.7969C 99.1211 21.7969 99.3164 21.9108 99.4141 22.1387C 99.5443 22.334 99.6094 22.5944 99.6094 22.9199C 99.6094 23.2129 99.5443 23.4733 99.4141 23.7012C 99.3164 23.8965 99.1211 23.9941 98.8281 23.9941C 98.4049 23.9941 98.1283 23.9128 97.998 23.75C 97.9004 23.5547 97.8516 23.278 97.8516 22.9199ZM 108.643 47.1875C 108.024 47.1875 107.503 46.9922 107.08 46.6016C 106.657 46.2109 106.299 45.7389 106.006 45.1855C 105.745 44.6322 105.534 44.0462 105.371 43.4277C 105.241 42.8092 105.176 42.2721 105.176 41.8164C 105.176 40.8073 105.355 39.7656 105.713 38.6914C 106.104 37.5846 106.608 36.543 107.227 35.5664C 107.878 34.5898 108.61 33.7109 109.424 32.9297C 110.27 32.1159 111.149 31.4811 112.061 31.0254C 112.451 30.8301 112.793 30.7324 113.086 30.7324C 113.411 30.6999 113.688 30.6836 113.916 30.6836C 114.144 30.651 114.307 30.5534 114.404 30.3906C 114.535 30.1953 114.6 29.8372 114.6 29.3164L 114.6 21.1621C 114.6 20.9017 114.746 20.6413 115.039 20.3809C 115.332 20.0879 115.609 19.9414 115.869 19.9414C 116.032 19.9414 116.162 20.0228 116.26 20.1855C 116.39 20.3158 116.488 20.4785 116.553 20.6738C 116.618 20.8691 116.667 21.0807 116.699 21.3086C 116.732 21.5365 116.748 21.6992 116.748 21.7969C 116.748 25.4753 116.699 29.1048 116.602 32.6855C 116.504 36.2337 116.455 39.8958 116.455 43.6719C 116.715 43.6719 116.976 43.623 117.236 43.5254C 117.497 43.4277 117.773 43.3138 118.066 43.1836C 118.359 43.0534 118.636 42.9232 118.896 42.793C 119.189 42.6628 119.466 42.5651 119.727 42.5C 119.727 42.5326 119.727 42.5977 119.727 42.6953C 119.759 42.793 119.775 42.8743 119.775 42.9395C 119.775 43.3952 119.613 43.7695 119.287 44.0625C 118.994 44.3229 118.636 44.5671 118.213 44.7949C 117.822 45.0228 117.432 45.2507 117.041 45.4785C 116.683 45.7064 116.439 45.9993 116.309 46.3574C 116.276 46.4225 116.243 46.6504 116.211 47.041C 116.178 47.4316 116.113 47.8711 116.016 48.3594C 115.918 48.8477 115.771 49.2871 115.576 49.6777C 115.381 50.0358 115.137 50.2148 114.844 50.2148C 114.388 50.2148 114.079 50.0846 113.916 49.8242C 113.786 49.5638 113.737 49.2546 113.77 48.8965C 113.802 48.5384 113.851 48.1966 113.916 47.8711C 114.014 47.5456 114.062 47.3177 114.062 47.1875L 108.643 47.1875ZM 106.885 41.8164C 106.885 42.8906 107.227 43.7858 107.91 44.502C 108.594 45.1855 109.473 45.5273 110.547 45.5273C 110.775 45.5273 111.035 45.5273 111.328 45.5273C 111.654 45.5273 111.979 45.5111 112.305 45.4785C 112.63 45.4134 112.923 45.3158 113.184 45.1855C 113.444 45.0553 113.639 44.86 113.77 44.5996C 113.704 43.7207 113.688 42.8906 113.721 42.1094C 113.786 41.2956 113.851 40.498 113.916 39.7168C 113.981 38.903 114.046 38.1055 114.111 37.3242C 114.176 36.5104 114.209 35.6641 114.209 34.7852C 114.209 34.3945 114.128 34.0853 113.965 33.8574C 113.835 33.6296 113.558 33.5156 113.135 33.5156C 112.256 33.5156 111.426 33.8086 110.645 34.3945C 109.896 34.9479 109.229 35.6641 108.643 36.543C 108.089 37.3893 107.65 38.3008 107.324 39.2773C 107.031 40.2214 106.885 41.0677 106.885 41.8164Z"/>
</defs>
</svg>
