<svg width="200" height="200" viewBox="0 0 200 200" version="1.1" xmlns="http://www.w3.org/2000/svg" xmlns:xlink="http://www.w3.org/1999/xlink" xmlns:figma="http://www.figma.com/figma/ns">
<title>Group</title>
<desc>Created using Figma</desc>
<g id="Canvas" transform="translate(150 751)" figma:type="canvas">
<g id="Group" style="mix-blend-mode:normal;" figma:type="frame">
<g id="Ellipse" style="mix-blend-mode:normal;" figma:type="ellipse">
<use xlink:href="#path0_fill" transform="translate(-120 -721)" fill="#B21C0E" style="mix-blend-mode:normal;"/>
</g>
<g id="Ellipse 2" style="mix-blend-mode:normal;" figma:type="ellipse">
<use xlink:href="#path1_fill" transform="translate(-150 -751)" fill="#000000" fill-opacity="0.7" style="mix-blend-mode:normal;"/>
</g>
<g id="Capital" style="mix-blend-mode:normal;" figma:type="text">
<use xlink:href="#path2_fill" transform="translate(-82 -638)" fill="#FFFFFF" style="mix-blend-mode:normal;"/>
</g>
<g id="D.C" style="mix-blend-mode:normal;" figma:type="text">
<use xlink:href="#path3_fill" transform="translate(-6 -692)" fill="#FFFFFF" style="mix-blend-mode:normal;"/>
</g>
<g id="Washington" style="mix-blend-mode:normal;" figma:type="text">
<use xlink:href="#path4_fill" transform="translate(-118 -689)" fill="#FFFFFF" style="mix-blend-mode:normal;"/>
</g>
</g>
</g>
<defs>
<path id="path0_fill" d="M 140 70C 140 108.66 108.66 140 70 140C 31.3401 140 0 108.66 0 70C 0 31.3401 31.3401 0 70 0C 108.66 0 140 31.3401 140 70Z"/>
<path id="path1_fill" d="M 200 100C 200 155.228 155.228 200 100 200C 44.7715 200 0 155.228 0 100C 0 44.7715 44.7715 0 100 0C 155.228 0 200 44.7715 200 100Z"/>
<path id="path2_fill" d="M 14.1357 17.1753C 14.3311 17.1753 14.4287 17.334 14.4287 17.6514C 14.4287 17.9606 14.3595 18.4977 14.2212 19.2627C 14.1154 19.7754 13.5295 20.5078 12.4634 21.46C 11.1776 22.5993 9.76562 23.4131 8.22754 23.9014C 7.2998 24.1943 6.39242 24.3408 5.50537 24.3408C 4.62646 24.3408 3.8208 23.9705 3.08838 23.23C 2.3641 22.4813 2.00195 21.5983 2.00195 20.5811C 2.00195 19.5557 2.2054 18.4977 2.6123 17.4072C 3.02734 16.3086 3.58073 15.2629 4.27246 14.27C 4.97233 13.269 5.79427 12.3088 6.73828 11.3892C 7.69043 10.4696 8.6792 9.67204 9.70459 8.99658C 10.73 8.32113 11.8042 7.78402 12.9272 7.38525C 14.0503 6.98649 15.1164 6.78711 16.1255 6.78711C 16.923 6.78711 17.6025 7.07601 18.1641 7.65381C 18.457 7.96305 18.6035 8.35368 18.6035 8.82568C 18.6035 9.28955 18.3757 9.87956 17.9199 10.5957C 17.4642 11.3037 16.923 11.9507 16.2964 12.5366C 15.6779 13.1226 15.035 13.619 14.3677 14.0259C 13.7085 14.4328 13.1795 14.6362 12.7808 14.6362C 12.382 14.6362 12.0402 14.5142 11.7554 14.27C 11.4705 14.0177 11.3281 13.7939 11.3281 13.5986C 11.3281 13.4033 11.3688 13.1877 11.4502 12.9517C 11.5397 12.7157 11.6496 12.5977 11.7798 12.5977C 11.7472 12.6383 11.731 12.679 11.731 12.7197C 11.731 12.8174 11.8693 12.8662 12.146 12.8662C 12.4308 12.8662 12.9028 12.618 13.562 12.1216C 14.2212 11.6252 14.8153 11.0677 15.3442 10.4492C 15.8813 9.83073 16.1499 9.36686 16.1499 9.05762C 16.1499 8.84603 16.0075 8.74023 15.7227 8.74023C 14.9577 8.74023 13.8997 9.09831 12.5488 9.81445C 11.2061 10.5225 9.92025 11.438 8.69141 12.561C 7.46256 13.6841 6.39242 15.0187 5.48096 16.5649C 4.57764 18.103 4.12598 19.4865 4.12598 20.7153C 4.12598 21.228 4.26025 21.639 4.52881 21.9482C 4.8055 22.2575 5.22461 22.4121 5.78613 22.4121C 6.35579 22.4121 7.02718 22.2493 7.80029 21.9238C 8.5734 21.5983 9.30583 21.1995 9.99756 20.7275C 10.6974 20.2555 11.3566 19.7713 11.9751 19.2749C 12.5936 18.7785 13.0859 18.3431 13.4521 17.9688C 13.8265 17.5944 14.0177 17.3706 14.0259 17.2974C 14.034 17.216 14.0706 17.1753 14.1357 17.1753ZM 24.2798 15.0146C 24.8983 15.0146 25.2075 15.2262 25.2075 15.6494C 25.2075 15.8773 25.1546 16.0441 25.0488 16.1499C 24.943 16.2557 24.7152 16.6097 24.3652 17.2119C 24.0234 17.806 23.641 18.571 23.2178 19.5068C 22.8027 20.4346 22.5342 21.228 22.4121 21.8872C 22.3877 21.9686 22.3755 22.0825 22.3755 22.229C 22.3755 22.6766 22.4976 22.9004 22.7417 22.9004C 22.9858 22.9004 23.2747 22.7865 23.6084 22.5586C 23.9421 22.3226 24.2391 22.0744 24.4995 21.814C 24.7599 21.5454 25.0122 21.2728 25.2563 20.9961C 25.5086 20.7194 25.6592 20.5607 25.708 20.52C 25.7568 20.4793 25.8301 20.459 25.9277 20.459C 26.0824 20.459 26.1759 20.577 26.2085 20.813C 26.241 21.049 26.2573 21.2931 26.2573 21.5454C 26.2573 21.7977 26.2329 21.9727 26.1841 22.0703C 25.9481 22.5342 25.4272 23.0916 24.6216 23.7427C 23.8241 24.3937 23.0957 24.7192 22.4365 24.7192C 21.7855 24.7192 21.3053 24.5199 20.9961 24.1211C 20.6868 23.7223 20.5322 23.2829 20.5322 22.8027C 20.5322 22.3145 20.6136 21.8872 20.7764 21.521C 20.1009 22.3999 19.3237 23.1445 18.4448 23.7549C 17.5741 24.3652 16.862 24.6704 16.3086 24.6704C 15.7552 24.6704 15.3035 24.5036 14.9536 24.1699C 14.506 23.7549 14.2822 23.1812 14.2822 22.4487C 14.2822 21.7082 14.445 20.9676 14.7705 20.2271C 15.1042 19.4784 15.5396 18.7988 16.0767 18.1885C 16.6138 17.57 17.2038 17.0085 17.8467 16.5039C 19.1976 15.446 20.4427 14.917 21.582 14.917C 22.0215 14.917 22.3796 14.9902 22.6562 15.1367C 22.9329 15.2832 23.1079 15.4663 23.1812 15.686C 23.3765 15.3931 23.5392 15.21 23.6694 15.1367C 23.8078 15.0553 24.0112 15.0146 24.2798 15.0146ZM 22.6562 16.3696C 21.2646 16.3696 19.8242 17.1427 18.335 18.689C 17.806 19.2424 17.3177 19.9056 16.8701 20.6787C 16.4307 21.4518 16.2109 21.9808 16.2109 22.2656C 16.2109 22.5505 16.2923 22.6929 16.4551 22.6929C 16.6829 22.6929 17.3177 22.2453 18.3594 21.3501C 19.401 20.4468 20.0928 19.7835 20.4346 19.3604C 20.8089 18.8883 21.5495 17.8914 22.6562 16.3696ZM 31.9458 11.3037L 32.1655 11.2793C 32.2876 11.2793 32.3853 11.3851 32.4585 11.5967C 32.5317 11.8083 32.5684 11.9507 32.5684 12.0239C 32.5684 12.0972 32.487 12.2355 32.3242 12.439L 28.8452 17.7368C 30.0659 16.5161 31.307 15.625 32.5684 15.0635C 33.0566 14.8519 33.4961 14.7461 33.8867 14.7461C 34.2855 14.7461 34.6029 14.8763 34.8389 15.1367C 35.083 15.389 35.2051 15.7064 35.2051 16.0889C 35.2051 16.4714 35.0993 16.9434 34.8877 17.5049C 34.6761 18.0664 34.3872 18.6646 34.021 19.2993C 33.6629 19.9341 33.2235 20.5729 32.7026 21.2158C 32.1899 21.8587 31.6488 22.4406 31.0791 22.9614C 30.5176 23.4823 29.9032 23.9054 29.2358 24.231C 28.5685 24.5565 27.9826 24.7192 27.478 24.7192C 26.4608 24.7192 25.9521 24.2513 25.9521 23.3154C 25 24.7721 23.9014 26.4974 22.6562 28.4912C 21.4111 30.485 20.7438 31.5389 20.6543 31.6528C 20.5648 31.7668 20.4915 31.8237 20.4346 31.8237C 20.3695 31.8237 20.2759 31.7871 20.1538 31.7139C 20.0236 31.6406 19.8893 31.5186 19.751 31.3477C 19.6126 31.1768 19.5435 30.9285 19.5435 30.603C 19.5353 30.2775 19.6289 29.9479 19.8242 29.6143C 20.9229 27.7832 23.0387 24.3408 26.1719 19.2871C 29.3132 14.2253 31.014 11.6089 31.2744 11.438C 31.4209 11.3403 31.5674 11.2915 31.7139 11.2915L 31.9458 11.3037ZM 33.02 16.9189C 33.02 16.748 32.9386 16.6626 32.7759 16.6626C 32.3364 16.6626 31.4046 17.3381 29.9805 18.689C 28.5645 20.0399 27.4373 21.2728 26.5991 22.3877C 26.8107 22.6481 27.124 22.7783 27.5391 22.7783C 27.9541 22.7783 28.4912 22.5545 29.1504 22.1069C 29.8096 21.6593 30.4199 21.1304 30.9814 20.52C 31.543 19.9015 32.0231 19.2546 32.4219 18.5791C 32.8206 17.9036 33.02 17.3503 33.02 16.9189ZM 42.8833 10.8887C 42.8833 11.3525 42.6676 11.8205 42.2363 12.2925C 41.805 12.7563 41.3534 12.9883 40.8813 12.9883C 40.4175 12.9883 40.1855 12.7441 40.1855 12.2559C 40.1855 11.7676 40.389 11.3037 40.7959 10.8643C 41.2109 10.4167 41.6667 10.1929 42.1631 10.1929C 42.3828 10.1929 42.5578 10.2539 42.688 10.376C 42.8182 10.498 42.8833 10.6689 42.8833 10.8887ZM 40.9058 21.5454C 40.9058 21.7896 40.8813 21.9645 40.8325 22.0703C 40.4338 22.8841 39.799 23.5433 38.9282 24.0479C 38.0575 24.5443 37.3006 24.7925 36.6577 24.7925C 36.0148 24.7925 35.4614 24.5768 34.9976 24.1455C 34.5337 23.7142 34.3018 23.2747 34.3018 22.8271C 34.3018 22.3796 34.5256 21.7285 34.9731 20.874C 35.4207 20.0195 35.8683 19.2301 36.3159 18.5059C 36.7635 17.7816 36.9873 17.391 36.9873 17.334C 36.9873 17.2689 36.9019 17.1468 36.731 16.9678C 36.5682 16.7887 36.4868 16.6585 36.4868 16.5771C 36.4868 16.4876 36.6536 16.2638 36.9873 15.9058C 37.3291 15.5396 37.7401 15.1815 38.2202 14.8315C 38.7085 14.4735 39.0788 14.2944 39.3311 14.2944C 39.5915 14.2944 39.8234 14.4084 40.0269 14.6362C 40.2303 14.8641 40.332 15.0716 40.332 15.2588C 40.332 15.446 39.3636 17.2078 37.4268 20.5444C 37.4023 20.5933 37.3332 20.7031 37.2192 20.874C 37.1134 21.0368 37.028 21.1751 36.9629 21.2891C 36.9059 21.3949 36.8368 21.5251 36.7554 21.6797C 36.5926 22.0052 36.5112 22.2778 36.5112 22.4976C 36.5112 22.7743 36.6984 22.9126 37.0728 22.9126C 37.4471 22.9126 37.8337 22.7865 38.2324 22.5342C 38.6393 22.2738 38.9893 21.9889 39.2822 21.6797C 40.0472 20.8577 40.4826 20.4468 40.5884 20.4468C 40.8 20.4468 40.9058 20.813 40.9058 21.5454ZM 48.4131 8.56934L 48.9136 8.69141C 48.9868 8.69141 49.0519 8.72803 49.1089 8.80127C 49.1659 8.87451 49.1943 8.94368 49.1943 9.00879C 49.1943 9.07389 49.1089 9.24886 48.938 9.53369C 48.7671 9.81852 48.5636 10.144 48.3276 10.5103C 48.0998 10.8683 47.9777 11.0636 47.9614 11.0962C 48.5962 11.0474 49.0438 11.0229 49.3042 11.0229C 49.5728 11.0229 49.7559 11.0433 49.8535 11.084C 49.9512 11.1165 50.061 11.2183 50.1831 11.3892C 50.3133 11.5519 50.4313 11.6781 50.5371 11.7676C 50.6429 11.849 50.6958 11.9751 50.6958 12.146C 50.6958 12.3169 50.59 12.4634 50.3784 12.5854C 50.175 12.6994 49.9552 12.7686 49.7192 12.793C 47.8312 12.9801 46.7896 13.0778 46.5942 13.0859C 45.9351 14.0951 45.0114 15.6698 43.8232 17.8101C 42.6432 19.9422 42.0166 21.2769 41.9434 21.814C 41.9108 22.0581 41.8945 22.2575 41.8945 22.4121C 41.8945 22.7295 42.0614 22.8882 42.395 22.8882C 42.7287 22.8882 43.099 22.762 43.5059 22.5098C 43.9128 22.2493 44.2871 21.9686 44.6289 21.6675C 45.5404 20.8537 46.0286 20.4468 46.0938 20.4468C 46.3053 20.4468 46.4111 20.813 46.4111 21.5454C 46.4111 21.9442 46.228 22.3022 45.8618 22.6196C 45.0399 23.3276 44.3481 23.8607 43.7866 24.2188C 43.2251 24.5768 42.6636 24.7559 42.1021 24.7559C 41.98 24.7559 41.866 24.7437 41.7603 24.7192C 41.1092 24.5972 40.6291 24.3612 40.3198 24.0112C 40.0187 23.6532 39.8682 23.173 39.8682 22.5708C 39.8763 21.9686 40.0553 21.2402 40.4053 20.3857C 40.7633 19.5231 41.2109 18.6076 41.748 17.6392C 42.627 16.0604 43.5059 14.5793 44.3848 13.1958L 43.9209 13.2568C 42.9769 13.3626 42.4276 13.4155 42.2729 13.4155L 42.1631 13.4155C 41.9271 13.4155 41.6992 13.3708 41.4795 13.2812C 41.2598 13.1836 41.1499 13.0656 41.1499 12.9272C 41.1499 12.7889 41.2069 12.6546 41.3208 12.5244C 41.4429 12.3942 41.5161 12.2925 41.5405 12.2192C 41.5975 12.0402 41.8091 11.8408 42.1753 11.6211C 42.5496 11.4014 42.8304 11.2874 43.0176 11.2793C 43.2048 11.263 43.3838 11.2508 43.5547 11.2427C 43.7337 11.2345 43.929 11.2264 44.1406 11.2183C 44.3604 11.2101 44.5272 11.202 44.6411 11.1938L 45.7397 11.145C 46.4233 10.1196 46.8913 9.46045 47.1436 9.16748C 47.404 8.87451 47.5545 8.71582 47.5952 8.69141C 47.6359 8.65885 47.7173 8.64258 47.8394 8.64258L 48.4131 8.56934ZM 54.6997 15.0146C 55.3182 15.0146 55.6274 15.2262 55.6274 15.6494C 55.6274 15.8773 55.5745 16.0441 55.4688 16.1499C 55.363 16.2557 55.1351 16.6097 54.7852 17.2119C 54.4434 17.806 54.0609 18.571 53.6377 19.5068C 53.2227 20.4346 52.9541 21.228 52.832 21.8872C 52.8076 21.9686 52.7954 22.0825 52.7954 22.229C 52.7954 22.6766 52.9175 22.9004 53.1616 22.9004C 53.4058 22.9004 53.6947 22.7865 54.0283 22.5586C 54.362 22.3226 54.659 22.0744 54.9194 21.814C 55.1799 21.5454 55.4321 21.2728 55.6763 20.9961C 55.9285 20.7194 56.0791 20.5607 56.1279 20.52C 56.1768 20.4793 56.25 20.459 56.3477 20.459C 56.5023 20.459 56.5959 20.577 56.6284 20.813C 56.661 21.049 56.6772 21.2931 56.6772 21.5454C 56.6772 21.7977 56.6528 21.9727 56.604 22.0703C 56.368 22.5342 55.8472 23.0916 55.0415 23.7427C 54.244 24.3937 53.5156 24.7192 52.8564 24.7192C 52.2054 24.7192 51.7253 24.5199 51.416 24.1211C 51.1068 23.7223 50.9521 23.2829 50.9521 22.8027C 50.9521 22.3145 51.0335 21.8872 51.1963 21.521C 50.5208 22.3999 49.7437 23.1445 48.8647 23.7549C 47.994 24.3652 47.2819 24.6704 46.7285 24.6704C 46.1751 24.6704 45.7235 24.5036 45.3735 24.1699C 44.9259 23.7549 44.7021 23.1812 44.7021 22.4487C 44.7021 21.7082 44.8649 20.9676 45.1904 20.2271C 45.5241 19.4784 45.9595 18.7988 46.4966 18.1885C 47.0337 17.57 47.6237 17.0085 48.2666 16.5039C 49.6175 15.446 50.8626 14.917 52.002 14.917C 52.4414 14.917 52.7995 14.9902 53.0762 15.1367C 53.3529 15.2832 53.5278 15.4663 53.6011 15.686C 53.7964 15.3931 53.9591 15.21 54.0894 15.1367C 54.2277 15.0553 54.4312 15.0146 54.6997 15.0146ZM 53.0762 16.3696C 51.6846 16.3696 50.2441 17.1427 48.7549 18.689C 48.2259 19.2424 47.7376 19.9056 47.29 20.6787C 46.8506 21.4518 46.6309 21.9808 46.6309 22.2656C 46.6309 22.5505 46.7122 22.6929 46.875 22.6929C 47.1029 22.6929 47.7376 22.2453 48.7793 21.3501C 49.821 20.4468 50.5127 19.7835 50.8545 19.3604C 51.2288 18.8883 51.9694 17.8914 53.0762 16.3696ZM 65.686 5.96924C 66.0767 5.96924 66.4185 6.08724 66.7114 6.32324C 67.0125 6.55111 67.1631 6.8929 67.1631 7.34863C 67.1631 7.80436 66.9108 8.52051 66.4062 9.49707C 65.9017 10.4655 65.2954 11.4583 64.5874 12.4756C 63.8794 13.4847 63.0778 14.5589 62.1826 15.6982C 60.7666 17.5049 59.4076 19.1284 58.1055 20.5688C 58.0973 20.6665 58.0607 20.8496 57.9956 21.1182C 57.9386 21.3786 57.9102 21.6431 57.9102 21.9116C 57.9102 22.1802 58.0322 22.4243 58.2764 22.644C 58.5286 22.8556 58.8379 22.9614 59.2041 22.9614C 59.5703 22.9614 59.9609 22.8312 60.376 22.5708C 60.7992 22.3104 61.1654 22.0215 61.4746 21.7041C 62.2884 20.8659 62.793 20.4468 62.9883 20.4468C 63.1836 20.4468 63.2812 20.7438 63.2812 21.3379L 63.2812 21.582C 63.2812 21.8994 63.2243 22.1313 63.1104 22.2778C 62.4268 23.116 61.6577 23.7427 60.8032 24.1577C 59.9487 24.5646 59.139 24.7681 58.374 24.7681C 57.609 24.7681 57.0272 24.5361 56.6284 24.0723C 56.2297 23.6003 56.0303 22.9574 56.0303 22.1436C 56.0303 20.5566 56.4535 18.693 57.2998 16.5527C 58.1543 14.4043 59.1146 12.5773 60.1807 11.0718C 62.5814 7.67009 64.4165 5.96924 65.686 5.96924ZM 65.1367 7.99561C 65.1367 7.87354 65.096 7.8125 65.0146 7.8125C 64.7298 7.8125 63.9811 8.6263 62.7686 10.2539C 61.556 11.8815 60.6771 13.1795 60.1318 14.1479C 59.5947 15.1164 59.0861 16.333 58.606 17.7979C 59.5662 16.6585 60.8927 14.8844 62.5854 12.4756C 64.2863 10.0586 65.1367 8.56527 65.1367 7.99561Z"/>
<path id="path3_fill" d="M 2.60156 16.2773C 2.53125 16.2188 2.39648 16.1191 2.19727 15.9785C 2.00977 15.8262 1.81055 15.668 1.59961 15.5039C 1.38867 15.3281 1.18945 15.1699 1.00195 15.0293C 0.814453 14.8887 0.685547 14.7891 0.615234 14.7305C 0.509766 14.6484 0.421875 14.5781 0.351562 14.5195C 0.292969 14.4492 0.263672 14.3379 0.263672 14.1855C 0.439453 14.1855 0.591797 14.2324 0.720703 14.3262C 0.849609 14.4082 0.972656 14.502 1.08984 14.6074C 1.21875 14.7012 1.34766 14.7891 1.47656 14.8711C 1.61719 14.9531 1.77539 14.9941 1.95117 14.9941C 1.95117 14.877 1.95117 14.6719 1.95117 14.3789C 1.96289 14.0742 1.96875 13.752 1.96875 13.4121C 1.98047 13.0723 1.98633 12.7559 1.98633 12.4629C 1.99805 12.1582 2.00391 11.9414 2.00391 11.8125C 2.00391 11.7656 1.99219 11.6543 1.96875 11.4785C 1.95703 11.291 1.93945 11.0977 1.91602 10.8984C 1.9043 10.6875 1.88672 10.4941 1.86328 10.3184C 1.85156 10.1426 1.8457 10.0312 1.8457 9.98438C 1.8457 9.96094 1.85156 9.89648 1.86328 9.79102C 1.875 9.67383 1.89258 9.55664 1.91602 9.43945C 1.93945 9.32227 1.95703 9.21094 1.96875 9.10547C 1.99219 9 2.00391 8.93555 2.00391 8.91211L 2.00391 8.52539L 2.00391 8.12109C 2.00391 8.09766 1.99219 8.02734 1.96875 7.91016C 1.95703 7.79297 1.93945 7.66406 1.91602 7.52344C 1.89258 7.38281 1.875 7.25391 1.86328 7.13672C 1.85156 7.01953 1.8457 6.94336 1.8457 6.9082C 1.8457 6.86133 1.85156 6.7793 1.86328 6.66211C 1.875 6.54492 1.88672 6.42187 1.89844 6.29297C 1.91016 6.16406 1.92188 6.04102 1.93359 5.92383C 1.95703 5.80664 1.98047 5.73047 2.00391 5.69531C 2.17969 5.54297 2.31445 5.44922 2.4082 5.41406C 2.50195 5.37891 2.63672 5.36133 2.8125 5.36133C 3.30469 5.36133 3.79102 5.45508 4.27148 5.64258C 4.75195 5.81836 5.20898 6.06445 5.64258 6.38086C 6.07617 6.69727 6.46875 7.06641 6.82031 7.48828C 7.18359 7.91016 7.49414 8.35547 7.75195 8.82422C 8.02148 9.29297 8.23242 9.7793 8.38477 10.2832C 8.53711 10.7754 8.61328 11.25 8.61328 11.707C 8.61328 12.2344 8.50195 12.7793 8.2793 13.3418C 8.06836 13.9043 7.77539 14.4141 7.40039 14.8711C 7.02539 15.3281 6.58594 15.7031 6.08203 15.9961C 5.58984 16.2891 5.0625 16.4355 4.5 16.4355C 4.33594 16.4355 4.17773 16.4238 4.02539 16.4004C 3.87305 16.377 3.71484 16.3535 3.55078 16.3301C 3.39844 16.3066 3.24023 16.2891 3.07617 16.2773C 2.92383 16.2539 2.76562 16.2539 2.60156 16.2773ZM 3.07617 15.5039C 3.07617 15.5156 3.09375 15.5449 3.12891 15.5918C 3.16406 15.627 3.19922 15.6504 3.23438 15.6621C 3.25781 15.6738 3.30469 15.6973 3.375 15.7324C 3.45703 15.7559 3.54492 15.7852 3.63867 15.8203C 3.74414 15.8555 3.84375 15.8848 3.9375 15.9082C 4.03125 15.9316 4.0957 15.9492 4.13086 15.9609L 4.23633 15.9609C 4.5293 15.9609 4.82812 15.8906 5.13281 15.75C 5.4375 15.5977 5.73047 15.4043 6.01172 15.1699C 6.29297 14.9355 6.55078 14.666 6.78516 14.3613C 7.01953 14.0449 7.22461 13.7227 7.40039 13.3945C 7.57617 13.0664 7.7168 12.7383 7.82227 12.4102C 7.92773 12.082 7.98047 11.7773 7.98047 11.4961C 7.98047 11.1562 7.91016 10.7871 7.76953 10.3887C 7.62891 9.99023 7.43555 9.5918 7.18945 9.19336C 6.95508 8.79492 6.67969 8.41406 6.36328 8.05078C 6.04688 7.67578 5.70703 7.34766 5.34375 7.06641C 4.99219 6.78516 4.62891 6.5625 4.25391 6.39844C 3.89062 6.22266 3.5332 6.13477 3.18164 6.13477C 3.09961 6.13477 3.01758 6.14062 2.93555 6.15234C 2.85352 6.15234 2.77734 6.16406 2.70703 6.1875C 2.63672 6.21094 2.57227 6.25195 2.51367 6.31055C 2.4668 6.36914 2.44336 6.45117 2.44336 6.55664C 2.44336 6.75586 2.44336 6.95508 2.44336 7.1543C 2.44336 7.35352 2.44922 7.55859 2.46094 7.76953C 2.48437 7.96875 2.51367 8.16797 2.54883 8.36719C 2.5957 8.55469 2.66602 8.73633 2.75977 8.91211L 3.07617 15.5039ZM 10.1602 16.0137C 10.1602 15.8965 10.1895 15.7793 10.248 15.6621C 10.3066 15.5449 10.4121 15.4863 10.5645 15.4863C 10.6934 15.4863 10.8164 15.5332 10.9336 15.627C 11.0508 15.7207 11.1094 15.832 11.1094 15.9609C 11.1094 16.125 11.0566 16.248 10.9512 16.3301C 10.8457 16.4004 10.7227 16.4355 10.582 16.4355C 10.418 16.4355 10.3066 16.4062 10.248 16.3477C 10.1895 16.2891 10.1602 16.1777 10.1602 16.0137ZM 11.9883 13.1133C 11.9883 12.8438 12.0059 12.498 12.041 12.0762C 12.0762 11.6426 12.1348 11.1797 12.2168 10.6875C 12.3105 10.1836 12.4336 9.68555 12.5859 9.19336C 12.7383 8.68945 12.9199 8.23242 13.1309 7.82227C 13.3535 7.41211 13.6113 7.07813 13.9043 6.82031C 14.1973 6.5625 14.5371 6.43359 14.9238 6.43359C 15.3926 6.43359 15.791 6.56836 16.1191 6.83789C 16.459 7.10742 16.7344 7.44141 16.9453 7.83984C 17.168 8.22656 17.3379 8.64258 17.4551 9.08789C 17.5723 9.5332 17.6484 9.93164 17.6836 10.2832C 17.6602 10.4238 17.5957 10.541 17.4902 10.6348C 17.3848 10.7168 17.2734 10.7578 17.1562 10.7578L 17.0684 10.7578C 17.0566 10.7344 17.0332 10.7051 16.998 10.6699C 16.9629 10.6348 16.9395 10.6113 16.9277 10.5996C 16.9277 10.5645 16.9219 10.5234 16.9102 10.4766C 16.9102 10.418 16.9102 10.3535 16.9102 10.2832C 16.9102 10.2129 16.9043 10.1543 16.8926 10.1074C 16.8926 10.0488 16.8926 10.0078 16.8926 9.98438C 16.8926 9.76172 16.9219 9.5625 16.9805 9.38672C 17.0391 9.21094 17.0684 9.0293 17.0684 8.8418L 17.0684 8.75391C 16.9277 8.58984 16.7871 8.41992 16.6465 8.24414C 16.5059 8.05664 16.3535 7.88672 16.1895 7.73438C 16.0371 7.58203 15.8672 7.45898 15.6797 7.36523C 15.4922 7.25977 15.2812 7.20703 15.0469 7.20703C 14.7539 7.20703 14.4844 7.31836 14.2383 7.54102C 14.0039 7.75195 13.7988 8.02734 13.623 8.36719C 13.4473 8.69531 13.2949 9.07031 13.166 9.49219C 13.0371 9.90234 12.9316 10.3125 12.8496 10.7227C 12.7676 11.1211 12.709 11.4961 12.6738 11.8477C 12.6387 12.1875 12.6211 12.457 12.6211 12.6562C 12.6211 13.1133 12.6738 13.5352 12.7793 13.9219C 12.8848 14.3086 13.0547 14.6426 13.2891 14.9238C 13.5234 15.2051 13.8105 15.4277 14.1504 15.5918C 14.502 15.7441 14.918 15.8203 15.3984 15.8203C 15.6445 15.8203 15.9023 15.7969 16.1719 15.75C 16.4414 15.7031 16.7051 15.6387 16.9629 15.5566C 17.2324 15.4746 17.4902 15.375 17.7363 15.2578C 17.9941 15.1406 18.2285 15.0117 18.4395 14.8711C 18.4629 14.8711 18.5039 14.8477 18.5625 14.8008C 18.6211 14.7539 18.6797 14.707 18.7383 14.6602C 18.8086 14.6016 18.873 14.5547 18.9316 14.5195C 19.002 14.4727 19.043 14.4375 19.0547 14.4141C 19.0664 14.4141 19.0898 14.4141 19.125 14.4141C 19.1719 14.4023 19.2012 14.3965 19.2129 14.3965C 19.2363 14.3965 19.2656 14.4023 19.3008 14.4141C 19.3359 14.4141 19.3594 14.4141 19.3711 14.4141C 19.3125 14.6602 19.2012 14.8828 19.0371 15.082C 18.873 15.2695 18.6738 15.4395 18.4395 15.5918C 18.2168 15.7441 17.9648 15.873 17.6836 15.9785C 17.4023 16.084 17.1211 16.1719 16.8398 16.2422C 16.5586 16.3125 16.2891 16.3652 16.0312 16.4004C 15.7852 16.4238 15.5625 16.4355 15.3633 16.4355C 14.8594 16.4355 14.3965 16.3594 13.9746 16.207C 13.5645 16.0547 13.207 15.8379 12.9023 15.5566C 12.6094 15.2754 12.3809 14.9297 12.2168 14.5195C 12.0645 14.1094 11.9883 13.6406 11.9883 13.1133Z"/>
<path id="path4_fill" d="M 10.6641 25.5938C 10.6133 25.7461 10.5371 26.0127 10.4355 26.3936C 10.3594 26.7744 10.2578 27.1807 10.1309 27.6123C 10.0293 28.0186 9.92773 28.4121 9.82617 28.793C 9.72461 29.1738 9.66113 29.4404 9.63574 29.5928C 9.4834 29.999 9.31836 30.4814 9.14062 31.04C 8.98828 31.5732 8.77246 32.0811 8.49316 32.5635C 8.23926 33.0459 7.90918 33.4521 7.50293 33.7822C 7.12207 34.1123 6.65234 34.2773 6.09375 34.2773C 5.30664 34.2773 4.62109 34.0615 4.03711 33.6299C 3.47852 33.1982 3.00879 32.627 2.62793 31.916C 2.24707 31.2051 1.94238 30.4053 1.71387 29.5166C 1.51074 28.6279 1.3457 27.7393 1.21875 26.8506C 1.11719 25.9365 1.04102 25.0732 0.990234 24.2607C 0.964844 23.4229 0.952148 22.7119 0.952148 22.1279C 0.952148 21.7725 0.926758 21.29 0.875977 20.6807C 0.850586 20.0459 0.875977 19.4238 0.952148 18.8145C 1.02832 18.1797 1.19336 17.6465 1.44727 17.2148C 1.72656 16.7578 2.1582 16.5293 2.74219 16.5293C 2.74219 16.6816 2.72949 16.9736 2.7041 17.4053C 2.7041 17.8115 2.69141 18.2559 2.66602 18.7383C 2.66602 19.1953 2.66602 19.6396 2.66602 20.0713C 2.66602 20.4775 2.66602 20.7695 2.66602 20.9473C 2.66602 20.998 2.64063 21.125 2.58984 21.3281C 2.56445 21.5059 2.52637 21.709 2.47559 21.9375C 2.4502 22.166 2.41211 22.3818 2.36133 22.585C 2.33594 22.7627 2.32324 22.8896 2.32324 22.9658C 2.32324 23.1182 2.34863 23.4482 2.39941 23.9561C 2.4502 24.4385 2.51367 24.959 2.58984 25.5176C 2.66602 26.0762 2.72949 26.6221 2.78027 27.1553C 2.85645 27.6631 2.91992 28.0312 2.9707 28.2598C 3.02148 28.6152 3.12305 29.0469 3.27539 29.5547C 3.42773 30.0371 3.63086 30.5068 3.88477 30.9639C 4.13867 31.4209 4.43066 31.8145 4.76074 32.1445C 5.11621 32.4746 5.53516 32.6396 6.01758 32.6396C 6.60156 32.6396 7.05859 32.3477 7.38867 31.7637C 7.71875 31.1797 7.97266 30.4688 8.15039 29.6309C 8.35352 28.7676 8.50586 27.8281 8.60742 26.8125C 8.73437 25.7715 8.86133 24.832 8.98828 23.9941C 9.14062 23.1309 9.31836 22.4072 9.52148 21.8232C 9.75 21.2393 10.0674 20.9473 10.4736 20.9473L 10.6641 20.9473C 10.6895 20.9727 10.7402 21.0234 10.8164 21.0996C 10.8926 21.1758 10.9434 21.2266 10.9688 21.252C 11.3496 22.3945 11.7939 23.5625 12.3018 24.7559C 12.8096 25.9238 13.3809 27.0664 14.0156 28.1836C 14.6758 29.3008 15.4121 30.3545 16.2246 31.3447C 17.0371 32.3096 17.9512 33.1729 18.9668 33.9346C 18.9922 33.9346 19.0684 33.9346 19.1953 33.9346C 19.3223 33.9346 19.4111 33.9346 19.4619 33.9346C 19.9189 33.9346 20.2363 33.7695 20.4141 33.4395C 20.6172 33.084 20.7949 32.6777 20.9473 32.2207C 20.998 32.0176 21.0742 31.7002 21.1758 31.2686C 21.3027 30.8369 21.417 30.3926 21.5186 29.9355C 21.6201 29.4785 21.709 29.0596 21.7852 28.6787C 21.8867 28.2979 21.9375 28.0566 21.9375 27.9551C 21.9375 27.9297 21.9375 27.7773 21.9375 27.498C 21.9375 27.1934 21.9375 26.8506 21.9375 26.4697C 21.9629 26.0889 21.9756 25.6953 21.9756 25.2891C 21.9756 24.8828 21.9756 24.5654 21.9756 24.3369C 21.9756 24.0322 21.9756 23.6514 21.9756 23.1943C 21.9756 22.7373 21.9629 22.2803 21.9375 21.8232C 21.9375 21.3408 21.9375 20.9219 21.9375 20.5664C 21.9375 20.2109 21.9375 20.0078 21.9375 19.957C 21.9121 19.3984 21.874 18.9668 21.8232 18.6621C 21.7979 18.332 21.7217 18.0527 21.5947 17.8242C 21.4932 17.5957 21.3281 17.3926 21.0996 17.2148C 20.8965 17.0371 20.6172 16.834 20.2617 16.6055L 20.2617 16.4912C 20.2617 16.1611 20.2998 15.8818 20.376 15.6533C 20.4521 15.3994 20.668 15.2725 21.0234 15.2725C 21.5059 15.2725 21.8613 15.374 22.0898 15.5771C 22.3438 15.7803 22.5215 16.123 22.623 16.6055C 22.6484 16.8594 22.6865 17.2021 22.7373 17.6338C 22.8135 18.04 22.877 18.4971 22.9277 19.0049C 23.0039 19.5127 23.0801 20.0332 23.1562 20.5664C 23.2324 21.0742 23.2959 21.5693 23.3467 22.0518C 23.4229 22.5088 23.4736 22.915 23.499 23.2705C 23.5498 23.6006 23.5752 23.8164 23.5752 23.918C 23.5752 23.9688 23.5752 24.0703 23.5752 24.2227C 23.5752 24.375 23.5752 24.5527 23.5752 24.7559C 23.6006 24.9336 23.6133 25.124 23.6133 25.3271C 23.6133 25.5049 23.6133 25.6572 23.6133 25.7842C 23.6133 26.165 23.5879 26.6729 23.5371 27.3076C 23.4863 27.9424 23.3975 28.6279 23.2705 29.3643C 23.1689 30.0752 23.0166 30.8115 22.8135 31.5732C 22.6357 32.3096 22.3818 32.9824 22.0518 33.5918C 21.7471 34.1758 21.3789 34.6582 20.9473 35.0391C 20.5156 35.4199 20.0205 35.6104 19.4619 35.6104C 19.3857 35.6104 19.2334 35.5977 19.0049 35.5723C 18.8018 35.5723 18.6621 35.5723 18.5859 35.5723C 17.6719 34.709 16.8848 33.9219 16.2246 33.2109C 15.5645 32.4746 14.9551 31.7256 14.3965 30.9639C 13.8379 30.2021 13.292 29.4023 12.7588 28.5645C 12.2256 27.7012 11.6289 26.7109 10.9688 25.5938L 10.6641 25.5938ZM 33.8965 30.9258C 33.5156 31.3828 33.0713 31.8652 32.5635 32.373C 32.0811 32.8809 31.5479 33.3506 30.9639 33.7822C 30.4053 34.2139 29.8086 34.582 29.1738 34.8867C 28.5645 35.166 27.9297 35.3057 27.2695 35.3057C 25.9238 35.3057 25.251 34.6582 25.251 33.3633C 25.251 32.8301 25.4668 32.1318 25.8984 31.2686C 26.3555 30.3799 26.9395 29.4531 27.6504 28.4883C 28.3613 27.5234 29.1484 26.5967 30.0117 25.708C 30.875 24.7939 31.7383 24.0449 32.6016 23.4609C 33.4648 22.8516 34.252 22.4707 34.9629 22.3184C 35.6992 22.166 36.2959 22.3818 36.7529 22.9658C 36.7529 23.6514 36.7021 24.3369 36.6006 25.0225C 36.499 25.708 36.3975 26.3936 36.2959 27.0791C 36.1943 27.7393 36.0928 28.3994 35.9912 29.0596C 35.8896 29.7197 35.8389 30.3926 35.8389 31.0781C 35.8389 31.2305 35.8516 31.4717 35.877 31.8018C 35.9277 32.1064 35.9912 32.4238 36.0674 32.7539C 36.1689 33.0586 36.2959 33.3379 36.4482 33.5918C 36.6006 33.8203 36.8037 33.9346 37.0576 33.9346C 37.667 33.9346 38.1621 33.8584 38.543 33.7061C 38.9492 33.5537 39.292 33.376 39.5713 33.1729C 39.876 32.9443 40.1299 32.6904 40.333 32.4111C 40.5615 32.1318 40.79 31.8525 41.0186 31.5732C 41.2725 31.2939 41.5518 31.0273 41.8564 30.7734C 42.1611 30.5195 42.5547 30.3164 43.0371 30.1641C 43.0371 30.1641 43.0371 30.2021 43.0371 30.2783C 43.0371 30.3545 43.0371 30.418 43.0371 30.4688C 43.0371 31.1035 42.8467 31.7383 42.4658 32.373C 42.085 32.9824 41.6025 33.5283 41.0186 34.0107C 40.4346 34.4932 39.7744 34.8867 39.0381 35.1914C 38.3271 35.4707 37.6289 35.6104 36.9434 35.6104C 36.3594 35.6104 35.8896 35.4453 35.5342 35.1152C 35.1787 34.7852 34.8867 34.3916 34.6582 33.9346C 34.4551 33.4775 34.3027 32.9824 34.2012 32.4492C 34.0996 31.8906 33.998 31.3828 33.8965 30.9258ZM 34.582 25.9365C 34.8359 25.0986 34.9248 24.5273 34.8486 24.2227C 34.7979 23.918 34.6201 23.8037 34.3154 23.8799C 34.0107 23.9307 33.6172 24.1465 33.1348 24.5273C 32.6523 24.8828 32.1318 25.3271 31.5732 25.8604C 31.0146 26.3682 30.4561 26.9395 29.8975 27.5742C 29.3389 28.209 28.8184 28.8184 28.3359 29.4023C 27.8535 29.9609 27.46 30.4688 27.1553 30.9258C 26.8506 31.3828 26.6602 31.7129 26.584 31.916C 26.4316 32.5 26.4062 32.9443 26.5078 33.249C 26.6348 33.5537 26.8125 33.7695 27.041 33.8965C 27.2949 33.998 27.5615 34.0107 27.8408 33.9346C 28.1455 33.8584 28.3994 33.7441 28.6025 33.5918C 29.0342 33.2109 29.5801 32.7031 30.2402 32.0684C 30.9004 31.4082 31.5352 30.71 32.1445 29.9736C 32.7793 29.2373 33.3252 28.5137 33.7822 27.8027C 34.2393 27.0664 34.5059 26.4443 34.582 25.9365ZM 42.6943 29.0977C 42.6943 29.0469 42.6943 28.9707 42.6943 28.8691C 42.6943 28.7676 42.6943 28.6533 42.6943 28.5264C 42.7197 28.3994 42.7324 28.2852 42.7324 28.1836C 42.7324 28.0566 42.7324 27.9805 42.7324 27.9551C 42.7578 27.8789 42.8467 27.79 42.999 27.6885C 43.1768 27.5869 43.3037 27.5488 43.3799 27.5742C 43.5322 27.625 43.6719 27.8027 43.7988 28.1074C 43.9258 28.4121 44.0527 28.7803 44.1797 29.2119C 44.3066 29.6436 44.4463 30.126 44.5986 30.6592C 44.7764 31.167 44.9922 31.6494 45.2461 32.1064C 45.5254 32.5381 45.8555 32.9316 46.2363 33.2871C 46.6426 33.6172 47.125 33.833 47.6836 33.9346C 47.8613 33.96 48.001 33.96 48.1025 33.9346C 48.2041 33.8838 48.2676 33.8203 48.293 33.7441C 48.3437 33.6426 48.3691 33.541 48.3691 33.4395C 48.3691 33.3125 48.3691 33.2109 48.3691 33.1348C 48.3437 32.6777 48.166 32.208 47.8359 31.7256C 47.5059 31.2178 47.1123 30.6846 46.6553 30.126C 46.1982 29.542 45.7412 28.9326 45.2842 28.2979C 44.8271 27.6377 44.4463 26.9521 44.1416 26.2412C 43.8369 25.5049 43.6465 24.7305 43.5703 23.918C 43.4941 23.0801 43.6465 22.1914 44.0273 21.252C 44.0273 21.0234 44.1416 20.7188 44.3701 20.3379C 44.624 19.957 44.916 19.6016 45.2461 19.2715C 45.6016 18.916 45.9697 18.6113 46.3506 18.3574C 46.7314 18.1035 47.0615 17.9766 47.3408 17.9766C 47.7471 17.9766 48.1279 18.0527 48.4834 18.2051C 48.8643 18.3574 49.1563 18.6113 49.3594 18.9668C 49.6133 19.2969 49.9053 19.7412 50.2354 20.2998C 50.5908 20.833 50.8955 21.3662 51.1494 21.8994C 51.4287 22.4326 51.6064 22.915 51.6826 23.3467C 51.7588 23.7783 51.6445 24.0322 51.3398 24.1084C 50.9844 24.1084 50.6797 24.0068 50.4258 23.8037C 50.1973 23.6006 50.0068 23.3467 49.8545 23.042C 49.7021 22.7373 49.5625 22.4072 49.4355 22.0518C 49.3086 21.6709 49.1689 21.3281 49.0166 21.0234C 48.8643 20.7188 48.6865 20.4648 48.4834 20.2617C 48.2803 20.0332 48.0137 19.9189 47.6836 19.9189C 47.2266 19.9189 46.8203 20.0586 46.4648 20.3379C 46.1348 20.6172 45.8555 20.96 45.627 21.3662C 45.4238 21.7725 45.2715 22.2168 45.1699 22.6992C 45.0938 23.1562 45.0557 23.5625 45.0557 23.918C 45.0557 24.5527 45.1699 25.1494 45.3984 25.708C 45.6523 26.2412 45.957 26.7617 46.3125 27.2695C 46.6934 27.752 47.0996 28.2344 47.5312 28.7168C 47.9883 29.1992 48.3945 29.6943 48.75 30.2021C 49.1309 30.6846 49.4482 31.1924 49.7021 31.7256C 49.9561 32.2588 50.083 32.8301 50.083 33.4395C 50.083 33.6934 50.0195 33.9473 49.8926 34.2012C 49.791 34.4297 49.6387 34.6582 49.4355 34.8867C 49.2578 35.0898 49.042 35.2549 48.7881 35.3818C 48.5342 35.5088 48.2803 35.5723 48.0264 35.5723C 47.3154 35.5723 46.6426 35.3564 46.0078 34.9248C 45.373 34.4932 44.8018 33.9473 44.2939 33.2871C 43.8115 32.627 43.418 31.9287 43.1133 31.1924C 42.834 30.4307 42.6943 29.7324 42.6943 29.0977ZM 52.8252 34.1631C 52.8252 32.792 52.9268 31.4463 53.1299 30.126C 53.333 28.7803 53.5615 27.4473 53.8154 26.127C 54.0947 24.7812 54.3359 23.4482 54.5391 22.1279C 54.7422 20.8076 54.8438 19.4746 54.8438 18.1289C 54.8438 18.0527 54.8438 17.9258 54.8438 17.748C 54.8438 17.5703 54.8311 17.3926 54.8057 17.2148C 54.8057 17.0117 54.8057 16.8213 54.8057 16.6436C 54.8057 16.4658 54.8057 16.3516 54.8057 16.3008C 54.8311 16.0215 54.7803 15.8311 54.6533 15.7295C 54.5264 15.6279 54.3613 15.5771 54.1582 15.5771C 54.1328 15.5771 54.082 15.5898 54.0059 15.6152C 53.9297 15.6406 53.8662 15.6533 53.8154 15.6533C 53.7139 15.7803 53.625 15.8691 53.5488 15.9199C 53.4727 15.9707 53.3965 16.0215 53.3203 16.0723C 53.2441 16.123 53.1553 16.1738 53.0537 16.2246C 52.9521 16.2754 52.8379 16.3516 52.7109 16.4531C 52.5332 16.6055 52.3174 16.7197 52.0635 16.7959C 51.835 16.8467 51.6064 16.8721 51.3779 16.8721L 51.3779 15.8057L 53.8154 13.6348C 53.9678 13.4824 54.1328 13.3936 54.3105 13.3682C 54.4883 13.3174 54.666 13.292 54.8438 13.292C 55.2754 13.292 55.6055 13.4824 55.834 13.8633C 56.0625 14.2187 56.2275 14.6504 56.3291 15.1582C 56.4561 15.6406 56.5195 16.1357 56.5195 16.6436C 56.5195 17.126 56.5195 17.4814 56.5195 17.71C 56.5195 17.8115 56.5195 17.9512 56.5195 18.1289C 56.5195 18.3066 56.5195 18.4844 56.5195 18.6621C 56.5195 18.8145 56.5195 18.9541 56.5195 19.0811C 56.5195 19.208 56.5195 19.2842 56.5195 19.3096C 56.4941 19.4111 56.4434 19.665 56.3672 20.0713C 56.3164 20.4521 56.2402 20.9092 56.1387 21.4424C 56.0625 21.9502 55.9736 22.5088 55.8721 23.1182C 55.7705 23.7021 55.6689 24.2607 55.5674 24.7939C 55.4658 25.3018 55.377 25.7588 55.3008 26.165C 55.25 26.5459 55.2119 26.8125 55.1865 26.9648L 55.1865 27.0791L 55.1865 27.2695C 55.2373 27.2441 55.3008 27.1934 55.377 27.1172C 55.4531 27.041 55.4912 26.9902 55.4912 26.9648C 55.542 26.8887 55.6436 26.7236 55.7959 26.4697C 55.9736 26.1904 56.1514 25.8984 56.3291 25.5938C 56.5068 25.2891 56.6719 25.0098 56.8242 24.7559C 57.002 24.502 57.1162 24.3496 57.167 24.2988C 57.2686 24.1719 57.4336 23.9814 57.6621 23.7275C 57.916 23.4736 58.1826 23.207 58.4619 22.9277C 58.7666 22.6484 59.0332 22.3945 59.2617 22.166C 59.5156 21.9121 59.7061 21.7344 59.833 21.6328C 59.8584 21.6328 59.96 21.6328 60.1377 21.6328C 60.3154 21.6074 60.4297 21.5947 60.4805 21.5947C 61.0645 21.5947 61.458 21.874 61.6611 22.4326C 61.8896 22.9658 62.0166 23.6514 62.042 24.4893C 62.0928 25.3018 62.0801 26.1904 62.0039 27.1553C 61.9277 28.0947 61.9023 28.9707 61.9277 29.7832C 61.9531 30.5957 62.0674 31.2813 62.2705 31.8398C 62.4736 32.373 62.8799 32.6396 63.4893 32.6396C 63.7686 32.6396 64.0098 32.5635 64.2129 32.4111C 64.416 32.2588 64.6191 32.0937 64.8223 31.916C 65.0254 31.7383 65.2285 31.5732 65.4316 31.4209C 65.6602 31.2686 65.9268 31.1924 66.2314 31.1924C 66.2314 31.5732 66.1299 31.9541 65.9268 32.335C 65.7236 32.7158 65.4697 33.0586 65.165 33.3633C 64.8604 33.668 64.5049 33.9092 64.0986 34.0869C 63.7178 34.2393 63.3496 34.3154 62.9941 34.3154C 62.2578 34.3154 61.7119 34.0869 61.3564 33.6299C 61.0264 33.1729 60.7979 32.627 60.6709 31.9922C 60.5693 31.3574 60.5186 30.6973 60.5186 30.0117C 60.5186 29.3262 60.5059 28.7422 60.4805 28.2598C 60.4551 27.9551 60.4297 27.5615 60.4043 27.0791C 60.3789 26.5713 60.3408 26.0889 60.29 25.6318C 60.2646 25.1748 60.2393 24.7812 60.2139 24.4512C 60.1885 24.0957 60.1758 23.918 60.1758 23.918L 59.833 23.6133C 59.1475 24.2227 58.5381 24.8701 58.0049 25.5557C 57.4717 26.2158 57.0146 26.9268 56.6338 27.6885C 56.2529 28.4248 55.9102 29.2119 55.6055 30.0498C 55.3262 30.8623 55.0596 31.7129 54.8057 32.6016C 54.7295 32.9062 54.6787 33.1982 54.6533 33.4775C 54.6533 33.7314 54.6279 33.9854 54.5771 34.2393C 54.5264 34.4678 54.4502 34.6963 54.3486 34.9248C 54.2471 35.1279 54.0693 35.3438 53.8154 35.5723C 53.333 35.3438 53.041 35.1406 52.9395 34.9629C 52.8633 34.7852 52.8252 34.5186 52.8252 34.1631ZM 67.6025 30.2402C 67.6025 29.5801 67.6406 28.9326 67.7168 28.2979C 67.793 27.6377 67.8691 26.9902 67.9453 26.3555C 68.0469 25.6953 68.1357 25.0479 68.2119 24.4131C 68.2881 23.7529 68.3262 23.0801 68.3262 22.3945C 68.3262 22.2422 68.2881 22.0771 68.2119 21.8994C 68.1611 21.6963 68.0088 21.5947 67.7549 21.5947C 67.4248 21.5947 67.209 21.6201 67.1074 21.6709C 67.0059 21.7217 66.9297 21.7852 66.8789 21.8613C 66.8535 21.9375 66.79 22.0264 66.6885 22.1279C 66.6123 22.2295 66.4219 22.3311 66.1172 22.4326L 65.9268 22.4326C 65.3936 22.4326 65.127 22.1533 65.127 21.5947C 65.127 21.4424 65.292 21.2012 65.6221 20.8711C 65.9775 20.541 66.3838 20.2363 66.8408 19.957C 67.2979 19.6523 67.7295 19.3984 68.1357 19.1953C 68.542 18.9668 68.8086 18.8906 68.9355 18.9668C 68.9863 18.9668 69.0625 19.0176 69.1641 19.1191C 69.2656 19.1953 69.3672 19.2969 69.4688 19.4238C 69.5703 19.5254 69.6592 19.627 69.7354 19.7285C 69.8369 19.8301 69.9004 19.9062 69.9258 19.957C 69.9258 20.0078 69.9258 20.1094 69.9258 20.2617C 69.9258 20.4141 69.9258 20.5791 69.9258 20.7568C 69.9512 20.9346 69.9639 21.1123 69.9639 21.29C 69.9639 21.4424 69.9639 21.5566 69.9639 21.6328C 69.9639 22.3691 69.9131 23.1055 69.8115 23.8418C 69.71 24.5527 69.583 25.2764 69.4307 26.0127C 69.3037 26.749 69.1895 27.4854 69.0879 28.2217C 68.9863 28.958 68.9355 29.6943 68.9355 30.4307C 68.9355 30.5576 68.9482 30.8115 68.9736 31.1924C 68.999 31.5732 69.0498 31.9668 69.126 32.373C 69.2275 32.7793 69.3672 33.1475 69.5449 33.4775C 69.7227 33.7822 69.9639 33.9346 70.2686 33.9346C 70.8779 33.9346 71.335 33.8584 71.6396 33.7061C 71.9443 33.5283 72.2109 33.3379 72.4395 33.1348C 72.668 32.9316 72.9092 32.7539 73.1631 32.6016C 73.4424 32.4238 73.8232 32.335 74.3057 32.335C 74.3057 33.4014 73.9121 34.2139 73.125 34.7725C 72.3379 35.3311 71.335 35.6104 70.1162 35.6104C 69.4814 35.6104 68.999 35.4072 68.6689 35.001C 68.3389 34.5947 68.085 34.1123 67.9072 33.5537C 67.7549 32.9697 67.666 32.373 67.6406 31.7637C 67.6152 31.1543 67.6025 30.6465 67.6025 30.2402ZM 67.9834 14.3203C 67.9834 14.041 68.0215 13.8252 68.0977 13.6729C 68.1992 13.5205 68.415 13.4443 68.7451 13.4443C 68.9736 13.4443 69.126 13.5332 69.2021 13.7109C 69.3037 13.8633 69.3545 14.0664 69.3545 14.3203C 69.3545 14.5488 69.3037 14.752 69.2021 14.9297C 69.126 15.082 68.9736 15.1582 68.7451 15.1582C 68.415 15.1582 68.1992 15.0947 68.0977 14.9678C 68.0215 14.8154 67.9834 14.5996 67.9834 14.3203ZM 76.4004 32.9062C 76.4512 32.7031 76.5273 32.373 76.6289 31.916C 76.7305 31.4336 76.832 30.9004 76.9336 30.3164C 77.0605 29.7324 77.1748 29.1104 77.2764 28.4502C 77.4033 27.79 77.5176 27.168 77.6191 26.584C 77.7461 26 77.8477 25.4668 77.9238 24.9844C 78 24.502 78.0508 24.1465 78.0762 23.918C 78.1016 23.8164 78.1016 23.6641 78.0762 23.4609C 78.0508 23.2578 78.0254 23.0293 78 22.7754C 77.9746 22.5215 77.9492 22.293 77.9238 22.0898C 77.8984 21.8867 77.8857 21.7344 77.8857 21.6328C 77.8096 21.6328 77.6826 21.6074 77.5049 21.5566C 77.3271 21.5059 77.1367 21.4678 76.9336 21.4424C 76.7559 21.3916 76.5908 21.3535 76.4385 21.3281C 76.2861 21.2773 76.1719 21.252 76.0957 21.252C 75.4863 21.4805 75.0293 21.7725 74.7246 22.1279C 74.4453 22.458 74.1787 22.7881 73.9248 23.1182C 73.6963 23.4482 73.417 23.7402 73.0869 23.9941C 72.7568 24.2227 72.2744 24.3369 71.6396 24.3369C 71.4111 24.3369 71.2461 24.248 71.1445 24.0703C 71.043 23.8926 70.9922 23.6895 70.9922 23.4609L 70.9922 23.3086C 71.5508 22.6738 72.084 22.1279 72.5918 21.6709C 73.0742 21.2139 73.5947 20.833 74.1533 20.5283C 74.7119 20.1982 75.3213 19.957 75.9814 19.8047C 76.6416 19.6523 77.4033 19.5762 78.2666 19.5762C 78.6475 19.5762 78.9268 19.6523 79.1045 19.8047C 79.3076 19.9316 79.46 20.1094 79.5615 20.3379C 79.6631 20.541 79.7139 20.7822 79.7139 21.0615C 79.7393 21.3408 79.752 21.6455 79.752 21.9756C 79.752 22.6611 79.6758 23.3467 79.5234 24.0322C 79.3965 24.6924 79.2441 25.3652 79.0664 26.0508C 78.9141 26.7109 78.7617 27.3838 78.6094 28.0693C 78.457 28.7295 78.3809 29.415 78.3809 30.126L 78.3809 30.2783C 78.457 30.0752 78.6221 29.7451 78.876 29.2881C 79.1299 28.8057 79.3965 28.2979 79.6758 27.7646C 79.9551 27.2314 80.2217 26.7363 80.4756 26.2793C 80.7549 25.7969 80.9453 25.4668 81.0469 25.2891C 81.0723 25.2637 81.1611 25.1621 81.3135 24.9844C 81.4658 24.7812 81.6436 24.5527 81.8467 24.2988C 82.0752 24.0449 82.291 23.8037 82.4941 23.5752C 82.7227 23.3213 82.9131 23.1182 83.0654 22.9658C 83.2178 22.7627 83.3955 22.5469 83.5986 22.3184C 83.8271 22.0898 84.0557 21.874 84.2842 21.6709C 84.5381 21.4678 84.792 21.3027 85.0459 21.1758C 85.3252 21.0234 85.6045 20.9473 85.8838 20.9473C 86.1123 20.9473 86.2773 21.0361 86.3789 21.2139C 86.5059 21.3916 86.5947 21.6074 86.6455 21.8613C 86.6963 22.1152 86.7217 22.3818 86.7217 22.6611C 86.7217 22.915 86.7217 23.1309 86.7217 23.3086C 86.7217 24.0703 86.6328 24.832 86.4551 25.5938C 86.2773 26.3555 86.0869 27.1172 85.8838 27.8789C 85.6807 28.6152 85.4775 29.3643 85.2744 30.126C 85.0967 30.8877 85.0078 31.6494 85.0078 32.4111C 85.0078 32.7412 85.0586 33.0205 85.1602 33.249C 85.2617 33.4775 85.4902 33.5918 85.8457 33.5918C 86.3027 33.5918 86.7217 33.4648 87.1025 33.2109C 87.4834 32.957 87.8389 32.6904 88.1689 32.4111C 88.5244 32.1064 88.8672 31.8271 89.1973 31.5732C 89.5527 31.3193 89.9463 31.1924 90.3779 31.1924L 90.3779 31.916C 90.3779 31.9414 90.3145 32.0176 90.1875 32.1445C 90.0605 32.2715 89.9082 32.4238 89.7305 32.6016C 89.5527 32.7793 89.3623 32.957 89.1592 33.1348C 88.9814 33.3125 88.8291 33.4648 88.7021 33.5918C 88.499 33.7695 88.2705 33.96 88.0166 34.1631C 87.7627 34.3662 87.4961 34.5566 87.2168 34.7344C 86.9629 34.8867 86.6836 35.0264 86.3789 35.1533C 86.0742 35.2549 85.7822 35.3057 85.5029 35.3057C 85.1221 35.3057 84.8047 35.2041 84.5508 35.001C 84.3223 34.7725 84.1445 34.5059 84.0176 34.2012C 83.8906 33.8711 83.8018 33.5283 83.751 33.1729C 83.7002 32.8174 83.6748 32.5 83.6748 32.2207C 83.6748 31.459 83.7383 30.71 83.8652 29.9736C 84.0176 29.2119 84.1699 28.4756 84.3223 27.7646C 84.4746 27.0283 84.6143 26.292 84.7412 25.5557C 84.8682 24.8193 84.9316 24.0703 84.9316 23.3086L 84.7031 23.3086C 84.6777 23.3086 84.5889 23.3848 84.4365 23.5371C 84.2842 23.6895 84.0938 23.8672 83.8652 24.0703C 83.6621 24.2734 83.459 24.4893 83.2559 24.7178C 83.0527 24.9463 82.875 25.1367 82.7227 25.2891C 82.5957 25.4414 82.4561 25.6318 82.3037 25.8604C 82.1514 26.0635 81.999 26.292 81.8467 26.5459C 81.6943 26.7998 81.542 27.0537 81.3896 27.3076C 81.2627 27.5361 81.1484 27.752 81.0469 27.9551C 80.9707 28.1328 80.8438 28.3994 80.666 28.7549C 80.4883 29.1104 80.2852 29.5166 80.0566 29.9736C 79.8535 30.4307 79.625 30.9131 79.3711 31.4209C 79.1426 31.9287 78.9141 32.4111 78.6855 32.8682C 78.4824 33.3252 78.292 33.7314 78.1143 34.0869C 77.9365 34.4424 77.8096 34.709 77.7334 34.8867C 77.708 34.9883 77.6064 35.1279 77.4287 35.3057C 77.251 35.458 77.1367 35.5469 77.0859 35.5723C 77.0352 35.5977 77.0098 35.6104 77.0098 35.6104L 76.8955 35.6104L 76.8193 35.6104C 76.7939 35.6104 76.7686 35.5977 76.7432 35.5723C 76.6924 35.5469 76.6162 35.4961 76.5146 35.4199C 76.4385 35.3438 76.4004 35.293 76.4004 35.2676L 76.4004 32.9062ZM 87.5977 42.0469C 87.5977 41.7676 87.6104 41.4629 87.6357 41.1328C 87.6357 40.8027 87.6738 40.4727 87.75 40.1426C 87.8008 39.8125 87.8896 39.5078 88.0166 39.2285C 88.1436 38.9492 88.3467 38.7207 88.626 38.543C 88.626 38.7461 88.6387 39.1016 88.6641 39.6094C 88.6895 40.1172 88.7148 40.6504 88.7402 41.209C 88.791 41.7676 88.8291 42.3008 88.8545 42.8086C 88.8799 43.3418 88.9053 43.6973 88.9307 43.875C 88.9814 44.4082 89.1084 44.9541 89.3115 45.5127C 89.54 46.0967 89.7813 46.668 90.0352 47.2266C 90.3145 47.8105 90.5938 48.3564 90.873 48.8643C 91.1523 49.3975 91.3936 49.8418 91.5967 50.1973C 91.7744 50.4766 92.0283 50.667 92.3584 50.7686C 92.6885 50.8701 93.0059 50.9209 93.3105 50.9209C 93.8691 50.9209 94.3643 50.6924 94.7959 50.2354C 95.2529 49.8037 95.6465 49.2451 95.9766 48.5596C 96.3066 47.874 96.5986 47.1123 96.8525 46.2744C 97.1064 45.4365 97.3096 44.6113 97.4619 43.7988C 97.6143 43.0117 97.7285 42.2881 97.8047 41.6279C 97.8809 40.9932 97.9189 40.5234 97.9189 40.2188C 97.9189 40.1934 97.9189 40.0537 97.9189 39.7998C 97.9189 39.5459 97.9189 39.2412 97.9189 38.8857C 97.9443 38.5557 97.957 38.2129 97.957 37.8574C 97.957 37.5273 97.957 37.2607 97.957 37.0576C 97.957 35.8643 97.9316 34.6709 97.8809 33.4775C 97.8555 32.2588 97.6523 31.0781 97.2715 29.9355C 97.2461 29.9355 97.208 29.9355 97.1572 29.9355C 97.1318 29.9102 97.1191 29.8975 97.1191 29.8975C 96.9414 29.8975 96.6494 30.0752 96.2432 30.4307C 95.8369 30.7861 95.3545 31.1797 94.7959 31.6113C 94.2373 32.0176 93.6406 32.3984 93.0059 32.7539C 92.3711 33.084 91.7236 33.249 91.0635 33.249C 90.6318 33.249 90.2891 33.1602 90.0352 32.9824C 89.8066 32.8047 89.6289 32.5762 89.502 32.2969C 89.4004 32.0176 89.3369 31.7129 89.3115 31.3828C 89.2861 31.0273 89.2734 30.6846 89.2734 30.3545C 89.2734 29.5674 89.4512 28.7295 89.8066 27.8408C 90.1621 26.9268 90.6318 26.0762 91.2158 25.2891C 91.7998 24.502 92.4854 23.8545 93.2725 23.3467C 94.0596 22.8389 94.8848 22.585 95.748 22.585C 96.0781 22.585 96.3701 22.6484 96.624 22.7754C 96.8779 22.9023 97.1445 22.9658 97.4238 22.9658C 97.5762 22.9658 97.6904 22.9277 97.7666 22.8516C 97.8682 22.7754 97.957 22.6992 98.0332 22.623C 98.1348 22.5215 98.2363 22.4326 98.3379 22.3564C 98.4395 22.2803 98.5664 22.2422 98.7188 22.2422C 99.1758 22.2422 99.4297 22.3437 99.4805 22.5469C 99.5566 22.75 99.5947 23.0674 99.5947 23.499C 99.5947 25.0479 99.5693 26.584 99.5186 28.1074C 99.4678 29.6055 99.417 31.1162 99.3662 32.6396C 99.3154 34.1377 99.2773 35.6484 99.252 37.1719C 99.2266 38.7207 99.2393 40.2949 99.29 41.8945C 99.1885 42.3008 99.0615 42.8467 98.9092 43.5322C 98.7822 44.2178 98.6045 44.9414 98.376 45.7031C 98.1729 46.4648 97.9189 47.2266 97.6143 47.9883C 97.3096 48.75 96.9541 49.4482 96.5479 50.083C 96.167 50.7178 95.71 51.2256 95.1768 51.6064C 94.6689 52.0127 94.0977 52.2158 93.4629 52.2158C 92.8535 52.2158 92.2822 52.0254 91.749 51.6445C 91.2158 51.2891 90.7207 50.8193 90.2637 50.2354C 89.832 49.6514 89.4512 48.9912 89.1211 48.2549C 88.791 47.5186 88.5117 46.7695 88.2832 46.0078C 88.0547 45.2715 87.8896 44.5479 87.7881 43.8369C 87.6611 43.1514 87.5977 42.5547 87.5977 42.0469ZM 90.6064 30.6211C 90.6064 31.0781 90.6572 31.3701 90.7588 31.4971C 90.8857 31.5986 91.1777 31.6494 91.6348 31.6494C 92.168 31.6494 92.752 31.4717 93.3867 31.1162C 94.0469 30.7607 94.6689 30.3164 95.2529 29.7832C 95.8369 29.25 96.3193 28.6787 96.7002 28.0693C 97.1064 27.4346 97.3096 26.8506 97.3096 26.3174C 97.3096 25.6826 97.2207 25.1748 97.043 24.7939C 96.8652 24.4131 96.4336 24.2227 95.748 24.2227C 95.0625 24.2227 94.4023 24.4385 93.7676 24.8701C 93.1328 25.2764 92.5742 25.8096 92.0918 26.4697C 91.6348 27.1045 91.2666 27.8027 90.9873 28.5645C 90.7334 29.3008 90.6064 29.9863 90.6064 30.6211ZM 104.927 34.2773C 104.927 34.2012 104.927 34.0742 104.927 33.8965C 104.927 33.6934 104.914 33.4902 104.889 33.2871C 104.889 33.0586 104.889 32.8555 104.889 32.6777C 104.889 32.4746 104.889 32.3223 104.889 32.2207C 104.889 31.4844 104.952 30.7734 105.079 30.0879C 105.206 29.377 105.346 28.6787 105.498 27.9932C 105.676 27.2822 105.828 26.5713 105.955 25.8604C 106.082 25.1494 106.146 24.4258 106.146 23.6895C 105.841 23.6895 105.473 23.8291 105.041 24.1084C 104.635 24.3877 104.203 24.7051 103.746 25.0605C 103.289 25.416 102.857 25.7842 102.451 26.165C 102.07 26.5205 101.778 26.7871 101.575 26.9648C 101.575 26.9648 101.537 26.9648 101.461 26.9648C 101.385 26.9648 101.321 26.9648 101.271 26.9648C 100.788 26.9648 100.547 26.7363 100.547 26.2793C 100.547 25.9746 100.699 25.6572 101.004 25.3271C 101.334 24.9717 101.728 24.6289 102.185 24.2988C 102.667 23.9434 103.175 23.6133 103.708 23.3086C 104.267 23.0039 104.774 22.7246 105.231 22.4707C 105.714 22.1914 106.107 21.9502 106.412 21.7471C 106.742 21.5439 106.907 21.3789 106.907 21.252C 107.136 20.1855 107.237 19.2969 107.212 18.5859C 107.187 17.875 107.085 17.3037 106.907 16.8721C 106.755 16.4404 106.526 16.1484 106.222 15.9961C 105.942 15.8184 105.638 15.7422 105.308 15.7676C 105.003 15.793 104.686 15.9072 104.355 16.1104C 104.025 16.3135 103.746 16.5674 103.518 16.8721C 103.34 16.6689 103.226 16.5039 103.175 16.377C 103.124 16.2246 103.099 16.0596 103.099 15.8818C 103.683 15.2979 104.254 14.9297 104.812 14.7773C 105.396 14.625 105.942 14.6377 106.45 14.8154C 106.958 14.9678 107.415 15.2471 107.821 15.6533C 108.228 16.0596 108.532 16.542 108.735 17.1006C 108.964 17.6338 109.065 18.2178 109.04 18.8525C 109.04 19.4619 108.888 20.0586 108.583 20.6426C 108.634 20.6172 108.735 20.5664 108.888 20.4902C 109.04 20.4141 109.205 20.3506 109.383 20.2998C 109.561 20.2236 109.726 20.1602 109.878 20.1094C 110.056 20.0332 110.183 19.9824 110.259 19.957L 110.373 19.957L 110.563 19.957C 110.589 19.957 110.614 20.0459 110.64 20.2236C 110.69 20.376 110.741 20.5664 110.792 20.7949C 110.868 20.998 110.932 21.1885 110.982 21.3662C 111.033 21.5186 111.059 21.6074 111.059 21.6328L 108.24 22.9658C 108.215 22.9912 108.126 23.2705 107.974 23.8037C 107.847 24.3115 107.694 24.9209 107.517 25.6318C 107.339 26.3174 107.161 27.041 106.983 27.8027C 106.806 28.5391 106.679 29.1357 106.603 29.5928C 106.552 29.6943 106.501 29.8975 106.45 30.2021C 106.425 30.4814 106.399 30.7861 106.374 31.1162C 106.349 31.4209 106.323 31.7256 106.298 32.0303C 106.272 32.3096 106.26 32.5 106.26 32.6016C 106.26 32.7539 106.272 32.9316 106.298 33.1348C 106.323 33.3379 106.361 33.5283 106.412 33.7061C 106.488 33.8584 106.59 33.998 106.717 34.125C 106.844 34.2266 107.009 34.2773 107.212 34.2773C 107.948 34.2773 108.596 34.1377 109.154 33.8584C 109.738 33.5537 110.246 33.2236 110.678 32.8682C 111.109 32.5127 111.49 32.1826 111.82 31.8779C 112.176 31.5732 112.493 31.4209 112.772 31.4209C 112.823 31.4209 112.887 31.4336 112.963 31.459C 113.064 31.459 113.115 31.4717 113.115 31.4971C 113.039 32.2334 112.823 32.8682 112.468 33.4014C 112.138 33.9092 111.719 34.3281 111.211 34.6582C 110.729 34.9883 110.157 35.2295 109.497 35.3818C 108.837 35.5342 108.126 35.6104 107.364 35.6104C 107.136 35.6104 106.882 35.5977 106.603 35.5723C 106.323 35.5469 106.069 35.4834 105.841 35.3818C 105.612 35.2803 105.409 35.1406 105.231 34.9629C 105.079 34.7852 104.978 34.5566 104.927 34.2773ZM 112.239 34.2773C 112.239 34.2012 112.239 34.0742 112.239 33.8965C 112.239 33.6934 112.227 33.4902 112.201 33.2871C 112.201 33.0586 112.201 32.8555 112.201 32.6777C 112.201 32.4746 112.201 32.3223 112.201 32.2207C 112.201 31.5098 112.252 30.748 112.354 29.9355C 112.455 29.123 112.607 28.3359 112.811 27.5742C 113.014 26.7871 113.28 26.0381 113.61 25.3271C 113.966 24.5908 114.397 23.9561 114.905 23.4229C 115.438 22.8643 116.048 22.4199 116.733 22.0898C 117.419 21.7598 118.206 21.5947 119.095 21.5947C 119.679 21.5947 120.123 21.7725 120.428 22.1279C 120.732 22.458 120.936 22.877 121.037 23.3848C 121.164 23.8926 121.228 24.4258 121.228 24.9844C 121.253 25.543 121.266 26.0381 121.266 26.4697C 121.266 27.46 121.164 28.501 120.961 29.5928C 120.758 30.6592 120.428 31.6367 119.971 32.5254C 119.514 33.4141 118.879 34.1504 118.066 34.7344C 117.279 35.3184 116.289 35.6104 115.096 35.6104C 114.74 35.6104 114.436 35.5977 114.182 35.5723C 113.928 35.5469 113.699 35.4834 113.496 35.3818C 113.293 35.2549 113.09 35.1152 112.887 34.9629C 112.684 34.7852 112.468 34.5566 112.239 34.2773ZM 113.572 33.5918C 113.801 33.8203 114.067 33.9346 114.372 33.9346C 114.677 33.9346 114.969 33.9346 115.248 33.9346C 116.213 33.9346 117 33.6934 117.609 33.2109C 118.219 32.7031 118.688 32.0811 119.019 31.3447C 119.374 30.6084 119.615 29.8086 119.742 28.9453C 119.895 28.0566 119.971 27.2314 119.971 26.4697C 119.971 26.1143 119.971 25.7334 119.971 25.3271C 119.996 24.8955 119.958 24.502 119.856 24.1465C 119.78 23.7656 119.628 23.4609 119.399 23.2324C 119.171 22.9785 118.828 22.8516 118.371 22.8516C 118.371 23.2578 118.32 23.5625 118.219 23.7656C 118.117 23.9688 117.978 24.1084 117.8 24.1846C 117.647 24.2607 117.457 24.3115 117.229 24.3369C 117.025 24.3369 116.797 24.375 116.543 24.4512C 116.314 24.5273 116.086 24.6416 115.857 24.7939C 115.629 24.9463 115.426 25.2129 115.248 25.5938C 114.842 26.7363 114.448 27.8408 114.067 28.9072C 113.712 29.9482 113.534 31.0527 113.534 32.2207C 113.534 32.2969 113.534 32.3984 113.534 32.5254C 113.534 32.627 113.534 32.7539 113.534 32.9062C 113.56 33.0586 113.572 33.1982 113.572 33.3252C 113.572 33.4268 113.572 33.5156 113.572 33.5918ZM 125.188 32.9062C 125.239 32.7031 125.315 32.373 125.417 31.916C 125.519 31.4336 125.62 30.9004 125.722 30.3164C 125.849 29.7324 125.963 29.1104 126.064 28.4502C 126.191 27.79 126.306 27.168 126.407 26.584C 126.534 26 126.636 25.4668 126.712 24.9844C 126.788 24.502 126.839 24.1465 126.864 23.918C 126.89 23.8164 126.89 23.6641 126.864 23.4609C 126.839 23.2578 126.813 23.0293 126.788 22.7754C 126.763 22.5215 126.737 22.293 126.712 22.0898C 126.687 21.8867 126.674 21.7344 126.674 21.6328C 126.598 21.6328 126.471 21.6074 126.293 21.5566C 126.115 21.5059 125.925 21.4678 125.722 21.4424C 125.544 21.3916 125.379 21.3535 125.227 21.3281C 125.074 21.2773 124.96 21.252 124.884 21.252C 124.274 21.4805 123.817 21.7725 123.513 22.1279C 123.233 22.458 122.967 22.7881 122.713 23.1182C 122.484 23.4482 122.205 23.7402 121.875 23.9941C 121.545 24.2227 121.062 24.3369 120.428 24.3369C 120.199 24.3369 120.034 24.248 119.933 24.0703C 119.831 23.8926 119.78 23.6895 119.78 23.4609L 119.78 23.3086C 120.339 22.6738 120.872 22.1279 121.38 21.6709C 121.862 21.2139 122.383 20.833 122.941 20.5283C 123.5 20.1982 124.109 19.957 124.77 19.8047C 125.43 19.6523 126.191 19.5762 127.055 19.5762C 127.436 19.5762 127.715 19.6523 127.893 19.8047C 128.096 19.9316 128.248 20.1094 128.35 20.3379C 128.451 20.541 128.502 20.7822 128.502 21.0615C 128.527 21.3408 128.54 21.6455 128.54 21.9756C 128.54 22.6611 128.464 23.3467 128.312 24.0322C 128.185 24.6924 128.032 25.3652 127.854 26.0508C 127.702 26.7109 127.55 27.3838 127.397 28.0693C 127.245 28.7295 127.169 29.415 127.169 30.126L 127.169 30.2783C 127.245 30.0752 127.41 29.7451 127.664 29.2881C 127.918 28.8057 128.185 28.2979 128.464 27.7646C 128.743 27.2314 129.01 26.7363 129.264 26.2793C 129.543 25.7969 129.733 25.4668 129.835 25.2891C 129.86 25.2637 129.949 25.1621 130.102 24.9844C 130.254 24.7812 130.432 24.5527 130.635 24.2988C 130.863 24.0449 131.079 23.8037 131.282 23.5752C 131.511 23.3213 131.701 23.1182 131.854 22.9658C 132.006 22.7627 132.184 22.5469 132.387 22.3184C 132.615 22.0898 132.844 21.874 133.072 21.6709C 133.326 21.4678 133.58 21.3027 133.834 21.1758C 134.113 21.0234 134.393 20.9473 134.672 20.9473C 134.9 20.9473 135.065 21.0361 135.167 21.2139C 135.294 21.3916 135.383 21.6074 135.434 21.8613C 135.484 22.1152 135.51 22.3818 135.51 22.6611C 135.51 22.915 135.51 23.1309 135.51 23.3086C 135.51 24.0703 135.421 24.832 135.243 25.5938C 135.065 26.3555 134.875 27.1172 134.672 27.8789C 134.469 28.6152 134.266 29.3643 134.062 30.126C 133.885 30.8877 133.796 31.6494 133.796 32.4111C 133.796 32.7412 133.847 33.0205 133.948 33.249C 134.05 33.4775 134.278 33.5918 134.634 33.5918C 135.091 33.5918 135.51 33.4648 135.891 33.2109C 136.271 32.957 136.627 32.6904 136.957 32.4111C 137.313 32.1064 137.655 31.8271 137.985 31.5732C 138.341 31.3193 138.734 31.1924 139.166 31.1924L 139.166 31.916C 139.166 31.9414 139.103 32.0176 138.976 32.1445C 138.849 32.2715 138.696 32.4238 138.519 32.6016C 138.341 32.7793 138.15 32.957 137.947 33.1348C 137.77 33.3125 137.617 33.4648 137.49 33.5918C 137.287 33.7695 137.059 33.96 136.805 34.1631C 136.551 34.3662 136.284 34.5566 136.005 34.7344C 135.751 34.8867 135.472 35.0264 135.167 35.1533C 134.862 35.2549 134.57 35.3057 134.291 35.3057C 133.91 35.3057 133.593 35.2041 133.339 35.001C 133.11 34.7725 132.933 34.5059 132.806 34.2012C 132.679 33.8711 132.59 33.5283 132.539 33.1729C 132.488 32.8174 132.463 32.5 132.463 32.2207C 132.463 31.459 132.526 30.71 132.653 29.9736C 132.806 29.2119 132.958 28.4756 133.11 27.7646C 133.263 27.0283 133.402 26.292 133.529 25.5557C 133.656 24.8193 133.72 24.0703 133.72 23.3086L 133.491 23.3086C 133.466 23.3086 133.377 23.3848 133.225 23.5371C 133.072 23.6895 132.882 23.8672 132.653 24.0703C 132.45 24.2734 132.247 24.4893 132.044 24.7178C 131.841 24.9463 131.663 25.1367 131.511 25.2891C 131.384 25.4414 131.244 25.6318 131.092 25.8604C 130.939 26.0635 130.787 26.292 130.635 26.5459C 130.482 26.7998 130.33 27.0537 130.178 27.3076C 130.051 27.5361 129.937 27.752 129.835 27.9551C 129.759 28.1328 129.632 28.3994 129.454 28.7549C 129.276 29.1104 129.073 29.5166 128.845 29.9736C 128.642 30.4307 128.413 30.9131 128.159 31.4209C 127.931 31.9287 127.702 32.4111 127.474 32.8682C 127.271 33.3252 127.08 33.7314 126.902 34.0869C 126.725 34.4424 126.598 34.709 126.521 34.8867C 126.496 34.9883 126.395 35.1279 126.217 35.3057C 126.039 35.458 125.925 35.5469 125.874 35.5723C 125.823 35.5977 125.798 35.6104 125.798 35.6104L 125.684 35.6104L 125.607 35.6104C 125.582 35.6104 125.557 35.5977 125.531 35.5723C 125.48 35.5469 125.404 35.4961 125.303 35.4199C 125.227 35.3438 125.188 35.293 125.188 35.2676L 125.188 32.9062Z"/>
</defs>
</svg>
